<svg xmlns="http://www.w3.org/2000/svg" width="116.008" height="117.453" viewBox="0 0 116.008 117.453">
  <g id="login_Illustration" data-name="login Illustration" transform="translate(-11741.722 -400.208)">
    <g id="smartphone" transform="translate(11741.722 400.208)">
      <path id="Path_17127" data-name="Path 17127" d="M61.9,137.875,94.77,124.868A58,58,0,1,0,58,138.007c1.309,0,2.605-.047,3.892-.132Zm0,0" transform="translate(-0.001 -22)" fill="#00aeef"/>
      <path id="Path_17130" data-name="Path 17130" d="M130.6,0H89.71a7.2,7.2,0,0,0-7.195,7.2V93.368a7.2,7.2,0,0,0,7.195,7.2H130.6a7.2,7.2,0,0,0,7.2-7.2V7.2A7.2,7.2,0,0,0,130.6,0Zm0,0" transform="translate(-62.98 9.242)" fill="#3d4ec6"/>
      <path id="Path_17131" data-name="Path 17131" d="M96.367,5.336A3.634,3.634,0,0,1,97.885,0H89.707a7.2,7.2,0,0,0-7.2,7.2V93.368a7.2,7.2,0,0,0,7.2,7.195H98.4V11.642a11.331,11.331,0,0,0-2.034-6.306Zm0,0" transform="translate(-62.977 9.242)" fill="#2b3894"/>
      <path id="Path_17132" data-name="Path 17132" d="M100.109,191.977v47.918a3.03,3.03,0,0,0,3.03,3.031h40.89a3.03,3.03,0,0,0,3.03-3.031V191.977Zm0,0" transform="translate(-76.408 -137.284)" fill="#e6f7fe"/>
      <path id="Path_17133" data-name="Path 17133" d="M100.109,191.977v47.918a3.03,3.03,0,0,0,3.03,3.031h7.167V191.977Zm0,0" transform="translate(-76.408 -137.284)" fill="#d5f1fe"/>
      <path id="Path_17142" data-name="Path 17142" d="M143.928,17.6h-6.077a1.037,1.037,0,0,0-1.038,1.037,2.506,2.506,0,0,1-2.5,2.5H112.653a2.507,2.507,0,0,1-2.5-2.5,1.037,1.037,0,0,0-1.038-1.037h-6.077a3.03,3.03,0,0,0-3.031,3.03V59.356h46.951V20.627a3.03,3.03,0,0,0-3.031-3.03Zm0,0" transform="translate(-76.331 -4.189)" fill="#81c341"/>
      <path id="Path_17143" data-name="Path 17143" d="M110.229,19.234a2.461,2.461,0,0,1-.076-.6,1.037,1.037,0,0,0-1.038-1.038h-6.077a3.03,3.03,0,0,0-3.031,3.03V59.355h10.221Zm0,0" transform="translate(-76.331 -4.189)" fill="#9ad95e"/>
      <path id="Path_17144" data-name="Path 17144" d="M216.011,17.6h-6.077a1.037,1.037,0,0,0-1.038,1.037,2.506,2.506,0,0,1-2.5,2.5H194.45L219.041,51.96V20.627a3.03,3.03,0,0,0-3.031-3.03Zm0,0" transform="translate(-148.414 -4.189)" fill="#639137"/>
      <path id="Path_17145" data-name="Path 17145" d="M134.8,65.758h-8.188a1.776,1.776,0,1,1,0-3.551H134.8a1.776,1.776,0,1,1,0,3.551Zm0,0" transform="translate(-95.278 -38.237)" fill="#fff"/>
      <path id="Path_17150" data-name="Path 17150" d="M244.783,392.069a16.819,16.819,0,0,1-.513-2.835,38.909,38.909,0,0,1-43.054,17.439,37.1,37.1,0,0,0,5.821,3.05l.119.05a15.587,15.587,0,0,1,8.318,8.394,57.732,57.732,0,0,0,32.873-13.007Zm0,0" transform="translate(-153.577 -302.291)" fill="#27a3ff"/>
    </g>
    <g id="package" transform="translate(11772.063 460.393)">
      <g id="Group_12982" data-name="Group 12982" transform="translate(0 0)">
        <g id="Group_12975" data-name="Group 12975" transform="translate(0)">
          <g id="Group_12973" data-name="Group 12973" transform="translate(0 1.906)">
            <path id="Path_17164" data-name="Path 17164" d="M234.967,194.074H214.545a1.644,1.644,0,0,1,0-3.289h20.422a1.644,1.644,0,0,1,0,3.289Z" transform="translate(-212.901 -190.785)" fill="#0b9ed8"/>
          </g>
          <g id="Group_12974" data-name="Group 12974" transform="translate(28.184)">
            <path id="Path_17165" data-name="Path 17165" d="M348.96,188.932a1.64,1.64,0,0,1-1.163-.482l-2-2a1.645,1.645,0,1,1,2.326-2.326l.837.837,2.649-2.649a1.645,1.645,0,0,1,2.326,2.326l-3.811,3.811A1.641,1.641,0,0,1,348.96,188.932Z" transform="translate(-345.315 -181.831)" fill="#0b9ed8"/>
          </g>
        </g>
        <g id="Group_12978" data-name="Group 12978" transform="translate(0 9.04)">
          <g id="Group_12976" data-name="Group 12976" transform="translate(0 1.906)">
            <path id="Path_17166" data-name="Path 17166" d="M234.967,236.547H214.545a1.644,1.644,0,0,1,0-3.289h20.422a1.644,1.644,0,0,1,0,3.289Z" transform="translate(-212.901 -233.258)" fill="#0b9ed8"/>
          </g>
          <g id="Group_12977" data-name="Group 12977" transform="translate(28.184)">
            <path id="Path_17167" data-name="Path 17167" d="M348.96,231.4a1.64,1.64,0,0,1-1.163-.482l-2-2a1.645,1.645,0,0,1,2.326-2.326l.837.837,2.649-2.649a1.645,1.645,0,0,1,2.326,2.326l-3.812,3.811A1.639,1.639,0,0,1,348.96,231.4Z" transform="translate(-345.315 -224.303)" fill="#0b9ed8"/>
          </g>
        </g>
        <g id="Group_12981" data-name="Group 12981" transform="translate(0 18.08)">
          <g id="Group_12979" data-name="Group 12979" transform="translate(0 1.906)">
            <path id="Path_17168" data-name="Path 17168" d="M234.967,279.02H214.545a1.644,1.644,0,0,1,0-3.289h20.422a1.644,1.644,0,0,1,0,3.289Z" transform="translate(-212.901 -275.731)" fill="#0b9ed8"/>
          </g>
          <g id="Group_12980" data-name="Group 12980" transform="translate(28.184)">
            <path id="Path_17169" data-name="Path 17169" d="M348.96,273.876a1.639,1.639,0,0,1-1.163-.482l-2-2a1.645,1.645,0,1,1,2.326-2.326l.837.837,2.649-2.649a1.645,1.645,0,0,1,2.326,2.326l-3.811,3.811a1.64,1.64,0,0,1-1.163.482Z" transform="translate(-345.316 -266.776)" fill="#0b9ed8"/>
          </g>
        </g>
      </g>
      <g id="Group_12984" data-name="Group 12984" transform="translate(0 29.026)">
        <g id="Group_12983" data-name="Group 12983" transform="translate(0)">
          <path id="Path_17170" data-name="Path 17170" d="M234.963,321.493H214.541a1.644,1.644,0,0,1,0-3.289h20.422a1.644,1.644,0,0,1,0,3.289Z" transform="translate(-212.897 -318.204)" fill="#0b9ed8"/>
        </g>
      </g>
      <g id="Group_12991" data-name="Group 12991" transform="translate(9.232 26.81)">
        <g id="Group_12988" data-name="Group 12988" transform="translate(11.349)">
          <g id="Group_12985" data-name="Group 12985">
            <path id="Path_17171" data-name="Path 17171" d="M158.242,371.09v26.073a2.193,2.193,0,0,1-2.193,2.193H115.678a2.192,2.192,0,0,1-2.193-2.193V371.09a2.192,2.192,0,0,1,2.193-2.193h16.263v11.812a1.1,1.1,0,0,0,1.1,1.1h5.653a1.1,1.1,0,0,0,1.1-1.1V368.9h16.263A2.194,2.194,0,0,1,158.242,371.09Z" transform="translate(-113.485 -368.897)" fill="#fb9927"/>
            <path id="Path_17172" data-name="Path 17172" d="M205.083,368.9v16.417a2.193,2.193,0,0,1-2.193,2.193h-5.653a2.193,2.193,0,0,1-2.193-2.193V368.9h1.1V380.71a1.1,1.1,0,0,0,1.1,1.1h5.653a1.1,1.1,0,0,0,1.1-1.1V368.9Z" transform="translate(-177.685 -368.898)" fill="#f98824"/>
            <path id="Path_17173" data-name="Path 17173" d="M288.027,371.09v26.073a2.193,2.193,0,0,1-2.193,2.193h-7.47a2.193,2.193,0,0,0,2.193-2.193V371.09a2.193,2.193,0,0,0-2.193-2.193h7.47A2.194,2.194,0,0,1,288.027,371.09Z" transform="translate(-243.271 -368.897)" fill="#f98824"/>
            <path id="Path_17174" data-name="Path 17174" d="M195.044,380.71V368.9h10.038V380.71a2.193,2.193,0,0,1-2.193,2.193h-5.653A2.193,2.193,0,0,1,195.044,380.71Z" transform="translate(-177.685 -368.899)" fill="#fee7c9"/>
          </g>
          <g id="Group_12986" data-name="Group 12986" transform="translate(33.523 17.106)">
            <path id="Path_17175" data-name="Path 17175" d="M275.65,452.553h-3.02a1.644,1.644,0,1,1,0-3.289h3.02a1.644,1.644,0,1,1,0,3.289Z" transform="translate(-270.986 -449.264)" fill="#e8741c"/>
          </g>
          <g id="Group_12987" data-name="Group 12987" transform="translate(24.146 22.433)">
            <path id="Path_17176" data-name="Path 17176" d="M240.972,477.582h-12.4a1.644,1.644,0,0,1,0-3.289h12.4a1.644,1.644,0,1,1,0,3.289Z" transform="translate(-226.931 -474.293)" fill="#e8741c"/>
          </g>
        </g>
        <g id="Group_12990" data-name="Group 12990" transform="translate(0 11.84)">
          <g id="Group_12989" data-name="Group 12989">
            <path id="Path_17177" data-name="Path 17177" d="M84.528,426.72v14.233a2.193,2.193,0,0,1-2.193,2.193H62.356a2.193,2.193,0,0,1-2.193-2.193V426.72a2.193,2.193,0,0,1,2.193-2.193H69.41v5.234a1.1,1.1,0,0,0,1.1,1.1h3.022a1.1,1.1,0,0,0,1.1-1.1v-5.234h7.712a2.194,2.194,0,0,1,2.193,2.193Z" transform="translate(-60.163 -424.527)" fill="#fcc16d"/>
            <path id="Path_17178" data-name="Path 17178" d="M105.862,424.527v9.839a2.193,2.193,0,0,1-2.193,2.193h-3.022a2.193,2.193,0,0,1-2.193-2.193v-9.839h1.1v5.234a1.1,1.1,0,0,0,1.1,1.1h3.022a1.1,1.1,0,0,0,1.1-1.1v-5.234Z" transform="translate(-90.305 -424.527)" fill="#fcb44d"/>
            <path id="Path_17179" data-name="Path 17179" d="M146.2,426.72v14.233a2.193,2.193,0,0,1-2.193,2.193h-5.5a2.193,2.193,0,0,0,2.193-2.193V426.72a2.193,2.193,0,0,0-2.193-2.193h5.5a2.194,2.194,0,0,1,2.193,2.193Z" transform="translate(-121.835 -424.527)" fill="#fcb44d"/>
            <path id="Path_17180" data-name="Path 17180" d="M105.864,429.761v-5.233H98.457v5.233a2.193,2.193,0,0,0,2.193,2.193h3.021A2.193,2.193,0,0,0,105.864,429.761Z" transform="translate(-90.306 -424.528)" fill="#fee7c9"/>
          </g>
        </g>
      </g>
    </g>
  </g>
</svg>
