<svg xmlns="http://www.w3.org/2000/svg" width="16.852" height="16.852" viewBox="0 0 16.852 16.852"><defs><style>.a{fill:#464646;}</style></defs><path class="a" d="M7.681,3A4.682,4.682,0,0,0,3,7.681v7.49a4.682,4.682,0,0,0,4.681,4.681h7.49a4.682,4.682,0,0,0,4.681-4.681V7.681A4.682,4.682,0,0,0,15.171,3Zm9.362,1.872a.936.936,0,1,1-.936.936A.937.937,0,0,1,17.043,4.872ZM11.426,6.745a4.681,4.681,0,1,1-4.681,4.681A4.682,4.682,0,0,1,11.426,6.745Zm0,1.872a2.809,2.809,0,1,0,2.809,2.809,2.809,2.809,0,0,0-2.809-2.809Z" transform="translate(-3 -3)"/></svg>