<svg xmlns="http://www.w3.org/2000/svg" width="38" height="46" viewBox="0 0 38 46">
    <g fill="#425D78" fill-rule="evenodd">
        <path d="M36.029 24.81c-.24 4.038-2.21 8.003-5.853 11.785-2.945 3.058-6.916 5.86-11.208 7.915-4.423-2.078-8.48-4.885-11.45-7.928-3.706-3.797-5.592-7.738-5.605-11.714.005-.069.004-.141.003-.218a47.232 47.232 0 0 0-.011-.532c-.01-.427-.029-1.05-.054-1.855-.042-1.353-.104-3.236-.185-5.596-.105-3.03-.214-6.109-.262-7.447 10.198-.23 15.916-5.406 17.583-7.182 2.025 2.029 4.587 3.747 7.456 4.995A27.427 27.427 0 0 0 36.599 9.27c-.108 3.011-.531 14.88-.57 15.54zM26.984 5.795c-2.95-1.283-5.55-3.086-7.523-5.214L18.922 0l-.49.623c-.234.296-5.85 7.255-17.73 7.255H0l.026.7c.04 1.1.483 13.462.532 15.847l.001.425c.004 2.272.574 4.56 1.695 6.802 1.002 2.003 2.447 3.978 4.294 5.871 3.147 3.224 7.458 6.187 12.138 8.345l.287.132.286-.134c4.548-2.134 8.772-5.095 11.894-8.336 1.81-1.88 3.254-3.85 4.29-5.855 1.15-2.228 1.802-4.51 1.937-6.786.046-.766.591-16.114.596-16.261L38 7.93h-.7c-3.54 0-7.107-.738-10.316-2.134z"/>
        <path d="M27.078 30.394c0 .39-.326.707-.725.707H12.647a.717.717 0 0 1-.725-.707V21.53c0-.39.326-.707.725-.707h13.706c.4 0 .725.317.725.707v8.864zM14.307 16.026c0-2.791 2.33-5.063 5.193-5.063 2.864 0 5.193 2.272 5.193 5.063v3.898H14.307v-3.898zm11.375 3.898v-3.898c0-3.323-2.773-6.026-6.182-6.026-3.409 0-6.182 2.703-6.182 6.026v3.898h-.67c-.909 0-1.648.72-1.648 1.606v8.864c0 .886.739 1.606 1.647 1.606h13.706C27.26 32 28 31.28 28 30.394V21.53c0-.886-.739-1.606-1.647-1.606h-.671z"/>
        <path d="M20 27.089c-.676 0-1.225-.527-1.225-1.174 0-.647.55-1.173 1.225-1.173.676 0 1.225.526 1.225 1.173S20.675 27.09 20 27.09zM20 24c-1.103 0-2 .86-2 1.915 0 .93.695 1.706 1.613 1.879v1.835c0 .205.173.371.387.371a.38.38 0 0 0 .387-.37v-1.836c.918-.173 1.613-.95 1.613-1.879C22 24.86 21.103 24 20 24z"/>
    </g>
</svg>
