<svg xmlns="http://www.w3.org/2000/svg" width="34" height="46" viewBox="0 0 34 46">
    <g fill="#425D78" fill-rule="evenodd">
        <path d="M17.645 2.875c0 .424-.34.767-.759.767a.763.763 0 0 1-.759-.767c0-.424.34-.767.76-.767.418 0 .758.343.758.767M24.563 5.158a.754.754 0 0 1-1.036.281.77.77 0 0 1-.278-1.047.755.755 0 0 1 1.037-.28c.363.211.487.68.277 1.046M29.425 10.63a.755.755 0 0 1-1.037-.28.77.77 0 0 1 .278-1.047.755.755 0 0 1 1.037.28.771.771 0 0 1-.278 1.048M30.926 17.825a.763.763 0 0 1-.759-.767c0-.423.34-.766.76-.766.419 0 .758.343.758.766 0 .424-.34.767-.759.767M28.666 24.814a.77.77 0 0 1-.278-1.047.755.755 0 0 1 1.037-.28c.363.21.487.68.278 1.046a.755.755 0 0 1-1.037.28M23.249 29.725a.77.77 0 0 1 .278-1.047.754.754 0 0 1 1.036.28.771.771 0 0 1-.277 1.047.755.755 0 0 1-1.037-.28M16.127 31.242c0-.424.34-.767.76-.767.418 0 .758.343.758.767 0 .423-.34.766-.759.766a.763.763 0 0 1-.759-.766M9.209 28.958a.754.754 0 0 1 1.037-.28.77.77 0 0 1 .277 1.047.755.755 0 0 1-1.036.28.771.771 0 0 1-.278-1.047M4.347 23.486a.755.755 0 0 1 1.037.28.77.77 0 0 1-.278 1.048.755.755 0 0 1-1.036-.28.771.771 0 0 1 .277-1.048M2.846 16.292c.42 0 .759.343.759.766 0 .424-.34.767-.759.767a.763.763 0 0 1-.759-.767c0-.423.34-.766.759-.766M5.106 9.303a.77.77 0 0 1 .278 1.047.755.755 0 0 1-1.037.28.771.771 0 0 1-.277-1.047.755.755 0 0 1 1.036-.28M10.523 4.392a.77.77 0 0 1-.277 1.047.754.754 0 0 1-1.037-.28.771.771 0 0 1 .278-1.048.755.755 0 0 1 1.036.28M16.886 22.484c.091 0 .182.022.265.066l4.842 2.572-.925-5.447a.579.579 0 0 1 .164-.51l3.918-3.857-5.414-.794a.57.57 0 0 1-.429-.315l-2.42-4.956-2.422 4.956a.57.57 0 0 1-.428.315l-5.414.794 3.917 3.858a.579.579 0 0 1 .164.509l-.925 5.447 4.842-2.572a.567.567 0 0 1 .265-.066zm5.863 4.263a.564.564 0 0 1-.265-.065l-5.598-2.974-5.598 2.974a.565.565 0 0 1-.6-.044.577.577 0 0 1-.226-.562l1.07-6.298-4.53-4.46a.58.58 0 0 1-.144-.59.571.571 0 0 1 .46-.39l6.259-.919 2.799-5.73a.568.568 0 0 1 1.02 0l2.8 5.73 6.259.919a.571.571 0 0 1 .459.39.58.58 0 0 1-.144.59l-4.529 4.46 1.069 6.298a.577.577 0 0 1-.226.562.564.564 0 0 1-.335.11z"/>
        <path d="M16.886 32.967c-8.683 0-15.748-7.137-15.748-15.909 0-8.772 7.065-15.908 15.748-15.908 8.684 0 15.748 7.136 15.748 15.908 0 8.772-7.064 15.909-15.748 15.909zm7.02 11.354l-6.45-4.562v-5.653a16.664 16.664 0 0 0 6.45-1.525v11.74zm-7.589-4.562l-6.45 4.562V32.58c2.006.928 4.19 1.45 6.45 1.525v5.653zm12.51-34.763C25.637 1.774 21.397 0 16.887 0 12.375 0 8.134 1.774 4.945 4.996 1.756 8.218 0 12.502 0 17.058c0 4.557 1.756 8.84 4.946 12.062a16.968 16.968 0 0 0 3.782 2.881v13.424c0 .214.118.41.306.51.188.099.415.084.59-.039l7.262-5.136 7.263 5.136a.564.564 0 0 0 .59.039.576.576 0 0 0 .306-.51V32.001a16.968 16.968 0 0 0 3.782-2.88c3.189-3.222 4.945-7.506 4.945-12.063 0-4.556-1.756-8.84-4.945-12.062z"/>
    </g>
</svg>
