<svg xmlns="http://www.w3.org/2000/svg" width="43" height="36" viewBox="0 0 43 36">
    <g fill="none" fill-rule="evenodd" stroke="#425D78" stroke-linecap="round" stroke-linejoin="round" stroke-width="1.35">
        <path d="M23.503 4.156l1.234-1.226a1.095 1.095 0 0 1 1.54 0L32.7 9.313V4.957c0-.595.487-1.077 1.088-1.077h1.665c.6 0 1.088.482 1.088 1.077v8.171l5.01 4.979c.683.679.197 1.838-.771 1.838h-2.848v13.89c0 .595-.487 1.078-1.087 1.078H14.17c-.6 0-1.088-.483-1.088-1.078v-13.89h-2.847c-.969 0-1.454-1.16-.771-1.838l1.476-1.467L23.503 4.156z"/>
        <path fill="#FFF" d="M15.762 18.592l-4.566-3.998H2.354a1.363 1.363 0 0 1-.958-.393A1.343 1.343 0 0 1 1 13.253V2.34a1.326 1.326 0 0 1 .396-.948A1.35 1.35 0 0 1 2.354 1H20.23a1.356 1.356 0 0 1 1.248.819c.068.16.106.337.106.522v10.912a1.328 1.328 0 0 1-.397.948 1.356 1.356 0 0 1-.957.393h-4.406l-.063 3.998z"/>
    </g>
</svg>
