<?xml version="1.0" encoding="UTF-8"?>
<svg width="32px" height="34px" viewBox="0 0 32 34" version="1.1" xmlns="http://www.w3.org/2000/svg" xmlns:xlink="http://www.w3.org/1999/xlink">
    <!-- Generator: Sketch 46.1 (44463) - http://www.bohemiancoding.com/sketch -->
    <title>Tenant/Buyers Connections</title>
    <desc>Created with Sketch.</desc>
    <defs>
        <polygon id="path-1" points="0.125584276 0.1464 7.52854025 0.1464 7.52854025 4.764384 0.125584276 4.764384 0.125584276 0.1464"></polygon>
    </defs>
    <g id="Green" stroke="none" stroke-width="1" fill="none" fill-rule="evenodd">
        <g id="PYP-Logged-in" transform="translate(-270.000000, -281.000000)">
            <g id="Tenant/Buyers-Connections" transform="translate(270.000000, 281.000000)">
                <path d="M26.7738769,10.1333333 C26.8190628,10.1639725 26.8684235,10.187199 26.9207311,10.2025186 L29.328108,10.9057378 C29.631885,10.9729464 30.2615406,11.3986831 30.2615406,11.3986831 L30.2426313,11.3986831 C31.8167705,12.8221707 31.8408369,16 31.6532172,16 L27.5891877,16 L26.4742748,16 L17.4682833,16 C17.4270267,16 17.3896992,15.9814682 17.3636682,15.950829 C17.3381283,15.9194485 17.3275686,15.8774432 17.3364093,15.8376616 L17.899514,13.0008171 C18.0225473,12.3764197 18.3604592,11.8076177 18.8525926,11.3986831 C19.1649647,11.1394853 19.4824938,10.9724522 19.7933925,10.9032669 L21.3265205,10.4555392 L22.3395196,10.1333333 L24.5563299,12.4453579" id="Fill-1" fill="#ECF1FA"></path>
                <path d="M26.6666667,10.1333333 L24.5333333,12.5333333" id="Fill-3" fill="#ECF1FA"></path>
                <path d="M20.3662259,28.8 C20.2074576,28.8 20.0609023,28.6967475 20.0144931,28.5378789 C19.9583135,28.3453988 20.0704283,28.1444554 20.2648585,28.0888393 C22.4746691,27.4567502 26.428977,25.6327838 28.0845641,20.5187623 C28.1463616,20.3282167 28.3520276,20.2230297 28.5452364,20.2839656 C28.7379567,20.3451433 28.8442093,20.549472 28.7824118,20.7402595 C26.9573091,26.3773142 22.3601116,28.2445644 20.4680819,28.7857333 C20.4341299,28.7954056 20.3999337,28.8 20.3662259,28.8" id="Fill-5" fill="#717695"></path>
                <path d="M5.42969614,14.4 C5.39632724,14.4 5.36247473,14.3953589 5.32862222,14.385344 C5.13638835,14.3291628 5.02540049,14.1261775 5.08101532,13.9317415 C5.62241362,12.0396546 7.49010474,7.44207404 13.1263052,5.61740467 C13.3178137,5.55609383 13.5216541,5.66186114 13.5825886,5.85458726 C13.6437649,6.04731338 13.5385804,6.25347415 13.3477973,6.31527353 C8.23461807,7.97042208 6.4104516,11.925338 5.77789334,14.1352153 C5.73195066,14.2956983 5.58686849,14.4 5.42969614,14.4" id="Fill-7" fill="#717695"></path>
                <path d="M30.2999389,12 C30.2181014,12 30.1355311,11.9725646 30.0673739,11.9162239 C29.8050055,11.6996799 29.5377513,11.5571136 29.2946818,11.5037125 L26.8803548,10.8014142 C26.7916772,10.7756934 26.7081297,10.7364999 26.631911,10.6850585 C26.4166907,10.5395527 26.2764677,10.3083111 26.2461756,10.050369 L26.1357562,9.10139664 C26.1210987,8.97377285 26.1736212,8.84761881 26.275002,8.76874192 C26.879622,8.29793015 27.3315601,7.58313892 27.5475133,6.75566641 C27.5868441,6.60575132 27.7158297,6.49649948 27.8699773,6.48278176 C28.0722501,6.46489973 28.2904019,6.17339816 28.2904019,5.73418615 C28.2904019,5.31359103 28.093992,5.03727695 27.9088195,4.99073468 C27.7124096,4.94149786 27.59344,4.74185603 27.6425424,4.54490876 C27.6918892,4.34820644 27.8904977,4.22817639 28.0871519,4.27790313 C28.6382722,4.41655009 29.0232746,5.01547557 29.0232746,5.73418615 C29.0232746,6.40782421 28.6822445,6.97025076 28.1961056,7.15470511 C27.9422874,7.97531875 27.4852191,8.69451925 26.8869507,9.21530271 L26.9744068,9.96487816 C26.9795369,10.0099507 27.003966,10.050369 27.0413425,10.0755998 C27.0545342,10.0844183 27.0691917,10.0912772 27.0850706,10.0959314 L29.4752128,10.7918607 C29.8125785,10.8653485 30.1763277,11.0547021 30.5329924,11.3488982 C30.6893386,11.4777468 30.7118133,11.7092333 30.583072,11.8660073 C30.5105176,11.9541926 30.4059611,12 30.2999389,12" id="Fill-9" fill="#717695"></path>
                <path d="M17.8085437,16.0679593 L17.806311,16.077991 L17.8085437,16.0679593 Z M18.9904028,16.5333333 L17.5748512,16.5333333 C17.4255063,16.5333333 17.2841,16.4692282 17.186356,16.3569218 C17.082658,16.2304243 17.0449497,16.0723635 17.0786887,15.9253131 L17.644562,13.1298881 C17.7854722,12.4296249 18.1722308,11.7919989 18.7336387,11.3349438 C19.095093,11.0408431 19.4669668,10.8507297 19.8393368,10.7697419 L22.2355534,10.082936 C22.2509345,10.0785318 22.2658193,10.0714362 22.2787196,10.0631172 C22.3171722,10.0374262 22.3417322,9.99705466 22.34719,9.95203425 L22.4347627,9.2035699 C21.828204,8.68289905 21.363796,7.9642852 21.1047991,7.1446201 C20.612606,6.95964493 20.2670288,6.39786849 20.2670288,5.72623246 C20.2670288,5.01642694 20.6359256,4.43556576 21.1849294,4.28093044 C21.3806655,4.22514427 21.5883095,4.33793998 21.6451201,4.53294687 C21.7014345,4.72795376 21.586821,4.93103497 21.3895964,4.98657645 C21.2060163,5.03820312 21.0112725,5.31493185 21.0112725,5.72623246 C21.0112725,6.16444744 21.2323129,6.45561206 21.4369799,6.47420745 C21.5927749,6.48815399 21.7230176,6.59703487 21.7627106,6.74604265 C21.983999,7.57280336 22.4434455,8.28701304 23.0562062,8.75776996 C23.1589118,8.836311 23.2122493,8.96207454 23.1976125,9.08930614 L23.0864721,10.0366922 C23.05571,10.2950702 22.9133114,10.5262892 22.695248,10.6711375 C22.6183428,10.7225194 22.5332509,10.7619123 22.4429493,10.7876033 L20.0231649,11.4805262 C19.7433293,11.5421845 19.4768901,11.68165 19.2074738,11.9008798 C18.7777971,12.2507667 18.4820843,12.7381616 18.374417,13.2732683 L17.8628735,15.7993049 L18.9904028,15.7993049 C19.195814,15.7993049 19.3625246,15.9637273 19.3625246,16.1663191 C19.3625246,16.368911 19.195814,16.5333333 18.9904028,16.5333333 L18.9904028,16.5333333 Z" id="Fill-11" fill="#717695"></path>
                <g id="Group-15" transform="translate(20.800000, 0.000000)">
                    <mask id="mask-2" fill="white">
                        <use xlink:href="#path-1"></use>
                    </mask>
                    <g id="Clip-14"></g>
                    <path d="M0.4894475,4.764384 C0.2965975,4.764384 0.1363725,4.613904 0.1276725,4.420704 C0.123805833,4.338624 0.0503391667,2.394144 1.25118083,1.146864 C1.89038917,0.483024 2.7601475,0.146304 3.83628917,0.146304 C4.91363917,0.146304 5.78243083,0.483264 6.41898083,1.147584 C7.61305583,2.393904 7.53016417,4.334544 7.52581417,4.416624 C7.51566417,4.615344 7.3464975,4.770864 7.14591417,4.758384 C6.94605583,4.748544 6.7918725,4.579584 6.80178083,4.381104 C6.80298917,4.350384 6.86678917,2.656224 5.89118083,1.641024 C5.3969725,1.126944 4.70556417,0.866304 3.83628917,0.866304 C2.96725583,0.866304 2.27488083,1.127184 1.77801417,1.641504 C0.791289167,2.663424 0.8512225,4.371984 0.8519475,4.389024 C0.860164167,4.587504 0.705255833,4.755264 0.505155833,4.764144 C0.500080833,4.764384 0.4945225,4.764384 0.4894475,4.764384" id="Fill-13" fill="#717695" mask="url(#mask-2)"></path>
                </g>
                <path d="M26.1184439,3.73333333 C25.9451539,3.73333333 25.7662818,3.72252529 25.5808566,3.70090919 C24.9248303,3.62422353 24.3877284,3.34733167 23.8683439,3.07918918 C23.7353427,3.01073822 23.6008852,2.94125792 23.4627871,2.8746083 C22.9737405,2.63786061 22.5681837,2.57867369 22.2575238,2.69859154 C22.0347224,2.78428391 21.8480838,2.95258064 21.7580409,3.14841215 C21.669697,3.34012631 21.4517497,3.41964265 21.2711786,3.32623025 C21.0903648,3.23281784 21.0156123,3.00173152 21.1034708,2.81027469 C21.2770035,2.4330224 21.6068369,2.12808108 22.0085105,1.97316575 C22.5048382,1.78170893 23.0963055,1.84861588 23.7651951,2.17208527 C23.9088753,2.24182291 24.0486723,2.31361922 24.187013,2.38515819 C24.6719337,2.63502994 25.1299144,2.87126295 25.6604632,2.93328055 C26.3560502,3.01485557 26.9312564,2.91681115 27.4702999,2.62473656 C27.6501428,2.52772147 27.8688183,2.6033778 27.9600746,2.79329062 C28.0515737,2.98320344 27.9804617,3.21583377 27.8013468,3.31259152 C27.2771082,3.59591674 26.7324826,3.73333333 26.1184439,3.73333333" id="Fill-16" fill="#717695"></path>
                <path d="M24.700349,12.8 C24.6043652,12.8 24.5086257,12.7636345 24.4365769,12.6911412 L22.2357896,10.4707065 C22.0955996,10.3290474 22.0997515,10.1032485 22.2453147,9.9665808 C22.391122,9.82991307 22.6226553,9.83395368 22.7633337,9.97561275 L24.9641211,12.1958098 C25.1043111,12.3377065 25.1004033,12.5632677 24.954596,12.7001731 C24.883524,12.7667244 24.7919365,12.8 24.700349,12.8" id="Fill-18" fill="#717695"></path>
                <path d="M24.6329293,12.8 C24.5413474,12.8 24.4497654,12.7667244 24.3786978,12.7001731 C24.2328994,12.5632677 24.2289919,12.3377065 24.3694175,12.1958098 L26.570315,9.97561275 C26.7107406,9.83395368 26.9427482,9.82991307 27.0880582,9.9665808 C27.2336125,10.1032485 27.2377642,10.3290474 27.0973385,10.4707065 L24.8964411,12.6911412 C24.8246409,12.7636345 24.7289072,12.8 24.6329293,12.8" id="Fill-20" fill="#717695"></path>
                <path d="M27.1542251,10.9333333 L25.0797253,13.0845558 C24.9680004,13.2005221 24.8167115,13.2565562 24.6666667,13.2538763 C24.516373,13.2565562 24.3655818,13.2005221 24.2538569,13.0845558 L22.179357,10.9333333 L21.3333333,11.1852432 L24.6572111,14.6666667 L24.6666667,14.6578961 L24.6763711,14.6666667 L28,11.1852432 L27.1542251,10.9333333 Z" id="Fill-22" fill="#ECF1FA"></path>
                <path d="M31.3055435,16.0704069 C31.3062409,16.0746063 31.3069382,16.0783117 31.307868,16.0825111 L31.3055435,16.0704069 Z M31.5231124,16.5333333 L30.2160722,16.5333333 C30.023375,16.5333333 29.8674042,16.3673319 29.8674042,16.1627945 C29.8674042,15.9582571 30.023375,15.7922557 30.2160722,15.7922557 L31.2530109,15.7922557 L30.773941,13.2422077 C30.6728273,12.701468 30.3957524,12.2096395 29.9931571,11.8563925 C29.844857,11.7259629 29.8239369,11.4925234 29.9464356,11.3346739 C30.0684694,11.1770714 30.2888276,11.154345 30.4373601,11.2847747 C30.9631515,11.746466 31.3255338,12.3902154 31.4577952,13.0974505 L31.9896302,15.928367 C32.0196156,16.0684306 31.983819,16.2287504 31.8920031,16.3480639 C31.7962356,16.4678715 31.6635094,16.5333333 31.5231124,16.5333333 L31.5231124,16.5333333 Z" id="Fill-24" fill="#717695"></path>
                <path d="M9.7071738,27.2 C9.75235968,27.2306392 9.80196592,27.2538657 9.8542735,27.2691853 L12.2616497,27.9726516 C12.565181,28.0396131 13.1950821,28.4653498 13.1950821,28.4653498 L13.1761727,28.4653498 C14.7503114,29.8888374 14.7741323,33.0666667 14.5865126,33.0666667 L10.5227299,33.0666667 L9.40781731,33.0666667 L0.401828454,33.0666667 C0.360571776,33.0666667 0.322998731,33.0481349 0.297213308,33.0174957 C0.27167346,32.9861152 0.260868139,32.9441098 0.269708856,32.9043283 L0.833058962,30.0674837 C0.956092268,29.4430864 1.2940041,28.8742844 1.78589175,28.4653498 C2.09850931,28.2059049 2.41603838,28.0391189 2.72693691,27.9699336 L4.26006451,27.5222058 L5.27306328,27.2 L7.48987296,29.5120246" id="Fill-26" fill="#ECF1FA"></path>
                <path d="M9.6,27.2 L7.46666667,29.6" id="Fill-28" fill="#ECF1FA"></path>
                <path d="M13.2332722,29.0666667 C13.1514348,29.0666667 13.0688644,29.0394757 13.0007073,28.982889 C12.7383388,28.7663408 12.4710846,28.6237717 12.2280151,28.5703696 L9.81368816,27.8680578 C9.72501056,27.8423365 9.64146308,27.8031423 9.56524431,27.7516999 C9.35002403,27.6061912 9.20980105,27.3751902 9.17950898,27.1169981 L9.06908949,26.1682525 C9.05443204,26.0403813 9.10695458,25.9142248 9.20833531,25.8355914 C9.81295529,25.3647706 10.2648935,24.6499656 10.4808466,23.8224772 C10.5201774,23.6723142 10.649163,23.5630603 10.8033106,23.5495873 C11.0055835,23.5314599 11.2237352,23.2401977 11.2237352,22.8007323 C11.2237352,22.3801291 11.0273254,22.1038097 10.8421529,22.0575115 C10.645743,22.0080287 10.5267733,21.8083831 10.5758758,21.611432 C10.6252225,21.4147259 10.823831,21.2946935 11.0204852,21.3446662 C11.5716055,21.4833158 11.956608,22.0820079 11.956608,22.8007323 C11.956608,23.4743833 11.6155779,24.0370656 11.129439,24.2212786 C10.8756207,25.041908 10.4185524,25.7613673 9.82028402,26.2821608 L9.90774016,27.0315057 C9.91287027,27.0765791 9.93729936,27.1169981 9.97467587,27.1422294 C9.98786757,27.1510481 10.002525,27.1579071 10.0184039,27.1628064 L12.4085461,27.8585042 C12.7459119,27.9319934 13.109661,28.1215955 13.4663257,28.4155523 C13.6226719,28.5444034 13.6451467,28.7758944 13.5164054,28.9326714 C13.443851,29.0208584 13.3392945,29.0666667 13.2332722,29.0666667" id="Fill-30" fill="#717695"></path>
                <path d="M0.741877076,33.134626 L0.739644345,33.1446577 L0.741877076,33.134626 Z M1.92373609,33.6 L0.508184551,33.6 C0.358839646,33.6 0.21743334,33.5358948 0.119689333,33.4235885 C0.0159913757,33.2970909 -0.0217169724,33.1390301 0.0120220759,32.9919798 L0.577895378,30.1965548 C0.718805521,29.4965363 1.10556417,28.8586656 1.66697201,28.4016105 C2.02842637,28.1075098 2.40030015,27.9173964 2.77267009,27.8364086 L5.16888676,27.1496027 C5.18426779,27.1451985 5.19915267,27.1381029 5.21205289,27.1297839 C5.25050548,27.1043376 5.27506553,27.0637213 5.28052331,27.0187009 L5.36809599,26.2702366 C4.76153737,25.7495657 4.29712929,25.0309519 4.03813248,24.2112868 C3.5459393,24.0263116 3.20036214,23.4647798 3.20036214,22.7928991 C3.20036214,22.0830936 3.56925894,21.5022324 4.11826272,21.3475971 C4.31399881,21.2918109 4.52164281,21.4046066 4.57845341,21.5996135 C4.63476785,21.7946204 4.52015432,21.9977016 4.32292974,22.0534878 C4.13934962,22.1051145 3.94460585,22.3818432 3.94460585,22.7928991 C3.94460585,23.2311141 4.16564623,23.5225234 4.37031325,23.5408741 C4.52610827,23.5550653 4.65635092,23.6637015 4.69604392,23.8127093 C4.91733238,24.63947 5.37677883,25.3536797 5.98953949,25.8244366 C6.09224512,25.9029777 6.14558259,26.0287412 6.1309458,26.1562175 L6.0198054,27.1036035 C5.98904333,27.3617369 5.8466447,27.5929558 5.62858129,27.7378041 C5.55167611,27.7891861 5.46658424,27.828579 5.37628267,27.8545146 L2.95649828,28.5471928 C2.67666265,28.6088512 2.4102234,28.7483166 2.14080717,28.9677911 C1.71113047,29.3174333 1.41541764,29.8048282 1.30775038,30.339935 L0.796206867,32.8659715 L1.92373609,32.8659715 C2.12914736,32.8659715 2.29585795,33.0303939 2.29585795,33.2329858 C2.29585795,33.4355776 2.12914736,33.6 1.92373609,33.6 L1.92373609,33.6 Z" id="Fill-32" fill="#717695"></path>
                <path d="M4.10032801,22.1333333 C3.90581832,22.1333333 3.7442144,21.9769255 3.73543953,21.7761147 C3.73153958,21.6908014 3.65744066,19.6697225 4.8686169,18.3733084 C5.51332634,17.6830683 6.39056991,17.3333333 7.47597298,17.3333333 C8.56259478,17.3333333 9.43886337,17.6833177 10.0808916,18.3740568 C11.2852429,19.669473 11.2016379,21.6865606 11.1972505,21.771874 C11.1870131,21.9784222 11.0163906,22.1400686 10.814081,22.127097 C10.6125027,22.1168693 10.4569924,21.9410041 10.466986,21.7347053 C10.4682047,21.7027752 10.5325538,19.9421266 9.54854928,18.8866854 C9.05008773,18.3526037 8.35272906,18.0816963 7.47597298,18.0816963 C6.59946064,18.0816963 5.90112698,18.3528531 5.39998423,18.8874337 C4.40476736,19.9493608 4.46521648,21.7252261 4.46594772,21.7431868 C4.4742351,21.9494855 4.31799361,22.1238541 4.11617153,22.1328344 C4.11105285,22.1330839 4.10544668,22.1333333 4.10032801,22.1333333" id="Fill-34" fill="#717695"></path>
                <path d="M9.05177721,20.8 C8.87848724,20.8 8.69961509,20.7891919 8.51418996,20.7675756 C7.85816362,20.6908894 7.32106178,20.4139956 6.80167726,20.1461086 C6.66867599,20.0773998 6.5342185,20.0081763 6.39612047,19.9412689 C5.90707382,19.7045196 5.50151703,19.6453322 5.19085713,19.7652509 C4.96805573,19.8509439 4.78141709,20.0194991 4.69137426,20.215332 C4.60303035,20.4070475 4.38508301,20.4863071 4.20451195,20.392894 C4.02369818,20.2997383 3.94894564,20.068393 4.03680414,19.8769349 C4.21033682,19.4996799 4.54017026,19.1947365 4.9418438,19.03982 C5.43817154,18.8483619 6.02963886,18.9152693 6.69852846,19.2389983 C6.84220867,19.3084791 6.98200562,19.3802759 7.12034636,19.4518154 C7.60526705,19.7016889 8.0632477,19.9379236 8.59379656,20.0001989 C9.2893835,20.0817745 9.86458972,19.9834721 10.4036332,19.6913954 C10.5834761,19.5943797 10.8021516,19.6700365 10.8934079,19.860208 C10.984907,20.0501222 10.913795,20.2824968 10.7346801,20.3792552 C10.2104416,20.6628398 9.66581592,20.8 9.05177721,20.8" id="Fill-36" fill="#717695"></path>
                <path d="M7.63368232,29.8666667 C7.53769858,29.8666667 7.44195908,29.8303019 7.36991022,29.7575724 L5.16912289,27.5371827 C5.02893291,27.3957642 5.03308488,27.1697322 5.178648,27.0330673 C5.32445535,26.89664 5.55598863,26.9006805 5.69666708,27.0420991 L7.89745441,29.2624887 C8.03764439,29.4043826 8.03373665,29.6299392 7.8879293,29.7666041 C7.81685738,29.8333917 7.72526985,29.8666667 7.63368232,29.8666667" id="Fill-38" fill="#717695"></path>
                <path d="M7.56626265,29.8666667 C7.4746807,29.8666667 7.38309875,29.8333917 7.31203116,29.7666041 C7.16623269,29.6299392 7.1623252,29.4043826 7.30275086,29.2624887 L9.50364829,27.0420991 C9.64407394,26.9006805 9.87608155,26.89664 10.0213916,27.0330673 C10.1669458,27.1697322 10.1710975,27.3957642 10.0306719,27.5371827 L7.82977445,29.7575724 C7.7579742,29.8303019 7.66224054,29.8666667 7.56626265,29.8666667" id="Fill-40" fill="#717695"></path>
                <path d="M10.0875269,28 L8.01319846,30.1511192 C7.90122056,30.2673367 7.75017481,30.3231308 7.60012442,30.3204507 C7.44982519,30.3231308 7.29902828,30.2673367 7.18705038,30.1511192 L5.11272193,28 L4.26666667,28.2516827 L7.59066851,31.7333333 L7.60012442,31.7245622 L7.60982917,31.7333333 L10.9333333,28.2516827 L10.0875269,28 Z" id="Fill-42" fill="#ECF1FA"></path>
                <path d="M14.2388769,33.1370697 C14.2395742,33.1412692 14.2402715,33.1449746 14.2412013,33.1491741 L14.2388769,33.1370697 Z M14.4564457,33.6 L13.1494055,33.6 C12.9567083,33.6 12.8007375,33.4339972 12.8007375,33.2294581 C12.8007375,33.024919 12.9567083,32.8589163 13.1494055,32.8589163 L14.1863442,32.8589163 L13.7072743,30.3090942 C13.6061606,29.7681031 13.3290858,29.2762705 12.9264904,28.9230206 C12.7781903,28.7925899 12.7572702,28.5591485 12.8797689,28.4012977 C13.0018027,28.2436939 13.2221609,28.2209673 13.3706935,28.3516451 C13.8964849,28.8130932 14.2588672,29.4570949 14.3911286,30.1643358 L14.9229635,32.9950287 C14.952949,33.1350935 14.9171524,33.2954146 14.8253365,33.4147291 C14.729569,33.5345376 14.5968427,33.6 14.4564457,33.6 L14.4564457,33.6 Z" id="Fill-44" fill="#717695"></path>
            </g>
        </g>
    </g>
</svg>