<?xml version="1.0" encoding="UTF-8"?>
<svg width="28px" height="28px" viewBox="0 0 28 28" version="1.1" xmlns="http://www.w3.org/2000/svg" xmlns:xlink="http://www.w3.org/1999/xlink">
    <!-- Generator: Sketch 46.1 (44463) - http://www.bohemiancoding.com/sketch -->
    <title>Faster Tenant</title>
    <desc>Created with Sketch.</desc>
    <defs>
        <polygon id="path-1" points="4.7008066e-16 19.7287525 4.7008066e-16 0.185240978 17.6936034 0.185240978 17.6936034 19.7287525"></polygon>
    </defs>
    <g id="Green" stroke="none" stroke-width="1" fill="none" fill-rule="evenodd">
        <g id="PYP-Logged-in" transform="translate(-272.000000, -241.000000)">
            <g id="Faster-Tenant" transform="translate(272.000000, 241.000000)">
                <path d="M15.6871424,16.2071119 C15.7604644,16.2564678 15.8406678,16.2941966 15.9258542,16.3188746 L19.8358881,17.4542983 C20.3289729,17.5625017 21.351922,18.2496881 21.351922,18.2496881 L21.3210746,18.2496881 C21.6193458,19.4470441 17.3306,22.2233153 17.025922,22.2233153 L17.0116847,25.6772814 L15.2007017,25.6772814 L0.573786441,25.6772814 C0.506633898,25.6772814 0.445888136,25.6473831 0.403650847,25.5977898 C0.362362712,25.5472475 0.34480339,25.4791458 0.359277966,25.4153153 L1.27402373,20.8361288 C1.47405763,19.8281288 2.0226678,18.9098237 2.82161695,18.2496881 C3.32917627,17.8311119 3.84480339,17.5615525 4.35022712,17.4500271 L6.84009153,16.7272475 L8.48521017,16.2071119 L12.0855831,19.9394169" id="Fill-1" fill="#ECF1FA"></path>
                <path d="M15.6857661,16.2072305 L12.0856305,19.9395356" id="Fill-3" fill="#ECF1FA"></path>
                <path d="M21.3531085,18.6057153 C21.2736169,18.6057153 21.1934136,18.579139 21.1272102,18.5248 C20.6618881,18.1418169 20.202261,17.8988339 19.7611424,17.8020203 L15.8280915,16.6606644 C15.7068373,16.6255458 15.5931763,16.5721559 15.4892441,16.5019186 C15.1973797,16.3054441 15.0061254,15.9912746 14.9648373,15.6410373 L14.784261,14.0934441 C14.7700237,13.9695797 14.821278,13.8473763 14.9197525,13.7709695 C15.9502949,12.9708339 16.7202949,11.7585288 17.0871424,10.3573424 C17.1253458,10.2118847 17.2506339,10.1062915 17.4001254,10.0930034 C17.9102949,10.0479186 18.3098881,9.40510508 18.3098881,8.62964746 C18.3098881,7.90781695 17.9698542,7.29846102 17.5016847,7.18100339 C17.3109051,7.13307119 17.1953458,6.93968136 17.2430407,6.74913898 C17.2907356,6.55835932 17.4834136,6.44303729 17.6749051,6.49049492 C18.467922,6.68957966 19.0217525,7.56896949 19.0217525,8.62964746 C19.0217525,9.67656271 18.4755153,10.5395797 17.7154814,10.7555119 C17.3085322,12.1445966 16.5354475,13.3566644 15.5143966,14.2061559 L15.6721932,15.5582237 C15.6888034,15.7020203 15.7673458,15.8311051 15.8874136,15.9117831 C15.9301254,15.9409695 15.9768712,15.9625627 16.0267017,15.9770373 L19.9364983,17.112461 C20.4658881,17.2277831 21.0263627,17.5198847 21.5794814,17.9747661 C21.7313458,18.0998169 21.7531763,18.3240542 21.6281254,18.4759186 C21.5578881,18.5613424 21.4560915,18.6057153 21.3531085,18.6057153" id="Fill-5" fill="#717695"></path>
                <g id="Group-9" transform="translate(0.000000, 6.304271)">
                    <mask id="mask-2" fill="white">
                        <use xlink:href="#path-1"></use>
                    </mask>
                    <g id="Clip-8"></g>
                    <path d="M0.710891525,19.1746847 L0.709705085,19.1806169 C0.710179661,19.1787186 0.710654237,19.1768203 0.710891525,19.1746847 M17.3376712,19.7287525 L0.575162712,19.7287525 C0.405738983,19.7287525 0.244857627,19.6542441 0.134044068,19.5244475 C0.0182474576,19.3823119 -0.0249389831,19.2005492 0.0137389831,19.0316 L0.926349153,14.4621424 C1.14228136,13.3734644 1.73550169,12.3820746 2.59662034,11.670922 C3.14831525,11.2155661 3.71306102,10.9220407 4.27495932,10.7981763 L8.1494,9.67271864 C8.19875593,9.65848136 8.24502712,9.63665085 8.28750169,9.60817627 C8.40804407,9.52678644 8.48658644,9.39793898 8.50295932,9.25437966 L8.65909492,7.90183729 C7.6394678,7.05187119 6.86590847,5.83980339 6.45729831,4.45048136 C5.69916271,4.23336271 5.15482373,3.37034576 5.15482373,2.32532881 C5.15482373,1.29217627 5.68990847,0.417769492 6.45634915,0.198989831 C6.64451864,0.145125424 6.84217966,0.254277966 6.89628136,0.44339661 C6.95038305,0.632515254 6.84099322,0.829464407 6.65187458,0.883566102 C6.19675593,1.01336271 5.86668814,1.61987119 5.86668814,2.32532881 C5.86668814,3.09936271 6.26485763,3.74217627 6.7733661,3.78892203 C6.92238305,3.80244746 7.04695932,3.90780339 7.08492542,4.05254915 C7.45462034,5.45373559 8.22485763,6.66627797 9.25373898,7.46712542 C9.35197627,7.54329492 9.40299322,7.66526102 9.38875593,7.78865085 L9.21007797,9.33600678 C9.16950169,9.68671864 8.97848475,10.0008881 8.6854339,10.1980746 C8.58221356,10.2680746 8.46807797,10.3214644 8.34753559,10.3563458 L4.45078983,11.4874983 C3.97763729,11.5926169 3.51373898,11.837261 3.04984068,12.2200068 C2.31495932,12.8269898 1.80882373,13.6724475 1.62468814,14.6011932 L0.742450847,19.0168881 L17.3376712,19.0168881 C17.5341458,19.0168881 17.6936034,19.1763458 17.6936034,19.3728203 C17.6936034,19.5695322 17.5341458,19.7287525 17.3376712,19.7287525" id="Fill-7" fill="#717695" mask="url(#mask-2)"></path>
                </g>
                <path d="M6.55387458,7.20129153 C6.36451864,7.20129153 6.20719661,7.05251186 6.19865424,6.86149492 C6.19272203,6.72885085 6.07478983,3.59261356 7.98923051,1.59037627 C8.99817966,0.535155932 10.3768237,7.11864407e-05 12.0869593,7.11864407e-05 C13.7987559,7.11864407e-05 15.1759763,0.53539322 16.1801797,1.59108814 C18.0834678,3.59118983 17.9503492,6.72125763 17.9437051,6.85342712 C17.9339763,7.04942712 17.7702475,7.19702034 17.5709254,7.19108814 C17.3746881,7.18159661 17.2232983,7.01454576 17.2327898,6.81830847 C17.2342136,6.78888475 17.3545186,3.85457966 15.6619424,2.07871525 C14.7972644,1.1718 13.5946881,0.711935593 12.0869593,0.711935593 C10.5804169,0.711935593 9.37594237,1.17203729 8.50651864,2.07942712 C6.80255254,3.85837627 6.90838305,6.80027458 6.90980678,6.82993559 C6.91811186,7.02617288 6.76601017,7.19227458 6.56953559,7.20105424 C6.56431525,7.20129153 6.55885763,7.20129153 6.55387458,7.20129153" id="Fill-10" fill="#717695"></path>
                <path d="M14.6835322,4.98876949 C14.4078034,4.98876949 14.1230576,4.97239661 13.8276339,4.93988814 C12.7897356,4.82551525 11.9250576,4.40504068 11.0888542,3.99832881 C10.8677017,3.89107458 10.6444136,3.78239661 10.4149559,3.67775254 C9.54980339,3.28290508 8.82061695,3.18870169 8.24685424,3.39704068 C7.82234576,3.55151525 7.46404068,3.85832881 7.28868475,4.21758305 C7.20231186,4.39436271 6.98875254,4.46744746 6.81268475,4.38154915 C6.63614237,4.29541356 6.56282034,4.08209153 6.64919322,3.90554915 C6.90736271,3.37639661 7.40092203,2.94737966 8.0036339,2.72812542 C8.75939661,2.45358305 9.66939661,2.55490508 10.7106169,3.02995593 C10.9452949,3.13721017 11.1738034,3.24826102 11.399939,3.35812542 C12.2176339,3.75582034 12.9900068,4.13144746 13.9054644,4.23229492 C15.0980746,4.36375254 16.0894644,4.20358305 17.0217695,3.72829492 C17.1973627,3.63907458 17.4111593,3.70836271 17.5006169,3.88348136 C17.5900746,4.05883729 17.5205492,4.27310847 17.3454305,4.36232881 C16.5180068,4.78422712 15.6568881,4.98876949 14.6835322,4.98876949" id="Fill-12" fill="#717695"></path>
                <path d="M12.0870542,20.2954678 C11.9938,20.2954678 11.9007831,20.2591627 11.8310203,20.1867898 L8.23064746,16.4544847 C8.09420678,16.3128237 8.09800339,16.0876373 8.23966441,15.9509593 C8.38132542,15.8147559 8.60651186,15.8187898 8.74271525,15.9599763 L12.3430881,19.6922814 C12.4795288,19.8339424 12.4757322,20.0591288 12.3340712,20.1958068 C12.2650203,20.2622475 12.1760373,20.2954678 12.0870542,20.2954678" id="Fill-14" fill="#717695"></path>
                <path d="M12.0870542,20.2954678 C11.9980712,20.2954678 11.9090881,20.2622475 11.8400373,20.1958068 C11.6983763,20.0591288 11.6945797,19.8339424 11.8307831,19.6922814 L15.4309186,15.9599763 C15.5678339,15.8187898 15.7930203,15.8147559 15.9342068,15.9509593 C16.0758678,16.0876373 16.0796644,16.3128237 15.943461,16.4544847 L12.3433254,20.1867898 C12.2733254,20.2591627 12.1803085,20.2954678 12.0870542,20.2954678" id="Fill-16" fill="#717695"></path>
                <path d="M27.5629153,23.5434678 C27.4872203,23.5434678 27.4105763,23.5192644 27.3457966,23.4694339 L23.1704746,20.2522814 L18.9953898,23.4694339 C18.8390169,23.5895017 18.6162034,23.5603153 18.4958983,23.4048915 C18.3760678,23.2489932 18.4050169,23.0254678 18.560678,22.9056373 L22.9531186,19.5209593 C23.0814915,19.4222475 23.2594576,19.4222475 23.3878305,19.5209593 L27.7805085,22.9056373 C27.9359322,23.0254678 27.9648814,23.2489932 27.8450508,23.4048915 C27.7750508,23.4957729 27.6694576,23.5434678 27.5629153,23.5434678" id="Fill-18" fill="#717695"></path>
                <path d="M26.6913797,27.8974915 L19.6496169,27.8974915 C19.4531424,27.8974915 19.2936847,27.7382712 19.2936847,27.5415593 L19.2936847,22.7042034 C19.2936847,22.5074915 19.4531424,22.3482712 19.6496169,22.3482712 C19.8460915,22.3482712 20.0055492,22.5074915 20.0055492,22.7042034 L20.0055492,27.1856271 L26.3354475,27.1856271 L26.3354475,22.7042034 C26.3354475,22.5074915 26.4949051,22.3482712 26.6913797,22.3482712 C26.8878542,22.3482712 27.0473119,22.5074915 27.0473119,22.7042034 L27.0473119,27.5415593 C27.0473119,27.7382712 26.8878542,27.8974915 26.6913797,27.8974915" id="Fill-20" fill="#717695"></path>
                <path d="M24.1245627,27.8974915 C23.9280881,27.8974915 23.7686305,27.7382712 23.7686305,27.5415593 L23.7686305,24.5415254 C23.7686305,24.1452542 23.4461559,23.8230169 23.0498847,23.8230169 C22.6536136,23.8230169 22.331139,24.1452542 22.331139,24.5415254 L22.331139,27.5415593 C22.331139,27.7382712 22.1719186,27.8974915 21.9752068,27.8974915 C21.7787322,27.8974915 21.6192746,27.7382712 21.6192746,27.5415593 L21.6192746,24.5415254 C21.6192746,23.7527797 22.2609017,23.1111525 23.0498847,23.1111525 C23.8386305,23.1111525 24.4804949,23.7527797 24.4804949,24.5415254 L24.4804949,27.5415593 C24.4804949,27.7382712 24.3210373,27.8974915 24.1245627,27.8974915" id="Fill-22" fill="#717695"></path>
            </g>
        </g>
    </g>
</svg>