<svg xmlns="http://www.w3.org/2000/svg" width="18.725" height="14.981" viewBox="0 0 18.725 14.981"><defs><style>.a{fill:#464646;}</style></defs><path class="a" d="M20.725,4a12.319,12.319,0,0,1-3.057,1.195c-.025.007-.046.015-.07.022a4.211,4.211,0,0,0-7.172,3c0,.123-.01.348,0,.468A9.255,9.255,0,0,1,3.184,4.935a5.7,5.7,0,0,0-.268,1.9,4.156,4.156,0,0,0,2.621,3.4,3.837,3.837,0,0,1-.955.13,2.514,2.514,0,0,1-1.647-.578v.048c0,1.833,1.945,3.081,3.676,3.428a3.355,3.355,0,0,1-1.4.228c-.243,0-1.1-.111-1.335-.154.481,1.5,2.217,2.347,3.871,2.377C6.45,16.73,5.552,17.106,2.9,17.106H2A11.349,11.349,0,0,0,7.942,18.98a10.458,10.458,0,0,0,10.91-10.3c0-.081,0-.249,0-.418,0-.017,0-.033,0-.05s-.007-.05-.007-.075c0-.127-.006-.246-.008-.308a7.693,7.693,0,0,0,1.888-1.958,7.555,7.555,0,0,1-2.172.6A5.671,5.671,0,0,0,20.725,4Z" transform="translate(-2 -3.999)"/></svg>