<?xml version="1.0" encoding="UTF-8"?>
<svg width="30px" height="29px" viewBox="0 0 30 29" version="1.1" xmlns="http://www.w3.org/2000/svg" xmlns:xlink="http://www.w3.org/1999/xlink">
    <!-- Generator: Sketch 46.1 (44463) - http://www.bohemiancoding.com/sketch -->
    <title>Zero Brokerage</title>
    <desc>Created with Sketch.</desc>
    <defs>
        <polygon id="path-1" points="9.59115108 5.18691367 9.59115108 0.119719424 0.0912733813 0.119719424 0.0912733813 5.18691367 9.59115108 5.18691367"></polygon>
        <polygon id="path-3" points="9.48958273 9.49640288 8.63309352e-05 9.49640288 8.63309353e-05 0.00673381295 9.48958273 0.00673381295"></polygon>
        <polygon id="path-5" points="0.119492131 0.100143885 19.1232975 0.100143885 19.1232975 28.3846619 0.119492131 28.3846619"></polygon>
    </defs>
    <g id="Green" stroke="none" stroke-width="1" fill="none" fill-rule="evenodd">
        <g id="PYP-Logged-in" transform="translate(-271.000000, -200.000000)">
            <g id="Zero-Brokerage" transform="translate(271.000000, 200.000000)">
                <path d="M21.2634173,11.5663381 L25.898741,11.5663381 L25.898741,6.4147554 C25.898741,5.14029496 24.8653597,4.10691367 23.5906835,4.10691367 L7.36866906,4.10691367 C6.09420863,4.10691367 5.06082734,5.14029496 5.06082734,6.4147554 L5.06082734,17.1916619 C8.43485612,17.446554 11.1402518,20.0947554 11.4795324,23.4441799 L23.5906835,23.4441799 C24.8653597,23.4441799 25.898741,22.4110144 25.898741,21.1363381 L25.898741,16.0076331 L21.2603957,15.9888561 C20.9131295,15.9871295 20.6327698,15.7054748 20.6327698,15.3582086 L20.6327698,12.1969856 C20.6327698,11.8488561 20.9150719,11.5663381 21.2634173,11.5663381" id="Fill-1" fill="#ECF1FA"></path>
                <g id="Group-5" transform="translate(20.287770, 11.122878)">
                    <mask id="mask-2" fill="white">
                        <use xlink:href="#path-1"></use>
                    </mask>
                    <g id="Clip-4"></g>
                    <path d="M1.17041007,0.767201439 C0.932352518,0.767201439 0.738755396,0.960798561 0.738755396,1.19885612 L0.738755396,4.10777698 C0.738755396,4.34583453 0.932352518,4.53943165 1.17041007,4.53943165 L8.51220863,4.53943165 C8.75005036,4.53943165 8.94386331,4.34583453 8.94386331,4.10777698 L8.94386331,1.19885612 C8.94386331,0.960798561 8.75005036,0.767201439 8.51220863,0.767201439 L1.17041007,0.767201439 Z M8.51220863,5.18691367 L1.17041007,5.18691367 C0.575374101,5.18691367 0.0912733813,4.70259712 0.0912733813,4.10777698 L0.0912733813,1.19885612 C0.0912733813,0.603820144 0.575374101,0.119719424 1.17041007,0.119719424 L8.51220863,0.119719424 C9.10702878,0.119719424 9.59134532,0.603820144 9.59134532,1.19885612 L9.59134532,4.10777698 C9.59134532,4.70259712 9.10702878,5.18691367 8.51220863,5.18691367 L8.51220863,5.18691367 Z" id="Fill-3" fill="#717695" mask="url(#mask-2)"></path>
                </g>
                <path d="M26.1488417,23.7691079 L11.7479784,23.7691079 C11.5692734,23.7691079 11.4242374,23.6242878 11.4242374,23.4453669 C11.4242374,23.266446 11.5692734,23.1216259 11.7479784,23.1216259 L26.1488417,23.1216259 C27.2217194,23.1216259 28.0945252,22.2488201 28.0945252,21.1761583 L28.0945252,15.9859424 C28.0945252,15.8070216 28.2395612,15.6622014 28.4182662,15.6622014 C28.5969712,15.6622014 28.7420072,15.8070216 28.7420072,15.9859424 L28.7420072,21.1761583 C28.7420072,22.6057986 27.5786978,23.7691079 26.1488417,23.7691079" id="Fill-6" fill="#717695"></path>
                <path d="M5.12801439,17.1504388 C4.94930935,17.1504388 4.80427338,17.0056187 4.80427338,16.8266978 L4.80427338,6.37633813 C4.80427338,4.94648201 5.96758273,3.78317266 7.39743885,3.78317266 L26.1487338,3.78317266 C27.5785899,3.78317266 28.7418993,4.94648201 28.7418993,6.37633813 L28.7418993,11.5663381 C28.7418993,11.745259 28.5968633,11.8900791 28.4181583,11.8900791 C28.2394532,11.8900791 28.0944173,11.745259 28.0944173,11.5663381 L28.0944173,6.37633813 C28.0944173,5.30346043 27.2216115,4.43065468 26.1487338,4.43065468 L7.39743885,4.43065468 C6.32456115,4.43065468 5.4517554,5.30346043 5.4517554,6.37633813 L5.4517554,16.8266978 C5.4517554,17.0056187 5.30671942,17.1504388 5.12801439,17.1504388" id="Fill-8" fill="#717695"></path>
                <path d="M23.699482,23.7691079 C23.520777,23.7691079 23.375741,23.6242878 23.375741,23.4453669 C23.375741,23.266446 23.520777,23.1216259 23.699482,23.1216259 C24.7723597,23.1216259 25.6451655,22.2488201 25.6451655,21.1761583 L25.6451655,15.9859424 C25.6451655,15.8070216 25.7902014,15.6622014 25.9689065,15.6622014 C26.1476115,15.6622014 26.2926475,15.8070216 26.2926475,15.9859424 L26.2926475,21.1761583 C26.2926475,22.6057986 25.1293381,23.7691079 23.699482,23.7691079" id="Fill-10" fill="#717695"></path>
                <path d="M25.9688417,11.8900791 C25.7901367,11.8900791 25.6451007,11.745259 25.6451007,11.5663381 L25.6451007,6.37633813 C25.6451007,5.30346043 24.772295,4.43065468 23.6994173,4.43065468 C23.5207122,4.43065468 23.3756763,4.28583453 23.3756763,4.10691367 C23.3756763,3.92799281 23.5207122,3.78317266 23.6994173,3.78317266 C25.1292734,3.78317266 26.2925827,4.94648201 26.2925827,6.37633813 L26.2925827,11.5663381 C26.2925827,11.745259 26.1475468,11.8900791 25.9688417,11.8900791" id="Fill-12" fill="#717695"></path>
                <path d="M23.0770791,13.1152662 C22.7127626,13.1152662 22.416,13.4118129 22.416,13.7761295 C22.416,14.140446 22.7127626,14.4372086 23.0770791,14.4372086 C23.4413957,14.4372086 23.7379424,14.140446 23.7379424,13.7761295 C23.7379424,13.4118129 23.4413957,13.1152662 23.0770791,13.1152662 M23.0770791,15.0846906 C22.3555683,15.0846906 21.7687338,14.4976403 21.7687338,13.7761295 C21.7687338,13.0546187 22.3555683,12.4677842 23.0770791,12.4677842 C23.7985899,12.4677842 24.3854245,13.0546187 24.3854245,13.7761295 C24.3854245,14.4976403 23.7985899,15.0846906 23.0770791,15.0846906" id="Fill-14" fill="#717695"></path>
                <path d="M6.999,7.24653237 C6.82029496,7.24653237 6.67525899,7.10171223 6.67525899,6.92279137 L6.67525899,6.21142446 C6.67525899,6.0325036 6.82029496,5.88768345 6.999,5.88768345 C7.17770504,5.88768345 7.32274101,6.0325036 7.32274101,6.21142446 L7.32274101,6.92279137 C7.32274101,7.10171223 7.17770504,7.24653237 6.999,7.24653237" id="Fill-16" fill="#717695"></path>
                <path d="M6.999,9.64948921 C6.82029496,9.64948921 6.67525899,9.50466906 6.67525899,9.3257482 L6.67525899,8.61438129 C6.67525899,8.43546043 6.82029496,8.29064029 6.999,8.29064029 C7.17770504,8.29064029 7.32274101,8.43546043 7.32274101,8.61438129 L7.32274101,9.3257482 C7.32274101,9.50466906 7.17770504,9.64948921 6.999,9.64948921" id="Fill-18" fill="#717695"></path>
                <path d="M6.999,12.0525755 C6.82029496,12.0525755 6.67525899,11.9077554 6.67525899,11.7288345 L6.67525899,11.0174676 C6.67525899,10.8385468 6.82029496,10.6937266 6.999,10.6937266 C7.17770504,10.6937266 7.32274101,10.8385468 7.32274101,11.0174676 L7.32274101,11.7288345 C7.32274101,11.9077554 7.17770504,12.0525755 6.999,12.0525755" id="Fill-20" fill="#717695"></path>
                <path d="M6.999,14.455554 C6.82029496,14.455554 6.67525899,14.3107338 6.67525899,14.1318129 L6.67525899,13.420446 C6.67525899,13.2415252 6.82029496,13.096705 6.999,13.096705 C7.17770504,13.096705 7.32274101,13.2415252 7.32274101,13.420446 L7.32274101,14.1318129 C7.32274101,14.3107338 7.17770504,14.455554 6.999,14.455554" id="Fill-22" fill="#717695"></path>
                <path d="M3.28146043,23.6529928 C3.04793525,23.6529928 2.93117266,23.4462302 2.93117266,23.032705 C2.93117266,22.6191799 3.04793525,22.4124173 3.28146043,22.4124173 C3.51692806,22.4124173 3.63455396,22.6191799 3.63455396,23.032705 C3.63455396,23.4462302 3.51692806,23.6529928 3.28146043,23.6529928 M4.28009353,22.516446 C4.22570504,22.3640719 4.15038129,22.2354388 4.05455396,22.1305468 C3.95872662,22.0256547 3.8441223,21.9449353 3.71182014,21.8888201 C3.57930216,21.8322734 3.43577698,21.8042158 3.28146043,21.8042158 C3.12498561,21.8042158 2.9812446,21.8318417 2.84980576,21.8870935 C2.71815108,21.9425612 2.60484173,22.0232806 2.5098777,22.129036 C2.41491367,22.2350072 2.34066906,22.3640719 2.28735971,22.516446 C2.23383453,22.6686043 2.20707194,22.8408345 2.20707194,23.032705 C2.20707194,23.2226331 2.23361871,23.3937842 2.28584892,23.5461583 C2.33829496,23.6985324 2.41146043,23.8275971 2.50534532,23.9335683 C2.59944604,24.0393237 2.71210791,24.1204748 2.84397842,24.1768058 C2.97541727,24.2331367 3.12110072,24.2614101 3.28146043,24.2614101 C3.43966187,24.2614101 3.5851295,24.2331367 3.71764748,24.1768058 C3.85038129,24.1204748 3.96390647,24.0388921 4.05908633,23.9318417 C4.15405036,23.825223 4.22829496,23.6961583 4.28160432,23.5446475 C4.3351295,23.3933525 4.36167626,23.2226331 4.36167626,23.032705 C4.36167626,22.8408345 4.33448201,22.6686043 4.28009353,22.516446" id="Fill-24" fill="#717695"></path>
                <polygon id="Fill-26" fill="#717695" points="6.30157554 21.8752446 3.89747482 26.2766115 3.17661151 26.2766115 5.58308633 21.8752446"></polygon>
                <path d="M6.2052518,25.7392878 C5.97172662,25.7392878 5.85496403,25.5305827 5.85496403,25.1131727 C5.85496403,24.7015899 5.97172662,24.4959065 6.2052518,24.4959065 C6.44071942,24.4959065 6.55834532,24.7015899 6.55834532,25.1131727 C6.55834532,25.5305827 6.44071942,25.7392878 6.2052518,25.7392878 M7.2023741,24.6042518 C7.14884892,24.4529568 7.07482014,24.3236763 6.97985612,24.2168417 C6.88489209,24.1100072 6.77093525,24.0279928 6.63863309,23.9705827 C6.50611511,23.9133885 6.36172662,23.8844676 6.2052518,23.8844676 C6.04705036,23.8844676 5.90201439,23.912741 5.77035971,23.9690719 C5.63892086,24.0256187 5.52561151,24.1067698 5.43064748,24.2125252 C5.33568345,24.3182806 5.2618705,24.4469137 5.20964029,24.5982086 C5.15719424,24.7497194 5.13086331,24.9213022 5.13086331,25.1131727 C5.13086331,25.3072014 5.15719424,25.4800791 5.20964029,25.6324532 C5.2618705,25.7848273 5.3352518,25.9141079 5.42913669,26.0198633 C5.52302158,26.1256187 5.63568345,26.2067698 5.76755396,26.2631007 C5.89899281,26.3194317 6.04489209,26.347705 6.2052518,26.347705 C6.36172662,26.347705 6.50611511,26.319 6.63863309,26.2615899 C6.77093525,26.2041799 6.88489209,26.1221655 6.97985612,26.0153309 C7.07482014,25.9084964 7.14884892,25.779 7.2023741,25.6266259 C7.25568345,25.4742518 7.28244604,25.3031007 7.28244604,25.1131727 C7.28244604,24.9251871 7.25568345,24.7555468 7.2023741,24.6042518" id="Fill-28" fill="#717695"></path>
                <g id="Group-32" transform="translate(0.000000, 19.324317)">
                    <mask id="mask-4" fill="white">
                        <use xlink:href="#path-3"></use>
                    </mask>
                    <g id="Clip-31"></g>
                    <path d="M4.74483453,0.654215827 C2.48555396,0.654215827 0.647568345,2.49220144 0.647568345,4.75148201 C0.647568345,7.01097842 2.48555396,8.84896403 4.74483453,8.84896403 C7.00411511,8.84896403 8.84210072,7.01097842 8.84210072,4.75148201 C8.84210072,2.49220144 7.00411511,0.654215827 4.74483453,0.654215827 M4.74483453,9.49644604 C2.12857554,9.49644604 8.63309353e-05,7.36774101 8.63309353e-05,4.75148201 C8.63309353e-05,2.13522302 2.12857554,0.00673381295 4.74483453,0.00673381295 C7.36109353,0.00673381295 9.48958273,2.13522302 9.48958273,4.75148201 C9.48958273,7.36774101 7.36109353,9.49644604 4.74483453,9.49644604" id="Fill-30" fill="#717695" mask="url(#mask-4)"></path>
                </g>
                <path d="M16.306554,11.944554 L17.5393597,11.944554 C17.8382806,11.944554 18.0806547,12.1869281 18.0806547,12.4858489 C18.0806547,12.7849856 17.8382806,13.0271439 17.5393597,13.0271439 L16.3072014,13.0271439 C16.0680647,13.9562806 15.2306547,14.648223 14.2305108,14.6600935 C14.7450432,15.1670719 15.4812302,15.9112446 16.5541079,17.0044101 C16.7636763,17.2176475 16.7606547,17.5603813 16.5472014,17.7697338 C16.4418777,17.8731151 16.3048273,17.9246978 16.1679928,17.9246978 C16.0279209,17.9246978 15.8878489,17.870741 15.7816619,17.7628273 C14.4221655,16.378295 12.8654029,14.8226115 12.5805108,14.588223 C12.4184245,14.494554 12.3092158,14.3197338 12.3092158,14.1190144 C12.3092158,13.8198777 12.5518058,13.5777194 12.8505108,13.5777194 L14.2041799,13.5777194 C14.6090719,13.5777194 14.9621655,13.3556331 15.1507986,13.0271439 L12.8654029,13.0271439 C12.566482,13.0271439 12.3241079,12.7849856 12.3241079,12.4858489 C12.3241079,12.1869281 12.566482,11.944554 12.8654029,11.944554 L15.1495036,11.944554 C14.9610863,11.6171439 14.6082086,11.3959209 14.2041799,11.3959209 L12.8654029,11.3959209 L12.8505108,11.3959209 C12.5518058,11.3959209 12.3092158,11.1535468 12.3092158,10.8546259 C12.3092158,10.5554892 12.5518058,10.3133309 12.8505108,10.3133309 L12.8654029,10.3133309 L14.2041799,10.3133309 L17.5393597,10.3133309 C17.8382806,10.3133309 18.0806547,10.5554892 18.0806547,10.8546259 C18.0806547,11.1535468 17.8382806,11.3959209 17.5393597,11.3959209 L16.0810144,11.3959209 C16.1800791,11.565777 16.2562662,11.7496619 16.306554,11.944554" id="Fill-33" fill="#717498"></path>
                <g id="Group-37" transform="translate(7.338129, 0.115683)">
                    <mask id="mask-6" fill="white">
                        <use xlink:href="#path-5"></use>
                    </mask>
                    <g id="Clip-36"></g>
                    <path d="M18.7997482,28.3846619 C18.6950719,28.3846619 18.5921223,28.3339424 18.529964,28.2400576 L0.173633094,0.603151079 C0.0745683453,0.454014388 0.115359712,0.253294964 0.264064748,0.154230216 C0.413201439,0.0551654676 0.613920863,0.0959568345 0.712769784,0.244877698 L19.0691007,27.8817842 C19.1681655,28.030705 19.1275899,28.2316403 18.9786691,28.330705 C18.9234173,28.3671799 18.861259,28.3846619 18.7997482,28.3846619" id="Fill-35" fill="#717695" mask="url(#mask-6)"></path>
                </g>
            </g>
        </g>
    </g>
</svg>