<svg xmlns="http://www.w3.org/2000/svg" viewBox="0 0 192 64"><defs><style>.a{fill:#fff;}</style></defs><circle class="a" cx="128.805" cy="19.149" r="8.847" transform="translate(-0.954 30.105) rotate(-13.282)"></circle><circle class="a" cx="116.305" cy="28.129" r="3.413"></circle><circle class="a" cx="38.673" cy="50.251" r="3.413"></circle><circle class="a" cx="144.406" cy="22.865" r="5.315" transform="translate(68.02 147.529) rotate(-67.5)"></circle><path class="a" d="M153.363,24.8a3.378,3.378,0,1,0,3.377,3.378A3.378,3.378,0,0,0,153.363,24.8Z"></path><path class="a" d="M130.412,34.474a1.794,1.794,0,0,1,1.775-2c3.383.051,7.162-.136,10.141.181,4.494.507,6.905,3.8,8.153,7.849.725,3.554.146,7.25-2.6,10.021a10.366,10.366,0,0,1-7.622,3.1c-2.542-.012-5.084.029-7.626.074a2.061,2.061,0,0,1-2.246-2.06C130.338,48.672,130.422,37.289,130.412,34.474Zm4.4,1.581c-.561-.019-.729.2-.727.745q.024,6.263,0,12.526c0,.546.175.707.731.735,1.625.081,3.624.151,5.081.14a6.23,6.23,0,0,0,3.311-.863,7.518,7.518,0,0,0,3.969-7.041,6.186,6.186,0,0,0-5.4-6.138C140.405,35.993,135.75,36.088,134.813,36.055Z"></path><path class="a" d="M82.36,42.1c0-5.671,5.588-10.317,11.271-9.842a10.479,10.479,0,0,1,9.312,10.8c-.034,5.343-4.992,10.448-10.575,10.22C87.246,53.271,82.36,48.87,82.36,42.1Zm16.931.489a7.021,7.021,0,0,0-6.509-6.79,6.885,6.885,0,0,0-6.644,6.743A6.733,6.733,0,0,0,92.4,49.646C95.419,49.854,99.291,47.008,99.291,42.584Z"></path><path class="a" d="M106.506,34.287a1.782,1.782,0,0,1,1.756-2,1.763,1.763,0,0,1,1.8,1.953c.006,1.53-.007,8.067-.037,9.806a6.039,6.039,0,0,0,1.5,3.5,6.489,6.489,0,0,0,9.578.3c1.832-1.81,2.256-3.975,2.223-6.378-.031-2.179-.007-4.359,0-6.538a8.563,8.563,0,0,1,.026-.907,1.776,1.776,0,0,1,3.549.059c.04.937.007,1.876.017,2.815q.03,3.086.073,6.172c.059,3.743-1.87,6.436-4.673,8.583-4.683,3.586-11.507,1.726-14.484-3.044a9.639,9.639,0,0,1-1.363-5.519C106.418,41.662,106.5,34.72,106.506,34.287Z"></path><path class="a" d="M45.231,42.959a10.4,10.4,0,0,1,9.395-10.468,9.273,9.273,0,0,1,8.449,3.678,1.793,1.793,0,0,1-.109,2.405,1.846,1.846,0,0,1-2.406.233,10.611,10.611,0,0,1-.954-.838c-2.472-2.226-5.481-2.462-7.949-.623a7.019,7.019,0,0,0-2.25,8.442c1.717,3.541,5.111,5.057,8.377,3.633a8.27,8.27,0,0,0,2.232-1.659c1.008-.955,2.153-1.125,2.95-.3s.6,2-.382,2.95a9.743,9.743,0,0,1-10.251,2.636A10.691,10.691,0,0,1,45.231,42.959Z"></path><path class="a" d="M66.836,34.76a1.907,1.907,0,1,1,3.783.07c-.012,3.146.1,11.008.107,11.975.013,1.844.743,2.822,2.605,2.908,1.63.075,2.9.029,4.536.037.272,0,.545-.008.817.008a1.786,1.786,0,0,1,1.871,1.8,1.753,1.753,0,0,1-1.874,1.79c-1.573.036-3.147-.013-4.719.023a8.093,8.093,0,0,1-4.154-.642,5.558,5.558,0,0,1-3.043-5.362C66.761,45.345,66.827,36.938,66.836,34.76Z"></path></svg>
