<svg xmlns="http://www.w3.org/2000/svg" viewBox="0 0 41.8692 20"><defs><style>.a{fill:#767676;}</style></defs><title>img-logo-tld-bar-gray_com</title><path class="a" d="M16.0737,11.1316A5.0346,5.0346,0,0,1,6.1414,9.9833,4.9206,4.9206,0,0,1,11.0905,5,4.9607,4.9607,0,0,1,16.057,8.9358H13.2188A2.1,2.1,0,0,0,11.192,7.6181,2.0136,2.0136,0,0,0,9.57,8.277,2.58,2.58,0,0,0,8.9625,10a2.2158,2.2158,0,0,0,2.23,2.3817,2.1533,2.1533,0,0,0,2.0268-1.25Z"></path><path class="a" d="M16.6336,9.9833a4.8925,4.8925,0,0,1,5.0507-4.9661A4.8964,4.8964,0,0,1,26.7349,10a4.8965,4.8965,0,0,1-5.0506,4.9826A4.8962,4.8962,0,0,1,16.6336,10Zm2.8039.0337A2.2492,2.2492,0,1,0,23.9307,10a2.25,2.25,0,1,0-4.4932,0Z"></path><path class="a" d="M27.4775,5.321h2.6183v.9967a2.2123,2.2123,0,0,1,.5741-.6588A3.113,3.113,0,0,1,32.7139,5a2.8621,2.8621,0,0,1,2.1455.8955,3.1608,3.1608,0,0,1,.5574.7768,3.8352,3.8352,0,0,1,.6755-.8105A3.3236,3.3236,0,0,1,38.39,5a3.398,3.398,0,0,1,2.4665.9458c.8783.9293,1.0131,1.5537,1.0131,3.6318v5.1183H39.0653V9.7129A3.3236,3.3236,0,0,0,38.88,8.3955a1.1833,1.1833,0,0,0-1.25-.76,1.3279,1.3279,0,0,0-1.3511.7767,2.68,2.68,0,0,0-.2031,1.1656v5.1183H33.2718V9.5945a3.2169,3.2169,0,0,0-.1689-1.1657A1.2116,1.2116,0,0,0,31.87,7.6353a1.3637,1.3637,0,0,0-1.3853.8277,3.0792,3.0792,0,0,0-.2026,1.25v4.983H27.4775Z"></path><path class="a" d="M4.2938,10.0628A2.1469,2.1469,0,1,1,2.147,7.9154,2.147,2.147,0,0,1,4.2938,10.0628Z"></path></svg>