<?xml version="1.0" encoding="utf-8"?>
<!-- Generator: Adobe Illustrator 24.2.3, SVG Export Plug-In . SVG Version: 6.00 Build 0)  -->
<svg version="1.1" id="_x23_Layer_1" xmlns="http://www.w3.org/2000/svg" xmlns:xlink="http://www.w3.org/1999/xlink" x="0px"
	 y="0px" width="595.3px" height="122.1px" viewBox="0 0 595.3 122.1" style="enable-background:new 0 0 595.3 122.1;"
	 xml:space="preserve">
<path d="M118.3,5.6c-14.2-8.9-33-6.8-49.8,3.7C51.9-1.2,33.1-3.3,18.9,5.6C-3.6,19.7-6.4,55.9,12.7,86.5
	c14.1,22.6,36.2,35.8,55.8,35.6c19.7,0.2,41.7-13,55.8-35.6C143.5,55.9,140.8,19.7,118.3,5.6L118.3,5.6z M23.2,80.1L23.2,80.1
	c-4-6.2-6.9-13.1-8.8-20.3c-1.7-6.2-2.4-12.6-1.9-19c0.9-11.3,5.5-20.1,13-24.8c7.5-4.7,17.5-5,28-0.8c1.6,0.6,3.2,1.4,4.7,2.2
	c-5.9,5.4-11,11.5-15.2,18.2C31.3,54.1,27.8,74.8,31.9,91.3C28.5,87.9,25.7,84.1,23.2,80.1L23.2,80.1z M122.9,59.8L122.9,59.8
	c-1.9,7.2-4.9,13.9-8.8,20.3c-2.5,4-5.4,7.8-8.6,11.3c3.6-14.8,1.1-32.9-7.8-49.9c-0.3-0.6-0.8-1-1.4-1.1c-0.6-0.1-1.3-0.1-1.8,0.3
	L66.8,58c-0.5,0.3-0.9,0.9-1,1.4c-0.1,0.6,0,1.2,0.3,1.7l4.1,6.5c0.3,0.5,0.8,0.9,1.4,1c0.6,0.1,1.2,0,1.7-0.3l18-11.2
	c0.6,1.7,1.1,3.5,1.6,5.2c1.7,6.2,2.4,12.6,1.9,19c-0.9,11.3-5.5,20.1-13,24.9c-3.9,2.4-8.3,3.7-12.9,3.7c-0.1,0-0.2,0-0.3,0h-0.3
	c-4.5-0.1-9-1.4-12.9-3.7c-7.5-4.7-12.1-13.5-13-24.9c-0.4-6.4,0.2-12.9,1.9-19C48.3,48,56.3,35.2,67.5,25.3
	c4.8-4.2,10.3-7.6,16.3-10.1c10.6-4.2,20.5-3.9,28,0.8c7.5,4.7,12.1,13.5,13,24.8C125.2,47.2,124.6,53.6,122.9,59.8L122.9,59.8z
	 M266,46.3L266,46.3c-14.6,0-26.4,11.3-26.4,25.9c0,14.4,11.8,25.6,26.4,25.6c14.7,0,26.4-11.2,26.4-25.6
	C292.5,57.7,280.7,46.3,266,46.3L266,46.3z M266,84.2L266,84.2c-6.8,0-11.9-5.5-11.9-12.1c0-6.7,5.1-12.2,11.9-12.2
	c6.8,0,11.9,5.5,11.9,12.3C277.9,78.9,272.8,84.2,266,84.2L266,84.2z M325.3,26.4L325.3,26.4h-26.8c-0.6,0-1.1,0.2-1.6,0.6
	c-0.4,0.4-0.6,1-0.6,1.6V94c-0.1,0.6,0.1,1.2,0.6,1.7c0.4,0.4,1,0.7,1.6,0.7h26.8c21.5,0,36.3-14.3,36.3-35
	C361.7,40.4,346.8,26.4,325.3,26.4L325.3,26.4z M326,82.5L326,82.5h-14.7V40.2H326c11.8,0,20,8.9,20,21
	C346,73.2,337.8,82.5,326,82.5L326,82.5z M415.1,47.7L415.1,47.7H405c-1.1,0.1-2.1,1-2.1,2.2v3c-2.3-3.8-7.5-6.6-13.9-6.6
	c-12.6,0-24.3,9.9-24.3,25.6c0,15.7,11.7,25.8,24.3,25.8c6.5,0,11.8-2.8,14.1-6.6v3.1c0,1.1,0.9,2.1,2.1,2.1h10.1
	c0.6,0,1.1-0.2,1.5-0.6c0.4-0.4,0.6-0.9,0.6-1.5V49.9c0-0.6-0.2-1.1-0.6-1.6C416.2,47.9,415.7,47.7,415.1,47.7L415.1,47.7z
	 M391.6,84.3L391.6,84.3c-6.7,0-11.7-5.1-11.7-12.3c0-7.2,5-12.2,11.7-12.2c6.7,0,11.7,5.1,11.7,12.2
	C403.3,79.1,398.3,84.3,391.6,84.3L391.6,84.3z M471.7,26.4L471.7,26.4h-10.1c-0.6,0-1.1,0.2-1.5,0.6c-0.4,0.4-0.6,0.9-0.6,1.5v24.1
	c-2.3-3.6-7.6-6.4-14.1-6.4c-12.5,0-24.1,9.9-24.1,25.6c0,15.7,11.7,25.8,24.3,25.8c6.5,0,11.3-2.8,14.1-6.6v3.1
	c0,1.1,0.9,2.1,2.1,2.1h10.1c0.6,0,1.1-0.2,1.5-0.6c0.4-0.4,0.6-0.9,0.6-1.5V28.5c0-0.6-0.2-1.1-0.6-1.5
	C472.8,26.6,472.2,26.4,471.7,26.4L471.7,26.4z M448.2,84.5L448.2,84.5c-6.7,0-11.6-5.2-11.6-12.4c0-7.2,5-12.4,11.6-12.4
	c6.6,0,11.6,5.2,11.6,12.4C459.8,79.3,454.9,84.5,448.2,84.5L448.2,84.5z M528.3,26.4L528.3,26.4h-10.1c-0.6,0-1.1,0.2-1.5,0.6
	c-0.4,0.4-0.6,0.9-0.6,1.5v24.1c-2.3-3.6-7.6-6.4-14.1-6.4c-12.5,0-24.1,9.9-24.1,25.6c0,15.7,11.7,25.8,24.3,25.8
	c6.5,0,11.3-2.8,14.1-6.6v3.1c0,1.1,0.9,2.1,2.1,2.1h10.1c0.6,0,1.1-0.2,1.5-0.6c0.4-0.4,0.6-0.9,0.6-1.5V28.5
	c0-0.6-0.2-1.1-0.6-1.5C529.5,26.6,528.8,26.4,528.3,26.4L528.3,26.4z M504.8,84.5L504.8,84.5c-6.7,0-11.6-5.2-11.6-12.4
	c0-7.2,5-12.4,11.6-12.4c6.6,0,11.6,5.2,11.6,12.4C516.4,79.3,511.5,84.5,504.8,84.5L504.8,84.5z M583.5,51.1L583.5,51.1l-15.1,51.6
	c-2.9,9.2-9.4,14.7-19.5,14.7c-4.6,0-8.8-0.9-12.1-2.8c-1.9-1.1-3.5-2.1-3.5-3.7c0-1,0.3-1.5,0.9-2.4l3-4.5c0.9-1.2,1.4-1.7,2.4-1.7
	c0.7,0,1.4,0.3,2,0.7c1.9,1.2,3.6,2.2,6.2,2.2c3.1,0,5.5-1,6.8-4.7l1.3-4.3h-6.1c-1.5,0-2.3-0.9-2.7-2.1l-13.4-43.1
	c-0.5-1.7-0.1-3.4,2.4-3.4h10.6c1.3,0,2.2,0.4,2.8,2.3l9.9,34.7l9.3-34.8c0.3-1.2,1.1-2.3,2.7-2.3h10.1
	C583.6,47.7,584.1,49.1,583.5,51.1L583.5,51.1z M235.8,66.4L235.8,66.4V94c0,0.6-0.2,1.2-0.6,1.7c-0.4,0.4-1,0.6-1.7,0.6h-8.3
	c-0.6,0-1.2-0.2-1.7-0.6c-0.4-0.4-0.6-1-0.6-1.7v-7.3c-5.3,6.7-14.4,10.8-24.8,10.8c-19.5,0-34.8-14.7-34.8-35.6
	c0-21.7,16.4-36.7,37.3-36.7c15.4,0,27.7,6.6,33.1,19.9c0.1,0.4,0.2,0.7,0.2,1.1c0,0.6-0.4,1.1-1.7,1.6l-9.7,3.8
	c-0.6,0.2-1.2,0.3-1.9,0c-0.5-0.3-0.9-0.8-1.1-1.4c-3.5-6.6-9.7-11.1-19.2-11.1c-12.4,0-21.3,9.7-21.3,22.2
	c0,12.1,7.5,22.2,21.6,22.2c7.4,0,13.3-3.5,16-7.3h-8.8c-0.6,0-1.2-0.2-1.7-0.6c-0.4-0.4-0.6-1-0.6-1.7v-7.4c0-0.6,0.2-1.2,0.6-1.7
	c0.4-0.4,1-0.6,1.7-0.6h25.7c0.6,0,1.1,0.2,1.6,0.6C235.6,65.3,235.8,65.8,235.8,66.4L235.8,66.4z M583.7,37.5L583.7,37.5v-0.6
	c0-0.1,0-0.1,0.1-0.1c0,0,0.1-0.1,0.1-0.1h4.2c0.1,0,0.1,0,0.1,0.1c0,0,0.1,0.1,0.1,0.1v0.6c0,0.1,0,0.1-0.1,0.1
	c0,0-0.1,0.1-0.1,0.1h-1.6v4.2c0,0.1-0.1,0.1-0.1,0.1h-0.8c-0.1,0-0.1,0-0.1-0.1c0,0-0.1-0.1-0.1-0.1v-4.2h-1.5
	C583.9,37.6,583.9,37.6,583.7,37.5C583.8,37.6,583.7,37.6,583.7,37.5L583.7,37.5z M591.2,36.8L591.2,36.8l1.1,2.7l1.1-2.7
	c0-0.1,0.1-0.1,0.1-0.1c0.1,0,0.1-0.1,0.1,0h1.4c0.1,0,0.1,0,0.1,0.1c0,0,0.1,0.1,0.1,0.1v5c0,0.1,0,0.1-0.1,0.1
	c0,0-0.1,0.1-0.1,0.1h-0.8c-0.1,0-0.1,0-0.1-0.1c0,0-0.1-0.1-0.1-0.1v-3.8l-1.2,2.8c0,0.1-0.1,0.1-0.1,0.1c-0.1,0-0.1,0.1-0.1,0H592
	c-0.1,0-0.1,0-0.1,0c-0.1,0-0.1-0.1-0.1-0.1l-1.2-2.8v3.8c0,0.1,0,0.1-0.1,0.1c0,0-0.1,0.1-0.1,0.1h-0.6c-0.1,0-0.1,0-0.1-0.1
	c0,0-0.1-0.1-0.1-0.1v-5c0-0.1,0-0.1,0.1-0.1c0.1-0.1,0.1-0.1,0.1-0.1h1.3c0.1,0,0.1,0,0.1,0C591.1,36.7,591.2,36.8,591.2,36.8z"/>
</svg>
