<svg id="Layer_1" data-name="Layer 1" xmlns="http://www.w3.org/2000/svg" viewBox="0 0 30.8 20"><defs><style>.cls-1,.cls-2{fill:#767676;}.cls-1{opacity:0.4;}</style></defs><path class="cls-1" d="M14.7,15.6a.8.8,0,0,1-.7.4H11.4l.2-.2a2.3,2.3,0,0,0,.7-3.3,2.3,2.3,0,0,0-3.4-.4,2.4,2.4,0,0,0-.1,3.4,3,3,0,0,0,1.5.7,3.4,3.4,0,0,0-1.2.6,1.7,1.7,0,0,0-.6.6,1.7,1.7,0,0,1-1.3.8h0c.3-.6.2-1.4.5-2s.1-.2,0-.2H7.5a1.8,1.8,0,0,0-1,.9,1.3,1.3,0,0,1-1.4.7H4.5a1.8,1.8,0,0,0-1.4.4c-.1,0-.2.1-.3,0a.4.4,0,0,1-.1-.3,2.2,2.2,0,0,1,1.1-1.2,4.7,4.7,0,0,0,.9-.6,1.3,1.3,0,0,0,.5-.9c.1-.3.2-.5.5-.6s.3-.2.2-.3-.3,0-.3,0a3,3,0,0,1-1.1.6,4.5,4.5,0,0,1-2,0H1.9c-.6,0-1.1,0-1.3.8a1.6,1.6,0,0,1,.9-1.9A5.1,5.1,0,0,1,3.9,13a1.4,1.4,0,0,0,1.3-.5c0-.1.1-.2.1-.3H4.9c-.8,0-.9-.1-1.1-.8s-.4-.7-1-.6l-.6.3A1.3,1.3,0,0,1,.6,10h.7a1,1,0,0,0,1-.3L2.9,9a.8.8,0,0,1,1,.1l.5.6a1,1,0,0,0,.8.5c.3.1.5-.1.3-.4a2.5,2.5,0,0,1-.2-1.2c.1-.9-.1-1.3-1-1.6A2,2,0,0,1,3.2,4.8h.2a.5.5,0,0,1,.2.4A1.8,1.8,0,0,0,5.3,6.3c.7,0,.9.3.9.9a2.8,2.8,0,0,0,.1.9c0,.3.1.5.5.5s.4,0,.3-.3a1.4,1.4,0,0,1,.4-1.9.8.8,0,0,0-.1-1.2C7.3,5,7.1,5,7,4.8a.9.9,0,0,1-.3-1c.1-.4.3-.7.4-1.1a.4.4,0,0,1,.2.4c0,.6.4.9.9,1.2h0a1,1,0,0,1,.5,1.5,2.4,2.4,0,0,0-.2,1.5,1.1,1.1,0,0,0,.6.7c.3.1.3,0,.3-.2a1.5,1.5,0,0,1-.1-.7,1.6,1.6,0,0,1,1-1.4c.8-.5,1-.9.6-1.9s-.2-1,.2-1.3.1-.1.2-.1,0,.1,0,.2.1.6.3.9a1.4,1.4,0,0,1,0,2.2l-.2.2a2.1,2.1,0,0,0-.6,1,.9.9,0,0,0,.1.5h.2a.7.7,0,0,0,.1-.5.6.6,0,0,1,.6-.5h.5a1.3,1.3,0,0,0,1-.9c.1-.3.1-.6.2-.8a2.5,2.5,0,0,1,.8-1.2,1.4,1.4,0,0,1,1.1-.2A1.6,1.6,0,0,0,15,5a.4.4,0,0,1,.1.3c-.1.3,0,.6-.1.9l-1.7.2c-.2,0-.3.1-.2.3s.1.4.1.6l-.7.8a.4.4,0,0,0-.1.3h.3l.6-.2c0,1.4,0,2.8.1,4.2A3.5,3.5,0,0,0,14.7,15.6Z"></path><path class="cls-2" d="M30.4,14.1l-.3,1.2c-.1.5-.4.7-.9.9a3.2,3.2,0,0,1-3.3-1.5,4.3,4.3,0,0,1-.4-1.9c-.1-1.1,0-2.1,0-3.2s-.5-1-1.2-.8-1,.7-1,1.6,0,3.5,0,5.2,0,.3-.3.3H20.4c-.2,0-.3,0-.3-.3V9.4c-.1-.9-.5-1.3-1.5-1.3h-.4c.3-.6.4-1.2.7-1.7s.5-.3.8-.4a2.9,2.9,0,0,1,2.5.8c.2.1.3.2.4,0s3.6-1.3,4.9-.2A3.4,3.4,0,0,1,28.6,9c0,1.2,0,2.4.1,3.5S29.2,14.2,30.4,14.1Z"></path><path class="cls-2" d="M14.7,15.6a3.5,3.5,0,0,1-1.3-3.2c-.1-1.4-.1-2.8-.1-4.2s.1-.6-.1-.9-.1-.4-.1-.6,0-.3.2-.3L15,6.2,16.4,6c.2,0,.4,0,.3.3s.1.7.1,1.1v3.9a5.9,5.9,0,0,0,.1,1.9c.1.5.4.7,1,.8h.7c-.2.6-.3,1.2-.5,1.8a1.1,1.1,0,0,1-.9.5A4.2,4.2,0,0,1,14.7,15.6Z"></path><path class="cls-2" d="M10.3,16.2a3,3,0,0,1-1.5-.7,2.4,2.4,0,0,1,.1-3.4,2.3,2.3,0,0,1,3.4.4,2.3,2.3,0,0,1-.7,3.3l-.2.2Z"></path><path class="cls-2" d="M15.1,5.3A.4.4,0,0,0,15,5a1.6,1.6,0,0,1,.4-1.7,1.4,1.4,0,0,0-1.1.2,2.5,2.5,0,0,0-.8,1.2,1.9,1.9,0,0,1-.4-2.2,1.8,1.8,0,0,1,1.8-1.3A2.1,2.1,0,0,1,17,3a1.9,1.9,0,0,1-1.7,2.2Z"></path><path class="cls-1" d="M16.8,11.3V10h1.5c.1,0,.2,0,.1.2A2.2,2.2,0,0,1,16.8,11.3Z"></path><path class="cls-1" d="M17.9,14c-.6-.1-.9-.3-1-.8a4.8,4.8,0,0,0,1.2,0c.2,0,.2.1.2.3Z"></path><path class="cls-1" d="M16.8,8.4v-1c.1.1.3-.2.4,0a.9.9,0,0,1-.1.7Z"></path></svg>