<svg xmlns="http://www.w3.org/2000/svg" viewBox="0 0 22.786 20"><defs><style>.a{fill:#767676;}</style></defs><title>img_icon_bug_tld-org</title><path class="a" d="M19.9846,16.9026h-.3824a3.4736,3.4736,0,0,1-2.4736-.9471,2.8052,2.8052,0,0,1-.75-1.1109l2.0793-1.2035a1.3785,1.3785,0,0,0,2.6505.4258l.0074-.0268.0138-.0343c.0084-.0315.0176-.0639.0269-.0926a.7334.7334,0,0,0,.0342-.1638v-.02l.01-.02.0065-.0269v-.0407h.0074v-.7156l-.0546.0268-.0546.02a3.7419,3.7419,0,0,1-1.4313.2777,3.6768,3.6768,0,0,1-1.8608-.4971A3.7507,3.7507,0,0,1,15.8945,9.45a3.6364,3.6364,0,0,1,.3074-1.496,3.7853,3.7853,0,0,1,3.4688-2.2765,4.1582,4.1582,0,0,1,1.8812.3268,3.04,3.04,0,0,1,1.2341.936A9.9984,9.9984,0,0,0,3.8623,6.6089a4.0281,4.0281,0,0,1,1.1535-.6721,4.3111,4.3111,0,0,1,3.02,0,3.8558,3.8558,0,0,1,1.2877.7767,3.7324,3.7324,0,0,1,.88,1.2035,3.6384,3.6384,0,0,1,.0065,2.9708,3.7472,3.7472,0,0,1-.886,1.2035,4.0507,4.0507,0,0,1-1.2877.7842,4.2165,4.2165,0,0,1-3.4837-.2111,3.93,3.93,0,0,1-1.1211-.8786,9.9983,9.9983,0,0,0,17.1147,5.0705,3.9761,3.9761,0,0,1-.561.0444M15.1706,7.768a.852.852,0,0,0-.4435-.13h-.1222q-.8331.0351-.8332,1.159v4.13H11.5925V8.8021A2.7992,2.7992,0,0,1,14.6049,5.673h.1222a3.5242,3.5242,0,0,1,.4435.0416Zm-8.6486,3.41a1.765,1.765,0,0,1-1.2747-.524A1.6784,1.6784,0,0,1,4.702,9.4a1.6186,1.6186,0,0,1,.2527-.8758,1.8524,1.8524,0,0,1,.6749-.648,1.8009,1.8009,0,0,1,1.7923,0,1.8692,1.8692,0,0,1,.6749.648,1.6258,1.6258,0,0,1,.2518.88,1.6785,1.6785,0,0,1-.5453,1.25,1.7727,1.7727,0,0,1-1.2813.5249M21.3408,8.5466a1.7081,1.7081,0,0,1-.286,2.12,1.7368,1.7368,0,0,1-2.4559.0325l-.0326-.0325a1.7081,1.7081,0,0,1-.2861-2.12,1.8343,1.8343,0,0,1,.661-.6407,1.7055,1.7055,0,0,1,.8656-.2314,1.7837,1.7837,0,0,1,1.534.8721M2.5255,11.9284a1.2628,1.2628,0,1,1-1.2637-1.2618h.0019a1.2627,1.2627,0,0,1,1.2618,1.2618"></path></svg>