<svg width="192" height="64" viewBox="0 0 192 64" fill="none" xmlns="http://www.w3.org/2000/svg">
<rect width="192" height="64" fill="white"/>
<path d="M62.0697 39.8583C62.0696 40.4644 61.8915 41.0569 61.558 41.5609C61.2245 42.0648 60.7504 42.4576 60.1959 42.6895C59.6413 42.9214 59.0311 42.982 58.4424 42.8637C57.8537 42.7453 57.313 42.4534 56.8886 42.0247C56.4642 41.596 56.1753 41.0499 56.0582 40.4554C55.9412 39.8608 56.0014 39.2446 56.2312 38.6846C56.4609 38.1247 56.85 37.6461 57.3491 37.3094C57.8482 36.9727 58.435 36.793 59.0352 36.7931C59.8401 36.7934 60.6118 37.1165 61.1809 37.6912C61.7499 38.266 62.0696 39.0455 62.0697 39.8583Z" fill="#111111"/>
<path d="M74.5839 37.1815C74.5839 41.2738 76.7209 42.8595 80.3025 42.8595H88.2412C86.4314 41.5957 85.0513 39.7994 84.2886 37.7151L82.1875 37.7197C81.0877 37.7197 80.5542 37.2121 80.5542 36.007V29.9068H84.1382V25.0527H80.5536V21H74.5839V37.1815Z" fill="#111111"/>
<path d="M85.5827 34.0089V33.9441C85.6031 32.7251 85.8648 31.5225 86.3523 30.4072C86.8398 29.2918 87.5434 28.2862 88.4216 27.4496C89.2997 26.613 90.3348 25.9622 91.4657 25.5356C92.5967 25.109 93.8007 24.9152 95.007 24.9656C96.2058 24.9121 97.403 25.1021 98.5277 25.5244C99.6525 25.9467 100.682 26.5927 101.555 27.4241C102.428 28.2555 103.127 29.2554 103.61 30.3645C104.093 31.4737 104.351 32.6695 104.369 33.8812V33.9441C104.348 35.1632 104.087 36.3659 103.599 37.4813C103.112 38.5968 102.408 39.6025 101.53 40.4392C100.652 41.2759 99.6169 41.9268 98.4859 42.3535C97.3549 42.7802 96.1508 42.9741 94.9445 42.9238C93.7457 42.9775 92.5484 42.7876 91.4236 42.3654C90.2989 41.9432 89.2695 41.2973 88.3964 40.4659C87.5234 39.6346 86.8245 38.6347 86.3412 37.5255C85.8579 36.4164 85.5999 35.2205 85.5827 34.0089ZM98.5569 34.0089V33.9441C98.5766 33.4492 98.4982 32.9553 98.3264 32.4914C98.1546 32.0274 97.8928 31.6028 97.5563 31.2424C97.2198 30.8821 96.8155 30.5931 96.367 30.3926C95.9185 30.1921 95.4349 30.0841 94.9445 30.0748C94.4596 30.0752 93.9799 30.1756 93.5349 30.3698C93.0898 30.5641 92.6888 30.8482 92.3564 31.2046C92.024 31.5611 91.7672 31.9823 91.6018 32.4426C91.4364 32.9029 91.3659 33.3924 91.3945 33.8812V33.9441C91.3747 34.4392 91.4529 34.9333 91.6246 35.3974C91.7964 35.8615 92.0581 36.2863 92.3946 36.6469C92.7311 37.0075 93.1355 37.2966 93.5841 37.4973C94.0327 37.6979 94.5164 37.8061 95.007 37.8154C95.4918 37.8149 95.9714 37.7144 96.4163 37.52C96.8613 37.3257 97.2622 37.0416 97.5946 36.6851C97.9269 36.3287 98.1836 35.9075 98.349 35.4473C98.5144 34.9871 98.5855 34.4976 98.5569 34.0089Z" fill="#111111"/>
<path d="M67.0958 31.6277C65.3054 31.0896 64.3318 30.7714 64.3318 30.1052V30.0433C64.3318 29.5665 64.802 29.218 65.7132 29.218C67.4883 29.3467 69.2096 29.8894 70.7419 30.8034L72.7822 26.9969C70.6769 25.6844 68.2505 24.9916 65.7763 24.9966C61.8493 24.9966 58.9587 27.028 58.9587 30.6775V30.7415C58.9587 34.1985 61.63 35.3399 64.9914 36.2298C66.7814 36.7375 67.724 37.0219 67.724 37.6885V37.7531C67.724 38.3543 67.2535 38.6723 66.2156 38.6723C65.2764 38.6577 64.3448 38.4988 63.4529 38.2013C63.764 38.9024 63.8718 39.6783 63.7636 40.4388C63.6555 41.1993 63.3359 41.9132 62.842 42.4976C63.9372 42.7604 65.0589 42.8933 66.1846 42.8937C70.3315 42.8937 73.1285 40.9263 73.1285 37.1512V37.0862C73.1285 33.7547 70.4571 32.5803 67.0958 31.6277Z" fill="#111111"/>
<path d="M116.651 31.3489C113.54 31.3489 111.781 33.1594 111.781 37.124V42.8673H105.812V25.2911H111.782V28.7482C112.119 27.5986 112.837 26.6003 113.814 25.9193C114.791 25.2382 115.97 24.9153 117.154 25.0042H121.216C120.047 25.6407 119.043 26.547 118.286 27.6494C117.529 28.7518 117.041 30.0191 116.861 31.3481L116.651 31.3489Z" fill="#111111"/>
<path d="M127.879 38.4407C127.025 38.4996 126.179 38.2438 125.498 37.7206C124.817 37.1974 124.347 36.4425 124.175 35.5959L130.352 35.5875C130.948 35.5993 131.54 35.4914 132.094 35.27C132.648 35.0486 133.152 34.7181 133.578 34.2978C134.005 33.8775 134.344 33.3758 134.576 32.8219C134.808 32.2679 134.929 31.6729 134.931 31.0714C134.931 30.993 134.922 30.9547 134.921 30.8781C134.115 30.513 133.225 30.3774 132.349 30.4859C132.359 30.5603 132.365 30.6353 132.365 30.7105C132.365 31.3096 132.129 31.8843 131.71 32.3082C131.291 32.7322 130.722 32.9707 130.129 32.9714H124.586C124.298 32.9706 124.021 32.8546 123.818 32.6486C123.614 32.4427 123.499 32.1636 123.498 31.8723V29.5439C123.499 29.2527 123.614 28.9736 123.818 28.7677C124.022 28.5617 124.298 28.4457 124.586 28.4448H130.13V28.4506C130.607 28.4344 131.076 28.5777 131.465 28.8581C131.853 29.1386 132.138 29.5406 132.277 30.0017C133.168 29.888 134.073 30.0109 134.902 30.3582C134.612 26.4895 131.624 24.8851 127.024 24.8851C125.859 24.8771 124.706 25.1081 123.633 25.5641C122.56 26.02 121.59 26.6914 120.781 27.5376C119.973 28.3837 119.343 29.3868 118.931 30.4861C118.518 31.5854 118.331 32.758 118.381 33.9325V33.9977C118.339 35.2133 118.551 36.4242 119.002 37.5522C119.452 38.6802 120.132 39.7004 120.997 40.5468C121.862 41.3932 122.893 42.0472 124.024 42.4665C125.154 42.8858 126.359 43.0611 127.561 42.9812C128.989 43.0353 130.409 42.7444 131.702 42.1327C132.996 41.5209 134.127 40.6061 135 39.4642L131.676 36.6814C131.199 37.2256 130.615 37.6632 129.961 37.9662C129.307 38.2692 128.598 38.4308 127.879 38.4407Z" fill="#111111"/>
<path d="M131.183 30.7604C131.163 30.8307 131.12 30.8924 131.062 30.9363C131.004 30.9803 130.934 31.0042 130.861 31.0045C130.789 31.0047 130.718 30.9814 130.66 30.9378C130.602 30.8942 130.559 30.8329 130.538 30.7628C130.517 30.6927 130.519 30.6177 130.544 30.5489C130.569 30.4801 130.615 30.4212 130.675 30.3809C130.736 30.3407 130.808 30.3213 130.88 30.3257C130.952 30.33 131.021 30.3578 131.077 30.4049C131.176 30.3624 131.3 30.3156 131.446 30.2695C131.353 30.1296 131.213 30.0283 131.052 29.9838C130.891 29.9393 130.719 29.9547 130.569 30.0271C130.418 30.0996 130.298 30.2242 130.231 30.3785C130.163 30.5327 130.153 30.7062 130.202 30.8674C130.251 31.0286 130.355 31.1668 130.496 31.2569C130.637 31.3469 130.805 31.3828 130.971 31.358C131.136 31.3332 131.286 31.2494 131.395 31.1218C131.505 30.9942 131.565 30.8313 131.565 30.6627L131.56 30.6228C131.432 30.662 131.306 30.708 131.183 30.7604Z" fill="#111111"/>
</svg>
