<svg xmlns:xlink="http://www.w3.org/1999/xlink" xmlns="http://www.w3.org/2000/svg" viewBox="0 0 16 16" preserveAspectRatio="xMidYMid meet" focusable="false" class="style-scope yt-icon" style="pointer-events: none; display: block; width: 100%; height: 100%;" width="20"  height="20" ><g class="style-scope yt-icon" fill="#030303"><path d="M3.54,2A1.55,1.55,0,0,0,2,3.13L1,7.37C.83,8.24,1,9,2,9H6L4.52,12.54A1.17,1.17,0,0,0,5.71,14a1.49,1.49,0,0,0,1.09-.46L11,9h4V2ZM6.07,12.86a.51.51,0,0,1-.36.14.28.28,0,0,1-.22-.09l0-.05L6.92,9.39,7.5,8H2a1.5,1.5,0,0,1,0-.41L3,3.35A.58.58,0,0,1,3.54,3H10V8.61ZM14,8H11l0-5h3Z" class="style-scope yt-icon" fill="#030303"></path></g></svg>