<svg xmlns:xlink="http://www.w3.org/1999/xlink" xmlns="http://www.w3.org/2000/svg" height="36" version="1.1" viewBox="0 0 36 36" width="36"><defs><path class="ytp-svg-fill" d="m 10,16 2,0 0,-4 4,0 0,-2 L 10,10 l 0,6 0,0 z" id="ytp-id-6" fill="#FFFFFF"></path><path class="ytp-svg-fill" d="m 20,10 0,2 4,0 0,4 2,0 L 26,10 l -6,0 0,0 z" id="ytp-id-7" fill="#FFFFFF"></path><path class="ytp-svg-fill" d="m 24,24 -4,0 0,2 L 26,26 l 0,-6 -2,0 0,4 0,0 z" id="ytp-id-8" fill="#FFFFFF"></path><path class="ytp-svg-fill" d="M 12,20 10,20 10,26 l 6,0 0,-2 -4,0 0,-4 0,0 z" id="ytp-id-9" fill="#FFFFFF"></path></defs><g class="ytp-fullscreen-button-corner-0"><use class="ytp-svg-shadow" xlink:href="#ytp-id-6" stroke="#000000" fill="none" stroke-width="2px" stroke-opacity="0.15"></use><path class="ytp-svg-fill" d="m 10,16 2,0 0,-4 4,0 0,-2 L 10,10 l 0,6 0,0 z" id="ytp-id-6" fill="#FFFFFF"></path></g><g class="ytp-fullscreen-button-corner-1"><use class="ytp-svg-shadow" xlink:href="#ytp-id-7" stroke="#000000" fill="none" stroke-width="2px" stroke-opacity="0.15"></use><path class="ytp-svg-fill" d="m 20,10 0,2 4,0 0,4 2,0 L 26,10 l -6,0 0,0 z" id="ytp-id-7" fill="#FFFFFF"></path></g><g class="ytp-fullscreen-button-corner-2"><use class="ytp-svg-shadow" xlink:href="#ytp-id-8" stroke="#000000" fill="none" stroke-width="2px" stroke-opacity="0.15"></use><path class="ytp-svg-fill" d="m 24,24 -4,0 0,2 L 26,26 l 0,-6 -2,0 0,4 0,0 z" id="ytp-id-8" fill="#FFFFFF"></path></g><g class="ytp-fullscreen-button-corner-3"><use class="ytp-svg-shadow" xlink:href="#ytp-id-9" stroke="#000000" fill="none" stroke-width="2px" stroke-opacity="0.15"></use><path class="ytp-svg-fill" d="M 12,20 10,20 10,26 l 6,0 0,-2 -4,0 0,-4 0,0 z" id="ytp-id-9" fill="#FFFFFF"></path></g></svg>