<svg width='100'  height='100' ><defs><g id="help-filled"><path d="M10,1c-4.97,0-9,4.03-9,9s4.03,9,9,9s9-4.03,9-9S14.97,1,10,1z M10,16c-0.55,0-1-0.45-1-1s0.45-1,1-1s1,0.45,1,1 S10.55,16,10,16z M11,12H9c0-2.92,2.8-2.59,2.8-4.4c0-0.99-0.81-1.8-1.8-1.8S8.2,6.61,8.2,7.6H6.4C6.4,5.61,8.01,4,10,4 s3.6,1.61,3.6,3.6C13.6,9.85,11,9.97,11,12z"></path></g><g id="help"><path d="M10,2c4.41,0,8,3.59,8,8s-3.59,8-8,8s-8-3.59-8-8S5.59,2,10,2 M10,1c-4.97,0-9,4.03-9,9s4.03,9,9,9c4.97,0,9-4.03,9-9 S14.97,1,10,1L10,1z M10,4C8.01,4,6.4,5.61,6.4,7.6h1.8c0-0.99,0.81-1.8,1.8-1.8s1.8,0.81,1.8,1.8C11.8,9.41,9,9.08,9,12h2 c0-2.03,2.6-2.15,2.6-4.4C13.6,5.61,11.99,4,10,4z M10,14c-0.55,0-1,0.45-1,1s0.45,1,1,1s1-0.45,1-1S10.55,14,10,14z M10,2 c4.41,0,8,3.59,8,8s-3.59,8-8,8s-8-3.59-8-8S5.59,2,10,2 M10,1c-4.97,0-9,4.03-9,9s4.03,9,9,9c4.97,0,9-4.03,9-9S14.97,1,10,1L10,1z"></path></g><g id="mix-filled"><path d="M8.27,12V8l3.46,2L8.27,12z M5.76,5.76C4.67,6.84,4,8.34,4,10s0.67,3.16,1.76,4.24l1.42-1.42C6.45,12.1,6,11.1,6,10 c0-1.1,0.45-2.1,1.17-2.83L5.76,5.76z M12.83,7.17C13.55,7.9,14,8.9,14,10c0,1.1-0.45,2.1-1.17,2.83l1.42,1.42 C15.33,13.16,16,11.66,16,10s-0.67-3.16-1.76-4.24L12.83,7.17z M3.64,3.64C2.01,5.26,1,7.51,1,10s1.01,4.74,2.64,6.36l1.42-1.42 C3.79,13.68,3,11.93,3,10c0-1.93,0.79-3.68,2.05-4.95L3.64,3.64z M14.95,5.05C16.21,6.32,17,8.07,17,10c0,1.93-0.79,3.68-2.05,4.95 l1.42,1.42C17.99,14.74,19,12.49,19,10s-1.01-4.74-2.64-6.36L14.95,5.05z"></path></g><g id="mix"><path d="M8.27,12V8l3.46,2L8.27,12z M5.76,5.76C4.67,6.84,4,8.34,4,10s0.67,3.16,1.76,4.24l0.71-0.71C5.56,12.63,5,11.38,5,10 c0-1.38,0.56-2.63,1.47-3.53L5.76,5.76z M13.53,6.47C14.44,7.37,15,8.62,15,10c0,1.38-0.56,2.63-1.47,3.53l0.71,0.71 C15.33,13.16,16,11.66,16,10s-0.67-3.16-1.76-4.24L13.53,6.47z M3.64,3.64C2.01,5.26,1,7.51,1,10s1.01,4.74,2.64,6.36l0.71-0.71 C2.9,14.21,2,12.21,2,10c0-2.21,0.9-4.21,2.35-5.65L3.64,3.64z M15.65,4.35C17.1,5.79,18,7.79,18,10c0,2.21-0.9,4.21-2.35,5.65 l0.71,0.71C17.99,14.74,19,12.49,19,10s-1.01-4.74-2.64-6.36L15.65,4.35z"></path></g></defs></svg>