<svg width='376'  height='376' ><defs><g viewBox="0 0 376 376" id="lozenge"><path d="M375.47 116.9v28.4c-.24 30.27-4 60.58-4 60.58s-3.67 25.8-14.9 37.15c-14.23 14.9-30.18 14.98-37.5 15.84-52.4 3.8-131.12 3.67-131.16 3.67-3.27-.04-97.8-.7-127.24-3.52-8.32-1.56-27.06-1.1-41.3-16C8.1 231.7 4.46 205.9 4.46 205.9S.7 175.6 0 145.3v-28.4c.7-30.3 4.46-60.57 4.46-60.57s3.67-25.8 14.9-37.15C33.6 4.28 49.56 4.2 56.86 3.34c52.4-3.8 131.1-3.32 131.1-3.32s78.67-.47 131.08 3.32c7.3.86 23.26.94 37.5 15.84 11.22 11.34 14.9 37.15 14.9 37.15s3.75 30.27 4.03 60.58zM149.7 78.13V183.7l100.66-52.8L149.7 78.13z"></path></g><g viewBox="0 0 22 16" id="red"><path d="M2.6 7.03h.77C4.55 7.03 5 6.5 5 4.73c0-1.78-.45-2.3-1.63-2.3H2.6v4.6zM.43 15.26V.33h3.05c2.44 0 3.68 1.22 3.68 4.4 0 2.4-.8 3.37-1.52 3.77l1.84 6.76h-2.2L3.7 9.06c-.28.05-.73.08-1.12.08v6.12H.43zm17.34-7.9c0-1 .3-1.5.88-1.5.32 0 .66.16 1 .5v6.73c-.34.3-.68.46-1 .46-.58 0-.88-.5-.88-1.5V7.4zm-2 .17v4.4c0 1.02.07 1.76.2 2.23.27.82.8 1.24 1.6 1.24.72 0 1.4-.4 2.07-1.22v1.07h2V.4h-2v4.86c-.64-.8-1.33-1.2-2.06-1.2-.8 0-1.34.42-1.6 1.25-.14.47-.2 1.2-.2 2.25zM10.3 7.4c0-1.02.34-1.54 1-1.54.67 0 1 .52 1 1.54v1.02h-2V7.4zm4 2.7V7.8c0-1.18-.2-2.05-.6-2.6-.57-.76-1.37-1.14-2.37-1.14-1.02 0-1.82.38-2.4 1.13-.42.53-.62 1.4-.62 2.6v3.85c0 1.18.25 2.05.68 2.6.58.75 1.37 1.13 2.42 1.13 1.03 0 1.85-.4 2.4-1.2.25-.36.4-.76.48-1.2 0-.2.04-.65.04-1.3v-.3H12.3c0 .8-.04 1.26-.06 1.37-.1.53-.4.8-.9.8-.68 0-1-.5-1-1.53V10.1h4z"></path></g></defs></svg>