<svg xmlns="http://www.w3.org/2000/svg" viewBox="0 0 44.744 20"><defs><style>.a{fill:#767676;}</style></defs><path class="a" d="M0,13.056A1.406,1.406,0,0,1,1.415,11.64,1.419,1.419,0,0,1,2.86,13.056,1.443,1.443,0,0,1,1.415,14.5,1.418,1.418,0,0,1,0,13.056Z"></path><path class="a" d="M4.585,9.512c0-3.09,1.743-5.026,4.641-5.026A4.071,4.071,0,0,1,13.4,7.3l-2.234.866A1.922,1.922,0,0,0,9.235,6.547c-1.242,0-2.2.953-2.2,2.927,0,1.945.915,2.965,2.3,2.965a1.98,1.98,0,0,0,1.925-1.6l2.167.809A4.064,4.064,0,0,1,9.2,14.5C6.3,14.5,4.585,12.565,4.585,9.512Z"></path><path class="a" d="M19.26,14.5a4.809,4.809,0,0,1-4.929-5.007A4.809,4.809,0,0,1,19.26,4.486a4.81,4.81,0,0,1,4.93,5.007A4.81,4.81,0,0,1,19.26,14.5Zm0-7.953c-1.771,0-2.484,1.357-2.484,2.946s.7,2.946,2.484,2.946,2.485-1.357,2.485-2.946S21.042,6.547,19.26,6.547Z"></path><path class="a" d="M25.766,13.056a1.43,1.43,0,0,1,2.86,0A1.443,1.443,0,0,1,27.182,14.5,1.418,1.418,0,0,1,25.766,13.056Z"></path><path class="a" d="M31.039,1.829a1.329,1.329,0,1,1,2.658,0,1.329,1.329,0,0,1-2.658,0Zm2.494,2.85v9.628H31.184V4.679Z"></path><path class="a" d="M38.389,4.679V5.805A3.736,3.736,0,0,1,41.23,4.486c2.118,0,3.514,1.435,3.514,4.044v5.777H42.4V8.819c0-1.5-.78-2.263-1.868-2.263-1.339,0-2.138.751-2.138,2.388v5.363H36.04V4.679Z"></path></svg>