<svg width="267" height="44" viewBox="0 0 267 44" fill="none" xmlns="http://www.w3.org/2000/svg">
<rect x="1" y="1" width="265" height="42" fill="white"/>
<path fill-rule="evenodd" clip-rule="evenodd" d="M44.5041 13.4877C43.3969 12.3787 42.0797 11.4994 40.6286 10.9007C39.1775 10.3021 37.6215 9.99592 36.0507 10C29.4612 10 24.1031 15.3347 24.1003 21.892C24.0976 23.9789 24.6479 26.0296 25.6955 27.8373L24 34L30.335 32.3463C32.087 33.2958 34.0501 33.7934 36.0449 33.7936H36.0501C42.6361 33.7936 47.9976 28.4583 47.9999 21.9011C48.0049 20.3384 47.6985 18.7902 47.0984 17.346C46.4984 15.9019 45.6166 14.5905 44.5041 13.4877ZM36.0507 31.7852H36.0449C34.2661 31.7854 32.52 31.3095 30.9894 30.4074L30.6267 30.193L26.8673 31.1744L27.8712 27.5249L27.6345 27.1508C26.6413 25.5759 26.1155 23.7537 26.1178 21.8942C26.1178 16.4444 30.5757 12.0102 36.0547 12.0102C38.6891 12.0117 41.215 13.0545 43.0768 14.9092C44.9387 16.764 45.9841 19.2788 45.983 21.9005C45.9807 27.3509 41.5251 31.7852 36.0507 31.7852ZM41.4987 24.3822C41.2002 24.2334 39.7322 23.5143 39.4583 23.4128C39.1844 23.3113 38.9856 23.2645 38.7867 23.5616C38.5879 23.8587 38.0155 24.5311 37.8413 24.7267C37.6671 24.9222 37.4929 24.9502 37.1944 24.8014C36.8958 24.6525 35.9338 24.3389 34.793 23.3261C33.9054 22.5386 33.306 21.5652 33.1313 21.2675C32.9565 20.9699 33.1129 20.8113 33.2625 20.6614C33.3966 20.5279 33.561 20.3141 33.71 20.1407C33.859 19.9674 33.9094 19.8431 34.0085 19.6452C34.1077 19.4473 34.0584 19.2734 33.9839 19.1246C33.9094 18.9757 33.3123 17.513 33.0631 16.9177C32.8207 16.3383 32.5749 16.417 32.3915 16.4079C32.2196 16.3993 32.0179 16.3971 31.8185 16.3971C31.6672 16.4011 31.5183 16.4363 31.3812 16.5004C31.2441 16.5645 31.1219 16.6561 31.0221 16.7694C30.7487 17.0665 29.9775 17.7856 29.9775 19.2483C29.9775 20.711 31.0473 22.124 31.1963 22.3225C31.3452 22.5209 33.302 25.5221 36.2959 26.8092C36.8519 27.048 37.4201 27.2574 37.9983 27.4365C38.714 27.6646 39.3649 27.6303 39.8789 27.5539C40.4519 27.469 41.646 26.8354 41.8947 26.1414C42.1433 25.4474 42.1433 24.8521 42.0666 24.7278C41.9898 24.6035 41.7973 24.5311 41.4987 24.3822Z" fill="#111111"/>
<path d="M59.8906 15.9531V27H61.7969V18.7344L64.5703 27H66.4141L69.1875 18.7344V27H71.0938V15.9531H68.3438L65.4922 24.6328L62.6406 15.9531H59.8906ZM76.9766 27.1562C78.2891 27.1562 79.3281 26.6953 80.1797 25.75L78.8672 24.6016C78.3125 25.2188 77.7344 25.4609 77.0156 25.4609C75.9766 25.4609 75.2266 24.9375 75.0391 23.7188H80.3984C80.4453 23.4922 80.4688 23.2656 80.4688 22.9688C80.4688 21.2266 79.5859 19.0312 76.8516 19.0312C74.5547 19.0312 73.0234 20.6953 73.0234 23.125C73.0234 25.5312 74.4844 27.1562 76.9766 27.1562ZM76.8359 20.6328C77.8516 20.6328 78.5 21.2812 78.5938 22.3438H75.0469C75.2266 21.1719 75.8906 20.6328 76.8359 20.6328ZM84.5938 27.1562C86.125 27.1562 87.625 26.3672 87.625 24.5781C87.625 21.6797 83.4375 22.5391 83.4375 21.2031C83.4375 20.8203 83.7812 20.5391 84.4531 20.5391C85.2969 20.5391 85.7578 21.0156 86.0078 21.4766L87.5 20.6406C86.9297 19.6094 85.9141 19.0312 84.4453 19.0312C82.7109 19.0312 81.6094 19.9688 81.6094 21.3438C81.6094 24.3672 85.75 23.375 85.75 24.8047C85.75 25.2578 85.3438 25.5781 84.5312 25.5781C83.7891 25.5781 83.1406 25.2188 82.7109 24.375L81.25 25.2734C81.7891 26.5234 82.8594 27.1562 84.5938 27.1562ZM91.8281 27.1562C93.3594 27.1562 94.8594 26.3672 94.8594 24.5781C94.8594 21.6797 90.6719 22.5391 90.6719 21.2031C90.6719 20.8203 91.0156 20.5391 91.6875 20.5391C92.5312 20.5391 92.9922 21.0156 93.2422 21.4766L94.7344 20.6406C94.1641 19.6094 93.1484 19.0312 91.6797 19.0312C89.9453 19.0312 88.8438 19.9688 88.8438 21.3438C88.8438 24.3672 92.9844 23.375 92.9844 24.8047C92.9844 25.2578 92.5781 25.5781 91.7656 25.5781C91.0234 25.5781 90.375 25.2188 89.9453 24.375L88.4844 25.2734C89.0234 26.5234 90.0938 27.1562 91.8281 27.1562ZM95.8047 24.7422C95.8047 26.2422 96.8125 27.1562 98.5234 27.1562C99.6406 27.1562 100.469 26.7188 101.07 25.8828L101.195 27H102.766V22.2109C102.766 20.2891 101.562 19.0312 99.4609 19.0312C98.0391 19.0312 96.9766 19.5703 96.1094 20.7422L97.5703 21.7969C97.9766 21.1016 98.625 20.6953 99.3984 20.6953C100.32 20.6953 100.945 21.2656 100.945 22.3438H98.9141C96.9141 22.3438 95.8047 23.2344 95.8047 24.7422ZM98.9141 25.5469C98.1562 25.5469 97.7578 25.1875 97.7578 24.6562C97.7578 24.1016 98.1875 23.7188 99.0547 23.7188H100.945C100.945 24.6953 100.023 25.5469 98.9141 25.5469ZM109.906 26.9688C109.906 28.1875 109.273 28.7266 108.172 28.7266C107.117 28.7266 106.43 28.2031 106.125 27.6562L104.664 28.7109C105.352 29.6719 106.406 30.3906 108.141 30.3906C110.461 30.3906 111.805 29.0938 111.805 26.9688L111.812 19.1875H109.906V19.9766C109.367 19.3047 108.492 19.0312 107.672 19.0312C105.547 19.0312 104.289 20.7344 104.289 23.0156C104.289 25.3203 105.547 27 107.703 27C108.539 27 109.367 26.7266 109.906 26.0703V26.9688ZM108.18 25.3281C106.867 25.3281 106.273 24.3125 106.273 23.0156C106.273 21.7344 106.867 20.7031 108.18 20.7031C109.492 20.7031 110.07 21.7188 110.07 23.0156C110.07 24.3281 109.492 25.3281 108.18 25.3281ZM117.383 27.1562C118.695 27.1562 119.734 26.6953 120.586 25.75L119.273 24.6016C118.719 25.2188 118.141 25.4609 117.422 25.4609C116.383 25.4609 115.633 24.9375 115.445 23.7188H120.805C120.852 23.4922 120.875 23.2656 120.875 22.9688C120.875 21.2266 119.992 19.0312 117.258 19.0312C114.961 19.0312 113.43 20.6953 113.43 23.125C113.43 25.5312 114.891 27.1562 117.383 27.1562ZM117.242 20.6328C118.258 20.6328 118.906 21.2812 119 22.3438H115.453C115.633 21.1719 116.297 20.6328 117.242 20.6328ZM133.266 27V19.1875H131.359V23.5391C131.359 24.8672 130.711 25.4766 129.625 25.4766C128.742 25.4766 128.109 24.8594 128.109 23.6406V19.1875H126.203V23.875C126.203 25.9922 127.336 27.1562 129.055 27.1562C129.945 27.1562 130.773 26.7656 131.359 26.0859V27H133.266ZM138.016 27.1562C139.547 27.1562 141.047 26.3672 141.047 24.5781C141.047 21.6797 136.859 22.5391 136.859 21.2031C136.859 20.8203 137.203 20.5391 137.875 20.5391C138.719 20.5391 139.18 21.0156 139.43 21.4766L140.922 20.6406C140.352 19.6094 139.336 19.0312 137.867 19.0312C136.133 19.0312 135.031 19.9688 135.031 21.3438C135.031 24.3672 139.172 23.375 139.172 24.8047C139.172 25.2578 138.766 25.5781 137.953 25.5781C137.211 25.5781 136.562 25.2188 136.133 24.375L134.672 25.2734C135.211 26.5234 136.281 27.1562 138.016 27.1562ZM153.906 23.0938C153.906 20.8438 152.32 19.0312 149.906 19.0312C147.492 19.0312 145.906 20.8438 145.906 23.0938C145.906 25.3438 147.492 27.1562 149.906 27.1562C152.32 27.1562 153.906 25.3438 153.906 23.0938ZM151.922 23.0938C151.922 24.3828 151.344 25.4844 149.906 25.4844C148.461 25.4844 147.891 24.3828 147.891 23.0938C147.891 21.8047 148.469 20.7031 149.906 20.7031C151.352 20.7031 151.922 21.8047 151.922 23.0938ZM155.469 19.1875V27H157.375V22.6484C157.375 21.3203 158.023 20.7109 159.109 20.7109C159.992 20.7109 160.625 21.3281 160.625 22.5469V27H162.531V22.3125C162.531 20.1953 161.398 19.0312 159.68 19.0312C158.789 19.0312 157.961 19.4219 157.375 20.1016V19.1875H155.469ZM167.586 15.9531L170.898 27H172.891L175.211 19.3281L177.539 27H179.531L182.844 15.9531H180.781L178.43 24.0859L175.984 15.9531H174.445L172 24.0859L169.648 15.9531H167.586ZM184.141 15.9531V27H186.047V22.6484C186.047 21.3203 186.695 20.7109 187.781 20.7109C188.664 20.7109 189.297 21.3281 189.297 22.5469V27H191.203V22.3125C191.203 20.1953 190.07 19.0312 188.352 19.0312C187.461 19.0312 186.633 19.4219 186.047 20.1016V15.9531H184.141ZM192.648 24.7422C192.648 26.2422 193.656 27.1562 195.367 27.1562C196.484 27.1562 197.312 26.7188 197.914 25.8828L198.039 27H199.609V22.2109C199.609 20.2891 198.406 19.0312 196.305 19.0312C194.883 19.0312 193.82 19.5703 192.953 20.7422L194.414 21.7969C194.82 21.1016 195.469 20.6953 196.242 20.6953C197.164 20.6953 197.789 21.2656 197.789 22.3438H195.758C193.758 22.3438 192.648 23.2344 192.648 24.7422ZM195.758 25.5469C195 25.5469 194.602 25.1875 194.602 24.6562C194.602 24.1016 195.031 23.7188 195.898 23.7188H197.789C197.789 24.6953 196.867 25.5469 195.758 25.5469ZM204.422 27.1562C204.961 27.1562 205.539 27.0312 205.828 26.9219V25.1953C205.57 25.3203 205.141 25.4766 204.742 25.4766C204.242 25.4766 203.859 25.2578 203.859 24.5078V20.75H205.828V19.1875H203.859V15.9609H202V19.1875H200.711V20.75H201.969V24.8438C201.969 26.2656 202.883 27.1562 204.422 27.1562ZM210.141 27.1562C211.672 27.1562 213.172 26.3672 213.172 24.5781C213.172 21.6797 208.984 22.5391 208.984 21.2031C208.984 20.8203 209.328 20.5391 210 20.5391C210.844 20.5391 211.305 21.0156 211.555 21.4766L213.047 20.6406C212.477 19.6094 211.461 19.0312 209.992 19.0312C208.258 19.0312 207.156 19.9688 207.156 21.3438C207.156 24.3672 211.297 23.375 211.297 24.8047C211.297 25.2578 210.891 25.5781 210.078 25.5781C209.336 25.5781 208.688 25.2188 208.258 24.375L206.797 25.2734C207.336 26.5234 208.406 27.1562 210.141 27.1562ZM219.633 15.9531H218.195L213.797 27H215.891L216.805 24.6016H220.984L221.891 27H224.031L219.633 15.9531ZM218.891 18.7578L220.414 22.9062H217.383L218.891 18.7578ZM225.203 30.2344H227.109V26.2109C227.648 26.8828 228.523 27.1562 229.344 27.1562C231.469 27.1562 232.727 25.4219 232.727 23.0938C232.727 20.7422 231.469 19.0312 229.312 19.0312C228.477 19.0312 227.648 19.3047 227.109 19.9609V19.1875H225.203V30.2344ZM228.836 20.7031C230.148 20.7031 230.742 21.75 230.742 23.0938C230.742 24.4219 230.148 25.4844 228.836 25.4844C227.523 25.4844 226.945 24.4375 226.945 23.0938C226.945 21.7344 227.523 20.7031 228.836 20.7031ZM234.406 30.2344H236.312V26.2109C236.852 26.8828 237.727 27.1562 238.547 27.1562C240.672 27.1562 241.93 25.4219 241.93 23.0938C241.93 20.7422 240.672 19.0312 238.516 19.0312C237.68 19.0312 236.852 19.3047 236.312 19.9609V19.1875H234.406V30.2344ZM238.039 20.7031C239.352 20.7031 239.945 21.75 239.945 23.0938C239.945 24.4219 239.352 25.4844 238.039 25.4844C236.727 25.4844 236.148 24.4375 236.148 23.0938C236.148 21.7344 236.727 20.7031 238.039 20.7031Z" fill="#111111"/>
<rect x="1" y="1" width="265" height="42" stroke="#111111" stroke-width="2"/>
</svg>
