<svg width='200'  height='200' ><defs><g viewBox="0 0 200 200" id="hashtag_landing_page_empty"><defs><style>
      .hashtag_landing_page_empty__cls-1{fill:none}.hashtag_landing_page_empty__cls-2{fill:#ffac73}.hashtag_landing_page_empty__cls-3{clip-path:url(#hashtag_landing_page_empty__a)}.hashtag_landing_page_empty__cls-4{fill:#006}.hashtag_landing_page_empty__cls-5{fill:#a4c5ff}
    </style></defs><path class="hashtag_landing_page_empty__cls-2" d="M33.29 108.2l82.31-63.48 26.5 40.27L40.49 122.1z"></path><g class="hashtag_landing_page_empty__cls-3" clip-path="url(#hashtag_landing_page_empty__a)"><path class="hashtag_landing_page_empty__cls-4" d="M29.41 115a7.83 7.83 0 117.82 7.83 7.82 7.82 0 01-7.82-7.83M106.6 63c0-13.22 11.46-23.95 25.6-23.95s25.59 10.7 25.59 23.95-11.46 24-25.59 24-25.6-10.72-25.6-24"></path><path class="hashtag_landing_page_empty__cls-5" d="M123.7 63a8.56 8.56 0 118.55 8 8.29 8.29 0 01-8.55-8"></path><path class="hashtag_landing_page_empty__cls-5" d="M132.22 81.61c-11 0-19.89-8.36-19.89-18.64s8.92-18.64 19.89-18.64S152.1 52.7 152.1 63s-8.92 18.64-19.88 18.64m0-36.28c-10.42 0-18.89 7.92-18.89 17.64s8.47 17.64 18.89 17.64S151.1 72.7 151.1 63s-8.47-17.64-18.88-17.64"></path><path class="hashtag_landing_page_empty__cls-4" d="M128.4 166l-38.06-60.5L61.22 166l-.67-.3 29.7-61.7L129 165.6z"></path><path class="hashtag_landing_page_empty__cls-4" d="M84.51673945 165.77552827l5.40121727-61.1218165.7470887.0660188-5.40121727 61.1218165z"></path><path fill="#ff8d40" d="M59.09 88.34l10.77 23.06L109 97.11 91.92 63.02z"></path></g><g class="hashtag_landing_page_empty__cls-3" clip-path="url(#hashtag_landing_page_empty__a)"><path class="hashtag_landing_page_empty__cls-2" d="M177.3 91.43c1 8.51-4 17.36-11.59 21.17a15.22 15.22 0 01-1.35 5.46c-2.31 5.06-6.75 8.17-10.06 9.89a31.58 31.58 0 01-27.51.5l.3-.62a30.87 30.87 0 0026.89-.49c3.22-1.67 7.52-4.68 9.75-9.56a14.59 14.59 0 001.27-4.84c-.48.21-1 .41-1.47.58-3.71 1.29-7.26 1.24-10-.16h-.07c-3.28-1.72-5-5.6-3.92-8.69a7 7 0 016.72-4.32 9.43 9.43 0 017.11 4 12.6 12.6 0 012.36 7.53 20.82 20.82 0 0010.88-20.3zm-12.26 20.73a12 12 0 00-2.22-7.47 8.7 8.7 0 00-6.58-3.68 6.26 6.26 0 00-6 3.85c-.88 2.43.25 6.1 3.58 7.85h.08c3.46 1.76 7.41.83 9.45.12.59-.21 1.17-.45 1.74-.71"></path><path fill="#ff4c3e" d="M55.29 65.57l-.34-.74-6.37 2.94-2.17-6.33-.77.26 2.2 6.41-5.02 2.31.34.73 4.94-2.27 1.83 5.31.77-.26-1.86-5.4z"></path><path class="hashtag_landing_page_empty__cls-2" d="M30.89 48.18a4.21 4.21 0 11-3.32-4.94 4.21 4.21 0 013.32 4.94"></path><path class="hashtag_landing_page_empty__cls-5" d="M77.48 31.28l-15.92-1.52 7.37 15.59z"></path><path class="hashtag_landing_page_empty__cls-4" d="M29.41 165.5h114v.75h-114zM148.5 165.5h5.87v.75h-5.87zM159 165.5h17.84v.75H159z"></path></g></g><g viewBox="0 0 200 200" id="hashtag_landing_page_empty_dark_mode"><defs><style>
      .hashtag_landing_page_empty_dark_mode__cls-1{fill:none}.hashtag_landing_page_empty_dark_mode__cls-3{clip-path:url(#hashtag_landing_page_empty_dark_mode__a)}.hashtag_landing_page_empty_dark_mode__cls-4{fill:#005cff}.hashtag_landing_page_empty_dark_mode__cls-5{fill:#00e5be}.hashtag_landing_page_empty_dark_mode__cls-6{fill:#6ea2ff}
    </style></defs><path fill="#a4c5ff" d="M33.72 108.2l82.38-63.48 26.5 40.27L40.93 122.1z"></path><g class="hashtag_landing_page_empty_dark_mode__cls-3" clip-path="url(#hashtag_landing_page_empty_dark_mode__a)"><path class="hashtag_landing_page_empty_dark_mode__cls-4" d="M29.84 115a7.83 7.83 0 117.83 7.83 7.82 7.82 0 01-7.83-7.83M107 63c0-13.22 11.46-23.95 25.6-23.95s25.59 10.7 25.59 23.95-11.46 24-25.59 24S107 76.28 107 63"></path><path class="hashtag_landing_page_empty_dark_mode__cls-5" d="M124.1 63a8.56 8.56 0 118.55 8 8.29 8.29 0 01-8.55-8"></path><path class="hashtag_landing_page_empty_dark_mode__cls-5" d="M132.6 81.61c-11 0-19.89-8.36-19.89-18.64s8.92-18.64 19.89-18.64S152.49 52.7 152.49 63s-8.93 18.64-19.89 18.64m0-36.28c-10.41 0-18.89 7.92-18.89 17.64s8.48 17.64 18.89 17.64S151.49 72.7 151.49 63s-8.48-17.64-18.89-17.64M128.7 166.1l-37.92-60.3-29.01 60.3-.9-.5 29.8-61.9 38.93 61.9z"></path><path class="hashtag_landing_page_empty_dark_mode__cls-5" d="M84.8549784 165.83839492l5.40121727-61.1218165.99611826.08802505-5.40121727 61.1218165z"></path><path class="hashtag_landing_page_empty_dark_mode__cls-6" d="M59.52 88.34L70.3 111.4l39.1-14.29-17.05-34.09z"></path></g><g class="hashtag_landing_page_empty_dark_mode__cls-3" clip-path="url(#hashtag_landing_page_empty_dark_mode__a)"><path class="hashtag_landing_page_empty_dark_mode__cls-6" d="M177.8 91.43c1 8.51-3.95 17.36-11.59 21.17a15 15 0 01-1.35 5.46c-2.31 5.06-6.74 8.17-10.05 9.89a31.58 31.58 0 01-27.51.5l.29-.62a30.89 30.89 0 0026.9-.49c3.21-1.67 7.51-4.68 9.74-9.56a14.35 14.35 0 001.27-4.84c-.48.21-1 .41-1.47.58-3.71 1.29-7.26 1.24-10-.16h-.08c-3.27-1.72-5-5.6-3.92-8.69a7 7 0 016.73-4.32 9.41 9.41 0 017.1 4 12.54 12.54 0 012.36 7.53 20.83 20.83 0 0010.89-20.3zm-12.26 20.73a12 12 0 00-2.22-7.47 8.68 8.68 0 00-6.57-3.69 6.27 6.27 0 00-6.06 3.85c-.87 2.43.25 6.1 3.58 7.85h.08c3.46 1.76 7.41.83 9.45.12.6-.21 1.18-.45 1.74-.71M55.72 65.57l-.34-.74-6.37 2.94-2.17-6.33-.77.26 2.2 6.41-5.02 2.31.34.73 4.95-2.27 1.83 5.31.76-.26-1.86-5.4z"></path><path class="hashtag_landing_page_empty_dark_mode__cls-4" d="M31.32 48.18A4.21 4.21 0 1128 43.24a4.2 4.2 0 013.32 4.94"></path><path class="hashtag_landing_page_empty_dark_mode__cls-5" d="M77.91 31.28L62 29.76l7.36 15.59zM29.84 165.4h114v1h-114zM148.9 165.4h5.87v1h-5.87zM159.4 165.4h17.84v1H159.4z"></path></g></g><g viewBox="0 0 300 300" id="hashtag_landing_page_error"><defs><style>
      .hashtag_landing_page_error__cls-1{fill:none}.hashtag_landing_page_error__cls-2{clip-path:url(#hashtag_landing_page_error__a)}.hashtag_landing_page_error__cls-5{fill:#ff8780}.hashtag_landing_page_error__cls-10{fill:#e4e4e4}.hashtag_landing_page_error__cls-14{fill:#2d79ff}
    </style></defs><g class="hashtag_landing_page_error__cls-2" clip-path="url(#hashtag_landing_page_error__a)"><path d="M286.1 150.6c-7.88 45.31-57.87 77.57-109.2 68.65s-85.92-55.9-78-101.2c7.14-41.29 55.8-74.81 107.1-65.89s88 53.14 80.08 98.45" fill="#ffbebb"></path><path d="M232.6 137.7a42.07 42.07 0 11-42.07-42.08 42.07 42.07 0 0142.07 42.08" fill="#ff8c34"></path><path class="hashtag_landing_page_error__cls-5" d="M184.6 197.7c.92 1.26.46 2.45-.8 3.37s-2.83 1.25-3.76 0a2.82 2.82 0 01.88-3.9 2.5 2.5 0 013.68.54M146.73157003 69.19721195l1.37433444-.67238742 4.90886765 10.03353967-1.37433444.67238742z"></path><path class="hashtag_landing_page_error__cls-5" d="M145.45139157 78.3317295l8.11104295-6.83981595.98632596 1.16964145-8.11104295 6.83981595z"></path></g><g clip-path="url(#hashtag_landing_page_error__c)"><path class="hashtag_landing_page_error__cls-5" d="M97.84 141.7c-13.72 0-23.29-9.79-23.29-23.8 0-14.7 10.44-26.67 23.29-26.67 13.42 0 23.15 10.36 23.15 24.64 0 14.49-10.17 25.83-23.15 25.83m0-48.94c-12 0-21.76 11.28-21.76 25.14 0 13.11 8.94 22.27 21.76 22.27 12.12 0 21.62-10.67 21.62-24.3 0-13.39-9.09-23.11-21.62-23.11M262.6 72.57c0 5.93-6 10.15-11.94 10.15s-10.74-3.62-10.74-9.55a10.74 10.74 0 0110.74-10.75c5.94 0 11.94 4.21 11.94 10.15M171.8 253.8l-1.42-.58c6.93-16.6 15-33.65 29.94-43.66 7.41-4.94 16-7.72 24.32-10.41 6.25-2 12.72-4.12 18.61-7.11a63.07 63.07 0 0025.84-24.55 125.3 125.3 0 006.52-13.89 116.7 116.7 0 017.25-15.15c5.21-8.66 14.84-17.71 26.32-17l-.08 1.53c-10.76-.59-20 8-24.93 16.31a115.8 115.8 0 00-7.15 15 129.9 129.9 0 01-6.6 14.06A64.63 64.63 0 01244 193.4c-6 3.05-12.53 5.16-18.84 7.21-8.22 2.65-16.71 5.4-23.94 10.23-14.64 9.77-22.54 26.58-29.37 43"></path></g><path class="hashtag_landing_page_error__cls-5" d="M258.3652172 155.30849565l1.3684145-.684355 4.2716276 8.54141075-1.3684145.684355z"></path><path class="hashtag_landing_page_error__cls-5" d="M256.6 164.1l-1-1.1 10.2-9.9 1 1.1z"></path><g class="hashtag_landing_page_error__cls-2" clip-path="url(#hashtag_landing_page_error__a)"><path d="M212.1 82.78c37.59 1.71 52.54 19.65 51.54 39.44-1 20.11-20 36.74-61.4 49.27-48 14.54-113.5 31.34-113.5 31.34L70.07 191.9s86.95-23.09 107-28.74c15.16-4.27 64.85-16.73 71.75-39.29 6.31-20.61-12.52-31.91-35.38-36.1-21.81-4-60.36 1.71-60.36 1.71s29.7-8 59.05-6.7" fill="#fff"></path><path class="hashtag_landing_page_error__cls-10" d="M88.65489699 196.57848177l54.39567991-13.92596522.37946085 1.48219752-54.3956799 13.9259652zM89.70866435 190.9287484l35.59368744-9.38432283.39005742 1.47944422-35.59368743 9.38432283z"></path><path fill="#6b9fff" d="M1.49 219.9l62.64-49.8L124.8 212z"></path></g><g clip-path="url(#hashtag_landing_page_error__b)"><path d="M64.13 172l.85.6-7.85 4.27 7-4.87m0-1.87S38.29 188 36.9 189.62l31-16.87z" fill="#7c35dd"></path><path class="hashtag_landing_page_error__cls-14" d="M124.8 212l-12.24-9.4-67.77 18.34c17.51-1.17 80-9 80-9M36.9 189.62l34.92-15.23-7.69-4.28S38.29 188 36.9 189.62"></path></g><path class="hashtag_landing_page_error__cls-14" d="M56.44 196.7l41.4-32.7-7.79 24z"></path><g class="hashtag_landing_page_error__cls-2" clip-path="url(#hashtag_landing_page_error__a)"><path class="hashtag_landing_page_error__cls-14" d="M42.11 197.8s-4.19 3.08-2 6.4c2.65 4 17 1.51 17 1.51s-18.72 7.27-22 1.69c-3-5.15 7-9.6 7-9.6"></path></g></g><g viewBox="0 0 300 300" id="hashtag_landing_page_error_dark_mode"><defs><style>
      .hashtag_landing_page_error_dark_mode__cls-1{fill:none}.hashtag_landing_page_error_dark_mode__cls-2{clip-path:url(#hashtag_landing_page_error_dark_mode__a)}.hashtag_landing_page_error_dark_mode__cls-5{fill:#00c19f}.hashtag_landing_page_error_dark_mode__cls-10{fill:#fff}.hashtag_landing_page_error_dark_mode__cls-14{fill:#007b65}
    </style></defs><g class="hashtag_landing_page_error_dark_mode__cls-2" clip-path="url(#hashtag_landing_page_error_dark_mode__a)"><path d="M285.6 150.6c-7.85 45.14-57.66 77.28-108.8 68.39s-85.61-55.69-77.76-100.8c7.16-41.14 55.64-74.54 106.7-65.66s87.64 53 79.78 98.1" fill="#005d7b"></path><path d="M232.3 137.7a41.92 41.92 0 11-41.92-41.92 41.92 41.92 0 0141.92 41.92" fill="#00b8e6"></path><path class="hashtag_landing_page_error_dark_mode__cls-5" d="M184.4 197.6c.92 1.25.46 2.44-.79 3.36s-2.83 1.24-3.75 0a2.81 2.81 0 01.88-3.88 2.48 2.48 0 013.66.54M146.72832894 69.49907133l1.36523526-.66823102 4.89742999 10.00573733-1.36523526.66823102z"></path><path class="hashtag_landing_page_error_dark_mode__cls-5" d="M145.4554491 78.53813682l8.08046408-6.81402965.98632596 1.16964144-8.08046409 6.81402965z"></path></g><g clip-path="url(#hashtag_landing_page_error_dark_mode__c)"><path class="hashtag_landing_page_error_dark_mode__cls-5" d="M98 141.7c-13.67 0-23.21-9.75-23.21-23.71.03-14.65 10.44-26.58 23.21-26.58 13.37 0 23.07 10.33 23.07 24.56 0 14.43-10.13 25.73-23.07 25.73m0-48.76c-12 0-21.68 11.24-21.68 25 0 13.06 8.91 22.18 21.68 22.18 12.08 0 21.55-10.63 21.55-24.2 0-13.34-9.07-23-21.55-23M262.2 72.85c0 5.92-6 10.11-11.9 10.11s-10.7-3.6-10.7-9.51a10.7 10.7 0 0110.7-10.71c5.92 0 11.9 4.2 11.9 10.11M171.7 253.4l-1.41-.59c6.9-16.54 14.89-33.53 29.83-43.49 7.38-4.93 15.94-7.7 24.22-10.38 6.24-2 12.68-4.1 18.56-7.08a62.89 62.89 0 0025.73-24.46 125.3 125.3 0 006.5-13.84 117.2 117.2 0 017.22-15.1c5.2-8.63 14.84-17.63 26.23-17l-.08 1.52c-10.77-.6-19.88 8-24.84 16.25a117.6 117.6 0 00-7.13 14.9 126.2 126.2 0 01-6.57 14 64.35 64.35 0 01-26.37 25c-6 3-12.49 5.15-18.78 7.18-8.18 2.65-16.64 5.39-23.85 10.19-14.58 9.74-22.45 26.49-29.26 42.82"></path></g><g class="hashtag_landing_page_error_dark_mode__cls-2" clip-path="url(#hashtag_landing_page_error_dark_mode__a)"><path class="hashtag_landing_page_error_dark_mode__cls-5" d="M257.9327327 155.29797313l1.36841449-.684355 4.25820888 8.5145791-1.3684145.684355z"></path><path class="hashtag_landing_page_error_dark_mode__cls-5" d="M256.2 164l-1-1.1 10.2-9.8 1 1.1z"></path></g><g class="hashtag_landing_page_error_dark_mode__cls-2" clip-path="url(#hashtag_landing_page_error_dark_mode__a)"><path d="M211.85 83c37.45 1.7 52.35 19.57 51.36 39.29-1 20-20 36.61-61.18 49.09C154.21 185.9 89 202.63 89 202.63l-18.66-10.88s86.6-23 106.58-28.64c15.1-4.25 64.61-16.67 71.49-39.15 6.29-20.53-12.48-31.79-35.25-36C191.43 84 153 89.7 153 89.7s29.6-8 58.84-6.67" fill="#cbcd00"></path><path class="hashtag_landing_page_error_dark_mode__cls-10" d="M88.89290963 196.45456298l54.19224104-13.87388235.37946085 1.4821975-54.19224104 13.87388236zM89.95036936 190.81553876l35.45817104-9.38831755.38904697 1.46936805-35.45817105 9.38831754z"></path><path fill="#6b9fff" d="M2.03 219.7L64.45 170l60.45 41.8z"></path><path class="hashtag_landing_page_error_dark_mode__cls-5" d="M2.03 219.7L64.45 170l60.45 41.8z"></path></g><g clip-path="url(#hashtag_landing_page_error_dark_mode__b)"><path d="M64.44 171.9l.85.6-7.82 4.25 7-4.85m0-1.86s-25.77 17.84-27.15 19.43l30.85-16.8z" fill="#7c35dd"></path><path class="hashtag_landing_page_error_dark_mode__cls-14" d="M124.9 211.8l-12.2-9.37-67.53 18.3c17.45-1.17 79.73-8.93 79.73-8.93M37.32 189.5l34.79-15.17-7.66-4.3S38.7 187.91 37.32 189.5"></path></g><g class="hashtag_landing_page_error_dark_mode__cls-2" clip-path="url(#hashtag_landing_page_error_dark_mode__a)"><path class="hashtag_landing_page_error_dark_mode__cls-14" d="M56.79 196.6l41.24-32.7-7.77 24zM42.5 197.6s-4.17 3.08-2 6.38c2.64 4 16.92 1.51 16.92 1.51s-18.66 7.24-21.9 1.68c-3-5.13 7-9.57 7-9.57"></path></g></g></defs></svg>