<svg xmlns:xlink="http://www.w3.org/1999/xlink" xmlns="http://www.w3.org/2000/svg" viewBox="0 0 24 24" preserveAspectRatio="xMidYMid meet" focusable="false" class="style-scope yt-icon" style="pointer-events: none; display: block; width: 100%; height: 100%;" width="24"  height="24" ><g class="style-scope yt-icon" fill="#FFFFFF"><path d="M10,9l5.2,3L10,15V9z M13.22,3h-2.44l-0.55,2.2L10.1,5.71L9.61,5.9C9,6.12,8.42,6.45,7.88,6.88L7.48,7.2l-0.5-0.14 L4.82,6.44L3.6,8.56l1.63,1.59l0.37,0.36l-0.08,0.51C5.47,11.34,5.44,11.67,5.44,12s0.03,0.66,0.08,0.98l0.08,0.51l-0.37,0.36 L3.6,15.44l1.22,2.11l2.17-0.62l0.5-0.14l0.4,0.32C8.42,17.55,9,17.88,9.61,18.1l0.5,0.18l0.13,0.51l0.55,2.2h2.44l0.55-2.2 l0.13-0.51l0.5-0.18c0.61-0.23,1.19-0.56,1.72-0.98l0.4-0.32l0.5,0.14l2.17,0.62l1.22-2.11l-1.63-1.59l-0.37-0.36l0.08-0.51 c0.05-0.32,0.08-0.64,0.08-0.98s-0.03-0.66-0.08-0.98l-0.08-0.51l0.37-0.36l1.63-1.59l-1.22-2.11l-2.17,0.62l-0.5,0.14l-0.4-0.32 C15.58,6.45,15,6.12,14.39,5.9l-0.5-0.18L13.77,5.2L13.22,3 M14,2l0.74,2.96c0.73,0.27,1.4,0.66,2,1.14l2.92-0.83l2,3.46l-2.19,2.13 c0.06,0.37,0.09,0.75,0.09,1.14s-0.03,0.77-0.09,1.14l2.19,2.13l-2,3.46l-2.92-0.83c-0.6,0.48-1.27,0.87-2,1.14L14,22h-4l-0.74-2.96 c-0.73-0.27-1.4-0.66-2-1.14l-2.92,0.83l-2-3.46l2.19-2.13C4.47,12.77,4.44,12.39,4.44,12s0.03-0.77,0.09-1.14L2.34,8.73l2-3.46 L7.26,6.1c0.6-0.48,1.27-0.87,2-1.14L10,2H14L14,2z" class="style-scope yt-icon" fill="#FFFFFF"></path></g></svg>