<svg xmlns:xlink="http://www.w3.org/1999/xlink" xmlns="http://www.w3.org/2000/svg" viewBox="0 0 16 16" preserveAspectRatio="xMidYMid meet" focusable="false" class="style-scope yt-icon" style="pointer-events: none; display: block; width: 100%; height: 100%;" width="20"  height="20" ><g class="style-scope yt-icon" fill="#FFFFFF"><path d="M12.42,14A1.54,1.54,0,0,0,14,12.87l1-4.24C15.12,7.76,15,7,14,7H10l1.48-3.54A1.17,1.17,0,0,0,10.24,2a1.49,1.49,0,0,0-1.08.46L5,7H1v7ZM9.89,3.14A.48.48,0,0,1,10.24,3a.29.29,0,0,1,.23.09S9,6.61,9,6.61L8.46,8H14c0,.08-1,4.65-1,4.65a.58.58,0,0,1-.58.35H6V7.39ZM2,8H5v5H2Z" class="style-scope yt-icon" fill="#FFFFFF"></path></g></svg>