<svg width='100'  height='100' ><defs><g id="info"><path d="M10,5H8v2h2V5z M10,8H8v5h2V8z M9,2c3.86,0,7,3.14,7,7s-3.14,7-7,7s-7-3.14-7-7S5.14,2,9,2 M9,1C4.58,1,1,4.58,1,9
	s3.58,8,8,8s8-3.58,8-8S13.42,1,9,1L9,1z"></path></g><g id="lock-filled"><path d="M13,6V5c0-2.21-1.79-4-4-4C6.79,1,5,2.79,5,5v1H3v11h12V6H13z M6,5c0-1.65,1.35-3,3-3c1.65,0,3,1.35,3,3v1H6V5z M9,13 c-1.1,0-2-0.9-2-2c0-1.1,0.9-2,2-2s2,0.9,2,2C11,12.1,10.1,13,9,13z"></path></g><g id="lock"><path d="M13,5c0-2.21-1.79-4-4-4C6.79,1,5,2.79,5,5v1H3v11h12V6h-2V5z M6,5c0-1.65,1.35-3,3-3c1.65,0,3,1.35,3,3v1H6V5z M14,7v9H4 V7H14z M7,11c0-1.1,0.9-2,2-2s2,0.9,2,2c0,1.1-0.9,2-2,2S7,12.1,7,11z"></path></g><g id="privacy_public-filled"><path d="M9,1C4.58,1,1,4.58,1,9s3.58,8,8,8s8-3.58,8-8S13.42,1,9,1z M10,15.92V14H9c-0.55,0-1-0.45-1-1v-0.77L2.04,8.26   C2.41,4.75,5.39,2,9,2c0.7,0,1.37,0.11,2,0.29V3c0,0.55-0.45,1-1,1H8v3c0,0.55-0.45,1-1,1H5.5v1H10c0.55,0,1,0.45,1,1   c0,1.1,0.9,2,2,2h1v1.89C12.95,14.96,11.56,15.7,10,15.92z"></path></g><g id="privacy_public"><path d="M9,1C4.58,1,1,4.58,1,9s3.58,8,8,8s8-3.58,8-8S13.42,1,9,1z M16,9c0,1.31-0.37,2.54-1,3.59V11h-2c-0.55,0-1-0.45-1-1   c0-1.1-0.9-2-2-2H8.73C8.9,7.71,9,7.36,9,7V5h1c1.1,0,2-0.9,2-2V2.69C14.36,3.81,16,6.21,16,9z M2.02,9.45L7,12.77V13   c0,1.1,0.9,2,2,2v1C5.29,16,2.26,13.1,2.02,9.45z M10,15.92V14H9c-0.55,0-1-0.45-1-1v-0.77L2.04,8.26C2.41,4.75,5.39,2,9,2   c0.7,0,1.37,0.11,2,0.29V3c0,0.55-0.45,1-1,1H8v3c0,0.55-0.45,1-1,1H5.5v1H10c0.55,0,1,0.45,1,1c0,1.1,0.9,2,2,2h1v1.89   C12.95,14.96,11.56,15.7,10,15.92z"></path></g></defs></svg>