<svg width='100'  height='100' ><defs><g id="check-filled"><path d="M4.5,10.91L1.79,8.21l1.41-1.41L4.5,8.09l5.29-5.29l1.41,1.41L4.5,10.91z"></path></g><g id="check"><path d="M4.5,10.21L2.15,7.85l0.71-0.71L4.5,8.79l5.65-5.65l0.71,0.71L4.5,10.21z"></path></g><g id="check_circle_thick-filled"><path d="M6.5,1C3.46,1,1,3.46,1,6.5C1,9.54,3.46,12,6.5,12C9.54,12,12,9.54,12,6.5C12,3.46,9.54,1,6.5,1z M5.5,9.91L2.79,7.21 l1.41-1.41L5.5,7.09l3.29-3.29l1.41,1.41L5.5,9.91z"></path></g><g id="check_circle_thick"><path d="M6.5,2C8.98,2,11,4.02,11,6.5S8.98,11,6.5,11S2,8.98,2,6.5S4.02,2,6.5,2 M6.5,1C3.46,1,1,3.46,1,6.5S3.46,12,6.5,12 S12,9.54,12,6.5S9.54,1,6.5,1L6.5,1z M10.21,5.21L8.79,3.79L5.5,7.09L4.21,5.79L2.79,7.21L5.5,9.91L10.21,5.21z"></path></g><g id="music-filled"><path d="M11,1H6v6.51C5.58,7.19,5.07,7,4.5,7C3.12,7,2,8.12,2,9.5C2,10.88,3.12,12,4.5,12C5.88,12,7,10.88,7,9.5V4h4V1z"></path></g><g id="music"><path d="M11,1H6v6.51C5.58,7.19,5.07,7,4.5,7C3.12,7,2,8.12,2,9.5C2,10.88,3.12,12,4.5,12C5.88,12,7,10.88,7,9.5V4h4V1z M4.5,11 C3.67,11,3,10.33,3,9.5S3.67,8,4.5,8S6,8.67,6,9.5S5.33,11,4.5,11z M10,3H7V2h3V3z"></path></g></defs></svg>