<svg width='24'  height='24' ><defs><g id="account_box-filled"><path d="M3,3v18h18V3H3z M20,20H4v-0.08c0.44-3.2,2.87-5.74,7.28-5.99C9.42,13.59,8,11.96,8,10c0-2.21,1.79-4,4-4 c2.21,0,4,1.79,4,4c0,1.96-1.42,3.59-3.28,3.93c4.41,0.25,6.84,2.8,7.28,5.99V20z"></path></g><g id="account_box"><path d="M3,3v18h18V3H3z M4.99,20c0.39-2.62,2.38-5.1,7.01-5.1s6.62,2.48,7.01,5.1H4.99z M9,10c0-1.65,1.35-3,3-3s3,1.35,3,3 c0,1.65-1.35,3-3,3S9,11.65,9,10z M12.72,13.93C14.58,13.59,16,11.96,16,10c0-2.21-1.79-4-4-4c-2.21,0-4,1.79-4,4 c0,1.96,1.42,3.59,3.28,3.93c-4.42,0.25-6.84,2.8-7.28,6V4h16v15.93C19.56,16.73,17.14,14.18,12.72,13.93z"></path></g><g id="account_circle-filled"><path d="M12,2C6.48,2,2,6.48,2,12c0,5.52,4.48,10,10,10s10-4.48,10-10C22,6.48,17.52,2,12,2z M8,9c0-2.21,1.79-4,4-4s4,1.79,4,4 c0,1.97-1.43,3.6-3.31,3.93c3.4,0.14,5.85,1.31,7.38,3.03C18.6,18.94,15.54,21,12,21c-3.54,0-6.6-2.06-8.07-5.04 c1.53-1.72,3.98-2.89,7.38-3.03C9.43,12.6,8,10.97,8,9z"></path></g><g id="account_circle"><path d="M12,2C6.48,2,2,6.48,2,12c0,5.52,4.48,10,10,10s10-4.48,10-10C22,6.48,17.52,2,12,2z M12,3c4.96,0,9,4.04,9,9 c0,1.42-0.34,2.76-0.93,3.96c-1.53-1.72-3.98-2.89-7.38-3.03C14.57,12.6,16,10.97,16,9c0-2.21-1.79-4-4-4C9.79,5,8,6.79,8,9 c0,1.97,1.43,3.6,3.31,3.93c-3.4,0.14-5.85,1.31-7.38,3.03C3.34,14.76,3,13.42,3,12C3,7.04,7.04,3,12,3z M9,9c0-1.65,1.35-3,3-3 s3,1.35,3,3c0,1.65-1.35,3-3,3S9,10.65,9,9z M12,21c-3.16,0-5.94-1.64-7.55-4.12C6.01,14.93,8.61,13.9,12,13.9 c3.39,0,5.99,1.03,7.55,2.98C17.94,19.36,15.16,21,12,21z"></path></g><g id="account_linked"><path d="M19.5,12.1L22,9.5L18,4H6L2,9.5L12,20l1.3-1.4c0.8,0.8,2,1.4,3.2,1.4c2.5,0,4.5-2,4.5-4.5C21,14.2,20.4,13,19.5,12.1 C19.5,12.1,19.5,12.1,19.5,12.1z M18.6,11.6C18,11.2,17.3,11,16.5,11c0,0-0.1,0-0.1,0l0.5-1h3.3L18.6,11.6z M17.5,5l2.9,4h-3.6 l-2-4H17.5z M13.7,5l2,4H8.3l2-4H13.7z M6.5,5h2.7l-2,4H3.6L6.5,5z M3.9,10h3.3l2.9,6.5L3.9,10z M12,15.5c0,0.7,0.2,1.3,0.4,1.9 c0,0,0,0,0,0l-0.4,1L8.3,10h7.5l-0.5,1.2c0,0,0,0,0,0C13.3,11.8,12,13.5,12,15.5z M16.2,17.4L14.8,16l0.7-0.7l0.7,0.7l1.9-1.9 l0.7,0.7L16.2,17.4z"></path></g><g id="account_unlinked"><path d="M18,4H6L2,9.5L12,20L22,9.5L18,4z M7.18,10l2.92,6.55L3.86,10H7.18z M15.73,10L12,18.37L8.27,10H15.73z M8.31,9l2-4h3.38 l2,4H8.31z M16.82,10h3.32l-6.23,6.55L16.82,10z M20.4,9h-3.59l-2-4h2.68L20.4,9z M6.51,5h2.68l-2,4H3.6L6.51,5z"></path></g><g id="add"><path d="M20,12h-8v8h-1v-8H3v-1h8V3h1v8h8V12z"></path></g><g id="add_circle"><path d="M17,13h-4v4h-2v-4H7v-2h4V7h2v4h4V13z M12,3c-4.96,0-9,4.04-9,9s4.04,9,9,9c4.96,0,9-4.04,9-9S16.96,3,12,3 M12,2 c5.52,0,10,4.48,10,10s-4.48,10-10,10C6.48,22,2,17.52,2,12S6.48,2,12,2L12,2z"></path></g><g id="add_moderator"><path d="M20,18h-2v2h-1v-2h-2v-1h2v-2h1v2h2V18z M22,17.5c0,2.49-2.01,4.5-4.5,4.5c-1.11,0-2.11-0.42-2.9-1.08 c-0.78,0.47-1.61,0.83-2.49,1.05L12,22l-0.12-0.03c-2.43-0.61-4.53-2.26-5.95-4.44c-0.19-0.29-0.36-0.58-0.52-0.88 c-0.22-0.41-0.42-0.84-0.6-1.28C4.3,14.05,4,12.62,4,11.15V5.67L12,2l8,3.67v5.49c0,0.83-0.1,1.65-0.28,2.45 C21.07,14.38,22,15.83,22,17.5z M13.9,20.17C13.34,19.42,13,18.5,13,17.5c0-2.49,2.01-4.5,4.5-4.5c0.45,0,0.88,0.09,1.29,0.21 c0.14-0.68,0.21-1.37,0.21-2.05V6.31L12,3.1L5,6.31v4.84c0,1.3,0.25,2.6,0.75,3.86c0.15,0.37,0.33,0.76,0.55,1.17 c0.14,0.27,0.31,0.54,0.48,0.81C8.09,19,9.94,20.41,12,20.97C12.66,20.79,13.29,20.52,13.9,20.17z M21,17.5c0-1.93-1.57-3.5-3.5-3.5 S14,15.57,14,17.5s1.57,3.5,3.5,3.5S21,19.43,21,17.5z"></path></g><g id="add_to_queue"><path d="M14,8H2V7h12V8z M10,11H2v1h8V11z M10,15H2v1h8V15z M22,7h-5v7.51C16.58,14.19,16.07,14,15.5,14c-1.38,0-2.5,1.12-2.5,2.5 c0,1.38,1.12,2.5,2.5,2.5c1.35,0,2.44-1.07,2.49-2.4L18,16.58V10h4V7z"></path></g><g id="add_to_queue_tail"><path d="M21,16h-7v-1h7V16z M21,11H9v1h12V11z M21,7H3v1h18V7z M10,15l-7-4v8L10,15z"></path></g><g id="add_video_link"><path d="M21,19h-2v2h-2v-2h-2v-2h2v-2h2v2h2V19z M4,3H3v18h1V3z M8,15H6v2h2V15z M8,11H6v2h2V11z M8,7H6v2h2V7z M8,19H6v2h2V19z M18,11h-2v2h2V11z M18,7h-2v2h2V7z M8,3H6v2h2V3z M18,3h-2v2h2V3z M21,3h-1v10h1V3z"></path></g><g id="album-filled"><path d="M13.11,12c0,0.61-0.5,1.11-1.11,1.11s-1.11-0.5-1.11-1.11s0.5-1.11,1.11-1.11S13.11,11.39,13.11,12z M22,12 c0,5.52-4.48,10-10,10S2,17.52,2,12S6.48,2,12,2S22,6.48,22,12z M17,12c0-2.77-2.23-5-5-5s-5,2.23-5,5s2.23,5,5,5S17,14.77,17,12z"></path></g><g id="album"><path d="M12,3c4.96,0,9,4.04,9,9s-4.04,9-9,9s-9-4.04-9-9S7.04,3,12,3 M12,2C6.48,2,2,6.48,2,12s4.48,10,10,10s10-4.48,10-10 S17.52,2,12,2L12,2z M12,7c-2.77,0-5,2.23-5,5s2.23,5,5,5s5-2.23,5-5S14.77,7,12,7z M12,13.11c-0.61,0-1.11-0.5-1.11-1.11 s0.5-1.11,1.11-1.11s1.11,0.5,1.11,1.11S12.61,13.11,12,13.11z"></path></g><g id="apps-filled"><path d="M16,4v4h4V4H16z M16,10v4h4v-4H16z M10,4v4h4V4H10z M10,10v4h4v-4H10z M16,16v4h4v-4H16z M10,16v4h4v-4H10z M4,4v4h4V4H4z M4,10v4h4v-4H4z M4,16v4h4v-4H4z"></path></g><g id="apps"><path d="M16,4v4h4V4H16z M19,7h-2V5h2V7z M16,10v4h4v-4H16z M19,13h-2v-2h2V13z M10,4v4h4V4H10z M13,7h-2V5h2V7z M10,10v4h4v-4H10z M13,13h-2v-2h2V13z M16,16v4h4v-4H16z M19,19h-2v-2h2V19z M10,16v4h4v-4H10z M13,19h-2v-2h2V19z M4,4v4h4V4H4z M7,7H5V5h2V7z M4,10 v4h4v-4H4z M7,13H5v-2h2V13z M4,16v4h4v-4H4z M7,19H5v-2h2V19z"></path></g><g mirror-in-rtl="" id="arrow_back"><path d="M21,11v1H5.64l6.72,6.72l-0.71,0.71L3.72,11.5l7.92-7.92l0.71,0.71L5.64,11H21z"></path></g><g id="arrow_drop_down"><path d="M18,9l-6,6L6,9H18z"></path></g><g id="arrow_drop_up"><path d="M18,15H6l6-6L18,15z"></path></g><g id="arrow_flip"><path d="M8,9.03H3.92C5.38,5.8,8.6,3.57,12.19,3.57c4.09,0,6.96,2.71,8.11,6.43h1.11c-1.18-4.32-4.53-7.5-9.21-7.5 c-3.88,0-7.49,2.22-9.2,5.63V3H2.01v7H8V9.03z M16.04,14.97h4.07c-1.47,3.23-4.68,5.46-8.27,5.46c-4.09,0-6.96-2.71-8.11-6.43H2.62 c1.18,4.32,4.53,7.5,9.21,7.5c3.88,0,7.49-2.22,9.2-5.63V21H22v-7h-5.96V14.97z"></path></g><g mirror-in-rtl="" id="arrow_forward"><path d="M3.01,12v-1h15.36l-6.72-6.72l0.71-0.71l7.92,7.92l-7.92,7.92l-0.71-0.71L18.36,12H3.01z"></path></g><g id="artist-filled"><path d="M22,10h-4v2v3.51C17.58,15.19,17.07,15,16.5,15c-1.38,0-2.5,1.12-2.5,2.5c0,1.38,1.12,2.5,2.5,2.5 c1.36,0,2.46-1.08,2.5-2.43V12h3V10z M12.81,20H2c0-4.24,2.77-7.79,8.28-8.07C8.42,11.59,7,9.96,7,8c0-2.21,1.79-4,4-4 c2.21,0,4,1.79,4,4c0,1.96-1.42,3.59-3.28,3.93c0.92,0.05,1.75,0.19,2.51,0.41C12.87,13.44,12,15.12,12,17 C12,18.09,12.3,19.12,12.81,20z"></path></g><g id="artist"><path d="M22,10h-4v2v3.51C17.58,15.19,17.07,15,16.5,15c-1.38,0-2.5,1.12-2.5,2.5c0,1.38,1.12,2.5,2.5,2.5 c1.36,0,2.46-1.08,2.5-2.43V12h3V10z M3.06,19c0.38-3.11,2.61-6.1,7.94-6.1c0.62,0,1.19,0.05,1.73,0.13l0.84-0.84 c-0.58-0.13-1.19-0.23-1.85-0.26C13.58,11.59,15,9.96,15,8c0-2.21-1.79-4-4-4C8.79,4,7,5.79,7,8c0,1.96,1.42,3.59,3.28,3.93 C4.77,12.21,2,15.76,2,20h10.02L12,19H3.06z M8,8c0-1.65,1.35-3,3-3s3,1.35,3,3s-1.35,3-3,3S8,9.65,8,8z"></path></g><g id="auto-awesome-filled"><path d="M9.91,19.19l-1.56-5.53L2.83,12.1l5.53-1.56l1.56-5.53l1.56,5.53L17,12.1l-5.53,1.56L9.91,19.19z M16.72,16.81l-2.76,0.78 l2.76,0.78l0.78,2.76l0.78-2.76l2.76-0.78l-2.76-0.78l-0.78-2.76L16.72,16.81z M17.5,2.96l-0.78,2.76L13.96,6.5l2.76,0.78 l0.78,2.76l0.78-2.76l2.76-0.78l-2.76-0.78L17.5,2.96z"></path></g><g id="auto-awesome"><path d="M9.91,8.7l0.6,2.12l0.15,0.54l0.54,0.15l2.12,0.6l-2.12,0.6l-0.54,0.15l-0.15,0.54l-0.6,2.12l-0.6-2.12l-0.15-0.54 L8.62,12.7l-2.12-0.6l2.12-0.6l0.54-0.15l0.15-0.54L9.91,8.7 M9.91,5.01l-1.56,5.53L2.83,12.1l5.53,1.56l1.56,5.53l1.56-5.53 L17,12.1l-5.53-1.56L9.91,5.01L9.91,5.01z M16.72,16.81l-2.76,0.78l2.76,0.78l0.78,2.76l0.78-2.76l2.76-0.78l-2.76-0.78l-0.78-2.76 L16.72,16.81z M17.5,2.96l-0.78,2.76L13.96,6.5l2.76,0.78l0.78,2.76l0.78-2.76l2.76-0.78l-2.76-0.78L17.5,2.96z"></path></g><g id="bar_chart-filled"><path d="M17,14v3h-2v-3H17z M11,7v10h2V7H11z M7,10v7h2v-7H7z"></path></g><g id="bar_chart"><path d="M16,14v3h-1v-3H16z M11,7v10h1V7H11z M7,10v7h1v-7H7z"></path></g><g id="bookmark-filled"><path d="M19,3H5v18l7-5l7,5V3z"></path></g><g id="bookmark"><path d="M18,4v15.06l-5.42-3.87L12,14.77l-0.58,0.42L6,19.06V4H18 M19,3H5v18l7-5l7,5V3L19,3z"></path></g><g id="calendar-filled"><path d="M18,4V2h-2v2H8V2H6v2H3v18h18V4H18z M19,20H5V9h14V20z"></path></g><g id="calendar"><path d="M19,20H5V9h14V20z M18,4V2h-2v2H8V2H6v2H3v18h18V4H18z M20,21H4V5h16V21z"></path></g><g id="camera_alt"><path d="M12,10c1.65,0,3,1.35,3,3s-1.35,3-3,3s-3-1.35-3-3S10.35,10,12,10 M12,9c-2.21,0-4,1.79-4,4s1.79,4,4,4s4-1.79,4-4 S14.21,9,12,9L12,9z M14.59,5l1.71,1.71L16.59,7H17h4v12H3V7h4h0.41l0.29-0.29L9.41,5H14.59 M15,4H9L7,6H2v14h20V6h-5L15,4L15,4z"></path></g><g height="24" width="24" id="cast_outline"><path d="M22 20h-8v-1h7V5H3v3H2V4h20v16zM2 17.32V20h2.73c0-1.48-1.22-2.68-2.73-2.68zm0-3.57v1.79c2.51 0 4.55 2 4.55 4.46h1.82c-.01-3.45-2.85-6.25-6.37-6.25zm0-3.57v1.79c4.52 0 8.18 3.6 8.18 8.03H12c0-5.43-4.48-9.82-10-9.82z"></path></g><g id="chat_bubble-filled"><path d="M4,2v15h11l5,5V2H4z"></path></g><g id="chat_bubble"><path d="M5,3h14v16.59l-3.29-3.29L15.41,16H15H5V3 M4,2v15h11l5,5V2H4L4,2z"></path></g><g id="chat_off-filled"><path d="M3.85,3.15L3.15,3.85L4,4.71V22l5-5h7.29l3.85,3.85l0.71-0.71L3.85,3.15z M8,13v-2h2.29l2,2H8z M10.54,7l-5-5H20v14.46 L12.54,9H16V7H10.54z"></path></g><g id="chat_off"><path d="M13,12.29V11h-1.29l-2-2H16V7H8v0.29L3.85,3.15L3.15,3.85L4,4.71V22l5-5h7.29l3.85,3.85l0.71-0.71L13,12.29z M10.29,11H8v2 h4.29l3,3H9H8.59l-0.29,0.29L5,19.59V5.71L10.29,11z M6.54,3l-1-1H20v14.46l-1-1V3H6.54z"></path></g><g id="check-filled"><path d="M9,19.4l-5.7-5.7l1.4-1.4L9,16.6L20.3,5.3l1.4,1.4L9,19.4z"></path></g><g id="check"><path d="M9,18.7l-5.4-5.4l0.7-0.7L9,17.3L20.6,5.6l0.7,0.7L9,18.7z"></path></g><g id="check_circle_thick-filled"><path d="M12,2C6.5,2,2,6.5,2,12c0,5.5,4.5,10,10,10s10-4.5,10-10C22,6.5,17.5,2,12,2z M9.8,17.3l-4.2-4.1L7,11.8l2.8,2.7L17,7.4 l1.4,1.4L9.8,17.3z"></path></g><g id="check_circle_thick"><path d="M9.8,17.3l-4.2-4.1L7,11.8l2.8,2.7L17,7.4l1.4,1.4L9.8,17.3z M12,3c-5,0-9,4-9,9s4,9,9,9s9-4,9-9S17,3,12,3 M12,2 c5.5,0,10,4.5,10,10s-4.5,10-10,10S2,17.5,2,12S6.5,2,12,2L12,2z"></path></g><g mirror-in-rtl="" id="chevron_left"><path d="M14.6,18.4L8.3,12l6.4-6.4l0.7,0.7L9.7,12l5.6,5.6L14.6,18.4z"></path></g><g mirror-in-rtl="" id="chevron_right"><path d="M9.4,18.4l-0.7-0.7l5.6-5.6L8.6,6.4l0.7-0.7l6.4,6.4L9.4,18.4z"></path></g><g id="clarify"><path fill-rule="evenodd" clip-rule="evenodd" d="M13,17H6v-2h7V17z M13,13H6v-2h7V13z M13,9H6V7h7V9z M18,17h-2V7h2V17z M20,4v16H4 V4H20 M21,3H3v18h18V3L21,3z"></path></g><g id="close"><path d="M12.7,12l6.6,6.6l-0.7,0.7L12,12.7l-6.6,6.6l-0.7-0.7l6.6-6.6L4.6,5.4l0.7-0.7l6.6,6.6l6.6-6.6l0.7,0.7L12.7,12z"></path></g><g id="collapse"><polygon points="18.4,14.6 12,8.3 5.6,14.6 6.4,15.4 12,9.7 17.6,15.4 "></polygon></g><g id="comment-filled"><path d="M4,2v15h11l5,5V2H4z M8,11h5v2H8V11z M8,7h8v2H8V7z"></path></g><g id="comment"><path d="M8,7h8v2H8V7z M8,13h5v-2H8V13z M5,3v13h10h0.41l0.29,0.29L19,19.59V3H5 M4,2h16v20l-5-5H4V2L4,2z"></path></g><g id="content_cut-filled"><path d="M22,3h-4l-5,5l3,3l6-6V3L22,3z M10.79,7.79C10.91,7.38,11,6.95,11,6.5C11,4.01,8.99,2,6.5,2S2,4.01,2,6.5S4.01,11,6.5,11 c0.45,0,0.88-0.09,1.29-0.21L9,12l-1.21,1.21C7.38,13.09,6.95,13,6.5,13C4.01,13,2,15.01,2,17.5S4.01,22,6.5,22s4.5-2.01,4.5-4.5 c0-0.45-0.09-0.88-0.21-1.29L12,15l6,6h4v-2L10.79,7.79z M6.5,8C5.67,8,5,7.33,5,6.5S5.67,5,6.5,5S8,5.67,8,6.5S7.33,8,6.5,8z M6.5,19C5.67,19,5,18.33,5,17.5S5.67,16,6.5,16S8,16.67,8,17.5S7.33,19,6.5,19z"></path></g><g id="content_cut"><path d="M8,7c0,0.55-0.45,1-1,1S6,7.55,6,7c0-0.55,0.45-1,1-1S8,6.45,8,7z M7,16c-0.55,0-1,0.45-1,1c0,0.55,0.45,1,1,1s1-0.45,1-1 C8,16.45,7.55,16,7,16z M10.79,8.23L21,18.44V20h-3.27l-5.76-5.76l-1.27,1.27C10.89,15.97,11,16.47,11,17c0,2.21-1.79,4-4,4 c-2.21,0-4-1.79-4-4c0-2.21,1.79-4,4-4c0.42,0,0.81,0.08,1.19,0.2l1.37-1.37l-1.11-1.11C8,10.89,7.51,11,7,11c-2.21,0-4-1.79-4-4 c0-2.21,1.79-4,4-4c2.21,0,4,1.79,4,4C11,7.43,10.91,7.84,10.79,8.23z M10.08,8.94L9.65,8.5l0.19-0.58C9.95,7.58,10,7.28,10,7 c0-1.65-1.35-3-3-3S4,5.35,4,7c0,1.65,1.35,3,3,3c0.36,0,0.73-0.07,1.09-0.21L8.7,9.55l0.46,0.46l1.11,1.11l0.71,0.71l-0.71,0.71 L8.9,13.91l-0.43,0.43l-0.58-0.18C7.55,14.05,7.27,14,7,14c-1.65,0-3,1.35-3,3c0,1.65,1.35,3,3,3s3-1.35,3-3 c0-0.38-0.07-0.75-0.22-1.12l-0.25-0.61L10,14.8l1.27-1.27l0.71-0.71l0.71,0.71L18.15,19H20v-0.15L10.08,8.94z M17.73,4H21v1.56 l-5.52,5.52l-2.41-2.41L17.73,4z M18.15,5l-3.67,3.67l1,1L20,5.15V5H18.15z"></path></g><g id="copy"><path d="M19,6v15H8V6H19 M15,2H4v16h1V3h10V2L15,2z M20,5H7v17h13V5L20,5z"></path></g><g id="course-filled"><path d="M16,21h-2.28c-0.35,0.6-0.98,1-1.72,1s-1.38-0.4-1.72-1H8v-1h8V21z M20,10c0,2.96-1.61,5.54-4,6.92V19H8v-2.08 C5.61,15.54,4,12.96,4,10c0-4.42,3.58-8,8-8S20,5.58,20,10z"></path></g><g id="course"><path d="M16,21h-2.28c-0.35,0.6-0.98,1-1.72,1s-1.38-0.4-1.72-1H8v-1h8V21z M20,10c0,2.96-1.61,5.54-4,6.92V19H8v-2.08 C5.61,15.54,4,12.96,4,10c0-4.42,3.58-8,8-8S20,5.58,20,10z M15,18v-1.66l0.5-0.29C17.66,14.8,19,12.48,19,10c0-3.86-3.14-7-7-7 s-7,3.14-7,7c0,2.48,1.34,4.8,3.5,6.06L9,16.34V18H15z"></path></g><g id="creation_post-filled"><path d="M15.01,5.92l3.06,3.06L9.05,18H5.99v-3.06L15.01,5.92L15.01,5.92z M17.91,3.02L15.83,5.1l3.09,3.09L21,6.11L17.91,3.02 L17.91,3.02z M21,10h-1v10H4V4h10V3H3v18h18V10z"></path></g><g id="creation_post"><path d="M15.01,7.34l1.64,1.64L8.64,17H6.99v-1.64L15.01,7.34 M15.01,5.92l-9.02,9.02V18h3.06l9.02-9.02L15.01,5.92L15.01,5.92z M17.91,4.43l1.67,1.67l-0.67,0.67L17.24,5.1L17.91,4.43 M17.91,3.02L15.83,5.1l3.09,3.09L21,6.11L17.91,3.02L17.91,3.02z M21,10h-1 v10H4V4h10V3H3v18h18V10z"></path></g><g id="creator_metadata_monetization-filled"><path d="M17.37,15.17c0,1.19-0.45,2.13-1.35,2.81c-0.76,0.58-1.78,0.89-3.02,0.98V21h-2v-2.11c-0.59-0.1-1.15-0.25-1.67-0.48 c-0.9-0.4-1.57-0.94-2.02-1.63c-0.45-0.69-0.68-1.48-0.68-2.38h3.29c0,0.73,0.19,1.27,0.57,1.61c0.38,0.35,0.99,0.52,1.84,0.52 c0.54,0,0.97-0.12,1.29-0.35c0.32-0.23,0.47-0.56,0.47-0.99c0-0.48-0.17-0.85-0.51-1.12c-0.34-0.27-0.94-0.55-1.79-0.83 s-1.55-0.56-2.1-0.83c-1.77-0.87-2.65-2.06-2.65-3.58c0-0.75,0.22-1.42,0.66-2C8.14,6.25,8.76,5.8,9.57,5.48 C10.01,5.3,10.49,5.18,11,5.1V3h2v2.03c0.7,0.07,1.33,0.23,1.91,0.49c0.78,0.35,1.38,0.85,1.81,1.49c0.43,0.65,0.65,1.38,0.65,2.21 H14.1c0-0.56-0.17-0.99-0.51-1.29c-0.34-0.31-0.8-0.46-1.38-0.46c-0.59,0-1.05,0.13-1.39,0.39c-0.34,0.26-0.51,0.59-0.51,0.99 c0,0.35,0.19,0.67,0.56,0.95c0.37,0.28,1.03,0.58,1.97,0.88c0.94,0.3,1.72,0.63,2.32,0.98C16.64,12.51,17.37,13.68,17.37,15.17z"></path></g><g id="creator_metadata_monetization"><path d="M16.95,15.35c0,1.1-0.43,1.99-1.29,2.65c-0.69,0.54-1.59,0.84-2.66,0.95V21h-2v-2.11c-0.49-0.09-0.96-0.23-1.41-0.43 c-0.81-0.36-1.44-0.85-1.88-1.47c-0.44-0.62-0.66-1.33-0.66-2.12h1.81c0,0.82,0.3,1.47,0.91,1.95c0.61,0.48,1.42,0.72,2.44,0.72 c0.95,0,1.68-0.19,2.18-0.58c0.51-0.39,0.76-0.91,0.76-1.58s-0.23-1.18-0.7-1.55c-0.47-0.36-1.32-0.73-2.55-1.08 c-1.54-0.44-2.66-0.99-3.36-1.63c-0.7-0.65-1.05-1.44-1.05-2.39c0-1.07,0.43-1.96,1.29-2.66C9.38,5.55,10.13,5.24,11,5.1V3h2v2.07 c0.58,0.08,1.12,0.23,1.62,0.48c0.73,0.36,1.3,0.86,1.7,1.5c0.4,0.64,0.6,1.33,0.6,2.09h-1.81c0-0.83-0.26-1.48-0.79-1.95 c-0.52-0.47-1.26-0.71-2.22-0.71c-0.89,0-1.58,0.19-2.07,0.59C9.54,7.45,9.3,7.99,9.3,8.68c0,0.56,0.24,1.03,0.71,1.41 c0.47,0.38,1.27,0.74,2.4,1.05c1.13,0.32,2.02,0.67,2.66,1.05c0.64,0.38,1.11,0.83,1.42,1.34C16.8,14.06,16.95,14.66,16.95,15.35z"></path></g><g id="creator_metadata_monetization_off"><path d="M20.15,20.85l-3.71-3.71c-0.2,0.32-0.45,0.61-0.77,0.86c-0.69,0.54-1.59,0.84-2.66,0.95V21h-2v-2.11 c-0.49-0.09-0.96-0.23-1.41-0.43c-0.81-0.36-1.44-0.85-1.88-1.47c-0.44-0.62-0.66-1.33-0.66-2.12h1.81c0,0.82,0.3,1.47,0.91,1.95 c0.61,0.48,1.42,0.72,2.44,0.72c0.95,0,1.68-0.19,2.18-0.58c0.39-0.3,0.62-0.68,0.71-1.14l-3.01-3.01c-0.07-0.02-0.13-0.04-0.2-0.06 c-1.54-0.44-2.66-0.99-3.36-1.63c-0.7-0.65-1.05-1.44-1.05-2.39c0-0.17,0.02-0.33,0.04-0.49L3.15,3.85l0.71-0.71l17,17L20.15,20.85z M12.11,6.47c0.95,0,1.69,0.24,2.22,0.71c0.52,0.47,0.79,1.12,0.79,1.95h1.81c0-0.75-0.2-1.45-0.6-2.09c-0.4-0.64-0.97-1.14-1.7-1.5 C14.12,5.3,13.58,5.15,13,5.07V3h-2v2.1C10.34,5.2,9.76,5.41,9.25,5.71l1.13,1.13C10.84,6.6,11.41,6.47,12.11,6.47z"></path></g><g id="creator_studio-filled"><path d="M19.56,12c0-0.39-0.03-0.77-0.09-1.14l2.19-2.13l-2-3.46L16.74,6.1c-0.6-0.48-1.27-0.87-2-1.14L14,2h-4L9.26,4.96 c-0.73,0.27-1.4,0.66-2,1.14L4.34,5.27l-2,3.46l2.19,2.13C4.47,11.23,4.44,11.61,4.44,12s0.03,0.77,0.09,1.14l-2.19,2.13l2,3.46 l2.92-0.83c0.6,0.48,1.27,0.87,2,1.14L10,22h4l0.74-2.96c0.73-0.27,1.4-0.66,2-1.14l2.92,0.83l2-3.46l-2.19-2.13 C19.53,12.77,19.56,12.39,19.56,12z M10,15V9l5.2,3L10,15z"></path></g><g id="creator_studio"><path d="M10,9l5.2,3L10,15V9z M13.22,3h-2.44l-0.55,2.2L10.1,5.71L9.61,5.9C9,6.12,8.42,6.45,7.88,6.88L7.48,7.2l-0.5-0.14 L4.82,6.44L3.6,8.56l1.63,1.59l0.37,0.36l-0.08,0.51C5.47,11.34,5.44,11.67,5.44,12s0.03,0.66,0.08,0.98l0.08,0.51l-0.37,0.36 L3.6,15.44l1.22,2.11l2.17-0.62l0.5-0.14l0.4,0.32C8.42,17.55,9,17.88,9.61,18.1l0.5,0.18l0.13,0.51l0.55,2.2h2.44l0.55-2.2 l0.13-0.51l0.5-0.18c0.61-0.23,1.19-0.56,1.72-0.98l0.4-0.32l0.5,0.14l2.17,0.62l1.22-2.11l-1.63-1.59l-0.37-0.36l0.08-0.51 c0.05-0.32,0.08-0.64,0.08-0.98s-0.03-0.66-0.08-0.98l-0.08-0.51l0.37-0.36l1.63-1.59l-1.22-2.11l-2.17,0.62l-0.5,0.14l-0.4-0.32 C15.58,6.45,15,6.12,14.39,5.9l-0.5-0.18L13.77,5.2L13.22,3 M14,2l0.74,2.96c0.73,0.27,1.4,0.66,2,1.14l2.92-0.83l2,3.46l-2.19,2.13 c0.06,0.37,0.09,0.75,0.09,1.14s-0.03,0.77-0.09,1.14l2.19,2.13l-2,3.46l-2.92-0.83c-0.6,0.48-1.27,0.87-2,1.14L14,22h-4l-0.74-2.96 c-0.73-0.27-1.4-0.66-2-1.14l-2.92,0.83l-2-3.46l2.19-2.13C4.47,12.77,4.44,12.39,4.44,12s0.03-0.77,0.09-1.14L2.34,8.73l2-3.46 L7.26,6.1c0.6-0.48,1.27-0.87,2-1.14L10,2H14L14,2z"></path></g><g id="credit_card-filled"><path d="M22 11V17C22 18.1 21.1 19 20 19H4C2.9 19 2 18.1 2 17V11H22ZM22 8V7C22 5.9 21.1 5 20 5H4C2.9 5 2 5.9 2 7V8H22Z"></path></g><g id="credit_card"><path fill-rule="evenodd" clip-rule="evenodd" d="M20 5H4C2.9 5 2 5.9 2 7V17C2 18.1 2.9 19 4 19H20C21.1 19 22 18.1 22 17V7C22 5.9 21.1 5 20 5ZM21 17C21 17.55 20.55 18 20 18H4C3.45 18 3 17.55 3 17V11H21V17ZM21 8H3V7C3 6.45 3.45 6 4 6H20C20.55 6 21 6.45 21 7V8Z"></path></g><g id="dark_theme-filled"><path d="M21.9999 12C21.9999 17.51 17.5099 22 11.9999 22C10.9299 22 9.86992 21.83 8.83992 21.48L7.41992 21.01L8.83992 20.54C12.5299 19.31 14.9999 15.88 14.9999 12C14.9999 8.12 12.5299 4.69 8.83992 3.47L7.41992 2.99L8.83992 2.52C9.86992 2.17 10.9299 2 11.9999 2C17.5099 2 21.9999 6.49 21.9999 12Z"></path></g><g id="dark_theme"><path d="M12 22C10.93 22 9.86998 21.83 8.83998 21.48L7.41998 21.01L8.83998 20.54C12.53 19.31 15 15.88 15 12C15 8.12 12.53 4.69 8.83998 3.47L7.41998 2.99L8.83998 2.52C9.86998 2.17 10.93 2 12 2C17.51 2 22 6.49 22 12C22 17.51 17.51 22 12 22ZM10.58 20.89C11.05 20.96 11.53 21 12 21C16.96 21 21 16.96 21 12C21 7.04 16.96 3 12 3C11.53 3 11.05 3.04 10.58 3.11C13.88 4.81 16 8.21 16 12C16 15.79 13.88 19.19 10.58 20.89Z"></path></g><g id="delete-filled"><path d="M15,4V3H9v1H5v1h1v16h12V5h1V4H15z M11,17H9V8h2V17z M15,17h-2V8h2V17z"></path></g><g id="delete"><path d="M11,17H9V8h2V17z M15,8h-2v9h2V8z M19,4v1h-1v16H6V5H5V4h4V3h6v1H19z M17,5H7v15h10V5z"></path></g><g id="dislike-filled"><path d="M18,4h3v10h-3V4z M5.23,14h4.23l-1.52,4.94C7.62,19.97,8.46,21,9.62,21c0.58,0,1.14-0.24,1.52-0.65L17,14V4H6.57 C5.5,4,4.59,4.67,4.38,5.61l-1.34,6C2.77,12.85,3.82,14,5.23,14z"></path></g><g id="dislike"><path d="M17,4h-1H6.57C5.5,4,4.59,4.67,4.38,5.61l-1.34,6C2.77,12.85,3.82,14,5.23,14h4.23l-1.52,4.94C7.62,19.97,8.46,21,9.62,21 c0.58,0,1.14-0.24,1.52-0.65L17,14h4V4H17z M10.4,19.67C10.21,19.88,9.92,20,9.62,20c-0.26,0-0.5-0.11-0.63-0.3 c-0.07-0.1-0.15-0.26-0.09-0.47l1.52-4.94l0.4-1.29H9.46H5.23c-0.41,0-0.8-0.17-1.03-0.46c-0.12-0.15-0.25-0.4-0.18-0.72l1.34-6 C5.46,5.35,5.97,5,6.57,5H16v8.61L10.4,19.67z M20,13h-3V5h3V13z"></path></g><g id="done_all-filled"><path d="M11.65,12.74l-1.41-1.41l5.38-5.38l1.41,1.41L11.65,12.74z M7.21,15.77l-3.79-3.79L2,13.4l3.79,3.79L7.21,15.77z M22,7.48 l-1.41-1.41l-9,9l-3.21-3.21l-1.41,1.41l4.62,4.62L22,7.48z"></path></g><g id="done_all"><path d="M10.51,14.74l-0.71-0.71l7.74-7.74L18.25,7L10.51,14.74z M7.31,17.24l-4.35-4.35l-0.71,0.71l4.35,4.35L7.31,17.24z M21.75,7 L21.04,6.3L10.45,16.88l-4-4l-0.71,0.71l4.71,4.71L21.75,7z"></path></g><g id="down_arrow-filled"><path d="M17.7,14.7L12,20.4l-5.7-5.7l1.4-1.4l3.3,3.3V4h2v12.6l3.3-3.3L17.7,14.7z"></path></g><g id="down_arrow"><path d="M16.9,14.9l-5.4,5.4l-5.4-5.4l0.7-0.7l4.1,4.1V4h1v14.3l4.1-4.1L16.9,14.9z"></path></g><g id="drag_handle"><path d="M21,10H3V9h18V10z M21,14H3v1h18V14z"></path></g><g id="edit"><path d="M14.06,7.6l2.34,2.34L6.34,20H4v-2.34L14.06,7.6 M14.06,6.19L3,17.25V21h3.75L17.81,9.94L14.06,6.19L14.06,6.19z M17.61,4.05l2.37,2.37l-1.14,1.14l-2.37-2.37L17.61,4.05 M17.61,2.63l-2.55,2.55l3.79,3.79l2.55-2.55L17.61,2.63L17.61,2.63z"></path></g><g id="email-filled"><path d="M2,5.78V5h20v0.73l-10.04,7.83L2,5.78z M11.96,16.06L2,8.31V19h20V8.26L11.96,16.06z"></path></g><g id="email"><path d="M2,5v14h20V5H2z M21,6v0.88l-9,6.8l-9-6.8V6H21z M3,18V8.13l9,6.8l9-6.8V18H3z"></path></g><g id="emoji_activities-filled"><path d="M18,10c-0.74,0-1.42-0.22-2.02-0.57l3.76-3.76c0.64,0.78,1.16,1.66,1.54,2.61C20.55,9.32,19.36,10,18,10z M6,12 c1.3,0,2.49,0.41,3.47,1.11L10.59,12L4.26,5.67C2.85,7.4,2,9.6,2,12c0,0.49,0.05,0.96,0.11,1.43C3.16,12.54,4.52,12,6,12z M12,10.59 l1.11-1.11C12.41,8.49,12,7.3,12,6c0-1.48,0.54-2.84,1.43-3.89C12.96,2.05,12.49,2,12,2C9.6,2,7.4,2.85,5.67,4.26L12,10.59z M18.33,4.26c-0.78-0.64-1.66-1.16-2.61-1.54C14.68,3.45,14,4.64,14,6c0,0.74,0.22,1.42,0.57,2.02L18.33,4.26z M5.67,19.74 c0.78,0.64,1.66,1.16,2.61,1.54C9.32,20.55,10,19.36,10,18c0-0.74-0.22-1.42-0.57-2.02L5.67,19.74z M18,12 c-1.3,0-2.49-0.41-3.47-1.11L13.41,12l6.33,6.33C21.15,16.6,22,14.4,22,12c0-0.49-0.05-0.96-0.11-1.43C20.84,11.46,19.48,12,18,12z M12,13.41l-1.11,1.11C11.59,15.51,12,16.7,12,18c0,1.48-0.54,2.84-1.43,3.89C11.04,21.95,11.51,22,12,22c2.4,0,4.6-0.85,6.33-2.26 L12,13.41z M6,14c-1.36,0-2.55,0.68-3.28,1.72c0.38,0.95,0.9,1.83,1.54,2.61l3.76-3.76C7.42,14.22,6.74,14,6,14z"></path></g><g id="emoji_activities"><path d="M12,2C6.48,2,2,6.48,2,12c0,5.52,4.48,10,10,10s10-4.48,10-10C22,6.48,17.52,2,12,2z M13.89,3.2 c1.55,0.33,2.96,1.07,4.1,2.1l-3.84,3.84C13.44,8.28,13,7.2,13,6C13,4.96,13.34,4,13.89,3.2z M18.7,6.01 c1.02,1.14,1.77,2.55,2.1,4.1C20,10.66,19.04,11,18,11c-1.2,0-2.28-0.44-3.15-1.15L18.7,6.01z M12.8,3.04C12.3,3.92,12,4.92,12,6 c0,1.48,0.54,2.83,1.42,3.87L12,11.29L6.01,5.3C7.6,3.88,9.7,3,12,3C12.27,3,12.53,3.02,12.8,3.04z M5.3,6.01L11.29,12l-1.42,1.42 C8.83,12.54,7.48,12,6,12c-1.08,0-2.09,0.29-2.96,0.79C3.02,12.53,3,12.27,3,12C3,9.7,3.88,7.6,5.3,6.01z M10.11,20.8 c-1.55-0.33-2.96-1.07-4.1-2.1l3.84-3.84C10.56,15.72,11,16.8,11,18C11,19.04,10.66,20,10.11,20.8z M3.2,13.89C4,13.34,4.96,13,6,13 c1.2,0,2.28,0.44,3.15,1.15L5.3,17.99C4.28,16.85,3.54,15.44,3.2,13.89z M11.2,20.96C11.7,20.08,12,19.08,12,18 c0-1.48-0.54-2.83-1.42-3.87L12,12.71l5.99,5.99C16.4,20.12,14.3,21,12,21C11.73,21,11.46,20.98,11.2,20.96z M18.7,17.99L12.71,12 l1.42-1.42C15.17,11.46,16.52,12,18,12c1.08,0,2.08-0.3,2.96-0.8C20.98,11.46,21,11.73,21,12C21,14.3,20.12,16.4,18.7,17.99z"></path></g><g id="error-filled"><path d="M12,2C6.48,2,2,6.48,2,12s4.48,10,10,10s10-4.48,10-10S17.52,2,12,2z M13,17h-2v-2h2V17z M13,13h-2V7h2V13z"></path></g><g id="error"><path d="M13,13h-2V7h2V13z M13,17h-2v-2h2V17z M22,12c0,5.52-4.48,10-10,10S2,17.52,2,12S6.48,2,12,2S22,6.48,22,12z M21,12 c0-4.96-4.04-9-9-9c-4.96,0-9,4.04-9,9c0,4.96,4.04,9,9,9C16.96,21,21,16.96,21,12z"></path></g><g id="exit_to_app"><path d="M20,3v18H8v-1h11V4H8V3H20z M11.1,15.1l0.7,0.7l4.4-4.4l-4.4-4.4l-0.7,0.7l3.1,3.1H3v1h11.3L11.1,15.1z"></path></g><g id="expand"><path d="M12,15.7L5.6,9.4l0.7-0.7l5.6,5.6l5.6-5.6l0.7,0.7L12,15.7z"></path></g><g id="explore-filled"><path d="M11.23,13.08c-0.29-0.21-0.48-0.51-0.54-0.86c-0.06-0.35,0.02-0.71,0.23-0.99c0.21-0.29,0.51-0.48,0.86-0.54 c0.35-0.06,0.7,0.02,0.99,0.23c0.29,0.21,0.48,0.51,0.54,0.86c0.06,0.35-0.02,0.71-0.23,0.99c-0.21,0.29-0.51,0.48-0.86,0.54 c-0.07,0.01-0.15,0.02-0.22,0.02C11.72,13.33,11.45,13.25,11.23,13.08z M22,12c0,5.52-4.48,10-10,10S2,17.52,2,12 C2,6.48,6.48,2,12,2S22,6.48,22,12z M18.03,5.97L9.8,9.8l-3.83,8.23l8.23-3.83L18.03,5.97z"></path></g><g id="explore"><path d="M9.8,9.8l-3.83,8.23l8.23-3.83l3.83-8.23L9.8,9.8z M13.08,12.77c-0.21,0.29-0.51,0.48-0.86,0.54 c-0.07,0.01-0.15,0.02-0.22,0.02c-0.28,0-0.54-0.08-0.77-0.25c-0.29-0.21-0.48-0.51-0.54-0.86c-0.06-0.35,0.02-0.71,0.23-0.99 c0.21-0.29,0.51-0.48,0.86-0.54c0.35-0.06,0.7,0.02,0.99,0.23c0.29,0.21,0.48,0.51,0.54,0.86C13.37,12.13,13.29,12.48,13.08,12.77z M12,3c4.96,0,9,4.04,9,9s-4.04,9-9,9s-9-4.04-9-9S7.04,3,12,3 M12,2C6.48,2,2,6.48,2,12s4.48,10,10,10s10-4.48,10-10S17.52,2,12,2 L12,2z"></path></g><g id="fact_check"><path d="M14.49,15L12,12.51l1.41-1.41l1.07,1.07L17.65,9l1.41,1.41L14.49,15z M11,17H6v-2h5V17z M11,13H6v-2h5V13z M11,9H6V7h5V9z M20,4v16H4V4H20 M21,3H3v18h18V3L21,3z"></path></g><g id="fashion_logo-filled"><path d="M12.5,6.44v-0.5C13.36,5.71,14,4.93,14,4c0-1.1-0.9-2-2-2s-2,0.9-2,2h1c0-0.55,0.45-1,1-1s1,0.45,1,1s-0.45,1-1,1h-0.5v1.44 L4,13h2v6h1v2h1v-2h2v3h1v-3h2v2h1v-2h1v-3h3v-3h2L12.5,6.44z M6.66,12L12,7.33L17.34,12H6.66z"></path></g><g id="fashion_logo"><path d="M12.5,6.44v-0.5C13.36,5.71,14,4.93,14,4c0-1.1-0.9-2-2-2s-2,0.9-2,2h1c0-0.55,0.45-1,1-1s1,0.45,1,1s-0.45,1-1,1h-0.5v1.44 L4,13h2v6h1v2h1v-2h2v3h1v-3h2v2h1v-2h1v-3h3v-3h2L12.5,6.44z M6.66,12L12,7.33L17.34,12H6.66z M14,18H7v-5h7V18z M15,15v-2h2v2H15z"></path></g><g id="feedback"><path d="M13,14h-2v-2h2V14z M13,5h-2v6h2V5z M19,3H5v16.59l3.29-3.29L8.59,16H9h10V3 M20,2v15H9l-5,5V2H20L20,2z"></path></g><g id="filter-filled"><path d="M21,6.99H3V5h18V6.99z M18,11H6v1.99h12V11z M15,17H9v1.99h6V17z"></path></g><g id="filter"><path d="M21,6H3V5h18V6z M18,11H6v1h12V11z M15,17H9v1h6V17z"></path></g><g id="find_in_page"><path d="M21.97,11.77l-2.76-2.76C19.7,8.48,20,7.78,20,7c0-1.66-1.34-3-3-3s-3,1.34-3,3s1.34,3,3,3c0.52,0,1-0.14,1.42-0.37 l2.85,2.85L21.97,11.77z M15,7c0-1.1,0.9-2,2-2s2,0.9,2,2c0,1.1-0.9,2-2,2S15,8.1,15,7z M18,13v7H2V4h10v1H3v14h14v-6H18z"></path></g><g id="first_page-filled"><path d="M8,6H6v12h2V6z M17,18l-6-6l6-6l1.41,1.41L13.83,12l4.58,4.58L17,18z"></path></g><g id="first_page"><path d="M7,6H6v12h1V6z M17.35,17.65L11.71,12l5.65-5.65l0.71,0.71L13.12,12l4.94,4.94L17.35,17.65z"></path></g><g id="flag-filled"><path d="M14,3H5v18h1v-9h6.6l0.4,2h7V5h-5.6L14,3L14,3z"></path></g><g id="flag"><path d="M13.18,4l0.24,1.2L13.58,6h0.82H19v7h-5.18l-0.24-1.2L13.42,11H12.6H6V4H13.18 M14,3H5v18h1v-9h6.6l0.4,2h7V5h-5.6L14,3 L14,3z"></path></g><g id="folder-filled"><path d="M10,5l2,2h10v12H2V5H10"></path></g><g id="folder"><path d="M9.59,6l1.71,1.71L11.59,8H12h9v10H3V6H9.59 M10,5H2v14h20V7H12L10,5L10,5z"></path></g><g id="forum-filled"><path d="M4,19V2h13v13H8L4,19z M8,18h8l4,4V6h-1v13.59L16.41,17H8V18z"></path></g><g id="forum"><path d="M16,3v11H7.59L5,16.59V3H16 M17,2H4v17l4-4h9V2L17,2z M8,18h8l4,4V6h-1v13.59L16.41,17H8V18z"></path></g><g id="full_heart-filled"><path d="M16.5,2c-1.74,0-3.41,0.88-4.5,2.28C10.91,2.88,9.24,2,7.5,2C4.42,2,2,4.64,2,7.99c0,4.12,3.4,7.48,8.55,12.58L12,22 l1.45-1.44C18.6,15.47,22,12.11,22,7.99C22,4.64,19.58,2,16.5,2z"></path></g><g id="full_heart"><path d="M16.5,3C19.02,3,21,5.19,21,7.99c0,3.7-3.28,6.94-8.25,11.86L12,20.59l-0.74-0.73l-0.04-0.04C6.27,14.92,3,11.69,3,7.99 C3,5.19,4.98,3,7.5,3c1.4,0,2.79,0.71,3.71,1.89L12,5.9l0.79-1.01C13.71,3.71,15.1,3,16.5,3 M16.5,2c-1.74,0-3.41,0.88-4.5,2.28 C10.91,2.88,9.24,2,7.5,2C4.42,2,2,4.64,2,7.99c0,4.12,3.4,7.48,8.55,12.58L12,22l1.45-1.44C18.6,15.47,22,12.11,22,7.99 C22,4.64,19.58,2,16.5,2L16.5,2z"></path><path fill="none" d="M0,0h24v24H0V0z"></path></g><g id="fullscreen-filled"><path d="M8,11H6V6h5v2H8V11z M18,6h-5v2h3v3h2V6z M18,13h-2v3h-3v2h5V13z M11,16H8v-3H6v5h5V16z"></path></g><g id="fullscreen"><path d="M7,11H6V6h5v1H7V11z M18,6h-5v1h4v4h1V6z M18,13h-1v4h-4v1h5V13z M11,17H7v-4H6v5h5V17z"></path></g><g id="fullscreen_exit-filled"><path d="M11,11H6V9h3V6h2V11z M18,9h-3V6h-2v5h5V9z M15,15h3v-2h-5v5h2V15z M11,13H6v2h3v3h2V13z"></path></g><g id="fullscreen_exit"><path d="M10,10H6V9h3V6h1V10z M18,9h-3V6h-1v4h4V9z M15,15h3v-1h-4v4h1V15z M10,14H6v1h3v3h1V14z"></path></g><g id="gaming_logo-filled"><path d="M16.97,4l-4.99,2.8L6.99,4L2,6.8v7.6l9.98,5.6l9.98-5.6V6.8L16.97,4z M10,12H8v2H6v-2H4v-2h2V8h2v2h2V12z M15.5,14 c-0.83,0-1.5-0.67-1.5-1.5c0-0.83,0.67-1.5,1.5-1.5c0.83,0,1.5,0.67,1.5,1.5C17,13.33,16.33,14,15.5,14z M18.5,11 c-0.83,0-1.5-0.67-1.5-1.5C17,8.67,17.67,8,18.5,8C19.33,8,20,8.67,20,9.5C20,10.33,19.33,11,18.5,11z"></path></g><g id="gaming_logo"><path d="M10,12H8v2H6v-2H4v-2h2V8h2v2h2V12z M17,12.5c0-0.83-0.67-1.5-1.5-1.5S14,11.67,14,12.5c0,0.83,0.67,1.5,1.5,1.5 S17,13.33,17,12.5z M20,9.5C20,8.67,19.33,8,18.5,8S17,8.67,17,9.5c0,0.83,0.67,1.5,1.5,1.5S20,10.33,20,9.5z M16.97,5.15l-4.5,2.53 l-0.49,0.27l-0.49-0.27l-4.5-2.53L3,7.39v6.43l8.98,5.04l8.98-5.04V7.39L16.97,5.15 M16.97,4l4.99,2.8v7.6L11.98,20L2,14.4V6.8 L6.99,4l4.99,2.8L16.97,4L16.97,4z"></path></g><g id="gift"><path d="M19.28 3.61c-.96-.81-2.51-.81-3.47 0-.68.58-1.47 2.66-1.81 3.64-.34-.98-1.13-3.06-1.81-3.64-.96-.81-2.51-.81-3.47 0-.96.81-.96 2.13 0 2.94.62.53 2.7 1.12 3.94 1.45H5v13h14V8h-3.66c1.24-.32 3.32-.92 3.94-1.45.96-.81.96-2.13 0-2.94zM6 9h8v6H6V9zm0 11v-4h8v4H6zm12 0h-3v-4h3v4zm0-11v6h-3V9h3zM9.43 5.89c-.58-.43-.58-1.13 0-1.57.29-.21.67-.32 1.05-.32s.76.11 1.04.32c.39.29 1.02 1.57 1.48 2.68-1.48-.35-3.18-.82-3.57-1.11zm9.14 0c-.39.29-2.09.76-3.57 1.11.46-1.11 1.09-2.39 1.48-2.68.29-.21.67-.32 1.04-.32.38 0 .76.11 1.04.32.58.44.58 1.14.01 1.57z"></path></g><g id="google"><path d="M12.1,13.9v-3.72h9.36c0.14,0.63,0.25,1.22,0.25,2.05c0,5.71-3.83,9.77-9.6,9.77C6.58,22,2.1,17.52,2.1,12s4.48-10,10-10 c2.7,0,4.96,0.99,6.69,2.61l-2.84,2.76c-0.72-0.68-1.97-1.49-3.85-1.49c-3.31,0-6.01,2.75-6.01,6.12s2.7,6.12,6.01,6.12 c3.83,0,5.24-2.65,5.5-4.22H12.1z"></path></g><g id="happy-filled"><path d="M16.85,14c-0.5,1.8-2.35,3-4.85,3s-4.35-1.2-4.85-3H8.2c0.54,1.36,2.16,2,3.8,2s3.26-0.64,3.8-2H16.85z M12,4 c-4.41,0-8,3.59-8,8s3.59,8,8,8s8-3.59,8-8S16.41,4,12,4 M12,2c5.52,0,10,4.48,10,10c0,5.52-4.48,10-10,10S2,17.52,2,12 C2,6.48,6.48,2,12,2L12,2z M15.5,11c0.83,0,1.5-0.67,1.5-1.5S16.33,8,15.5,8S14,8.67,14,9.5S14.67,11,15.5,11z M8.5,11 c0.83,0,1.5-0.67,1.5-1.5S9.33,8,8.5,8S7,8.67,7,9.5S7.67,11,8.5,11z"></path></g><g id="happy"><path d="M16.85,14c-0.5,1.8-2.35,3-4.85,3s-4.35-1.2-4.85-3H8.2c0.54,1.36,2.16,2,3.8,2s3.26-0.64,3.8-2H16.85z M22,12 c0,5.52-4.48,10-10,10S2,17.52,2,12C2,6.48,6.48,2,12,2S22,6.48,22,12z M21,12c0-4.96-4.04-9-9-9s-9,4.04-9,9c0,4.96,4.04,9,9,9 S21,16.96,21,12z M15.5,11c0.83,0,1.5-0.67,1.5-1.5S16.33,8,15.5,8S14,8.67,14,9.5S14.67,11,15.5,11z M8.5,11 c0.83,0,1.5-0.67,1.5-1.5S9.33,8,8.5,8S7,8.67,7,9.5S7.67,11,8.5,11z"></path></g><g id="health_and_safety"><path d="M17,13h-4v4h-2v-4H7v-2h4V7h2v4h4V13z M12,3.1l7,3.21v4.84c0,1.3-0.25,2.6-0.75,3.86c-0.15,0.37-0.33,0.76-0.55,1.17 c-0.15,0.27-0.31,0.54-0.48,0.81C15.91,19,14.06,20.41,12,20.97C9.94,20.41,8.09,19,6.77,16.99c-0.17-0.27-0.33-0.54-0.48-0.81 c-0.22-0.41-0.4-0.79-0.55-1.17C5.25,13.75,5,12.45,5,11.15V6.31L12,3.1 M12,2L4,5.67v5.49c0,1.47,0.3,2.9,0.81,4.22 c0.17,0.44,0.37,0.86,0.6,1.28c0.16,0.3,0.34,0.6,0.52,0.88c1.42,2.17,3.52,3.82,5.95,4.44L12,22l0.12-0.03 c2.43-0.61,4.53-2.26,5.95-4.43c0.19-0.29,0.36-0.58,0.52-0.88c0.22-0.41,0.43-0.84,0.6-1.28C19.7,14.05,20,12.62,20,11.15V5.67 L12,2L12,2z"></path></g><g id="help"><path d="M15.36,9.96c0,1.09-0.67,1.67-1.31,2.24c-0.53,0.47-1.03,0.9-1.16,1.6L12.85,14h-1.75l0.03-0.28 c0.14-1.17,0.8-1.76,1.47-2.27c0.52-0.4,1.01-0.77,1.01-1.49c0-0.51-0.23-0.97-0.63-1.29c-0.4-0.31-0.92-0.42-1.42-0.29 c-0.59,0.15-1.05,0.67-1.19,1.34L10.32,10H8.57l0.06-0.42c0.2-1.4,1.15-2.53,2.42-2.87c1.05-0.29,2.14-0.08,2.98,0.57 C14.88,7.92,15.36,8.9,15.36,9.96z M12,18c0.55,0,1-0.45,1-1s-0.45-1-1-1s-1,0.45-1,1S11.45,18,12,18z M12,3c-4.96,0-9,4.04-9,9 s4.04,9,9,9s9-4.04,9-9S16.96,3,12,3 M12,2c5.52,0,10,4.48,10,10s-4.48,10-10,10S2,17.52,2,12S6.48,2,12,2L12,2z"></path></g><g id="highlight_off"><path d="M16.24,9.17L13.41,12l2.83,2.83l-1.41,1.41L12,13.41l-2.83,2.83l-1.41-1.41L10.59,12L7.76,9.17l1.41-1.41L12,10.59 l2.83-2.83L16.24,9.17z M4.93,4.93c-3.91,3.91-3.91,10.24,0,14.14c3.91,3.91,10.24,3.91,14.14,0c3.91-3.91,3.91-10.24,0-14.14 C15.17,1.02,8.83,1.02,4.93,4.93z M18.36,5.64c3.51,3.51,3.51,9.22,0,12.73s-9.22,3.51-12.73,0s-3.51-9.22,0-12.73 C9.15,2.13,14.85,2.13,18.36,5.64z"></path></g><g id="image"><path d="M19.08,18H5.06l4.01-5.16l2.14,2.59l3.02-3.89L19.08,18z M11.26,17h5.82l-2.87-3.82L11.26,17z M7.1,17h4.11l-2.12-2.56 L7.1,17z M20,4v16H4V4H20 M21,3H3v18h18V3L21,3z"></path></g><g id="info"><path d="M13,17h-2v-6h2V17z M13,7h-2v2h2V7z M12,3c-4.96,0-9,4.04-9,9s4.04,9,9,9c4.96,0,9-4.04,9-9S16.96,3,12,3 M12,2 c5.52,0,10,4.48,10,10s-4.48,10-10,10C6.48,22,2,17.52,2,12S6.48,2,12,2L12,2z"></path></g><g id="keep-filled"><path d="M17,2H7v1h1v8l-2,2v2h5v6l1,1l1-1v-6h5v-2l-2-2V3h1V2z"></path></g><g id="keep"><path d="M16,11V3h1V2H7v1h1v8l-2,2v2h5v6l1,1l1-1v-6h5v-2L16,11z M17,14h-4h-1h-1H7v-0.59l1.71-1.71L9,11.41V11V3h6v8v0.41 l0.29,0.29L17,13.41V14z"></path></g><g id="keep_off-filled"><path d="M20.15,20.85L14.29,15H13v6l-1,1l-1-1v-6H6v-2l2-2V8.71L3.15,3.85l0.71-0.71l17,17L20.15,20.85z M8,4.41l10,10V13l-2-2V3h1 V2H7v1h1V4.41z"></path></g><g id="keep_off"><path d="M3.85,3.15L3.15,3.85L8,8.71V11l-2,2v2h5v6l1,1l1-1v-6h1.29l5.85,5.85l0.71-0.71L3.85,3.15z M13,14h-1h-1H7v-0.59l1.71-1.71 L9,11.41V11V9.71L13.29,14H13z M8,3H7V2h10v1h-1v8l2,2v1.41l-3-3V11V3H9v2.41l-1-1V3z"></path></g><g id="keyboard-filled"><path d="M2,5v14h20V5H2z M11,8h2v2h-2V8z M11,11h2v2h-2V11z M8,8h2v2H8V8z M8,11h2v2H8V11z M7,13H5v-2h2V13z M7,10H5V8h2V10z M16,16 H8v-2h8V16z M16,13h-2v-2h2V13z M16,10h-2V8h2V10z M19,13h-2v-2h2V13z M19,10h-2V8h2V10z"></path></g><g id="keyboard"><path d="M16,16H8v-2h8V16z M16,11h-2v2h2V11z M19,11h-2v2h2V11z M13,11h-2v2h2V11z M10,11H8v2h2V11z M7,11H5v2h2V11z M16,8h-2v2h2V8 z M19,8h-2v2h2V8z M13,8h-2v2h2V8z M10,8H8v2h2V8z M7,8H5v2h2V8z M22,5v14H2V5H22z M21,6H3v12h18V6z"></path></g><g id="language-filled"><path d="M11.99,1.98C6.46,1.98,1.98,6.47,1.98,12s4.48,10.02,10.01,10.02c5.54,0,10.03-4.49,10.03-10.02S17.53,1.98,11.99,1.98z M18.91,7.95h-2.63c-0.35-1.21-0.87-2.38-1.55-3.48C16.49,5.11,17.97,6.35,18.91,7.95z M20.02,12c0,0.69-0.1,1.36-0.26,2h-3.05 c0.19-1.34,0.18-2.71-0.01-4.05h3.04C19.92,10.61,20.02,11.29,20.02,12z M9.28,14c-0.22-1.34-0.22-2.71,0.01-4.05h5.45 c0.23,1.34,0.24,2.71,0.01,4.05H9.28z M14.23,16C13.74,17.38,13,18.7,12,19.9C11,18.71,10.27,17.39,9.79,16H14.23z M3.98,12 c0-0.71,0.1-1.39,0.28-2.05h3.01c-0.2,1.34-0.2,2.71-0.01,4.05H4.24C4.08,13.36,3.98,12.69,3.98,12z M14.21,7.95h-4.4 c0.48-1.37,1.21-2.67,2.19-3.84C12.98,5.29,13.72,6.59,14.21,7.95z M9.28,4.46C8.59,5.57,8.07,6.74,7.71,7.95H5.09 C6.03,6.35,7.51,5.1,9.28,4.46z M5.06,16h2.63c0.36,1.23,0.89,2.42,1.59,3.54C7.49,18.89,6,17.63,5.06,16z M14.72,19.53 c0.69-1.12,1.21-2.31,1.57-3.53h2.65C18,17.62,16.51,18.89,14.72,19.53z"></path></g><g id="language"><path d="M11.99,1.98C6.46,1.98,1.98,6.47,1.98,12s4.48,10.02,10.01,10.02c5.54,0,10.03-4.49,10.03-10.02S17.53,1.98,11.99,1.98z M8.86,14.5c-0.16-0.82-0.25-1.65-0.25-2.5c0-0.87,0.09-1.72,0.26-2.55h6.27c0.17,0.83,0.26,1.68,0.26,2.55 c0,0.85-0.09,1.68-0.25,2.5H8.86z M14.89,15.5c-0.54,1.89-1.52,3.64-2.89,5.15c-1.37-1.5-2.35-3.25-2.89-5.15H14.89z M9.12,8.45 c0.54-1.87,1.52-3.61,2.88-5.1c1.36,1.49,2.34,3.22,2.88,5.1H9.12z M16.15,9.45h4.5c0.24,0.81,0.37,1.66,0.37,2.55 c0,0.87-0.13,1.71-0.36,2.5h-4.51c0.15-0.82,0.24-1.65,0.24-2.5C16.39,11.13,16.3,10.28,16.15,9.45z M20.29,8.45h-4.38 c-0.53-1.97-1.47-3.81-2.83-5.4C16.33,3.45,19.04,5.56,20.29,8.45z M10.92,3.05c-1.35,1.59-2.3,3.43-2.83,5.4H3.71 C4.95,5.55,7.67,3.44,10.92,3.05z M3.35,9.45h4.5C7.7,10.28,7.61,11.13,7.61,12c0,0.85,0.09,1.68,0.24,2.5H3.34 c-0.23-0.79-0.36-1.63-0.36-2.5C2.98,11.11,3.11,10.26,3.35,9.45z M3.69,15.5h4.39c0.52,1.99,1.48,3.85,2.84,5.45 C7.65,20.56,4.92,18.42,3.69,15.5z M13.09,20.95c1.36-1.6,2.32-3.46,2.84-5.45h4.39C19.08,18.42,16.35,20.55,13.09,20.95z"></path></g><g enable-background="new 0 0 24 24" height="24" viewBox="0 0 24 24" width="24" id="laptop_mobile"><path d="M5,6v10h8v2H2v-2h2V5h17v1H5z M15,8v12h7V8H15z M21,9v1h-5V9H21z M21,11v6h-5v-6H21z M16,19v-1h5v1H16z"></path></g><g id="last_page-filled"><path d="M18,18h-2V6h2V18z M7,18l6-6L7,6L5.59,7.42L10.17,12l-4.58,4.58L7,18z"></path></g><g id="last_page"><path d="M18,18h-1V6h1V18z M5.65,7.06L10.59,12l-4.94,4.94l0.71,0.71L12,12L6.36,6.35L5.65,7.06z"></path></g><g id="library_add"><path d="M4,20h14v1H3V6h1V20z M18,10h-4V6h-1v4H9v1h4v4h1v-4h4V10z M21,3v15H6V3H21z M20,4H7v13h13V4z"></path></g><g id="library_music-filled"><path d="M18,21H3V6h1v14h14V21z M21,3v15H6V3H21z M16,6h-3v5.28C12.7,11.11,12.37,11,12,11c-1.1,0-2,0.9-2,2s0.9,2,2,2s2-0.9,2-2V8 h2V6z"></path></g><g id="library_music"><path d="M16,6v2h-2v5c0,1.1-0.9,2-2,2s-2-0.9-2-2s0.9-2,2-2c0.37,0,0.7,0.11,1,0.28V6H16z M18,20H4V6H3v15h15V20z M21,3H6v15h15V3z M7,4h13v13H7V4z"></path></g><g viewBox="0 0 24 24" id="library_outline"><path d="m11 7 6 3.5-6 3.5V7zm7 13H4V6H3v15h15v-1zm3-2H6V3h15v15zM7 17h13V4H7v13z"></path></g><g id="library_remove"><path d="M18,20H4V6H3v15h15V20z M21,3H6v15h15V3z M7,4h13v13H7V4z M17.58,8.41L11.99,14L9,11.01l1.41-1.41l1.58,1.58l4.18-4.18 L17.58,8.41z"></path></g><g id="like-filled"><path d="M3,11h3v10H3V11z M18.77,11h-4.23l1.52-4.94C16.38,5.03,15.54,4,14.38,4c-0.58,0-1.14,0.24-1.52,0.65L7,11v10h10.43 c1.06,0,1.98-0.67,2.19-1.61l1.34-6C21.23,12.15,20.18,11,18.77,11z"></path></g><g id="like"><path d="M18.77,11h-4.23l1.52-4.94C16.38,5.03,15.54,4,14.38,4c-0.58,0-1.14,0.24-1.52,0.65L7,11H3v10h4h1h9.43 c1.06,0,1.98-0.67,2.19-1.61l1.34-6C21.23,12.15,20.18,11,18.77,11z M7,20H4v-8h3V20z M19.98,13.17l-1.34,6 C18.54,19.65,18.03,20,17.43,20H8v-8.61l5.6-6.06C13.79,5.12,14.08,5,14.38,5c0.26,0,0.5,0.11,0.63,0.3 c0.07,0.1,0.15,0.26,0.09,0.47l-1.52,4.94L13.18,12h1.35h4.23c0.41,0,0.8,0.17,1.03,0.46C19.92,12.61,20.05,12.86,19.98,13.17z"></path></g><g id="link"><path d="M17.78,16H13v-1h4.78c1.8,0,3.26-1.57,3.26-3.5S19.58,8,17.78,8H13V7h4.78c2.35,0,4.26,2.02,4.26,4.5S20.13,16,17.78,16z M11,15H6.19c-1.8,0-3.26-1.57-3.26-3.5S4.39,8,6.19,8H11V7H6.19c-2.35,0-4.26,2.02-4.26,4.5S3.84,16,6.19,16H11V15z M16,11H8v1h8 V11z"></path></g><g id="live-filled"><path d="M14,12c0,1.1-0.9,2-2,2s-2-0.9-2-2s0.9-2,2-2S14,10.9,14,12z M6.36,6.33L4.95,4.92C3.13,6.73,2,9.24,2,12 s1.13,5.27,2.95,7.08l1.41-1.41C4.9,16.22,4,14.21,4,12S4.9,7.78,6.36,6.33z M19.05,4.92l-1.41,1.41C19.1,7.78,20,9.79,20,12 s-0.9,4.22-2.36,5.67l1.41,1.41C20.87,17.27,22,14.76,22,12S20.87,6.73,19.05,4.92z M9.19,9.16L7.77,7.75C6.68,8.83,6,10.34,6,12 s0.68,3.17,1.77,4.25l1.41-1.41C8.46,14.11,8,13.11,8,12S8.46,9.89,9.19,9.16z M16.23,7.75l-1.41,1.41C15.54,9.89,16,10.89,16,12 s-0.46,2.11-1.19,2.84l1.41,1.41C17.32,15.17,18,13.66,18,12S17.32,8.83,16.23,7.75z"></path></g><g id="live"><path d="M14,12c0,1.1-0.9,2-2,2s-2-0.9-2-2s0.9-2,2-2S14,10.9,14,12z M8.48,8.45L7.77,7.75C6.68,8.83,6,10.34,6,12 s0.68,3.17,1.77,4.25l0.71-0.71C7.57,14.64,7,13.39,7,12S7.57,9.36,8.48,8.45z M16.23,7.75l-0.71,0.71C16.43,9.36,17,10.61,17,12 s-0.57,2.64-1.48,3.55l0.71,0.71C17.32,15.17,18,13.66,18,12S17.32,8.83,16.23,7.75z M5.65,5.63L4.95,4.92C3.13,6.73,2,9.24,2,12 s1.13,5.27,2.95,7.08l0.71-0.71C4.02,16.74,3,14.49,3,12S4.02,7.26,5.65,5.63z M19.05,4.92l-0.71,0.71C19.98,7.26,21,9.51,21,12 s-1.02,4.74-2.65,6.37l0.71,0.71C20.87,17.27,22,14.76,22,12S20.87,6.73,19.05,4.92z"></path></g><g id="location_pin-filled"><path d="M12,2C8.13,2,5,5.13,5,9c0,5.25,7,13,7,13s7-7.75,7-13C19,5.13,15.87,2,12,2z M12,12c-1.66,0-3-1.34-3-3s1.34-3,3-3 s3,1.34,3,3S13.66,12,12,12z"></path></g><g id="location_pin"><path d="M12,3c3.31,0,6,2.69,6,6c0,3.83-4.25,9.36-6,11.47C9.82,17.86,6,12.54,6,9C6,5.69,8.69,3,12,3 M12,2C8.13,2,5,5.13,5,9 c0,5.25,7,13,7,13s7-7.75,7-13C19,5.13,15.87,2,12,2L12,2z M12,7c1.1,0,2,0.9,2,2s-0.9,2-2,2s-2-0.9-2-2S10.9,7,12,7 M12,6 c-1.66,0-3,1.34-3,3s1.34,3,3,3s3-1.34,3-3S13.66,6,12,6L12,6z"></path></g><g id="lock"><path d="M17,8V6.63C17,4.08,14.76,2,12,2S7,4.08,7,6.63V8H4v14h16V8H17z M8,6.63c0-2.02,1.79-3.66,4-3.66s4,1.64,4,3.66V8H8V6.63z M19,21H5V9h14V21z M12,12c-1.66,0-3,1.34-3,3s1.34,3,3,3s3-1.34,3-3S13.66,12,12,12z M12,17c-1.1,0-2-0.9-2-2c0-1.1,0.9-2,2-2 s2,0.9,2,2C14,16.1,13.1,17,12,17z"></path></g><g id="lock_open"><path d="M12,12c-1.66,0-3,1.34-3,3s1.34,3,3,3s3-1.34,3-3S13.66,12,12,12z M12,17c-1.1,0-2-0.9-2-2c0-1.1,0.9-2,2-2s2,0.9,2,2 C14,16.1,13.1,17,12,17z M8.01,8V6.63C8.01,4.53,9.7,3,12.03,3c2.09,0,3.66,1.23,3.96,3H17c-0.3-2.25-2.2-4-4.97-4 C9.01,2,7,4.08,7,6.63V8H4v14h16V8H8.01z M19,21H5V9h14V21z"></path></g><g id="loop-filled"><path d="M20,14h2v5L5.84,19.02l1.77,1.77l-1.41,1.41L1.99,18l4.21-4.21l1.41,1.41l-1.82,1.82L20,17V14z M4,7l14.21-0.02l-1.82,1.82 l1.41,1.41L22.01,6l-4.21-4.21l-1.41,1.41l1.77,1.77L2,5v6h2V7z"></path></g><g id="loop"><path d="M21,13h1v5L3.93,18.03l2.62,2.62l-0.71,0.71L1.99,17.5l3.85-3.85l0.71,0.71l-2.67,2.67L21,17V13z M3,7l17.12-0.03 l-2.67,2.67l0.71,0.71l3.85-3.85l-3.85-3.85l-0.71,0.71l2.62,2.62L2,6v5h1V7z"></path></g><g id="loop_one-filled"><path d="M13,15h-1.37v-4.52l-1.3,0.38v-1L12.83,9H13V15z M20,17L5.79,17.02l1.82-1.82l-1.41-1.41L1.99,18l4.21,4.21l1.41-1.41 l-1.77-1.77L22,19v-5h-2V17z M4,7l14.21-0.02l-1.82,1.82l1.41,1.41L22.01,6l-4.21-4.21l-1.41,1.41l1.77,1.77L2,5v6h2V7z"></path></g><g id="loop_one"><path d="M13,15h-1.37v-4.52l-1.3,0.38v-1L12.83,9H13V15z M21,17L3.88,17.03l2.67-2.67l-0.71-0.71L1.99,17.5l3.85,3.85l0.71-0.71 l-2.62-2.62L22,18v-5h-1V17z M3,7l17.12-0.03l-2.67,2.67l0.71,0.71l3.85-3.85l-3.85-3.85l-0.71,0.71l2.62,2.62L2,6v5h1V7z"></path></g><g id="meh-filled"><path d="M14,9.5C14,8.67,14.67,8,15.5,8S17,8.67,17,9.5S16.33,11,15.5,11S14,10.33,14,9.5z M8.5,11c0.83,0,1.5-0.67,1.5-1.5 S9.33,8,8.5,8S7,8.67,7,9.5S7.67,11,8.5,11z M17,14H7v2h10V14z M22,12c0,5.52-4.48,10-10,10S2,17.52,2,12C2,6.48,6.48,2,12,2 S22,6.48,22,12z M12,20c4.41,0,8-3.59,8-8c0-4.41-3.59-8-8-8s-8,3.59-8,8C4,16.41,7.59,20,12,20z"></path></g><g id="meh"><path d="M12,3c4.96,0,9,4.04,9,9s-4.04,9-9,9s-9-4.04-9-9S7.04,3,12,3 M12,2C6.48,2,2,6.48,2,12s4.48,10,10,10s10-4.48,10-10 S17.52,2,12,2L12,2z M15.5,11c0.83,0,1.5-0.67,1.5-1.5S16.33,8,15.5,8S14,8.67,14,9.5S14.67,11,15.5,11z M8.5,11 c0.83,0,1.5-0.67,1.5-1.5S9.33,8,8.5,8S7,8.67,7,9.5S7.67,11,8.5,11z M17,14H7v1h10V14z"></path></g><g id="menu"><path d="M21,6H3V5h18V6z M21,11H3v1h18V11z M21,17H3v1h18V17z"></path></g><g id="message-filled"><path d="M4,2v20l5-5h11V2H4z M13,13H8v-2h5V13z M16,9H8V7h8V9z"></path></g><g id="message"><path d="M16,9H8V7h8V9z M13,11H8v2h5V11z M19,3H5v16.59l3.29-3.29L8.59,16H9h10V3 M20,2v15H9l-5,5V2H20L20,2z"></path></g><g id="microphone_on-filled"><path d="M13,18.93V21h-2v-2.07c-3.9-0.49-6-3.8-6-6.93h2c0,1.93,1.36,5,5,5s5-3.07,5-5h2C19,15.13,16.9,18.44,13,18.93z M12,15 c1.66,0,3-1.37,3-3.07V6.07C15,4.37,13.66,3,12,3S9,4.37,9,6.07v5.86C9,13.63,10.34,15,12,15z"></path></g><g id="microphone_on"><path d="M12 3C10.34 3 9 4.37 9 6.07V11.93C9 13.63 10.34 15 12 15C13.66 15 15 13.63 15 11.93V6.07C15 4.37 13.66 3 12 3ZM18.5 12H17.5C17.5 15.03 15.03 17.5 12 17.5C8.97 17.5 6.5 15.03 6.5 12H5.5C5.5 15.24 7.89 17.93 11 18.41V21H13V18.41C16.11 17.93 18.5 15.24 18.5 12Z"></path></g><g id="mix-filled"><path d="M4,12c0,2.21,0.9,4.22,2.36,5.67l-1.41,1.41C3.13,17.27,2,14.76,2,12s1.13-5.27,2.95-7.08l1.41,1.41C4.9,7.78,4,9.79,4,12z M19.05,4.92l-1.41,1.41C19.1,7.78,20,9.79,20,12s-0.9,4.22-2.36,5.67l1.41,1.41C20.87,17.27,22,14.76,22,12S20.87,6.73,19.05,4.92z M9.19,9.16L7.77,7.75C6.68,8.83,6,10.34,6,12s0.68,3.17,1.77,4.25l1.41-1.41C8.46,14.11,8,13.11,8,12S8.46,9.89,9.19,9.16z M16.23,7.75l-1.41,1.41C15.54,9.89,16,10.89,16,12s-0.46,2.11-1.19,2.84l1.41,1.41C17.32,15.17,18,13.66,18,12 S17.32,8.83,16.23,7.75z M14.67,12L10.5,9.6v4.81L14.67,12z"></path></g><g id="mix"><path d="M10.5,14.41V9.6l4.17,2.4L10.5,14.41z M8.48,8.45L7.77,7.75C6.68,8.83,6,10.34,6,12s0.68,3.17,1.77,4.25l0.71-0.71 C7.57,14.64,7,13.39,7,12S7.57,9.36,8.48,8.45z M16.23,7.75l-0.71,0.71C16.43,9.36,17,10.61,17,12s-0.57,2.64-1.48,3.55l0.71,0.71 C17.32,15.17,18,13.66,18,12S17.32,8.83,16.23,7.75z M5.65,5.63L4.95,4.92C3.13,6.73,2,9.24,2,12s1.13,5.27,2.95,7.08l0.71-0.71 C4.02,16.74,3,14.49,3,12S4.02,7.26,5.65,5.63z M19.05,4.92l-0.71,0.71C19.98,7.26,21,9.51,21,12s-1.02,4.74-2.65,6.37l0.71,0.71 C20.87,17.27,22,14.76,22,12S20.87,6.73,19.05,4.92z"></path></g><g id="mobile_portrait-filled"><path d="M6,19h12v3H6V19z M6,2v3h12V2H6z M18,6v12H6V6H18z"></path></g><g id="mobile_portrait"><path d="M18,2v20H6V2H18z M7,3v2h10V3H7z M7,6v12h10V6H7z M17,21v-2H7v2H17z"></path></g><g id="monetization_on-filled"><path d="M12,2C6.48,2,2,6.48,2,12s4.48,10,10,10s10-4.48,10-10S17.52,2,12,2z M10.93,10.23c0.35,0.26,0.85,0.5,1.52,0.72 c1.24,0.41,2.14,0.92,2.7,1.53S16,13.85,16,14.76c0,1.01-0.34,1.8-1.03,2.38c-0.52,0.43-1.17,0.7-1.97,0.81V19h-2v-1.13 c-0.36-0.08-0.71-0.2-1.04-0.37c-0.67-0.33-1.17-0.78-1.52-1.35C8.22,15.81,8.08,15.42,8,15h2c0.26,0.73,1.13,1.1,2.18,1.1 c0.52,0,0.92-0.12,1.21-0.35c0.29-0.23,0.43-0.56,0.43-0.97c0-0.45-0.14-0.8-0.43-1.05c-0.29-0.24-0.81-0.5-1.56-0.77 c-0.75-0.27-1.35-0.54-1.79-0.8c-1.2-0.72-1.8-1.68-1.8-2.9c0-0.63,0.16-1.19,0.48-1.69C9.04,7.08,9.5,6.7,10.1,6.42 c0.28-0.13,0.58-0.22,0.9-0.29V5h2v1.09c0.41,0.07,0.79,0.18,1.14,0.36c0.59,0.3,1.05,0.73,1.37,1.28C15.74,8.12,15.93,8.54,16,9 h-2c-0.07-0.25-0.2-0.47-0.38-0.64c-0.3-0.3-0.98-0.44-1.53-0.44c-0.53,0-0.94,0.12-1.24,0.37c-0.29,0.25-0.44,0.58-0.44,0.98 C10.41,9.65,10.58,9.97,10.93,10.23z"></path></g><g id="monetization_on"><path d="M12,3c4.96,0,9,4.04,9,9s-4.04,9-9,9s-9-4.04-9-9S7.04,3,12,3 M12,2C6.48,2,2,6.48,2,12s4.48,10,10,10s10-4.48,10-10 S17.52,2,12,2L12,2z M12.45,10.95c-0.67-0.22-1.18-0.47-1.52-0.72c-0.34-0.26-0.52-0.57-0.52-0.95c0-0.41,0.15-0.73,0.44-0.98 c0.29-0.25,0.71-0.37,1.24-0.37c0.55,0,1.23,0.15,1.53,0.44C13.8,8.53,13.93,8.75,14,9h2c-0.07-0.46-0.26-0.88-0.49-1.27 c-0.33-0.55-0.78-0.98-1.37-1.28C13.79,6.27,13.41,6.17,13,6.09V5h-2v1.12c-0.31,0.07-0.62,0.16-0.9,0.29 C9.5,6.7,9.04,7.08,8.72,7.58C8.4,8.07,8.24,8.63,8.24,9.26c0,1.21,0.6,2.18,1.8,2.9c0.44,0.26,1.04,0.53,1.79,0.8 c0.75,0.27,1.27,0.53,1.56,0.77c0.29,0.24,0.43,0.59,0.43,1.05c0,0.42-0.14,0.74-0.43,0.97c-0.29,0.23-0.69,0.35-1.21,0.35 c-1.05,0-1.92-0.37-2.18-1.1H8c0.08,0.42,0.22,0.81,0.44,1.16c0.35,0.57,0.86,1.02,1.52,1.35c0.33,0.16,0.67,0.28,1.04,0.37V19h2 v-1.05c0.79-0.11,1.45-0.38,1.97-0.81c0.69-0.57,1.03-1.37,1.03-2.38c0-0.91-0.28-1.67-0.85-2.28S13.69,11.36,12.45,10.95z"></path></g><g id="money_fill"><path d="M11.33,10.86c0.2,0.14,0.53,0.26,1,0.36c0.47,0.1,0.86,0.22,1.18,0.35c0.99,0.4,1.49,1.09,1.49,2.07 c0,0.7-0.28,1.27-0.83,1.71c-0.33,0.26-0.73,0.43-1.17,0.54V17h-2v-1.16c-0.18-0.05-0.37-0.1-0.53-0.19 c-0.46-0.23-0.92-0.55-1.18-0.95C9.15,14.48,9.06,14.24,9,14h2c0.05,0.09,0.07,0.18,0.15,0.25c0.23,0.19,0.54,0.29,0.92,0.29 c0.36,0,0.63-0.07,0.82-0.22s0.28-0.35,0.28-0.59c0-0.25-0.11-0.45-0.34-0.6s-0.59-0.27-1.1-0.39c-1.67-0.39-2.51-1.16-2.51-2.34 c0-0.68,0.26-1.26,0.78-1.71c0.28-0.25,0.62-0.43,1-0.54V7h2v1.12c0.46,0.11,0.85,0.29,1.18,0.57C14.59,9.05,14.9,9.48,15,10h-2 c-0.04-0.09-0.1-0.17-0.16-0.24c-0.17-0.19-0.44-0.29-0.81-0.29c-0.32,0-0.56,0.08-0.74,0.24c-0.17,0.16-0.26,0.36-0.26,0.6 C11.03,10.53,11.13,10.72,11.33,10.86z M21,6v12H3V6H21 M22,5H2v14h20V5L22,5z"></path></g><g id="money_fill_shopping_bag-filled"><path d="M19,8h-3V7c0-2.21-1.79-4-4-4C9.79,3,8,4.79,8,7v1H5L3,21h18L19,8z M9,7c0-1.65,1.35-3,3-3s3,1.35,3,3v1H9V7z"></path></g><g id="money_fill_shopping_bag"><path d="M19,8h-3V7c0-2.21-1.79-4-4-4C9.79,3,8,4.79,8,7v1H5L3,21h18L19,8z M9,7c0-1.65,1.35-3,3-3s3,1.35,3,3v1H9V7z M5.86,9h12.28 l1.69,11H4.17L5.86,9z"></path></g><g id="money_heart"><path d="M16.5,3C19.02,3,21,5.19,21,7.99c0,3.7-3.28,6.94-8.25,11.86L12,20.59l-0.74-0.73l-0.04-0.04C6.27,14.92,3,11.69,3,7.99 C3,5.19,4.98,3,7.5,3c1.4,0,2.79,0.71,3.71,1.89L12,5.9l0.79-1.01C13.71,3.71,15.1,3,16.5,3 M16.5,2c-1.74,0-3.41,0.88-4.5,2.28 C10.91,2.88,9.24,2,7.5,2C4.42,2,2,4.64,2,7.99c0,4.12,3.4,7.48,8.55,12.58L12,22l1.45-1.44C18.6,15.47,22,12.11,22,7.99 C22,4.64,19.58,2,16.5,2L16.5,2z M11.33,10.86c0.2,0.14,0.53,0.26,1,0.36c0.47,0.1,0.86,0.22,1.18,0.35 c0.99,0.4,1.49,1.09,1.49,2.07c0,0.7-0.28,1.27-0.83,1.71c-0.33,0.26-0.73,0.43-1.17,0.54V17h-2v-1.16 c-0.18-0.05-0.37-0.1-0.53-0.19c-0.46-0.23-0.92-0.55-1.18-0.95C9.15,14.48,9.06,14.24,9,14h2c0.05,0.09,0.07,0.18,0.15,0.25 c0.23,0.19,0.54,0.29,0.92,0.29c0.36,0,0.63-0.07,0.82-0.22s0.28-0.35,0.28-0.59c0-0.25-0.11-0.45-0.34-0.6s-0.59-0.27-1.1-0.39 c-1.67-0.39-2.51-1.16-2.51-2.34c0-0.68,0.26-1.26,0.78-1.71c0.28-0.25,0.62-0.43,1-0.54V7h2v1.12c0.46,0.11,0.85,0.29,1.18,0.57 C14.59,9.05,14.9,9.48,15,10h-2c-0.04-0.09-0.1-0.17-0.16-0.24c-0.17-0.19-0.44-0.29-0.81-0.29c-0.32,0-0.56,0.08-0.74,0.24 c-0.17,0.16-0.26,0.36-0.26,0.6C11.03,10.53,11.13,10.72,11.33,10.86z"></path></g><g id="more"><path d="M7.5,12c0,0.83-0.67,1.5-1.5,1.5S4.5,12.83,4.5,12s0.67-1.5,1.5-1.5S7.5,11.17,7.5,12z M12,10.5c-0.83,0-1.5,0.67-1.5,1.5 s0.67,1.5,1.5,1.5s1.5-0.67,1.5-1.5S12.83,10.5,12,10.5z M18,10.5c-0.83,0-1.5,0.67-1.5,1.5s0.67,1.5,1.5,1.5s1.5-0.67,1.5-1.5 S18.83,10.5,18,10.5z"></path></g><g id="more_vert"><path d="M12,16.5c0.83,0,1.5,0.67,1.5,1.5s-0.67,1.5-1.5,1.5s-1.5-0.67-1.5-1.5S11.17,16.5,12,16.5z M10.5,12 c0,0.83,0.67,1.5,1.5,1.5s1.5-0.67,1.5-1.5s-0.67-1.5-1.5-1.5S10.5,11.17,10.5,12z M10.5,6c0,0.83,0.67,1.5,1.5,1.5 s1.5-0.67,1.5-1.5S12.83,4.5,12,4.5S10.5,5.17,10.5,6z"></path></g><g id="movies-filled"><path d="M18,3v2h-2V3H8v2H6V3H3v18h3v-2h2v2h8v-2h2v2h3V3H18z M8,17H6v-2h2V17z M8,13H6v-2h2V13z M8,9H6V7h2V9z M18,17h-2v-2h2V17z M18,13h-2v-2h2V13z M18,9h-2V7h2V9z"></path></g><g id="movies"><path d="M4,21H3V3h1V21z M8,15H6v2h2V15z M8,11H6v2h2V11z M8,7H6v2h2V7z M18,15h-2v2h2V15z M8,19H6v2h2V19z M18,19h-2v2h2V19z M18,11h-2v2h2V11z M18,7h-2v2h2V7z M8,3H6v2h2V3z M18,3h-2v2h2V3z M21,3h-1v18h1V3z"></path></g><g id="music-filled"><path d="M12,4v9.38C11.27,12.54,10.2,12,9,12c-2.21,0-4,1.79-4,4c0,2.21,1.79,4,4,4s4-1.79,4-4V8h6V4H12z"></path></g><g id="music"><path d="M12,4v9.38C11.27,12.54,10.2,12,9,12c-2.21,0-4,1.79-4,4c0,2.21,1.79,4,4,4s4-1.79,4-4V8h6V4H12z M9,19c-1.66,0-3-1.34-3-3 s1.34-3,3-3s3,1.34,3,3S10.66,19,9,19z M18,7h-5V5h5V7z"></path></g><g id="music_explicit_badge-filled"><path d="M3,3v18h18V3H3z M16,9h-6v2h6v2h-6v2h6v2H8V7h8V9z"></path></g><g id="music_explicit_badge"><path d="M16,9h-6v2h6v2h-6v2h6v2H8V7h8V9z M20,4H4v16h16V4 M21,3v18H3V3H21L21,3z"></path></g><g id="music_miniplayer-filled"><path d="M2,5v14h20V5H2z M19,16h-7v-4h7V16z"></path></g><g mirror-in-rtl="" id="music_miniplayer"><path d="M12,12h7v4h-7V12z M22,5H2v14h20V5z M3,6h18v12H3V6z"></path></g><g id="music_new_release"><path d="M16,7h-4v5.51C11.58,12.19,11.07,12,10.5,12C9.12,12,8,13.12,8,14.5c0,1.38,1.12,2.5,2.5,2.5c1.36,0,2.46-1.08,2.5-2.43V9h3 V7z M12,3.41L14.59,6H18v3.41L20.59,12L18,14.59V18h-3.41L12,20.59L9.41,18H6v-3.41L3.41,12L6,9.41V6h3.41L12,3.41 M12,2L9,5H5v4 l-3,3l3,3v4h4l3,3l3-3h4v-4l3-3l-3-3V5h-4L12,2L12,2z"></path></g><g mirror-in-rtl="" id="music_player_page-filled"><path d="M2,5v14h20V5H2z M14,13H5V8h9V13z"></path></g><g mirror-in-rtl="" id="music_player_page"><path d="M5,8h9v5H5V8z M22,5H2v14h20V5z M3,6h18v12H3V6z"></path></g><g id="music_video-filled"><path d="M2,5v14h20V5H2z M15,10h-2v4c0,1.1-0.9,2-2,2s-2-0.9-2-2c0-1.1,0.9-2,2-2c0.37,0,0.7,0.11,1,0.28V8h3V10z"></path></g><g id="music_video"><path d="M22,5H2v14h20V5z M3,6h18v12H3V6z M15,8v2h-2v4c0,1.1-0.9,2-2,2s-2-0.9-2-2c0-1.1,0.9-2,2-2c0.37,0,0.7,0.11,1,0.28V8H15z"></path></g><g id="my_videos-filled"><path d="M3,3v18h18V3H3z M10,16V8l6,4L10,16z"></path></g><g id="my_videos"><path d="M10,8l6,4l-6,4V8L10,8z M21,3v18H3V3H21z M20,4H4v16h16V4z"></path></g><g id="new_release-filled"><path d="M19,9V5h-4l-3-3L9,5H5v4l-3,3l3,3v4h4l3,3l3-3h4v-4l3-3L19,9z M13,17h-2v-2h2V17z M13,13h-2V7h2V13z"></path></g><g id="new_release"><path d="M13,13h-2V7h2V13z M13,17h-2v-2h2V17z M19,9V5h-4l-3-3L9,5H5v4l-3,3l3,3v4h4l3,3l3-3h4v-4l3-3L19,9z M18,14.57V18h-3.43 L12,20.57L9.43,18H6v-3.43L3.43,12L6,9.43V6h3.43L12,3.43L14.57,6H18v3.43L20.57,12L18,14.57z"></path></g><g id="not_interested"><path d="M7.21 18.21L5.8 16.8L16.8 5.8L18.21 7.21L7.21 18.21ZM12 2C6.48 2 2 6.48 2 12C2 17.52 6.48 22 12 22C17.52 22 22 17.52 22 12C22 6.48 17.52 2 12 2ZM12 21C7.04 21 3 16.96 3 12C3 7.04 7.04 3 12 3C16.96 3 21 7.04 21 12C21 16.96 16.96 21 12 21Z"></path></g><g id="notifications-filled"><path d="M10,20h4c0,1.1-0.9,2-2,2S10,21.1,10,20z M20,17.35V19H4v-1.65l2-1.88v-5.15c0-2.92,1.56-5.22,4-5.98V3.96	c0-1.42,1.49-2.5,2.99-1.76C13.64,2.52,14,3.23,14,3.96l0,0.39c2.44,0.75,4,3.06,4,5.98v5.15L20,17.35z"></path></g><g id="notifications"><path d="M10,20h4c0,1.1-0.9,2-2,2S10,21.1,10,20z M20,17.35V19H4v-1.65l2-1.88v-5.15c0-2.92,1.56-5.22,4-5.98V3.96 c0-1.42,1.49-2.5,2.99-1.76C13.64,2.52,14,3.23,14,3.96l0,0.39c2.44,0.75,4,3.06,4,5.98v5.15L20,17.35z M19,17.77l-2-1.88v-5.47 c0-2.47-1.19-4.36-3.13-5.1c-1.26-0.53-2.64-0.5-3.84,0.03C8.15,6.11,7,7.99,7,10.42v5.47l-2,1.88V18h14V17.77z"></path></g><g id="notifications_active"><path d="M21.5 8.99992H19.5V8.80992C19.5 6.89992 18.39 5.18991 16.6 4.32991L17.47 2.52991C19.96 3.71991 21.5 6.12992 21.5 8.80992V8.99992ZM4.5 8.80992C4.5 6.89992 5.61 5.18991 7.4 4.32991L6.53 2.52991C4.04 3.71991 2.5 6.12992 2.5 8.80992V8.99992H4.5V8.80992ZM12 21.9999C13.1 21.9999 14 21.0999 14 19.9999H10C10 21.0999 10.9 21.9999 12 21.9999ZM20 17.3499V18.9999H4V17.3499L6 15.4699V10.3199C6 7.39991 7.56 5.09992 10 4.33992V3.95991C10 2.53991 11.49 1.45991 12.99 2.19991C13.64 2.51991 14 3.22991 14 3.95991V4.34991C16.44 5.09991 18 7.40991 18 10.3299V15.4799L20 17.3499Z"></path></g><g id="notifications_off"><path d="M3.85,3.15L3.15,3.85l3.48,3.48C6.22,8.21,6,9.22,6,10.32v5.15l-2,1.88V19h14.29l1.85,1.85l0.71-0.71L3.85,3.15z M5,18 v-0.23l2-1.88v-5.47c0-0.85,0.15-1.62,0.41-2.3L17.29,18H5z M10,20h4c0,1.1-0.9,2-2,2S10,21.1,10,20z M9.28,5.75l-0.7-0.7 c0.43-0.29,0.9-0.54,1.42-0.7V3.96c0-1.42,1.49-2.5,2.99-1.76C13.64,2.52,14,3.23,14,3.96v0.39c2.44,0.75,4,3.06,4,5.98v4.14l-1-1 v-3.05c0-2.47-1.19-4.36-3.13-5.1c-1.26-0.53-2.64-0.5-3.84,0.03C9.76,5.46,9.52,5.59,9.28,5.75z"></path></g><g id="offline_cloud"><path d="M22.04,14.28c0,1.48-0.52,2.65-1.48,3.45l-0.71-0.71c0.78-0.62,1.19-1.54,1.19-2.74c0-1.02-0.47-2.01-1.23-2.59 c-0.79-0.59-1.83-0.72-3.03-0.38l-0.69,0.2l0.05-0.71c0.17-2.42-1.19-4.51-3.1-4.76c-0.59-0.08-1.56,0.07-2.36,0.73 c-0.2,0.16-0.37,0.35-0.52,0.56l-0.7-0.7c0.2-0.25,0.4-0.46,0.59-0.62c1.05-0.87,2.3-1.06,3.13-0.96c2.24,0.29,3.9,2.5,3.98,5.16 c1.55-0.27,2.61,0.21,3.25,0.69C21.41,11.65,22.04,12.95,22.04,14.28z M4.13,4.12l15.75,15.75l-0.71,0.71l-1.68-1.68 c-0.26,0.03-0.53,0.07-0.82,0.07h-0.01H7.82c-3.61,0-5.85-2.01-5.85-5.24c0-1.59,0.86-3.17,2.25-4.13c0.92-0.63,1.99-0.94,3.08-0.9 L3.42,4.83L4.13,4.12z M16.57,17.98L8.55,9.96C8.06,9.8,7.58,9.7,7.11,9.7c-0.83,0-1.62,0.25-2.33,0.73 c-1.12,0.77-1.82,2.04-1.82,3.31c0,2.69,1.77,4.24,4.85,4.24H16.57z"></path></g><g id="offline_download"><path d="M17 18V19H6V18H17ZM16.5 11.4L15.8 10.7L12 14.4V4H11V14.4L7.2 10.6L6.5 11.3L11.5 16.3L16.5 11.4Z"></path></g><g id="open_in_new-filled"><path d="M21,21H3V3h9v2H5v14h14v-7h2V21z M15,3v2h2.61l-6.68,6.68l1.41,1.41L19,6.44V9h2V3H15z"></path></g><g id="open_in_new"><path d="M21,21H3V3h9v1H4v16h16v-8h1V21z M15,3v1h4.32l-8.03,8.03L12,12.74l8-8V9h1V3H15z"></path></g><g id="pause_outlined"><path d="M11,16H9V8h2V16z M15,8h-2v8h2V8z M12,3c4.96,0,9,4.04,9,9s-4.04,9-9,9s-9-4.04-9-9S7.04,3,12,3 M12,2C6.48,2,2,6.48,2,12 s4.48,10,10,10s10-4.48,10-10S17.52,2,12,2L12,2z"></path></g><g id="people-filled"><path d="M14 20C14 17.79 15.79 16 18 16C20.21 16 22 17.79 22 20H14ZM18 16C16.9 16 16 15.1 16 14C16 12.9 16.9 12 18 12C19.1 12 20 12.9 20 14C20 15.1 19.1 16 18 16ZM12.81 20H2C2 15.76 4.77 12.21 10.28 11.93C8.42 11.59 7 9.96 7 8C7 5.79 8.79 4 11 4C13.21 4 15 5.79 15 8C15 9.96 13.58 11.59 11.72 11.93C12.64 11.98 13.47 12.12 14.23 12.34C12.87 13.44 12 15.12 12 17C12 18.09 12.3 19.12 12.81 20Z"></path></g><g id="people"><path d="M14 20C14 17.79 15.79 16 18 16C20.21 16 22 17.79 22 20H14ZM18 16C16.9 16 16 15.1 16 14C16 12.9 16.9 12 18 12C19.1 12 20 12.9 20 14C20 15.1 19.1 16 18 16ZM15 8C15 5.79 13.21 4 11 4C8.79 4 7 5.79 7 8C7 9.96 8.42 11.59 10.28 11.93C4.77 12.21 2 15.76 2 20H12.02L12 19H3.06C3.44 15.89 5.67 12.9 11 12.9C11.62 12.9 12.19 12.95 12.73 13.03L13.57 12.19C12.99 12.06 12.38 11.96 11.72 11.93C13.58 11.59 15 9.96 15 8ZM11 11C9.35 11 8 9.65 8 8C8 6.35 9.35 5 11 5C12.65 5 14 6.35 14 8C14 9.65 12.65 11 11 11Z"></path></g><g id="person-filled"><path d="M22,20H2c0-4.16,3.1-7.8,9.27-8.07C9.41,11.58,8,9.96,8,8c0-2.21,1.79-4,4-4c2.21,0,4,1.79,4,4c0,1.96-1.41,3.58-3.27,3.93 C18.9,12.2,22,15.84,22,20z"></path></g><g id="person"><path d="M12.73,11.93C14.59,11.58,16,9.96,16,8c0-2.21-1.79-4-4-4C9.79,4,8,5.79,8,8c0,1.96,1.41,3.58,3.27,3.93 C5.1,12.2,2,15.84,2,20h20C22,15.84,18.9,12.2,12.73,11.93z M9,8c0-1.65,1.35-3,3-3s3,1.35,3,3s-1.35,3-3,3S9,9.65,9,8z M12,12.9 c5.98,0,8.48,3.09,8.93,6.1H3.07C3.52,15.99,6.02,12.9,12,12.9z"></path></g><g id="person_add-filled"><path d="M13.72,11.93C15.58,11.59,17,9.96,17,8c0-2.21-1.79-4-4-4c-2.21,0-4,1.79-4,4c0,1.96,1.42,3.59,3.28,3.93 C6.77,12.21,4,15.76,4,20h18C22,15.76,19.23,12.21,13.72,11.93z M4,12H2v-1h2V9h1v2h2v1H5v2H4V12z"></path></g><g id="person_add"><path d="M13.72,11.93C15.58,11.59,17,9.96,17,8c0-2.21-1.79-4-4-4c-2.21,0-4,1.79-4,4c0,1.96,1.42,3.59,3.28,3.93 C6.77,12.21,4,15.76,4,20h18C22,15.76,19.23,12.21,13.72,11.93z M10,8c0-1.65,1.35-3,3-3s3,1.35,3,3s-1.35,3-3,3S10,9.65,10,8z M13,12.9c5.33,0,7.56,2.99,7.94,6.1H5.06C5.44,15.89,7.67,12.9,13,12.9z M4,12H2v-1h2V9h1v2h2v1H5v2H4V12z"></path></g><g id="phone-filled"><path d="M6.49,2.09l4.41,4.41L9.01,8.38c-0.78,0.78-0.78,2.05,0,2.83l3.78,3.78c0.78,0.78,2.05,0.78,2.83,0l1.89-1.89l4.41,4.41 l-1.94,1.94c-1.5,1.5-3.74,1.96-5.7,1.17l0,0C9.3,18.63,5.37,14.7,3.38,9.73l0,0c-0.79-1.96-0.33-4.21,1.17-5.7L6.49,2.09z"></path></g><g id="phone"><path d="M6.49,3.5l2.99,2.99L8.3,7.68C7.73,8.24,7.42,9,7.42,9.8c0,0.8,0.31,1.56,0.88,2.12l3.78,3.78 c0.57,0.57,1.32,0.88,2.12,0.88c0.8,0,1.56-0.31,2.12-0.88l1.18-1.18l2.99,2.99l-1.23,1.23C18.45,19.55,17.38,20,16.23,20 c-0.55,0-1.08-0.1-1.59-0.31C9.95,17.82,6.18,14.05,4.31,9.36C3.67,7.76,4.04,5.95,5.26,4.74L6.49,3.5 M6.49,2.09L4.55,4.03 c-1.5,1.5-1.96,3.74-1.17,5.7v0c1.99,4.97,5.92,8.9,10.89,10.89l0,0c0.64,0.25,1.3,0.38,1.96,0.38c1.38,0,2.73-0.54,3.74-1.55 l1.94-1.94l-4.41-4.41l-1.89,1.89c-0.39,0.39-0.9,0.59-1.41,0.59c-0.51,0-1.02-0.2-1.41-0.59l-3.78-3.78 c-0.78-0.78-0.78-2.05,0-2.83l1.89-1.89L6.49,2.09L6.49,2.09z"></path></g><g id="phone_download"><path d="M8.45,12.86l1.41-1.41L11,12.58V8h2v4.58l1.13-1.13l1.41,1.41L12,16.41L8.45,12.86z M18,2v20H6V2H18z M7,3v2h10V3H7z M7,6 v12h10V6H7z M17,21v-2H7v2H17z"></path></g><g id="play_arrow-filled"><path d="M6,4l12,8L6,20V4z"></path></g><g id="play_arrow"><path d="M7,5.87L16.2,12L7,18.13V5.87 M6,4v16l12-8L6,4L6,4z"></path></g><g id="play_arrow_half_circle"><path d="M10,8v8l6-4L10,8L10,8z M6.3,5L5.7,4.2C7.2,3,9,2.2,11,2l0.1,1C9.3,3.2,7.7,3.9,6.3,5z M5,6.3L4.2,5.7C3,7.2,2.2,9,2,11 l1,0.1C3.2,9.3,3.9,7.7,5,6.3z M5,17.7c-1.1-1.4-1.8-3.1-2-4.8L2,13c0.2,2,1,3.8,2.2,5.4L5,17.7z M11.1,21c-1.8-0.2-3.4-0.9-4.8-2 l-0.6,0.8C7.2,21,9,21.8,11,22L11.1,21z M22,12c0-5.2-3.9-9.4-9-10l-0.1,1c4.6,0.5,8.1,4.3,8.1,9s-3.5,8.5-8.1,9l0.1,1 C18.2,21.5,22,17.2,22,12z"></path></g><g id="play_outlined-filled"><path d="M12,2C6.48,2,2,6.48,2,12c0,5.52,4.48,10,10,10s10-4.48,10-10C22,6.48,17.52,2,12,2z M10,16V8l6,4L10,16z"></path></g><g id="play_outlined"><path d="M10,8v8l6-4L10,8L10,8z M12,3c4.96,0,9,4.04,9,9s-4.04,9-9,9s-9-4.04-9-9S7.04,3,12,3 M12,2C6.48,2,2,6.48,2,12 s4.48,10,10,10s10-4.48,10-10S17.52,2,12,2L12,2z"></path></g><g id="playlist_add"><path d="M22,13h-4v4h-2v-4h-4v-2h4V7h2v4h4V13z M14,7H2v1h12V7z M2,12h8v-1H2V12z M2,16h8v-1H2V16z"></path></g><g id="playlist_add_check"><path d="M15.06,16.47l-3.76-3.76l1.41-1.41l2.24,2.24l5.3-6.18l1.52,1.3L15.06,16.47z M14,9H2V7h12V9z M2,11h8v2H2V11z M2,15h8v2H2 V15z"></path></g><g id="playlists-filled"><path d="M15,19v-8l7,4L15,19z M22,7H2v2h20V7z M13,13H2v-2h11V13z M13,17H2v-2h11V17z"></path></g><g id="playlists"><path d="M22,7H2v1h20V7z M13,12H2v-1h11V12z M13,16H2v-1h11V16z M15,19v-8l7,4L15,19z"></path></g><g id="poll-filled"><path d="M3,3v18h18V3H3z M9,17H7v-7h2V17z M13,17h-2V7h2V17z M17,17h-2v-3h2V17z"></path></g><g id="poll"><path d="M9,17H7v-7h2V17z M13,7h-2v10h2V7z M17,14h-2v3h2V14z M20,4H4v16h16V4 M21,3v18H3V3H21L21,3z"></path></g><g id="privacy_info"><path d="M12,2L4,5.67v5.49c0,1.47,0.3,2.9,0.81,4.22c0.17,0.44,0.37,0.86,0.6,1.28c0.16,0.3,0.34,0.6,0.52,0.88 c1.42,2.17,3.52,3.82,5.95,4.44L12,22l0.12-0.03c2.43-0.61,4.53-2.26,5.95-4.43c0.19-0.29,0.36-0.58,0.52-0.88 c0.22-0.41,0.43-0.84,0.6-1.28C19.7,14.05,20,12.62,20,11.15V5.67L12,2z M12,3.1l6.11,2.8L12,11.15L5.89,5.9L12,3.1z M5.75,15.01 C5.25,13.75,5,12.45,5,11.15v-4.7l6.23,5.35l-4.98,4.28C6.05,15.71,5.88,15.36,5.75,15.01z M17.23,16.99 C15.91,19,14.06,20.41,12,20.97C9.94,20.41,8.09,19,6.77,16.99c0-0.01-0.01-0.01-0.01-0.02l5.24-4.5l5.24,4.5 C17.23,16.98,17.23,16.98,17.23,16.99z M19,11.15c0,1.3-0.25,2.6-0.75,3.86c-0.14,0.35-0.3,0.7-0.5,1.08l-4.98-4.28L19,6.45V11.15z"></path></g><g id="privacy_public-filled"><path d="M12,2C6.48,2,2,6.48,2,12c0,5.52,4.48,10,10,10s10-4.48,10-10C22,6.48,17.52,2,12,2z M11.5,18C10.12,18,9,16.88,9,15.5 v-1.21l-5.43-5.4C4.84,5.46,8.13,3,12,3c1.05,0,2.06,0.19,3,0.53V5c0,0.55-0.45,1-1,1h-3v2c0,0.55-0.45,1-1,1H8v3h6 c0.55,0,1,0.45,1,1v4h2c0.55,0,1,0.45,1,1v0.69C16.41,20.12,14.31,21,12,21v-3H11.5z"></path></g><g id="privacy_public"><path d="M12,2C6.48,2,2,6.48,2,12c0,5.52,4.48,10,10,10s10-4.48,10-10C22,6.48,17.52,2,12,2z M3,12c0-0.7,0.09-1.37,0.24-2.02 L8,14.71v0.79c0,1.76,1.31,3.22,3,3.46v1.98C6.51,20.44,3,16.62,3,12z M11.5,18C10.12,18,9,16.88,9,15.5v-1.21l-5.43-5.4 C4.84,5.46,8.13,3,12,3c1.05,0,2.06,0.19,3,0.53V5c0,0.55-0.45,1-1,1h-3v2c0,0.55-0.45,1-1,1H8v3h6c0.55,0,1,0.45,1,1v4h2 c0.55,0,1,0.45,1,1v0.69C16.41,20.12,14.31,21,12,21v-3H11.5z M18.97,17.69C18.82,16.73,18,16,17,16h-1v-3c0-1.1-0.9-2-2-2H9v-1h1 c1.1,0,2-0.9,2-2V7h2c1.1,0,2-0.9,2-2V3.95c2.96,1.48,5,4.53,5,8.05C21,14.16,20.24,16.14,18.97,17.69z"></path></g><g id="purchase_super_chat-filled"><path d="M4,2v20l5-5h11V2H4z M14.28,13L12,11.63L9.72,13l0.6-2.59L8.32,8.67l2.65-0.23L12,6l1.03,2.44l2.65,0.23l-2.01,1.74 L14.28,13z"></path></g><g id="purchase_super_chat"><path d="M19,3v13H8.59L5,19.59V3H19 M20,2H4v20l5-5h11V2L20,2z M13.67,10.41l2.01-1.74l-2.65-0.23L12,6l-1.03,2.44L8.32,8.67 l2.01,1.74L9.72,13L12,11.63L14.27,13L13.67,10.41z"></path></g><g id="purchase_super_sticker-filled"><path d="M2,5v14h15h0.41L22,14.41V14V5H2z M14.28,15L12,13.63L9.72,15l0.6-2.59l-2.01-1.74l2.65-0.23L12,8l1.03,2.44l2.65,0.23 l-2.01,1.74L14.28,15z M17,17.99V14h3.99L17,17.99z"></path></g><g id="purchase_super_sticker"><path d="M13.67,12.41l2.01-1.74l-2.65-0.23L12,8l-1.03,2.44l-2.65,0.23l2.01,1.74L9.72,15L12,13.63L14.27,15L13.67,12.41z M2,5v14 h15h0.41L22,14.41V14V5H2z M17,14v3.99L16.99,18H3V6h18v7.99L20.99,14H17z"></path></g><g id="purchases-filled"><path d="M11.49,3.01L2.99,3L3,11.49l10.36,10.36l8.49-8.49L11.49,3.01z M6.75,7.98C5.93,8.12,5.16,7.56,5.02,6.75 C4.88,5.93,5.44,5.16,6.25,5.02c0.82-0.14,1.59,0.41,1.73,1.23C8.12,7.07,7.56,7.84,6.75,7.98z"></path></g><g id="purchases"><path d="M5.02,6.75C4.88,5.93,5.44,5.16,6.25,5.02s1.59,0.41,1.73,1.23c0.14,0.82-0.41,1.59-1.23,1.73 C5.93,8.12,5.16,7.56,5.02,6.75z M3.99,4L4,11.08l9.36,9.36l7.07-7.07l-9.36-9.36L3.99,4 M2.99,3l8.49,0.01l10.36,10.36l-8.49,8.49 L3,11.49L2.99,3L2.99,3z"></path></g><g id="remove_circle"><path d="M12,3c-4.96,0-9,4.04-9,9s4.04,9,9,9s9-4.04,9-9S16.96,3,12,3 M12,2c5.52,0,10,4.48,10,10s-4.48,10-10,10S2,17.52,2,12 S6.48,2,12,2L12,2z M19,13H5v-2h14V13z"></path></g><g id="remove_done-filled"><path d="M3.85,3.15l17,17l-0.71,0.71l-5.76-5.76l-2.8,2.8l-4.62-4.62l1.41-1.41l3.21,3.21l1.39-1.39L3.15,3.85L3.85,3.15z M2,13.4 l3.79,3.79l1.41-1.41l-3.79-3.79L2,13.4z M17.04,7.36l-1.41-1.41l-3.07,3.07l1.41,1.41L17.04,7.36z M16.51,12.97L22,7.48l-1.41-1.41 l-5.49,5.49L16.51,12.97z"></path></g><g id="remove_done"><path d="M3.85,3.15l17,17l-0.71,0.71l-6.12-6.12l-3.57,3.57l-4.71-4.71l0.71-0.71l4,4l2.86-2.86l-1.04-1.04l-1.76,1.76l-0.71-0.71 l1.76-1.76L3.15,3.85L3.85,3.15z M2.25,13.59l4.35,4.35l0.71-0.71l-4.35-4.35L2.25,13.59z M18.25,7L17.55,6.3l-3.86,3.86l0.71,0.71 L18.25,7z M16.14,12.61l5.6-5.6L21.04,6.3l-5.6,5.6L16.14,12.61z"></path></g><g id="remove_moderator-filled"><path d="M20.85,20.15l-0.71,0.71l-2.6-2.6c-1.39,1.81-3.28,3.17-5.43,3.72L12,22l-0.12-0.03c-2.43-0.61-4.53-2.26-5.95-4.44 c-0.19-0.29-0.36-0.58-0.52-0.88c-0.22-0.41-0.42-0.84-0.6-1.28C4.3,14.05,4,12.62,4,11.15V5.67l0.66-0.3L3.15,3.85l0.71-0.71 L20.85,20.15z M19.18,15.38C19.7,14.05,20,12.62,20,11.15V5.67L12,2L7.57,4.03L19.1,15.56C19.12,15.5,19.16,15.44,19.18,15.38z"></path></g><g id="remove_moderator"><path d="M3.85,3.15L3.15,3.85l1.51,1.51L4,5.67v5.49c0,1.47,0.3,2.9,0.81,4.22c0.17,0.44,0.37,0.86,0.6,1.28 c0.16,0.3,0.34,0.6,0.52,0.88c1.42,2.17,3.52,3.82,5.95,4.44L12,22l0.12-0.03c2.15-0.54,4.04-1.9,5.43-3.72l2.6,2.6l0.71-0.71 L3.85,3.15z M12,20.97C9.94,20.41,8.09,19,6.77,16.99c-0.17-0.27-0.34-0.54-0.48-0.81c-0.22-0.41-0.4-0.79-0.55-1.17 C5.25,13.75,5,12.45,5,11.15V6.31l0.41-0.19l11.42,11.42C15.55,19.26,13.86,20.46,12,20.97z M8.32,4.79L7.57,4.03L12,2l8,3.67v5.49 c0,1.47-0.3,2.9-0.82,4.22c-0.03,0.06-0.06,0.12-0.09,0.19l-0.77-0.77C18.77,13.6,19,12.38,19,11.15V6.31L12,3.1L8.32,4.79z"></path></g><g id="replay"><path d="M22,12c0,5.51-4.49,10-10,10S2,17.51,2,12h1c0,4.96,4.04,9,9,9s9-4.04,9-9s-4.04-9-9-9C8.81,3,5.92,4.64,4.28,7.38 C4.17,7.56,4.06,7.75,3.97,7.94C3.96,7.96,3.95,7.98,3.94,8H8v1H1.96V3h1v4.74C3,7.65,3.03,7.57,3.07,7.49 C3.18,7.27,3.3,7.07,3.42,6.86C5.22,3.86,8.51,2,12,2C17.51,2,22,6.49,22,12z"></path></g><g id="replay_10"><path d="M18.95,6.28C17.23,4.19,14.7,3,12,3h-1.43l1.02-1.02l-1.41-1.41L6.82,3.92l3.35,3.35l1.41-1.41L10.73,5H12 c2.1,0,4.07,0.93,5.4,2.55c1.34,1.62,1.87,3.76,1.46,5.86c-0.53,2.73-2.72,4.92-5.45,5.45c-2.11,0.41-4.24-0.12-5.86-1.46 C5.93,16.07,5,14.1,5,12H3c0,2.7,1.19,5.23,3.28,6.95C7.9,20.29,9.93,21,12.02,21c0.59,0,1.19-0.06,1.78-0.17 c3.52-0.68,6.35-3.51,7.03-7.03C21.35,11.1,20.66,8.36,18.95,6.28z M10,8H9.85L7,9.19v1.29l1.63-0.59V16H10V8z M16.35,8.84 C15.92,8.28,15.3,8,14.5,8s-1.42,0.28-1.85,0.84c-0.43,0.56-0.64,1.39-0.64,2.48v1.43c0.01,1.04,0.23,1.85,0.65,2.41 C13.09,15.72,13.7,16,14.51,16c0.82,0,1.43-0.29,1.86-0.86c0.42-0.57,0.63-1.39,0.63-2.47v-1.43C16.99,10.2,16.77,9.39,16.35,8.84z M15.53,12.95c-0.01,0.61-0.09,1.06-0.25,1.36c-0.16,0.3-0.42,0.44-0.78,0.44c-0.36,0-0.62-0.15-0.79-0.46 c-0.16-0.31-0.25-0.78-0.25-1.42v-1.89c0.01-0.6,0.1-1.03,0.26-1.31c0.16-0.28,0.42-0.42,0.76-0.42c0.36,0,0.62,0.15,0.78,0.44 c0.17,0.29,0.25,0.76,0.25,1.41V12.95z"></path></g><g id="sad-filled"><path d="M12,4c4.41,0,8,3.59,8,8s-3.59,8-8,8s-8-3.59-8-8S7.59,4,12,4 M12,2C6.48,2,2,6.48,2,12c0,5.52,4.48,10,10,10s10-4.48,10-10 C22,6.48,17.52,2,12,2L12,2z M15.5,11c0.83,0,1.5-0.67,1.5-1.5S16.33,8,15.5,8S14,8.67,14,9.5S14.67,11,15.5,11z M8.5,11 c0.83,0,1.5-0.67,1.5-1.5S9.33,8,8.5,8S7,8.67,7,9.5S7.67,11,8.5,11z M8.2,17c0.54-1.36,2.16-2,3.8-2s3.26,0.64,3.8,2h1.06 c-0.5-1.8-2.35-3-4.85-3s-4.35,1.2-4.85,3H8.2z"></path></g><g id="sad"><path d="M12,2C6.48,2,2,6.48,2,12c0,5.52,4.48,10,10,10s10-4.48,10-10C22,6.48,17.52,2,12,2z M12,21c-4.96,0-9-4.04-9-9 c0-4.96,4.04-9,9-9s9,4.04,9,9C21,16.96,16.96,21,12,21z M14,9.5C14,8.67,14.67,8,15.5,8S17,8.67,17,9.5S16.33,11,15.5,11 S14,10.33,14,9.5z M7,9.5C7,8.67,7.67,8,8.5,8S10,8.67,10,9.5S9.33,11,8.5,11S7,10.33,7,9.5z M7.15,17c0.5-1.8,2.35-3,4.85-3 s4.35,1.2,4.85,3H15.8c-0.54-1.36-2.16-2-3.8-2s-3.26,0.64-3.8,2H7.15z"></path></g><g id="search"><path d="M20.87,20.17l-5.59-5.59C16.35,13.35,17,11.75,17,10c0-3.87-3.13-7-7-7s-7,3.13-7,7s3.13,7,7,7c1.75,0,3.35-0.65,4.58-1.71 l5.59,5.59L20.87,20.17z M10,16c-3.31,0-6-2.69-6-6s2.69-6,6-6s6,2.69,6,6S13.31,16,10,16z"></path></g><g id="send-filled"><path d="M3.01,3L3,9.44L14.86,12L3,14.56L3.01,21L21,12L3.01,3z"></path></g><g id="send"><path d="M4.01,4.62l14.12,7.07l-3.06-0.66L4,8.64L4.01,4.62 M18.13,12.32L4.01,19.38L4,15.36l11.07-2.39L18.13,12.32 M3.01,3L3,9.44 L14.86,12L3,14.56L3.01,21L21,12L3.01,3L3.01,3z"></path></g><g id="settings-filled"><path d="M19.56,12c0-0.39-0.03-0.77-0.09-1.14l2.19-2.13l-2-3.46L16.74,6.1c-0.6-0.48-1.27-0.87-2-1.14L14,2h-4L9.26,4.96 c-0.73,0.27-1.4,0.66-2,1.14L4.34,5.27l-2,3.46l2.19,2.13C4.47,11.23,4.44,11.61,4.44,12s0.03,0.77,0.09,1.14l-2.19,2.13l2,3.46 l2.92-0.83c0.6,0.48,1.27,0.87,2,1.14L10,22h4l0.74-2.96c0.73-0.27,1.4-0.66,2-1.14l2.92,0.83l2-3.46l-2.19-2.13 C19.53,12.77,19.56,12.39,19.56,12z M12,16c-2.21,0-4-1.79-4-4c0-2.21,1.79-4,4-4s4,1.79,4,4C16,14.21,14.21,16,12,16z"></path></g><g id="settings"><path d="M12,9c1.65,0,3,1.35,3,3s-1.35,3-3,3s-3-1.35-3-3S10.35,9,12,9 M12,8c-2.21,0-4,1.79-4,4s1.79,4,4,4s4-1.79,4-4 S14.21,8,12,8L12,8z M13.22,3l0.55,2.2l0.13,0.51l0.5,0.18c0.61,0.23,1.19,0.56,1.72,0.98l0.4,0.32l0.5-0.14l2.17-0.62l1.22,2.11 l-1.63,1.59l-0.37,0.36l0.08,0.51c0.05,0.32,0.08,0.64,0.08,0.98s-0.03,0.66-0.08,0.98l-0.08,0.51l0.37,0.36l1.63,1.59l-1.22,2.11 l-2.17-0.62l-0.5-0.14l-0.4,0.32c-0.53,0.43-1.11,0.76-1.72,0.98l-0.5,0.18l-0.13,0.51L13.22,21h-2.44l-0.55-2.2l-0.13-0.51 l-0.5-0.18C9,17.88,8.42,17.55,7.88,17.12l-0.4-0.32l-0.5,0.14l-2.17,0.62L3.6,15.44l1.63-1.59l0.37-0.36l-0.08-0.51 C5.47,12.66,5.44,12.33,5.44,12s0.03-0.66,0.08-0.98l0.08-0.51l-0.37-0.36L3.6,8.56l1.22-2.11l2.17,0.62l0.5,0.14l0.4-0.32 C8.42,6.45,9,6.12,9.61,5.9l0.5-0.18l0.13-0.51L10.78,3H13.22 M14,2h-4L9.26,4.96c-0.73,0.27-1.4,0.66-2,1.14L4.34,5.27l-2,3.46 l2.19,2.13C4.47,11.23,4.44,11.61,4.44,12s0.03,0.77,0.09,1.14l-2.19,2.13l2,3.46l2.92-0.83c0.6,0.48,1.27,0.87,2,1.14L10,22h4 l0.74-2.96c0.73-0.27,1.4-0.66,2-1.14l2.92,0.83l2-3.46l-2.19-2.13c0.06-0.37,0.09-0.75,0.09-1.14s-0.03-0.77-0.09-1.14l2.19-2.13 l-2-3.46L16.74,6.1c-0.6-0.48-1.27-0.87-2-1.14L14,2L14,2z"></path></g><g mirror-in-rtl="" id="share"><path d="M15,5.63L20.66,12L15,18.37V15v-1h-1c-3.96,0-7.14,1-9.75,3.09c1.84-4.07,5.11-6.4,9.89-7.1L15,9.86V9V5.63 M14,3v6 C6.22,10.13,3.11,15.33,2,21c2.78-3.97,6.44-6,12-6v6l8-9L14,3L14,3z"></path></g><g id="shield-filled"><path d="M12,2L4,5.67v5.49c0,1.47,0.3,2.9,0.81,4.22c0.17,0.44,0.37,0.86,0.6,1.28c0.16,0.3,0.34,0.6,0.52,0.88 c1.42,2.17,3.52,3.82,5.95,4.44L12,22l0.12-0.03c2.43-0.61,4.53-2.26,5.95-4.43c0.19-0.29,0.36-0.58,0.52-0.88 c0.22-0.41,0.43-0.84,0.6-1.28C19.7,14.05,20,12.62,20,11.15V5.67L12,2z"></path></g><g id="shield"><path d="M12,3.1l7,3.21v4.84c0,1.3-0.25,2.6-0.75,3.86c-0.15,0.37-0.33,0.76-0.55,1.17c-0.15,0.27-0.31,0.54-0.48,0.81 C15.91,19,14.06,20.41,12,20.97C9.94,20.41,8.09,19,6.77,16.99c-0.17-0.27-0.33-0.54-0.48-0.81c-0.22-0.41-0.4-0.79-0.55-1.17 C5.25,13.75,5,12.45,5,11.15V6.31L12,3.1 M12,2L4,5.67v5.49c0,1.47,0.3,2.9,0.81,4.22c0.17,0.44,0.37,0.86,0.6,1.28 c0.16,0.3,0.34,0.6,0.52,0.88c1.42,2.17,3.52,3.82,5.95,4.44L12,22l0.12-0.03c2.43-0.61,4.53-2.26,5.95-4.43 c0.19-0.29,0.36-0.58,0.52-0.88c0.22-0.41,0.43-0.84,0.6-1.28C19.7,14.05,20,12.62,20,11.15V5.67L12,2L12,2z"></path></g><g id="shield_with_avatar-filled"><path d="M12,1.96L4,5.63v5.49c0,1.47,0.3,2.9,0.81,4.22c0.17,0.44,0.37,0.86,0.6,1.28c0.16,0.3,0.34,0.6,0.52,0.88 c1.42,2.17,3.52,3.82,5.95,4.44L12,21.96l0.12-0.03c2.43-0.61,4.53-2.26,5.95-4.43c0.19-0.29,0.36-0.58,0.52-0.88 c0.22-0.41,0.43-0.84,0.6-1.28C19.7,14.01,20,12.58,20,11.11V5.63L12,1.96z M7,17c0-2.38,1.64-4.42,3.92-4.89h0 c0.32-0.06,0.64-0.11,0.96-0.12C10.28,11.92,9,10.62,9,9c0-1.66,1.34-3,3-3s3,1.34,3,3c0,1.62-1.28,2.92-2.88,2.99 c0.32,0.01,0.64,0.06,0.96,0.12C15.36,12.58,17,14.62,17,17H7z"></path></g><g id="shield_with_avatar"><path d="M12,3.06l7,3.21v4.84c0,1.3-0.25,2.6-0.75,3.86c-0.15,0.37-0.33,0.76-0.55,1.17c-0.15,0.27-0.31,0.54-0.48,0.81 c-1.32,2.01-3.17,3.42-5.23,3.98c-2.06-0.56-3.91-1.97-5.23-3.98c-0.17-0.27-0.33-0.54-0.48-0.81c-0.22-0.41-0.4-0.79-0.55-1.17 C5.25,13.71,5,12.41,5,11.11V6.27L12,3.06 M12,1.96L4,5.63v5.49c0,1.47,0.3,2.9,0.81,4.22c0.17,0.44,0.37,0.86,0.6,1.28 c0.16,0.3,0.34,0.6,0.52,0.88c1.42,2.17,3.52,3.82,5.95,4.44L12,21.96l0.12-0.03c2.43-0.61,4.53-2.26,5.95-4.43 c0.19-0.29,0.36-0.58,0.52-0.88c0.22-0.41,0.43-0.84,0.6-1.28C19.7,14.01,20,12.58,20,11.11V5.63L12,1.96L12,1.96z M13.08,12.11 c-0.32-0.06-0.64-0.11-0.96-0.12C13.72,11.92,15,10.62,15,9c0-1.66-1.34-3-3-3S9,7.34,9,9c0,1.62,1.28,2.92,2.88,2.99 c-0.32,0.01-0.64,0.06-0.96,0.12h0C8.64,12.58,7,14.62,7,17h10C17,14.62,15.36,12.58,13.08,12.11z M10,9c0-1.1,0.9-2,2-2s2,0.9,2,2 s-0.9,2-2,2S10,10.1,10,9z M11.12,13.09c0.37-0.08,0.64-0.11,0.88-0.11s0.51,0.03,0.88,0.11c1.48,0.3,2.63,1.46,3,2.91H8.12 C8.49,14.55,9.64,13.39,11.12,13.09z"></path></g><g id="shopping_bag"><path d="M18 6h-2c0-2.21-1.79-4-4-4S8 3.79 8 6H6c-1.1 0-2 .9-2 2v12c0 1.1.9 2 2 2h12c1.1 0 2-.9 2-2V8c0-1.1-.9-2-2-2zm-6-2c1.1 0 2 .9 2 2h-4c0-1.1.9-2 2-2zm6 16H6V8h2v2c0 .55.45 1 1 1s1-.45 1-1V8h4v2c0 .55.45 1 1 1s1-.45 1-1V8h2v12z"></path></g><g id="shopping_cart-filled"><path d="M10,20c0,1.1-0.9,2-2,2s-2-0.9-2-2c0-1.1,0.9-2,2-2S10,18.9,10,20z M16,18c-1.1,0-2,0.9-2,2c0,1.1,0.9,2,2,2s2-0.9,2-2 C18,18.9,17.1,18,16,18z M7.81,14L7.1,16H18v1H6l0.03-0.97l0.8-2.25L5,5V3H3V2h2h1v1v2h14l-1.88,9H7.81z"></path></g><g id="shopping_cart"><path d="M10,20c0,1.1-0.9,2-2,2s-2-0.9-2-2c0-1.1,0.9-2,2-2S10,18.9,10,20z M16,18c-1.1,0-2,0.9-2,2c0,1.1,0.9,2,2,2s2-0.9,2-2 C18,18.9,17.1,18,16,18z M7.81,14L7.1,16H18v1H6l0.03-0.97l0.8-2.25L5,5V3H3V2h2h1v1v2h14l-1.88,9H7.81z M6.23,6l1.46,7h9.62l1.46-7 H6.23z"></path></g><g id="shuffle-filled"><path d="M18.51,13.29l4.21,4.21l-4.21,4.21l-1.41-1.41l1.8-1.8c-2.95-0.03-5.73-1.32-7.66-3.55l1.51-1.31 c1.54,1.79,3.77,2.82,6.13,2.85l-1.79-1.79L18.51,13.29z M18.88,7.51l-1.78,1.78l1.41,1.41l4.21-4.21l-4.21-4.21l-1.41,1.41l1.8,1.8 c-3.72,0.04-7.12,2.07-8.9,5.34l-0.73,1.34C7.81,14.85,5.03,17,2,17v2c3.76,0,7.21-2.55,9.01-5.85l0.73-1.34 C13.17,9.19,15.9,7.55,18.88,7.51z M8.21,10.31l1.5-1.32C7.77,6.77,4.95,5,2,5v2C4.38,7,6.64,8.53,8.21,10.31z"></path></g><g id="shuffle"><path d="M18.15,13.65l3.85,3.85l-3.85,3.85l-0.71-0.71L20.09,18H19c-2.84,0-5.53-1.23-7.39-3.38l0.76-0.65 C14.03,15.89,16.45,17,19,17h1.09l-2.65-2.65L18.15,13.65z M19,7h1.09l-2.65,2.65l0.71,0.71l3.85-3.85l-3.85-3.85l-0.71,0.71 L20.09,6H19c-3.58,0-6.86,1.95-8.57,5.09l-0.73,1.34C8.16,15.25,5.21,17,2,17v1c3.58,0,6.86-1.95,8.57-5.09l0.73-1.34 C12.84,8.75,15.79,7,19,7z M8.59,9.98l0.75-0.66C7.49,7.21,4.81,6,2,6v1C4.52,7,6.92,8.09,8.59,9.98z"></path></g><g id="skip_forward_30-filled"><path d="M11.54,12.88c0.11,0.25,0.16,0.53,0.16,0.83c0,0.37-0.07,0.7-0.2,0.99c-0.13,0.29-0.33,0.54-0.57,0.74 c-0.24,0.2-0.53,0.35-0.85,0.46C9.75,16,9.4,16.05,9.02,16.05c-0.31,0-0.63-0.05-0.93-0.14c-0.3-0.09-0.58-0.23-0.83-0.42 c-0.25-0.19-0.45-0.43-0.59-0.71c-0.15-0.29-0.22-0.63-0.22-1.02v-0.05h1.56v0.05c0,0.19,0.05,0.36,0.14,0.51 c0.09,0.15,0.21,0.27,0.37,0.35c0.16,0.08,0.34,0.13,0.54,0.13c0.22,0,0.42-0.04,0.58-0.13c0.16-0.09,0.28-0.21,0.37-0.36 c0.09-0.16,0.13-0.34,0.13-0.56c0-0.27-0.05-0.5-0.14-0.66c-0.09-0.16-0.23-0.28-0.4-0.36c-0.18-0.08-0.39-0.12-0.63-0.12H8.13 v-1.27h0.83c0.24,0,0.44-0.04,0.59-0.13c0.15-0.09,0.27-0.21,0.34-0.36c0.08-0.16,0.11-0.35,0.11-0.56c0-0.19-0.04-0.36-0.1-0.51 C9.84,9.58,9.74,9.46,9.6,9.38C9.46,9.29,9.28,9.25,9.06,9.25c-0.17,0-0.33,0.04-0.47,0.11c-0.14,0.07-0.26,0.17-0.35,0.3 c-0.08,0.13-0.13,0.28-0.13,0.46v0.05H6.55v-0.05c0-0.44,0.11-0.82,0.34-1.15C7.1,8.66,7.41,8.4,7.78,8.22 c0.37-0.18,0.79-0.27,1.24-0.27c0.51,0,0.95,0.09,1.33,0.26c0.38,0.17,0.69,0.43,0.9,0.76c0.21,0.33,0.32,0.75,0.32,1.25 c0,0.25-0.06,0.5-0.17,0.73c-0.11,0.23-0.27,0.45-0.48,0.64c-0.12,0.11-0.27,0.21-0.45,0.3c0.23,0.09,0.42,0.21,0.57,0.34 C11.27,12.41,11.43,12.63,11.54,12.88z M17.67,11.32v1.35c0,0.59-0.06,1.1-0.18,1.52c-0.12,0.43-0.29,0.78-0.52,1.06 c-0.23,0.27-0.5,0.48-0.81,0.61c-0.31,0.13-0.66,0.2-1.03,0.2c-0.3,0-0.59-0.04-0.85-0.12c-0.26-0.08-0.5-0.21-0.71-0.39 c-0.21-0.18-0.39-0.4-0.54-0.66c-0.15-0.26-0.26-0.58-0.34-0.95c-0.08-0.36-0.12-0.79-0.12-1.26v-1.35c0-0.59,0.06-1.1,0.18-1.52 c0.12-0.42,0.3-0.77,0.52-1.05c0.23-0.27,0.5-0.48,0.81-0.6c0.31-0.13,0.66-0.19,1.03-0.19c0.3,0,0.59,0.04,0.84,0.12 c0.26,0.08,0.5,0.21,0.71,0.38c0.21,0.17,0.39,0.39,0.54,0.66c0.15,0.26,0.26,0.58,0.34,0.95C17.63,10.43,17.67,10.85,17.67,11.32z  M15.84,14.34c0.09-0.15,0.15-0.34,0.19-0.58c0.04-0.24,0.07-0.54,0.07-0.89v-1.76c0-0.28-0.01-0.52-0.04-0.73 c-0.03-0.2-0.07-0.38-0.13-0.53c-0.06-0.14-0.12-0.26-0.2-0.35c-0.08-0.09-0.17-0.15-0.27-0.19c-0.1-0.04-0.22-0.06-0.34-0.06 c-0.16,0-0.3,0.03-0.42,0.1c-0.12,0.06-0.22,0.17-0.3,0.31c-0.08,0.14-0.15,0.33-0.19,0.57c-0.04,0.24-0.07,0.54-0.07,0.88v1.76 c0,0.28,0.01,0.52,0.04,0.74c0.03,0.21,0.07,0.39,0.13,0.54c0.06,0.15,0.13,0.26,0.2,0.35c0.08,0.09,0.17,0.15,0.27,0.19 c0.1,0.04,0.22,0.06,0.34,0.06c0.15,0,0.29-0.03,0.41-0.1C15.65,14.58,15.76,14.48,15.84,14.34z M19,12c0,2.1-0.93,4.07-2.55,5.4 c-1.62,1.34-3.76,1.87-5.86,1.46c-2.73-0.53-4.92-2.72-5.45-5.45C4.73,11.31,5.26,9.17,6.6,7.55C7.93,5.93,9.9,5,12,5h1.27 l-0.85,0.85l1.41,1.41l3.35-3.35l-3.35-3.35l-1.41,1.41L13.43,3H12C9.3,3,6.77,4.19,5.05,6.28c-1.72,2.08-2.4,4.82-1.88,7.52 c0.68,3.52,3.51,6.35,7.03,7.03C10.8,20.94,11.39,21,11.98,21c2.09,0,4.11-0.71,5.74-2.05C19.81,17.23,21,14.7,21,12H19z"></path></g><g id="skip_forward_30"><path d="M11.54,12.88c0.11,0.25,0.16,0.53,0.16,0.83c0,0.37-0.07,0.7-0.2,0.99c-0.13,0.29-0.33,0.54-0.57,0.74 c-0.24,0.2-0.53,0.35-0.85,0.46C9.75,16,9.4,16.05,9.02,16.05c-0.31,0-0.63-0.05-0.93-0.14c-0.3-0.09-0.58-0.23-0.83-0.42 c-0.25-0.19-0.45-0.43-0.59-0.71c-0.15-0.29-0.22-0.63-0.22-1.02v-0.05h1.56v0.05c0,0.19,0.05,0.36,0.14,0.51 c0.09,0.15,0.21,0.27,0.37,0.35c0.16,0.08,0.34,0.13,0.54,0.13c0.22,0,0.42-0.04,0.58-0.13c0.16-0.09,0.28-0.21,0.37-0.36 c0.09-0.16,0.13-0.34,0.13-0.56c0-0.27-0.05-0.5-0.14-0.66c-0.09-0.16-0.23-0.28-0.4-0.36c-0.18-0.08-0.39-0.12-0.63-0.12H8.13 v-1.27h0.83c0.24,0,0.44-0.04,0.59-0.13c0.15-0.09,0.27-0.21,0.34-0.36c0.08-0.16,0.11-0.35,0.11-0.56c0-0.19-0.04-0.36-0.1-0.51 C9.84,9.58,9.74,9.46,9.6,9.38C9.46,9.29,9.28,9.25,9.06,9.25c-0.17,0-0.33,0.04-0.47,0.11c-0.14,0.07-0.26,0.17-0.35,0.3 c-0.08,0.13-0.13,0.28-0.13,0.46v0.05H6.55v-0.05c0-0.44,0.11-0.82,0.34-1.15C7.1,8.66,7.41,8.4,7.78,8.22 c0.37-0.18,0.79-0.27,1.24-0.27c0.51,0,0.95,0.09,1.33,0.26c0.38,0.17,0.69,0.43,0.9,0.76c0.21,0.33,0.32,0.75,0.32,1.25 c0,0.25-0.06,0.5-0.17,0.73c-0.11,0.23-0.27,0.45-0.48,0.64c-0.12,0.11-0.27,0.21-0.45,0.3c0.23,0.09,0.42,0.21,0.57,0.34 C11.27,12.41,11.43,12.63,11.54,12.88z M17.67,11.32v1.35c0,0.59-0.06,1.1-0.18,1.52c-0.12,0.43-0.29,0.78-0.52,1.06 c-0.23,0.27-0.5,0.48-0.81,0.61c-0.31,0.13-0.66,0.2-1.03,0.2c-0.3,0-0.59-0.04-0.85-0.12c-0.26-0.08-0.5-0.21-0.71-0.39 c-0.21-0.18-0.39-0.4-0.54-0.66c-0.15-0.26-0.26-0.58-0.34-0.95c-0.08-0.36-0.12-0.79-0.12-1.26v-1.35c0-0.59,0.06-1.1,0.18-1.52 c0.12-0.42,0.3-0.77,0.52-1.05c0.23-0.27,0.5-0.48,0.81-0.6c0.31-0.13,0.66-0.19,1.03-0.19c0.3,0,0.59,0.04,0.84,0.12 c0.26,0.08,0.5,0.21,0.71,0.38c0.21,0.17,0.39,0.39,0.54,0.66c0.15,0.26,0.26,0.58,0.34,0.95C17.63,10.43,17.67,10.85,17.67,11.32z  M15.84,14.34c0.09-0.15,0.15-0.34,0.19-0.58c0.04-0.24,0.07-0.54,0.07-0.89v-1.76c0-0.28-0.01-0.52-0.04-0.73 c-0.03-0.2-0.07-0.38-0.13-0.53c-0.06-0.14-0.12-0.26-0.2-0.35c-0.08-0.09-0.17-0.15-0.27-0.19c-0.1-0.04-0.22-0.06-0.34-0.06 c-0.16,0-0.3,0.03-0.42,0.1c-0.12,0.06-0.22,0.17-0.3,0.31c-0.08,0.14-0.15,0.33-0.19,0.57c-0.04,0.24-0.07,0.54-0.07,0.88v1.76 c0,0.28,0.01,0.52,0.04,0.74c0.03,0.21,0.07,0.39,0.13,0.54c0.06,0.15,0.13,0.26,0.2,0.35c0.08,0.09,0.17,0.15,0.27,0.19 c0.1,0.04,0.22,0.06,0.34,0.06c0.15,0,0.29-0.03,0.41-0.1C15.65,14.58,15.76,14.48,15.84,14.34z M21,12c0,2.7-1.2,5.23-3.28,6.95 C16.1,20.29,14.07,21,11.98,21c-0.59,0-1.19-0.06-1.78-0.17c-3.52-0.68-6.34-3.51-7.02-7.02c-0.52-2.7,0.16-5.44,1.88-7.52 C6.77,4.2,9.3,3,12,3h2.79l-1.95-1.95l0.71-0.71l3.16,3.16l-3.16,3.16l-0.71-0.71L14.79,4H12C9.6,4,7.35,5.06,5.82,6.92 c-1.53,1.85-2.13,4.29-1.67,6.69c0.61,3.12,3.11,5.63,6.23,6.23c2.41,0.47,4.84-0.14,6.69-1.67C18.94,16.65,20,14.4,20,12H21z"></path></g><g id="skip_next"><path d="M5,18l10-6L5,6V18L5,18z M19,6h-2v12h2V6z"></path></g><g id="skip_previous"><path d="M19,6L9,12l10,6V6L19,6z M7,6H5v12h2V6z"></path></g><g id="sort-filled"><path d="M21,6.99H3V5h18V6.99z M15,11H3v1.99h12V11z M9,17H3v1.99h6V17z"></path></g><g id="sort"><path d="M21,6H3V5h18V6z M15,11H3v1h12V11z M9,17H3v1h6V17z"></path></g><g id="star-filled"><path d="M12,17.27L18.18,21l-1.64-7.03L22,9.24l-7.19-0.61L12,2L9.19,8.63L2,9.24l5.46,4.73L5.82,21L12,17.27z"></path></g><g id="star"><path d="M12,4.56l1.89,4.46l0.24,0.56l0.6,0.05l4.83,0.41l-3.67,3.18l-0.46,0.4l0.14,0.59l1.1,4.72l-4.15-2.51L12,16.1l-0.52,0.31 l-4.15,2.51l1.1-4.72l0.14-0.59l-0.46-0.4l-3.67-3.18l4.83-0.41l0.6-0.05l0.24-0.56L12,4.56 M12,2L9.19,8.63L2,9.24l5.46,4.73 L5.82,21L12,17.27L18.18,21l-1.64-7.03L22,9.24l-7.19-0.61L12,2L12,2z"></path></g><g id="star_half"><path d="M22,9.24l-7.19-0.61L12,2L9.19,8.63L2,9.24l5.46,4.73L5.82,21L12,17.27L18.18,21l-1.64-7.03L22,9.24z M16.67,18.92 l-4.15-2.51L12,16.1V4.56l1.89,4.46l0.24,0.56l0.6,0.05l4.83,0.41l-3.67,3.18l-0.46,0.4l0.14,0.59L16.67,18.92z"></path></g><g id="subscribe-filled"><path d="M21.58,7.19a2.51,2.51,0,0,0-1.77-1.77C18.25,5,12,5,12,5s-6.25,0-7.81.42A2.51,2.51,0,0,0,2.42,7.19,25.87,25.87,0,0,0,2,12a25.87,25.87,0,0,0,.42,4.81,2.51,2.51,0,0,0,1.77,1.77C5.75,19,12,19,12,19s6.25,0,7.81-.42a2.51,2.51,0,0,0,1.77-1.77A25.87,25.87,0,0,0,22,12,25.87,25.87,0,0,0,21.58,7.19ZM10,14.65V9.35L15,12Z"></path></g><g id="subscribe"><path d="M10,9.35,15,12l-5,2.65ZM12,6a54.36,54.36,0,0,0-7.56.38A1.53,1.53,0,0,0,3.38,7.44,24.63,24.63,0,0,0,3,12a24.63,24.63,0,0,0,.38,4.56,1.53,1.53,0,0,0,1.06,1.06A54.36,54.36,0,0,0,12,18a54.36,54.36,0,0,0,7.56-.38,1.53,1.53,0,0,0,1.06-1.06A24.63,24.63,0,0,0,21,12a24.63,24.63,0,0,0-.38-4.56,1.53,1.53,0,0,0-1.06-1.06A54.36,54.36,0,0,0,12,6h0m0-1s6.25,0,7.81.42a2.51,2.51,0,0,1,1.77,1.77A25.87,25.87,0,0,1,22,12a25.87,25.87,0,0,1-.42,4.81,2.51,2.51,0,0,1-1.77,1.77C18.25,19,12,19,12,19s-6.25,0-7.81-.42a2.51,2.51,0,0,1-1.77-1.77A25.87,25.87,0,0,1,2,12a25.87,25.87,0,0,1,.42-4.81A2.51,2.51,0,0,1,4.19,5.42C5.75,5,12,5,12,5Z"></path></g><g id="subscriptions-filled"><path d="M20,7H4V6h16V7z M22,9v12H2V9H22z M15,15l-5-3v6L15,15z M17,3H7v1h10V3z"></path></g><g id="subscriptions"><path d="M10,18v-6l5,3L10,18z M17,3H7v1h10V3z M20,6H4v1h16V6z M22,9H2v12h20V9z M3,10h18v10H3V10z"></path></g><g id="subtitles-filled"><path d="M2,6v14h20V6H2z M5,11h2v2H5V11z M15,17H5v-2h10V17z M19,17h-2v-2h2V17z M19,13H9v-2h10V13z"></path></g><g id="subtitles"><path d="M5,11h2v2H5V11z M15,15H5v2h10V15z M19,15h-2v2h2V15z M19,11H9v2h10V11z M22,6H2v14h20V6z M3,7h18v12H3V7z"></path></g><g id="super_chat_for_good-filled"><path d="M21.29,7.63L21.29,7.63C20.32,5.94,18.55,5,16.73,5c-0.89,0-1.8,0.23-2.63,0.71L12,6.92L9.9,5.71C9.07,5.23,8.17,5,7.27,5 C5.45,5,3.68,5.94,2.71,7.63l0,0c-1.45,2.52-0.59,5.74,1.93,7.19L12,19l7.36-4.17C21.88,13.37,22.75,10.15,21.29,7.63z M10.39,16.94 l-1.05-0.59l6.02-3.37c0.34,0.19,1.02,0.58,1.04,0.6L10.39,16.94z M3.52,12.29l4.67-2.65l-1.04-0.6l1.08-0.6c0,0,4.28,2.4,4.63,2.59 c0.35,0.19,0.71,0.21,1.07,0.03c0.62-0.31,0.73-1.03,0.44-1.5c-0.11-0.17-0.25-0.29-0.42-0.39c-0.14-0.08-1-0.57-1.93-1.11l1.05-0.6 c0.08,0.04,1.06,0.59,1.44,0.81c0.33,0.19,0.6,0.43,0.8,0.75c0.25,0.41,0.35,0.85,0.29,1.32c-0.1,0.82-0.55,1.39-1.32,1.73 c-0.5,0.22-1.02,0.23-1.53,0.06c-0.08-0.03-0.15-0.03-0.22,0.02c-0.01,0.01-5.21,2.92-5.33,2.98l-1.07-0.6l5.39-3.04l-2.21-1.22 c0,0-3.73,2.07-5.17,2.88C3.9,12.88,3.69,12.6,3.52,12.29z"></path></g><g id="super_chat_for_good"><path d="M21.29,7.63L21.29,7.63C20.32,5.94,18.55,5,16.73,5c-0.89,0-1.8,0.23-2.63,0.71L12,6.92L9.9,5.71C9.07,5.23,8.17,5,7.27,5 C5.45,5,3.68,5.94,2.71,7.63l0,0c-1.45,2.52-0.59,5.74,1.93,7.19L12,19l7.36-4.17C21.88,13.37,22.75,10.15,21.29,7.63z M3.57,8.13 C4.33,6.82,5.75,6,7.27,6C8.02,6,8.75,6.2,9.4,6.57c0,0,4.22,2.43,4.54,2.61c0.17,0.1,0.32,0.22,0.42,0.39 c0.29,0.46,0.19,1.18-0.43,1.49c-0.36,0.18-0.72,0.16-1.07-0.03c-0.35-0.19-4.62-2.58-4.62-2.58l-1.07,0.6l1.04,0.6L3.53,12.3 c0,0-0.3-0.6-0.38-0.93C2.85,10.27,3,9.12,3.57,8.13z M4.15,13.15c1.43-0.8,5.17-2.88,5.17-2.88l2.2,1.22l-5.39,3.03l-1-0.57 C4.76,13.74,4.44,13.46,4.15,13.15z M20.85,11.37c-0.29,1.1-1,2.02-1.98,2.59L12,17.85l-1.62-0.92l6-3.36 c-0.01-0.02-0.7-0.41-1.04-0.6l-6.01,3.37L7.2,15.13c0,0,5.31-2.97,5.32-2.98c0.07-0.05,0.14-0.05,0.22-0.02 c0.52,0.17,1.03,0.16,1.53-0.06c0.77-0.33,1.22-0.9,1.32-1.72c0.06-0.47-0.05-0.91-0.29-1.32c-0.19-0.32-0.47-0.56-0.79-0.75 c-0.4-0.23-1.45-0.81-1.45-0.81l1.55-0.9C15.25,6.2,15.98,6,16.73,6c1.52,0,2.94,0.82,3.7,2.13C21,9.12,21.15,10.27,20.85,11.37z"></path></g><g id="switch_accounts-filled"><path d="M4,20h14v1H3V6h1V20z M6,3v15h15V3H6z M14.21,11.93C15.8,11.6,17,10.19,17,8.5C17,6.57,15.43,5,13.5,5S10,6.57,10,8.5 c0,1.69,1.2,3.1,2.79,3.43C9.32,12.19,7.4,14.35,7.02,17H7V4h13v13h-0.02C19.6,14.35,17.68,12.19,14.21,11.93z"></path></g><g id="switch_accounts"><path d="M4,20h14v1H3V6h1V20z M6,3v15h15V3H6z M8.02,17c0.36-2.13,1.93-4.1,5.48-4.1s5.12,1.97,5.48,4.1H8.02z M11,8.5 C11,7.12,12.12,6,13.5,6S16,7.12,16,8.5c0,1.38-1.12,2.5-2.5,2.5S11,9.88,11,8.5z M14.21,11.93C15.8,11.6,17,10.19,17,8.5 C17,6.57,15.43,5,13.5,5S10,6.57,10,8.5c0,1.69,1.2,3.1,2.79,3.43c-3.48,0.26-5.4,2.42-5.78,5.07H7V4h13v13h-0.01 C19.61,14.35,17.68,12.19,14.21,11.93z"></path></g><g id="tab_home-filled"><path d="M4,10V21h6V15h4v6h6V10L12,3Z"></path></g><g id="tab_home"><path d="M12,4.33l7,6.12V20H15V14H9v6H5V10.45l7-6.12M12,3,4,10V21h6V15h4v6h6V10L12,3Z"></path></g><g id="trailer-filled"><path d="M2,5v14h20V5H2z M6,9L5,6h3l1,3H6z M11,9l-1-3h3l1,3H11z M16,9l-1-3h3l1,3H16z"></path></g><g id="trailer"><path d="M2,5v14h20V5H2z M21,6v12H3V6h2l1,3h3L8,6h2l1,3h3l-1-3h2l1,3h3l-1-3H21z"></path></g><g id="translate-filled"><path d="M12.1,16.6l-2.8-2.8l-4.5,4.5l-1.28-1.28L8.1,12.5c-1.12-1.25-2.02-2.64-2.68-4.1h1.8c0.55,1.07,1.24,2.09,2.08,3.02 c1.3-1.44,2.25-3.09,2.85-4.82H2.1V4.8h6.3V3h1.8v1.8h6.3v1.8h-2.64c-0.66,2.12-1.77,4.13-3.34,5.88L10.5,12.5l2.29,2.26L12.1,16.6z M21.9,21h-1.8l-1.02-2.7h-4.28L13.8,21H12l4.05-10.8h1.8L21.9,21z M18.41,16.5l-1.46-3.9l-1.46,3.9H18.41z"></path></g><g id="translate"><path d="M12.26,16.18l-2.93-2.87c-0.8,0.86-1.64,1.71-2.48,2.54L4.6,18.1L3.9,17.4l2.25-2.25c0.84-0.84,1.68-1.69,2.48-2.55 c-1.18-1.23-2.17-2.64-2.9-4.18L5.73,8.4h1.14c0.65,1.26,1.47,2.43,2.44,3.45c1.59-1.81,2.89-3.69,3.43-5.7H2.08v-1h6.65V3h1v2.15 h6.78v1h-2.73c-0.54,2.32-2.01,4.42-3.77,6.42l2.63,2.58C12.51,15.5,12.39,15.82,12.26,16.18z M21.51,21.01h-0.95l-1.12-3.04h-4.91 l-1.11,3.04h-0.96l4.09-10.81h0.87L21.51,21.01z M19.15,17.2l-2.17-5.89l-2.17,5.89H19.15z"></path></g><g id="trending-filled"><path d="M19.48,12.83c-0.04-0.1-0.09-0.2-0.14-0.3c-0.25-0.49-0.55-0.96-0.91-1.38c-0.27-0.34-0.57-0.65-0.89-0.93 c-0.75-0.67-1.63-1.14-2.36-1.84c-1.49-1.44-2-3.46-1.34-5.39C14.2,2.2,14.41,2,14.41,2s-0.6,0.28-1.07,0.52 c-0.47,0.24-1.39,0.72-1.98,1.18C8.37,6,7.79,9.59,8.64,13.35c0.01,0.05-0.02,0.09-0.08,0.09c-0.07,0-0.18-0.06-0.34-0.22 C7,11.88,6.41,10.11,6.64,8.35c0.01-0.06,0.01-0.09,0.01-0.09S5.51,9.74,5.1,10.43c-0.41,0.69-1.2,2.43-1.08,4.31 c0.04,0.56,0.13,1.12,0.29,1.67c0.2,0.68,0.49,1.33,0.88,1.93c1.21,1.91,3.34,3.29,5.63,3.57c0.47,0.06,0.94,0.09,1.41,0.09 c2,0,4.01-0.53,5.53-1.87C19.84,18.3,20.6,15.38,19.48,12.83z M14.72,17.84c-0.32,0.27-0.83,0.53-1.23,0.66 c-1.34,0.33-2.41-0.34-2.62-0.46c-0.21-0.11-0.78-0.38-0.78-0.38s0.35-0.11,0.41-0.13c1.34-0.54,1.89-1.24,2.09-2.11 c0.2-0.84-0.16-1.56-0.31-2.39c-0.12-0.69-0.11-1.28,0.12-1.9c0.02-0.05,0.12-0.43,0.12-0.43s0.11,0.35,0.13,0.41 c0.71,1.51,2.72,2.18,3.07,3.84c0.03,0.15,0.05,0.3,0.05,0.46C15.8,16.3,15.4,17.26,14.72,17.84z"></path></g><g id="trending"><path d="M14.72,17.84c-0.32,0.27-0.83,0.53-1.23,0.66c-1.34,0.33-2.41-0.34-2.62-0.46c-0.21-0.11-0.78-0.38-0.78-0.38 s0.35-0.11,0.41-0.13c1.34-0.54,1.89-1.24,2.09-2.11c0.2-0.84-0.16-1.56-0.31-2.39c-0.12-0.69-0.11-1.28,0.12-1.9 c0.02-0.05,0.12-0.43,0.12-0.43s0.11,0.35,0.13,0.41c0.71,1.51,2.72,2.18,3.07,3.84c0.03,0.15,0.05,0.3,0.05,0.46 C15.8,16.3,15.4,17.26,14.72,17.84z M12.4,4.34c-0.12,0.08-0.22,0.15-0.31,0.22c-2.99,2.31-2.91,5.93-2.31,8.55l0.01,0.03l0.01,0.03 c0.06,0.35-0.05,0.7-0.28,0.96c-0.24,0.26-0.58,0.41-0.95,0.41c-0.44,0-0.85-0.2-1.22-0.6c-0.67-0.73-1.17-1.57-1.5-2.46 c-0.36,0.77-0.75,1.98-0.67,3.19c0.04,0.51,0.12,1,0.25,1.43c0.18,0.6,0.43,1.16,0.75,1.65c1.05,1.66,2.88,2.82,4.78,3.05 c0.42,0.05,0.85,0.08,1.26,0.08c1.34,0,3.25-0.27,4.74-1.57c1.77-1.56,2.35-3.99,1.44-6.06c-0.04-0.1-0.06-0.14-0.09-0.19 l-0.04-0.08c-0.21-0.42-0.47-0.81-0.75-1.14c-0.24-0.3-0.48-0.56-0.79-0.83c-0.3-0.27-0.64-0.51-1-0.77 c-0.46-0.33-0.93-0.67-1.38-1.09C12.98,7.83,12.3,6.11,12.4,4.34 M14.41,2c0,0-0.2,0.2-0.56,0.99c-0.66,1.92-0.15,3.95,1.34,5.39 c0.73,0.69,1.61,1.17,2.36,1.84c0.32,0.29,0.62,0.59,0.89,0.93c0.36,0.42,0.66,0.89,0.91,1.38c0.05,0.1,0.1,0.2,0.14,0.3 c1.12,2.55,0.36,5.47-1.73,7.31C16.23,21.47,14.22,22,12.22,22c-0.47,0-0.95-0.03-1.41-0.09c-2.29-0.28-4.42-1.66-5.63-3.57 c-0.39-0.6-0.68-1.26-0.88-1.93c-0.16-0.54-0.25-1.1-0.29-1.67c-0.12-1.88,0.67-3.63,1.08-4.31c0.41-0.69,1.55-2.18,1.55-2.18 s0,0.03-0.01,0.09C6.41,10.11,7,11.88,8.22,13.22c0.15,0.17,0.27,0.22,0.34,0.22c0.06,0,0.09-0.04,0.08-0.09 C7.79,9.59,8.37,6,11.35,3.7c0.59-0.46,1.51-0.94,1.98-1.18C13.8,2.28,14.41,2,14.41,2L14.41,2z"></path></g><g id="trending_up"><path d="M22,6v7h-1V7.6l-8.5,7.6l-4-4l-5.6,5.6l-0.7-0.7l6.4-6.4l4,4L20.2,7H15V6H22z"></path></g><g id="trophy-filled"><path d="M18 5V2H6V5H4V6V10V11H6.01C6.07 13.53 7.63 15.78 9.97 16.64C9.98 16.64 9.99 16.64 10 16.65V19H9V20H8V22H16V20H15V19H14V16.65C14.01 16.65 14.02 16.65 14.03 16.64C16.36 15.78 17.93 13.54 17.99 11H20V10V6V5H18ZM6 10H5V6H6V10ZM19 10H18V6H19V10Z"></path></g><g id="trophy"><path d="M17 3V5V6V10V10.51L16.99 10.97C16.94 13.1 15.66 14.94 13.74 15.67H13.72L13.66 15.69L13 15.95V16.65V19V20H14V21H15H10V20H11V19V16.65V15.95L10.34 15.71L10.26 15.68H10.25C8.33 14.95 7.05 13.11 7 10.98V10.51V10V6V5V3H17ZM18 2H6V5H4V6V10V11H6.01C6.07 13.53 7.63 15.78 9.97 16.64C9.98 16.64 9.99 16.64 10 16.65V19H9V20H8V22H16V20H15V19H14V16.65C14.01 16.65 14.02 16.65 14.03 16.64C16.36 15.78 17.93 13.54 17.99 11H20V10V6V5H18V2ZM18 10V6H19V10H18ZM5 10V6H6V10H5Z"></path></g><g id="tune-filled"><path d="M15,17h6v2h-6V17z M11,17H3v2h8v2h2v-6h-2V17z M14,9h2V3h-2v2H3v2h11V9z M18,5v2h3V5H18z M6,15h2V9H6v2H3v2h3V15z M10,13h11 v-2H10V13z"></path></g><g id="tune"><path d="M15,17h6v1h-6V17z M11,17H3v1h8v2h1v-2v-1v-2h-1V17z M14,8h1V6V5V3h-1v2H3v1h11V8z M18,5v1h3V5H18z M6,14h1v-2v-1V9H6v2H3v1 h3V14z M10,12h11v-1H10V12z"></path></g><g id="up_arrow-filled"><path d="M16.3,10.7L13,7.4V20h-2V7.4l-3.3,3.3L6.3,9.3L12,3.6l5.7,5.7L16.3,10.7z"></path></g><g id="up_arrow"><path d="M16.1,10.4L12,6.2V20h-1V6.2l-4.1,4.1L6.1,9.6l5.4-5.4l5.4,5.4L16.1,10.4z"></path></g><g id="upload"><path d="M17,18v1H6V18ZM6.49,9l.71.71L11,5.91V16h1V5.91l3.8,3.81L16.51,9l-5-5Z"></path></g><g id="uploads-filled"><path d="M4,20h14v1H3V6h1V20z M21,3v15H6V3H21z M17,10.5L11,7v7L17,10.5z"></path></g><g id="uploads"><path d="M11,7l6,3.5L11,14V7L11,7z M18,20H4V6H3v15h15V20z M21,18H6V3h15V18z M7,17h13V4H7V17z"></path></g><g id="vertical_align_top"><path d="M7 5L7 4L18 4L18 5L7 5ZM7.5 11.6L8.2 12.3L12 8.6L12 19L13 19L13 8.6L16.8 12.4L17.5 11.7L12.5 6.7L7.5 11.6Z"></path></g><g id="very_happy-filled"><path d="M12,4c4.41,0,8,3.59,8,8s-3.59,8-8,8s-8-3.59-8-8S7.59,4,12,4 M12,2C6.48,2,2,6.48,2,12c0,5.52,4.48,10,10,10s10-4.48,10-10 C22,6.48,17.52,2,12,2L12,2z M7,13c0,1,1,4,5,4s5-3,5-4C16,13,8,13,7,13z M7.09,10C7.3,9.42,7.85,9,8.5,9s1.2,0.42,1.41,1h1.04 C10.72,8.86,9.71,8,8.5,8s-2.22,0.86-2.45,2H7.09z M14.09,10c0.21-0.58,0.76-1,1.41-1s1.2,0.42,1.41,1h1.04 c-0.23-1.14-1.24-2-2.45-2s-2.22,0.86-2.45,2H14.09z"></path></g><g id="very_happy"><path d="M12,2C6.48,2,2,6.48,2,12c0,5.52,4.48,10,10,10s10-4.48,10-10C22,6.48,17.52,2,12,2z M12,21c-4.96,0-9-4.04-9-9 c0-4.96,4.04-9,9-9s9,4.04,9,9C21,16.96,16.96,21,12,21z M17,13c0,1-1,4-5,4s-5-3-5-4C8,13,16,13,17,13z M6.05,10 C6.28,8.86,7.29,8,8.5,8s2.22,0.86,2.45,2H9.91C9.7,9.42,9.15,9,8.5,9s-1.2,0.42-1.41,1H6.05z M13.05,10c0.23-1.14,1.24-2,2.45-2 s2.22,0.86,2.45,2h-1.04c-0.21-0.58-0.76-1-1.41-1s-1.2,0.42-1.41,1H13.05z"></path></g><g id="very_sad-filled"><path d="M7.15,17c0.5-1.8,2.35-3,4.85-3s4.35,1.2,4.85,3H15.8c-0.54-1.36-2.16-2-3.8-2s-3.26,0.64-3.8,2H7.15z M15.5,13 c0.83,0,1.5-0.67,1.5-1.5S16.33,10,15.5,10S14,10.67,14,11.5S14.67,13,15.5,13z M8.5,13c0.83,0,1.5-0.67,1.5-1.5S9.33,10,8.5,10 S7,10.67,7,11.5S7.67,13,8.5,13z M9.91,8C9.7,8.58,9.15,9,8.5,9S7.3,8.58,7.09,8H6.05c0.23,1.14,1.24,2,2.45,2s2.22-0.86,2.45-2 H9.91z M16.91,8c-0.21,0.58-0.76,1-1.41,1s-1.2-0.42-1.41-1h-1.04c0.23,1.14,1.24,2,2.45,2s2.22-0.86,2.45-2H16.91z M12,4 c-4.41,0-8,3.59-8,8s3.59,8,8,8s8-3.59,8-8S16.41,4,12,4 M12,2c5.52,0,10,4.48,10,10c0,5.52-4.48,10-10,10S2,17.52,2,12 C2,6.48,6.48,2,12,2L12,2z"></path></g><g id="very_sad"><path d="M7.15,17c0.5-1.8,2.35-3,4.85-3s4.35,1.2,4.85,3H15.8c-0.54-1.36-2.16-2-3.8-2s-3.26,0.64-3.8,2H7.15z M15.5,13 c0.83,0,1.5-0.67,1.5-1.5S16.33,10,15.5,10S14,10.67,14,11.5S14.67,13,15.5,13z M8.5,13c0.83,0,1.5-0.67,1.5-1.5S9.33,10,8.5,10 S7,10.67,7,11.5S7.67,13,8.5,13z M9.91,8C9.7,8.58,9.15,9,8.5,9S7.3,8.58,7.09,8H6.05c0.23,1.14,1.24,2,2.45,2s2.22-0.86,2.45-2 H9.91z M16.91,8c-0.21,0.58-0.76,1-1.41,1s-1.2-0.42-1.41-1h-1.04c0.23,1.14,1.24,2,2.45,2s2.22-0.86,2.45-2H16.91z M12,3 c-4.96,0-9,4.04-9,9s4.04,9,9,9s9-4.04,9-9S16.96,3,12,3 M12,2c5.52,0,10,4.48,10,10c0,5.52-4.48,10-10,10S2,17.52,2,12 C2,6.48,6.48,2,12,2L12,2z"></path></g><g id="video_call-filled"><path d="M18,8.83V5H2v14h16v-5.83L22,15V7L18,8.83z M14,13h-3v3H9v-3H6v-2h3V8h2v3h3V13z"></path></g><g id="video_call"><path d="M14,13h-3v3H9v-3H6v-2h3V8h2v3h3V13z M17,6H3v12h14v-6.39l4,1.83V8.56l-4,1.83V6 M18,5v3.83L22,7v8l-4-1.83V19H2V5H18L18,5 z"></path></g><g id="video_camera"><path d="M18,8.83V5H2v14h16v-5.83L22,15V7L18,8.83z M21,13.44l-2.58-1.18L17,11.61v1.56V18H3V6h14v2.83v1.56l1.42-0.65L21,8.56 V13.44z"></path></g><g id="view_list-filled"><path d="M20,9H9V7h11V9z M20,11H9v2h11V11z M20,15H9v2h11V15z M7,7H4v2h3V7z M7,11H4v2h3V11z M7,15H4v2h3V15z"></path></g><g id="view_list"><path d="M20,8H9V7h11V8z M20,11H9v1h11V11z M20,15H9v1h11V15z M7,7H4v1h3V7z M7,11H4v1h3V11z M7,15H4v1h3V15z"></path></g><g id="view_module-filled"><path d="M2,4h6v7H2V4z M2,20h6v-7H2V20z M9,11h6V4H9V11z M9,20h6v-7H9V20z M16,4v7h6V4H16z M16,20h6v-7h-6V20z"></path></g><g id="view_module"><path d="M8,11H2V4h6V11z M3,10h4V5H3V10z M8,20H2v-7h6V20z M3,19h4v-5H3V19z M15,11H9V4h6V11z M10,10h4V5h-4V10z M15,20H9v-7h6V20z M10,19h4v-5h-4V19z M22,11h-6V4h6V11z M17,10h4V5h-4V10z M22,20h-6v-7h6V20z M17,19h4v-5h-4V19z"></path></g><g id="visibility-filled"><path d="M12,5.18C7.45,5.18,3.57,8.01,2,12c1.57,3.99,5.45,6.82,10,6.82s8.43-2.83,10-6.82C20.43,8.01,16.55,5.18,12,5.18z M12,16.09c-2.25,0-4.09-1.84-4.09-4.09c0-2.25,1.84-4.09,4.09-4.09s4.09,1.84,4.09,4.09C16.09,14.25,14.25,16.09,12,16.09z"></path></g><g id="visibility"><path d="M12,8.91c1.7,0,3.09,1.39,3.09,3.09S13.7,15.09,12,15.09S8.91,13.7,8.91,12S10.3,8.91,12,8.91 M12,7.91 c-2.25,0-4.09,1.84-4.09,4.09s1.84,4.09,4.09,4.09s4.09-1.84,4.09-4.09S14.25,7.91,12,7.91L12,7.91z M12,6.18 c3.9,0,7.35,2.27,8.92,5.82c-1.56,3.55-5.02,5.82-8.92,5.82c-3.9,0-7.35-2.27-8.92-5.82C4.65,8.45,8.1,6.18,12,6.18 M12,5.18 C7.45,5.18,3.57,8.01,2,12c1.57,3.99,5.45,6.82,10,6.82s8.43-2.83,10-6.82C20.43,8.01,16.55,5.18,12,5.18L12,5.18z"></path></g><g id="visibility_off"><path d="M3.85,3.15L3.15,3.85L6.19,6.9C4.31,8.11,2.83,9.89,2,12c1.57,3.99,5.45,6.82,10,6.82c1.77,0,3.44-0.43,4.92-1.2l3.23,3.23 l0.71-0.71L3.85,3.15z M13.8,14.5c-0.51,0.37-1.13,0.59-1.8,0.59c-1.7,0-3.09-1.39-3.09-3.09c0-0.67,0.22-1.29,0.59-1.8L13.8,14.5z M12,17.82c-3.9,0-7.35-2.27-8.92-5.82c0.82-1.87,2.18-3.36,3.83-4.38L8.79,9.5c-0.54,0.69-0.88,1.56-0.88,2.5 c0,2.25,1.84,4.09,4.09,4.09c0.95,0,1.81-0.34,2.5-0.88l1.67,1.67C14.9,17.49,13.48,17.82,12,17.82z M11.49,7.95 c0.17-0.02,0.34-0.05,0.51-0.05c2.25,0,4.09,1.84,4.09,4.09c0,0.17-0.02,0.34-0.05,0.51l-1.01-1.01c-0.21-1.31-1.24-2.33-2.55-2.55 L11.49,7.95z M9.12,5.59C10.04,5.33,11,5.18,12,5.18c4.55,0,8.43,2.83,10,6.82c-0.58,1.47-1.48,2.78-2.61,3.85l-0.72-0.72 c0.93-0.87,1.71-1.92,2.25-3.13C19.35,8.45,15.9,6.18,12,6.18c-0.7,0-1.39,0.08-2.06,0.22L9.12,5.59z"></path></g><g id="volume_off"><path d="M3.15,3.85l4.17,4.17L6.16,9H3v6h3.16L12,19.93v-7.22l2.45,2.45c-0.15,0.07-0.3,0.13-0.45,0.18v1.04 c0.43-0.1,0.83-0.27,1.2-0.48l1.81,1.81c-0.88,0.62-1.9,1.04-3.01,1.2v1.01c1.39-0.17,2.66-0.71,3.73-1.49l2.42,2.42l0.71-0.71 l-17-17L3.15,3.85z M11,11.71v6.07L6.52,14H4v-4h2.52l1.5-1.27L11,11.71z M10.33,6.79L9.62,6.08L12,4.07v4.39l-1-1V6.22L10.33,6.79 z M14,8.66V7.62c2,0.46,3.5,2.24,3.5,4.38c0,0.58-0.13,1.13-0.33,1.64l-0.79-0.79c0.07-0.27,0.12-0.55,0.12-0.85 C16.5,10.42,15.44,9.1,14,8.66z M14,5.08V4.07c3.95,0.49,7,3.85,7,7.93c0,1.56-0.46,3.01-1.23,4.24l-0.73-0.73 C19.65,14.48,20,13.28,20,12C20,8.48,17.39,5.57,14,5.08z"></path></g><g id="volume_up-filled"><path d="M21,12c0,4.08-3.05,7.44-7,7.93v-2.02c2.83-0.48,5-2.94,5-5.91s-2.17-5.43-5-5.91V4.07C17.95,4.56,21,7.92,21,12z M3,9v6 h3.16L12,19.93V4.07L6.16,9H3z M14,7.62v2.09c0.88,0.39,1.5,1.27,1.5,2.29s-0.62,1.9-1.5,2.29v2.09c2-0.46,3.5-2.24,3.5-4.38 S16,8.08,14,7.62z"></path></g><g id="volume_up"><path d="M17.5,12c0,2.14-1.5,3.92-3.5,4.38v-1.04c1.44-0.43,2.5-1.76,2.5-3.34c0-1.58-1.06-2.9-2.5-3.34V7.62 C16,8.08,17.5,9.86,17.5,12z M12,4.07v15.86L6.16,15H3V9h3.16L12,4.07z M11,6.22L6.52,10H4v4h2.52L11,17.78V6.22z M21,12 c0,4.08-3.05,7.44-7,7.93v-1.01c3.39-0.49,6-3.4,6-6.92s-2.61-6.43-6-6.92V4.07C17.95,4.56,21,7.92,21,12z"></path></g><g id="vpn_key"><path d="M7,8c1.59,0,3.02,0.94,3.66,2.4l0.26,0.6h0.65H21v2h-2h-1v1v2h-2v-2v-1h-1h-3.42h-0.65l-0.26,0.6C10.02,15.06,8.59,16,7,16 c-2.21,0-4-1.79-4-4S4.79,8,7,8 M7,7c-2.76,0-5,2.24-5,5s2.24,5,5,5c2.05,0,3.81-1.24,4.58-3H15v3h4v-3h3v-4H11.58 C10.81,8.24,9.05,7,7,7L7,7z M7,10c-1.1,0-2,0.9-2,2s0.9,2,2,2s2-0.9,2-2S8.1,10,7,10z"></path></g><g id="warning-filled"><path d="M12,4L2,20h20L12,4z M13,18h-2v-2h2V18z M11,15v-5h2v5H11z"></path></g><g id="warning"><path d="M13,18h-2v-2h2V18z M13,10h-2v5h2V10z M12,5.89L20.2,19H3.8L12,5.89 M12,4L2,20h20L12,4L12,4z"></path></g><g id="watch_history-filled"><path d="M14.97,16.95L10,13.87V7h2v5.76l4.03,2.49L14.97,16.95z M12,2C8.73,2,5.8,3.44,4,5.83V3.02H2V9h6V7H5.62 C7.08,5.09,9.36,4,12,4c4.41,0,8,3.59,8,8s-3.59,8-8,8s-8-3.59-8-8H2c0,5.51,4.49,10,10,10s10-4.49,10-10S17.51,2,12,2z"></path></g><g id="watch_history"><path d="M14.97,16.95L10,13.87V7h2v5.76l4.03,2.49L14.97,16.95z M22,12c0,5.51-4.49,10-10,10S2,17.51,2,12h1c0,4.96,4.04,9,9,9 s9-4.04,9-9s-4.04-9-9-9C8.81,3,5.92,4.64,4.28,7.38C4.17,7.56,4.06,7.75,3.97,7.94C3.96,7.96,3.95,7.98,3.94,8H8v1H1.96V3h1v4.74 C3,7.65,3.03,7.57,3.07,7.49C3.18,7.27,3.3,7.07,3.42,6.86C5.22,3.86,8.51,2,12,2C17.51,2,22,6.49,22,12z"></path></g><g id="watch_later-filled"><path d="M12,2C6.48,2,2,6.48,2,12c0,5.52,4.48,10,10,10s10-4.48,10-10C22,6.48,17.52,2,12,2z M14.97,16.95L10,13.87V7h2v5.76 l4.03,2.49L14.97,16.95z"></path></g><g id="watch_later"><path d="M14.97,16.95L10,13.87V7h2v5.76l4.03,2.49L14.97,16.95z M12,3c-4.96,0-9,4.04-9,9s4.04,9,9,9s9-4.04,9-9S16.96,3,12,3 M12,2c5.52,0,10,4.48,10,10s-4.48,10-10,10S2,17.52,2,12S6.48,2,12,2L12,2z"></path></g><g id="youtube_music_monochrome"><path d="M10 9.35L15 12l-5 2.65zM12 7a5 5 0 105 5 5 5 0 00-5-5m0-1a6 6 0 11-6 6 6 6 0 016-6zm0-3a9 9 0 109 9 9 9 0 00-9-9m0-1A10 10 0 112 12 10 10 0 0112 2z"></path></g><g id="zoom_in-filled"><path d="M15.6,14.19C16.48,13.02,17,11.57,17,10c0-3.87-3.13-7-7-7s-7,3.13-7,7c0,3.87,3.13,7,7,7c1.57,0,3.02-0.52,4.19-1.4 l5.64,5.64l1.41-1.41L15.6,14.19z M14,11h-3v3H9v-3H6V9h3V6h2v3h3V11z"></path></g><g id="zoom_in"><path d="M14,11h-3v3H9v-3H6V9h3V6h2v3h3V11z M20.17,20.87l-5.59-5.59C13.35,16.35,11.75,17,10,17c-3.87,0-7-3.13-7-7 c0-3.87,3.13-7,7-7s7,3.13,7,7c0,1.75-0.65,3.35-1.71,4.58l5.59,5.59L20.17,20.87z M16,10c0-3.31-2.69-6-6-6s-6,2.69-6,6s2.69,6,6,6 S16,13.31,16,10z"></path></g><g id="zoom_out-filled"><path d="M15.6,14.19C16.48,13.02,17,11.57,17,10c0-3.87-3.13-7-7-7s-7,3.13-7,7c0,3.87,3.13,7,7,7c1.57,0,3.02-0.52,4.19-1.4 l5.64,5.64l1.41-1.41L15.6,14.19z M14,11H6V9h8V11z"></path></g><g id="zoom_out"><path d="M14,11H6V9h8V11z M20.17,20.87l-5.59-5.59C13.35,16.35,11.75,17,10,17c-3.87,0-7-3.13-7-7c0-3.87,3.13-7,7-7s7,3.13,7,7 c0,1.75-0.65,3.35-1.71,4.58l5.59,5.59L20.17,20.87z M16,10c0-3.31-2.69-6-6-6s-6,2.69-6,6s2.69,6,6,6S16,13.31,16,10z"></path></g></defs></svg>