<svg xmlns:xlink="http://www.w3.org/1999/xlink" xmlns="http://www.w3.org/2000/svg" height="36" version="1.1" viewBox="0 0 36 36" width="36"><defs><path d="M 26,10 22.83,10 21,8 15,8 13.17,10 10,10 c -1.1,0 -2,.9 -2,2 l 0,12 c 0,1.1 .9,2 2,2 l 16,0 c 1.1,0 2,-0.9 2,-2 l 0,-12 c 0,-1.1 -0.9,-2 -2,-2 l 0,0 z m -5,11.5 0,-2.5 -6,0 0,2.5 -3.5,-3.5 3.5,-3.5 0,2.5 6,0 0,-2.5 3.5,3.5 -3.5,3.5 0,0 z" fill="#FFFFFF" id="ytp-id-19"></path></defs><use class="ytp-svg-shadow" xlink:href="#ytp-id-19" stroke="#000000" fill="none" stroke-width="2px" stroke-opacity="0.15"></use><path d="M 26,10 22.83,10 21,8 15,8 13.17,10 10,10 c -1.1,0 -2,.9 -2,2 l 0,12 c 0,1.1 .9,2 2,2 l 16,0 c 1.1,0 2,-0.9 2,-2 l 0,-12 c 0,-1.1 -0.9,-2 -2,-2 l 0,0 z m -5,11.5 0,-2.5 -6,0 0,2.5 -3.5,-3.5 3.5,-3.5 0,2.5 6,0 0,-2.5 3.5,3.5 -3.5,3.5 0,0 z" fill="#FFFFFF" id="ytp-id-19"></path></svg>