<svg width='100'  height='100' ><defs><g id="check_circle_thick-filled"><path d="M8,1C4.13,1,1,4.13,1,8c0,3.87,3.13,7,7,7s7-3.13,7-7C15,4.13,11.87,1,8,1z M6.5,11.91L3.79,9.21l1.41-1.41L6.5,9.09 l4.29-4.29l1.41,1.41L6.5,11.91z"></path></g><g id="check_circle_thick"><path d="M8,2c3.31,0,6,2.69,6,6s-2.69,6-6,6s-6-2.69-6-6S4.69,2,8,2 M8,1C4.13,1,1,4.13,1,8s3.13,7,7,7s7-3.13,7-7S11.87,1,8,1L8,1z M12.21,6.21l-1.41-1.41L6.5,9.09L5.21,7.79L3.79,9.21l2.71,2.71L12.21,6.21z"></path></g><g mirror-in-rtl="" id="chevron_left"><path d="M10.15,13.35L4.79,8l5.35-5.35l0.71,0.71L6.21,8l4.65,4.65L10.15,13.35z"></path></g><g mirror-in-rtl="" id="chevron_right"><path d="M4.97,12.65L9.62,8L4.97,3.35l0.71-0.71L11.03,8l-5.35,5.35L4.97,12.65z"></path></g><g id="comment-filled"><path d="M3,2v9h7l3,3V2ZM9,8H5V7H9Zm2-2H5V5h6Z"></path></g><g id="comment"><path d="M12,3v8.59l-1.29-1.3-.3-.29H4V3h8m1-1H3v9h7l3,3V2ZM9,7H5V8H9Zm2-2H5V6h6Z"></path></g><g id="dislike-filled"><path d="M3.54,2A1.55,1.55,0,0,0,2,3.13L1,7.37C.83,8.24,1,9,2,9H6L4.52,12.54A1.17,1.17,0,0,0,5.71,14a1.49,1.49,0,0,0,1.09-.46L11,9l0-7ZM12,2h3V9H12Z"></path></g><g id="dislike"><path d="M3.54,2A1.55,1.55,0,0,0,2,3.13L1,7.37C.83,8.24,1,9,2,9H6L4.52,12.54A1.17,1.17,0,0,0,5.71,14a1.49,1.49,0,0,0,1.09-.46L11,9h4V2ZM6.07,12.86a.51.51,0,0,1-.36.14.28.28,0,0,1-.22-.09l0-.05L6.92,9.39,7.5,8H2a1.5,1.5,0,0,1,0-.41L3,3.35A.58.58,0,0,1,3.54,3H10V8.61ZM14,8H11l0-5h3Z"></path></g><g id="help-filled"><path d="M8,1C4.14,1,1,4.14,1,8s3.14,7,7,7s7-3.14,7-7S11.86,1,8,1z M8,12.3c-0.44,0-0.8-0.36-0.8-0.8s0.36-0.8,0.8-0.8 s0.8,0.36,0.8,0.8S8.44,12.3,8,12.3z M8.66,9.45H7.35c0-2.13,1.97-1.96,1.97-3.28c0-0.72-0.59-1.31-1.31-1.31S6.69,5.45,6.69,6.17 H5.38c0-1.45,1.18-2.62,2.62-2.62s2.62,1.18,2.62,2.62C10.62,7.81,8.66,7.98,8.66,9.45z"></path></g><g id="help"><path d="M8,2c3.31,0,6,2.69,6,6s-2.69,6-6,6s-6-2.69-6-6S4.69,2,8,2 M8,1C4.14,1,1,4.14,1,8s3.14,7,7,7s7-3.14,7-7S11.86,1,8,1L8,1z M8,12.3c0.44,0,0.8-0.36,0.8-0.8S8.44,10.7,8,10.7s-0.8,0.36-0.8,0.8S7.56,12.3,8,12.3z M8,3.55c-1.45,0-2.62,1.18-2.62,2.62h1.31 c0-0.72,0.59-1.31,1.31-1.31s1.31,0.59,1.31,1.31c0,1.32-1.97,1.15-1.97,3.28h1.31c0-1.48,1.97-1.64,1.97-3.28 C10.62,4.72,9.45,3.55,8,3.55z"></path></g><g id="info"><path d="M8,2c3.31,0,6,2.69,6,6s-2.69,6-6,6s-6-2.69-6-6S4.69,2,8,2 M8,1C4.13,1,1,4.13,1,8s3.13,7,7,7s7-3.13,7-7S11.87,1,8,1L8,1z M9,3H7v2h2V3L9,3z M7,6v7h2V6H7z"></path></g><g id="like-filled"><path d="M12.42,14A1.54,1.54,0,0,0,14,12.87l1-4.24C15.12,7.76,15,7,14,7H10l1.48-3.54A1.17,1.17,0,0,0,10.24,2a1.49,1.49,0,0,0-1.08.46L5,7l0,7ZM4,14H1V7H4Z"></path></g><g id="like"><path d="M12.42,14A1.54,1.54,0,0,0,14,12.87l1-4.24C15.12,7.76,15,7,14,7H10l1.48-3.54A1.17,1.17,0,0,0,10.24,2a1.49,1.49,0,0,0-1.08.46L5,7H1v7ZM9.89,3.14A.48.48,0,0,1,10.24,3a.29.29,0,0,1,.23.09S9,6.61,9,6.61L8.46,8H14c0,.08-1,4.65-1,4.65a.58.58,0,0,1-.58.35H6V7.39ZM2,8H5v5H2Z"></path></g><g id="music-filled"><path d="M13,1H8v3v5.78C7.47,9.3,6.77,9,6,9c-1.66,0-3,1.34-3,3s1.34,3,3,3s3-1.34,3-3V4h4V1z"></path></g><g id="music"><path d="M13,1H8v3v5.78C7.47,9.3,6.77,9,6,9c-1.66,0-3,1.34-3,3s1.34,3,3,3s3-1.34,3-3V4h4V1z M6,14c-1.1,0-2-0.9-2-2 c0-1.1,0.9-2,2-2s2,0.9,2,2C8,13.1,7.1,14,6,14z M12,3H9V2h3V3z"></path></g><g id="open_in_new"><path d="M13,10h1v4H2V2h4v1H3v10h10V10z M8,3h4.29L6.15,9.15l0.71,0.71L13,3.71V8h1V2H8V3z"></path></g></defs></svg>