<svg width='100'  height='100' ><defs><g transform="scale(0.66)" id="member"><path d="M12,2 C17.5166667,2 22,6.48333333 22,12 C22,17.5166667 17.5166667,22 12,22 C6.48333333,22 2,17.5166667 2,12 C2,6.48333333 6.48333333,2 12,2 Z M14.4,4.9 C11.6666667,3.98333333 8.5,4.675 6.41666667,7.00833333 C4.46666667,9.18333333 4.05,12.375 5.2,15.0583333 C5.58333333,15.9583333 6.09166667,16.6833333 6.68333333,17.2833333 C7.34166667,17.9416667 8.40833333,17.9583333 9.06666667,17.3 L9.06666667,17.3 L14.3666667,12 C14.6916667,11.675 15.2166667,11.675 15.5416667,12 C15.8666667,12.325 15.8666667,12.85 15.5416667,13.175 L15.5416667,13.175 L9.61666667,19.1 C12.35,20.0166667 15.5166667,19.325 17.6,16.9916667 C19.5416667,14.8166667 19.9583333,11.625 18.8166667,8.94166667 C18.4333333,8.04166667 17.925,7.31666667 17.3333333,6.71666667 C16.675,6.05833333 15.6083333,6.04166667 14.95,6.7 L14.95,6.7 L9.65,12 C9.325,12.325 8.8,12.325 8.475,12 C8.15,11.675 8.15,11.15 8.475,10.825 L8.475,10.825 Z"></path></g><g id="moderator"><path d="M9.64589146,7.05569719 C9.83346524,6.562372 9.93617022,6.02722257 9.93617022,5.46808511 C9.93617022,3.00042984 7.93574038,1 5.46808511,1 C4.90894765,1 4.37379823,1.10270499 3.88047304,1.29027875 L6.95744681,4.36725249 L4.36725255,6.95744681 L1.29027875,3.88047305 C1.10270498,4.37379824 1,4.90894766 1,5.46808511 C1,7.93574038 3.00042984,9.93617022 5.46808511,9.93617022 C6.02722256,9.93617022 6.56237198,9.83346524 7.05569716,9.64589147 L12.4098057,15 L15,12.4098057 L9.64589146,7.05569719 Z"></path></g><g id="owner"><polygon points="1.33333333 3.33333333 5.33333333 6 8 2 10.6666667 6 14.6666667 3.33333333 13.3333333 14 2.66666667 14"></polygon></g><g transform="scale(0.66)" id="verified"><path d="M9 16.2L4.8 12l-1.4 1.4L9 19 21 7l-1.4-1.4L9 16.2z"></path></g></defs></svg>