<svg xmlns:xlink="http://www.w3.org/1999/xlink" xmlns="http://www.w3.org/2000/svg" viewBox="0 0 24 24" preserveAspectRatio="xMidYMid meet" focusable="false" class="style-scope yt-icon" style="pointer-events: none; display: block; width: 100%; height: 100%;" width="24"  height="24" ><g class="style-scope yt-icon" fill="#3EA6FF"><path d="M13,17h-2v-6h2V17z M13,7h-2v2h2V7z M12,3c-4.96,0-9,4.04-9,9s4.04,9,9,9c4.96,0,9-4.04,9-9S16.96,3,12,3 M12,2 c5.52,0,10,4.48,10,10s-4.48,10-10,10C6.48,22,2,17.52,2,12S6.48,2,12,2L12,2z" class="style-scope yt-icon" fill="#3EA6FF"></path></g></svg>