<svg xmlns:xlink="http://www.w3.org/1999/xlink" xmlns="http://www.w3.org/2000/svg" viewBox="0 0 24 24" preserveAspectRatio="xMidYMid meet" focusable="false" class="style-scope yt-icon" style="pointer-events: none; display: block; width: 100%; height: 100%;" width="24"  height="24" ><g class="style-scope yt-icon" fill="#FFFFFF"><path d="M13.72,11.93C15.58,11.59,17,9.96,17,8c0-2.21-1.79-4-4-4c-2.21,0-4,1.79-4,4c0,1.96,1.42,3.59,3.28,3.93 C6.77,12.21,4,15.76,4,20h18C22,15.76,19.23,12.21,13.72,11.93z M10,8c0-1.65,1.35-3,3-3s3,1.35,3,3s-1.35,3-3,3S10,9.65,10,8z M13,12.9c5.33,0,7.56,2.99,7.94,6.1H5.06C5.44,15.89,7.67,12.9,13,12.9z M4,12H2v-1h2V9h1v2h2v1H5v2H4V12z" class="style-scope yt-icon" fill="#FFFFFF"></path></g></svg>