<svg width='200'  height='200' ><defs><g id="arrow-down-alt"><path transform="rotate(90 12,12)" d="m16.01,11l-12.01,0l0,2l12.01,0l0,3l3.99,-4l-3.99,-4l0,3z"></path></g><g id="arrow-right"><path d="M10 17l5-5-5-5v10z"></path></g><g id="arrow-up-alt"><path transform="rotate(-90 12,12)" d="m16.01,11l-12.01,0l0,2l12.01,0l0,3l3.99,-4l-3.99,-4l0,3z"></path></g><g id="check-circle-outline"><path d="M16.59 7.58L10 14.17l-3.59-3.58L5 12l5 5 8-8zM12 2C6.48 2 2 6.48 2 12s4.48 10 10 10 10-4.48 10-10S17.52 2 12 2zm0 18c-4.42 0-8-3.58-8-8s3.58-8 8-8 8 3.58 8 8-3.58 8-8 8z"></path></g><g viewBox="0 0 200 200" id="error-on-load-v2"><circle fill="#CACACA" cx="100.38" cy="111.66" r="73.5"></circle><path fill="#FFF" d="M146.9 92.77a15.5 15.5 0 0 0-.21-1.65h-.84c-4.79 0-7.63-3.19-7.63-6.6a6.56 6.56 0 0 1 1.71-4.36 13 13 0 0 0-4.5-1.89v-1.85c-5.5 3.33-7.54 10.86-16.22 10.86a9.53 9.53 0 0 1-7.48-3.4 11 11 0 0 1-2.21-6.78c0-7.24 5.73-6.26 5.73-13.15 0-1.74-.3-3.45-.3-4.86a13.38 13.38 0 0 1 .13-1.8c.85-5.63 7.54-10.06 13.3-10.42-4.41-3.5-25.38-14.35-44.85 8.32 6 10.16 22.87 15.54 22.87 27.82 0 15.94-10 24.91-19.64 24.91-6.16 0-13-3.49-17.23-9.09-.87 4.65-1.91 8.71-3.54 11.71-.13.24-.26.47-.4.69a35.7 35.7 0 0 1-3.21 4.44c-1.38 1.65-2.85 3.18-4.34 4.67-3.6 3.6-7.29 7-10 11.4a26.41 26.41 0 0 0-3.53 9.79 36.52 36.52 0 0 0-.45 5.61A30.14 30.14 0 0 0 51.38 167a74 74 0 0 0 11.79 8.53h71.47v-.36c0-7.28-3.57-13.31-10.77-14.8 0-.26.09-.53.14-.79a45.3 45.3 0 0 0 1.74-9.12 16.66 16.66 0 0 1-.66-4.74.93.93 0 0 1 0-.1 18.7 18.7 0 0 1 3.17-11.23q1.78-11.74 3.23-23.55c9.08-1.07 14.37-7.11 15.35-14.25a18.22 18.22 0 0 0 .16-2.45c0-.44-.07-.91-.1-1.37zm-36.75 67.43c.14-.4.27-.8.4-1.21a3.53 3.53 0 0 0 1.32 1.84 8.35 8.35 0 0 0-1.72-.63zm1-2l-.58.75c.35-1.08.68-2.19 1-3.32l.4-.07a8.59 8.59 0 0 0-.83 2.65zm4.24 5.83a13.83 13.83 0 0 1 1.62 3.62 13.83 13.83 0 0 0-1.63-3.65zm14.5-53.16c-3.58 7.43-6.74 14-13.25 15.61a4.43 4.43 0 0 1-3.48 2.91l-.58.13a7 7 0 0 1-5.42 4.28l-6.12 1-.71.11a4.27 4.27 0 0 1-4.76-3l-4.46.7a1.78 1.78 0 0 1-2-1.48l-.09-.6a1.79 1.79 0 0 1 1.48-2l4.42-.71-.46-2.84-4.42.7a1.79 1.79 0 0 1-2-1.49l-.09-.59a1.79 1.79 0 0 1 1.48-2l4.54-.72a4.26 4.26 0 0 1 3.58-3.87l.71-.12 6.12-1a7 7 0 0 1 6.06 2l.92-.2a4.41 4.41 0 0 1 4.8 2.75c3.09-1.36 5.13-5.32 8.36-12 2.92-6.07 6.29-11.92 11-16.09a17.13 17.13 0 0 0 5.64 3.29c-5.16 3.43-8.51 9.47-11.28 15.24z"></path><path fill="#666" d="M146.69 91.12h-.84c-4.79 0-7.63-3.19-7.63-6.6a6.56 6.56 0 0 1 1.71-4.36 15.3 15.3 0 0 1 5.5 6.69 17.58 17.58 0 0 1 1.26 4.27z"></path><path fill="#599BFF" d="M135.47 92.17a17.13 17.13 0 0 0 5.64 3.29c-5.16 3.61-8.46 9.65-11.23 15.42-3.58 7.43-6.74 14-13.25 15.61a4.5 4.5 0 0 0 .19-2.14l-.5-3.13a5.41 5.41 0 0 0-.25-.92c3.09-1.36 5.13-5.32 8.36-12 2.92-6.11 6.29-11.96 11.04-16.13z"></path><path fill="#FFF" d="M135.52 73.17v1.6a23.13 23.13 0 0 1-2.5.14 14.57 14.57 0 0 1-6.62-1.38c2.53-1.29 4.76-3.68 4.76-8.41 0-3.81-2.27-7.16-7-7.16a13.65 13.65 0 0 1 8.9-3.57c1.8 5.08 2.46 11.51 2.46 18.78z"></path><path fill="#E4E4E4" d="M135.51 74.77v1.68c-5.5 3.33-7.54 10.86-16.22 10.86a9.53 9.53 0 0 1-7.48-3.4 11 11 0 0 1-2.21-6.78c0-7.24 5.73-6.26 5.73-13.15 0-1.74-.3-3.45-.3-4.86a13.38 13.38 0 0 1 .13-1.8c.85-5.63 7.54-10.06 13.3-10.42a17.57 17.57 0 0 1 3.35 4.62 24.11 24.11 0 0 1 1.19 2.87 13.65 13.65 0 0 0-8.9 3.57 9.44 9.44 0 0 0-2.83 6.92 9.19 9.19 0 0 0 5.09 8.65 14.57 14.57 0 0 0 6.64 1.38 23.13 23.13 0 0 0 2.51-.14z"></path><path fill="#666" d="M131.15 65.12c0 4.73-2.23 7.12-4.76 8.41a9.19 9.19 0 0 1-5.09-8.65 9.44 9.44 0 0 1 2.83-6.88c4.75 0 7.02 3.31 7.02 7.12z"></path><path fill="#599BFF" d="M165.12 146.6a14.57 14.57 0 0 0-3.85-6.89 13 13 0 0 0-9.95-3.9c-6.48.37-12.07 4.52-18 8.92l-2.24 1.65v-.27c-.57-10 8-14.42 17.85-19.51s21.24-11 20.51-24.14a16.81 16.81 0 0 0-6.17-12.25 18.76 18.76 0 0 0-13-4 26.83 26.83 0 0 0-4.92.73 17.58 17.58 0 0 1 1.26 4.24 15.5 15.5 0 0 1 .21 1.65 18.78 18.78 0 0 1 3.79-.58 12.71 12.71 0 0 1 8.8 2.68 10.69 10.69 0 0 1 3.94 7.9c.52 9.26-7.71 13.51-17.25 18.42-6.67 3.45-13.93 7.19-18 13.23a18.94 18.94 0 0 0-3.14 12 20.33 20.33 0 0 0 .55 3.72 35.6 35.6 0 0 1-14.05 5.5c-.45 1.56-.93 3.09-1.42 4.56a8.07 8.07 0 0 1 2.89 1.33 38.13 38.13 0 0 0 11.3-3.73c1.25-.62 2.45-1.3 3.62-2a25.46 25.46 0 0 0 20.49 11.7h1.15a16.13 16.13 0 0 0 12-6.6 18.77 18.77 0 0 0 3.88-12 12.56 12.56 0 0 0-.25-2.36zm-8.34 10.59a10.36 10.36 0 0 1-7.55 4.24c-5.35.3-12.76-3-16.22-9 1.36-1 2.67-1.94 4-2.89 5.39-4 10-7.47 14.72-7.73A7 7 0 0 1 157 144a8.3 8.3 0 0 1 2.43 5.26 12.77 12.77 0 0 1-2.65 7.93z"></path><path fill="#1B6EFF" d="M135.37 143.2l-2 1.5-2.24 1.65a11.51 11.51 0 0 0 1.94 6.05c1.34-1 2.63-1.91 3.9-2.85l2.09-1.55a7.91 7.91 0 0 0-3.69-4.8zM125.62 150.14a35.6 35.6 0 0 1-14.05 5.5c-.45 1.56-.93 3.09-1.42 4.56a8.07 8.07 0 0 1 2.89 1.33 38.13 38.13 0 0 0 11.3-3.73c1.21-.6 2.53-1.25 3.67-1.93a18.41 18.41 0 0 1-2.39-5.73z"></path><path fill="#0900D6" d="M116.82 124.35a4.5 4.5 0 0 1-.19 2.14 4.43 4.43 0 0 1-3.48 2.91l-.58.13a7 7 0 0 0 .44-3.8l-.65-4.07a6.93 6.93 0 0 0-2-3.91l.92-.2a4.41 4.41 0 0 1 4.8 2.75 5.41 5.41 0 0 1 .25.92zM105.12 128.79a5.29 5.29 0 0 1-4.09 6l-.71.11a4.27 4.27 0 0 1-4.76-3l4.38-.7a1.8 1.8 0 0 0 1.49-2.05l-.1-.59a1.79 1.79 0 0 0-2-1.49l-4.42.7-.46-2.84 4.43-.71a1.79 1.79 0 0 0 1.48-2l-.09-.6a1.8 1.8 0 0 0-2-1.48l-4.3.68a4.26 4.26 0 0 1 3.58-3.87l.71-.12a5.29 5.29 0 0 1 5.74 4.42z"></path><path fill="#9ABBFF" d="M112.57 129.53a7 7 0 0 1-5.42 4.28l-6.12 1a5.29 5.29 0 0 0 4.09-6l-1.21-7.59a5.29 5.29 0 0 0-5.74-4.42l6.12-1a7.06 7.06 0 0 1 8.07 5.86l.65 4.07a7 7 0 0 1-.44 3.8z"></path><path fill="#599BFF" d="M70.22 44.64a20.55 20.55 0 0 1 4.55 15.06C73.42 71.67 64 74.6 56.38 77c-7.22 2.21-11.38 3.74-11.94 9.1-1 8.54 3.57 11.43 11.65 15.8a30.43 30.43 0 0 1 10 8.67c-.13.24-.26.47-.4.69a35.7 35.7 0 0 1-3.21 4.44 2.88 2.88 0 0 1-.63-.67 24.58 24.58 0 0 0-8.58-7.81C45.6 103.1 37 98.44 38.43 85.43c1.07-9.55 9.09-12 16.16-14.24 8.25-2.56 13.33-4.66 14.17-12.19a14.45 14.45 0 0 0-3.92-11.36l-.21-.25c1.82-.97 3.68-1.91 5.59-2.75z"></path><path fill="#E4E4E4" d="M82.89 149.58a6 6 0 0 1 .94 3.15c0 3.75-3.9 6.86-7.46 6.86a5.12 5.12 0 0 1-5.22-5c0-3.67 4.14-7.27 7.75-7.27a4.52 4.52 0 0 1 3.99 2.26zM74.56 130.71c4.15 2.14 5.87 5.1 5.87 7.94 0 4.57-4.45 8.83-10.47 8.83s-8.53-3.75-8.53-8.56a9.32 9.32 0 0 1 2.8-6.94 9.22 9.22 0 0 1 10.33-1.27z"></path><path d="M65.67 150c1.92 1 2.67 2.39 2.67 3.74a5.06 5.06 0 0 1-4.86 4.7 3.89 3.89 0 0 1-4-3.83c0-2.42 2-5.05 4.45-5.05a3.6 3.6 0 0 1 1.74.44z" fill="#cbcbcb"></path><path fill="#FFD700" d="M125.99 97.82l-16.9 15.65 4.22-12.01-6.72-2.58 15.21-14.5-3.09 10.75 7.28 2.69z"></path><path fill="#E4E4E4" d="M58.09 120.37c-3.6 3.6-7.29 7-10 11.4a67.78 67.78 0 0 0-2.2-9.77c2.82-1.82 5.42-4.61 5.91-7.67a36.81 36.81 0 0 1 6.29 6.04z"></path><path fill="#666" d="M39 107.94a38.57 38.57 0 0 1 12.77 6.37c-.49 3.06-3.09 5.85-5.91 7.67A48.41 48.41 0 0 0 39 107.94z"></path><path fill="#1B6EFF" d="M146.9 92.77a18.78 18.78 0 0 1 3.79-.58 13 13 0 0 1 2.17 0 10.18 10.18 0 0 0 .14-1.64 10 10 0 0 0-.94-4.46h-1.71a26.83 26.83 0 0 0-4.92.73 17.58 17.58 0 0 1 1.26 4.24 15.5 15.5 0 0 1 .21 1.71zM58.85 103.6a12.86 12.86 0 0 0-2.56 5.62A25 25 0 0 1 61.8 115a2.88 2.88 0 0 0 .63.67 35.7 35.7 0 0 0 3.21-4.44c.14-.22.27-.45.4-.69a30.45 30.45 0 0 0-7.19-6.94z"></path><path fill="#AEAEAE" d="M82.66 162a.71.71 0 0 1-.53-1.19c5.22-5.84 7.65-11.71 7.65-18.5a14.6 14.6 0 0 0-5.44-11.93 20.21 20.21 0 0 0-12.53-3.92 22.14 22.14 0 0 0-11.53 3.11.71.71 0 1 1-.74-1.22 23.61 23.61 0 0 1 12.27-3.31c9.65 0 19.39 5.34 19.39 17.27 0 7.16-2.54 13.34-8 19.45a.69.69 0 0 1-.54.24z"></path><path fill="#AEAEAE" d="M106.82 174.73a.71.71 0 0 1-.66-.76c0-.58.06-1.16.06-1.72 0-11.17-7.72-12.84-12.31-12.84A29.35 29.35 0 0 0 77.73 165a.7.7 0 0 1-1-.17.72.72 0 0 1 .17-1 30.77 30.77 0 0 1 17-5.81c4.12 0 13.73 1.39 13.73 14.26 0 .59 0 1.2-.06 1.82a.72.72 0 0 1-.75.63z"></path><path fill="#CACACA" d="M91.53 174.78a.64.64 0 0 1-.2 0 .72.72 0 0 1-.48-.89 6.27 6.27 0 0 0 .27-1.82 6.71 6.71 0 0 0-5.27-6.49.71.71 0 0 1-.54-.85.71.71 0 0 1 .85-.54 8.15 8.15 0 0 1 6.38 7.81 7.72 7.72 0 0 1-.33 2.23.7.7 0 0 1-.68.55zM99.47 177.07a.59.59 0 0 1-.25 0 .71.71 0 0 1-.41-.91c.08-.21.15-.41.21-.61 1.3-4.24-.59-8.18-4.92-10.3a.71.71 0 1 1 .62-1.28c4.94 2.41 7.15 7.12 5.66 12-.07.24-.15.47-.24.7a.72.72 0 0 1-.67.4zM112.39 175.18a.58.58 0 0 1-.26-.05.7.7 0 0 1-.4-.92 6 6 0 0 0 .39-1.54 9 9 0 0 0-3.28-7.79.71.71 0 0 1 .89-1.11 10.5 10.5 0 0 1 3.8 9.09 7.53 7.53 0 0 1-.48 1.88.7.7 0 0 1-.66.44zM124.11 173.83a.58.58 0 0 1-.19 0 .72.72 0 0 1-.5-.88 5.56 5.56 0 0 0 .22-1.57 8.78 8.78 0 0 0-3.44-6.41.71.71 0 0 1 .89-1.11 10.12 10.12 0 0 1 4 7.52 7.24 7.24 0 0 1-.27 2 .71.71 0 0 1-.71.45zM129.33 174.44h-.15a.71.71 0 0 1-.55-.85 6.69 6.69 0 0 0 .15-1.44 7.74 7.74 0 0 0-3.51-6.65.71.71 0 1 1 .69-1.25 9.23 9.23 0 0 1 4.24 7.9 8.38 8.38 0 0 1-.18 1.75.71.71 0 0 1-.69.54z"></path><path fill="#AEAEAE" d="M57.08 171.6c2 1.41 4 2.74 6.09 4a73.68 73.68 0 0 0 80.09-4z"></path><path fill="#FFD700" d="M110.08 147.68l-9.72 17.55.22-11.08-6.26-.31 8.62-16.14.38 9.74 6.76.24z"></path><path fill="#666" d="M146.85 96.77c-6-.14-10.78-2.33-14.3-6.49a.72.72 0 0 1 .09-1 .71.71 0 0 1 1 .09 17.08 17.08 0 0 0 13.24 6 .71.71 0 0 1 .69.73.7.7 0 0 1-.72.67z"></path><path fill="#666" d="M128.27 93.07a.71.71 0 1 1 0-1.42 5.39 5.39 0 0 0 3.13-1.14 5.78 5.78 0 0 0 2.28-4.62 5.45 5.45 0 0 0-.84-2.92.72.72 0 0 1 .23-1 .71.71 0 0 1 1 .22 6.9 6.9 0 0 1 1 3.68 7.18 7.18 0 0 1-2.86 5.76 6.68 6.68 0 0 1-3.94 1.44z"></path><path fill="#FFF" d="M123.11 163c.64-2.6 2.41-8 2.64-12.46a16.66 16.66 0 0 1-.66-4.74 3 3 0 0 0-2.67-2.07c-4.62 0-11.25 12.11-11.28 14.53 0 4 4.71 3.77 7 10.91"></path><path fill="#9ABBFF" d="M101.43 129.13l-.1-.59a1.79 1.79 0 0 0-2-1.49l-4.42.7-4.42.71a1.79 1.79 0 0 0-1.48 2l.09.6a1.78 1.78 0 0 0 2 1.48l4.46-.7 4.38-.7a1.8 1.8 0 0 0 1.49-2.01zM90 125.61l4.42-.7 4.43-.71a1.79 1.79 0 0 0 1.48-2l-.09-.6a1.8 1.8 0 0 0-2-1.48l-4.3.68-4.54.72a1.79 1.79 0 0 0-1.48 2l.09.59a1.79 1.79 0 0 0 1.99 1.5z"></path><path fill="#AEAEAE" d="M118.56 175.59a.71.71 0 0 1-.68-.74v-1c0-6.78-3-11.74-8.06-13.26a.67.67 0 0 1-.45-.42.71.71 0 0 1 0-.62c3.53-6 6-11 6.47-20.67a.71.71 0 0 1 1.42.06c-.41 9.53-2.92 14.87-6.22 20.58 5.1 2 8.23 7.37 8.23 14.33v1a.71.71 0 0 1-.71.74z"></path><path fill="#666" d="M93.54 46.42c6 10.16 12.91 24.34 12.91 36.62 0 15.94-10 24.91-19.64 24.91-6.16 0-13-3.49-17.23-9.09-.49-37.95 22.94-51.98 23.96-52.44z"></path><path fill="#FFD700" d="M94.77 115.16l-7.78-9.55-7.01 4.89-3.52-25.12 8.2 11.37 6.55-4.45 3.56 22.86z"></path><path fill="#CACACA" d="M79.14 55.69c6.1-8.5 18.55-14.12 29.92-14 23.88.29 25.72 17.6 26.79 28.44.19 1.95 7.44-2.62 7.44-6.08 0-17.21-23.68-23.94-41.1-23.94-12.88 0-23.47 9.5-23.47 13.79a3.9 3.9 0 0 0 .42 1.79z"></path></g><g viewBox="0 0 200 200" id="error-on-load"><path fill="#D49CFF" d="M24.43,113.89c17.98-0.12,38.44-0.76,53.59-3.34c32.9-5.6,56.58-7.79,80.67-7.17 c4.67,0.12,9.52,0.43,14.31,0.85c0.08-1.4,0.12-2.8,0.12-4.21c0-41.42-33.58-75-75-75c-41.42,0-75,33.58-75,75 C23.13,104.76,23.59,109.39,24.43,113.89z"></path><path fill="#BD79FF" d="M173,104.23c-4.79-0.42-9.65-0.73-14.31-0.85c-24.09-0.63-47.77,1.56-80.67,7.17 c-15.15,2.58-35.6,3.22-53.59,3.34c6.51,34.79,37.02,61.13,73.7,61.13C138.13,175.02,170.82,143.69,173,104.23z"></path><path fill="#FFD61D" d="M148.24,52.39c3.35-2.63,7.79-3.53,11.97-3.45c3.25,0.06,6.09,1.04,8.67,3.03l-2.26,0.79l-8.55,3.14 l-3.54,3.34L142.28,71.5l-5.53,5.77l-0.5-1.39l6.64-11.42c0,0,2.74-5.59,7.21-10.05c0,0-3.68,1.4-5.41,2.73 C144.67,57.16,145.95,54.19,148.24,52.39z"></path><path fill="none" d="M156.38,64.74 c-0.01,0-0.01-0.02,0-0.02"></path><path fill="none" d="M156.38,64.5 c-0.02,0-0.02-0.03,0-0.03"></path><path fill="#9A4DFF" d="M129.27 137.95L127.61 137.91 139.97 112.28 127.44 112.18 119.16 137.74 117.45 137.7 113.16 153.31 129.86 153.65 122.79 148.54z"></path><path fill="#FFD61D" d="M184.39,39.46l-12.91,14c0,0,0.48,2.6,4.47,3.22L184.39,39.46z"></path><path fill="#FFF771" d="M119.07,77.23l7.63,0.36c3.22,0.58,9.54-1.7,9.54-1.7l19.15-19.04c1.2-1.19,2.65-2.11,4.24-2.68 l6.47-2.33c0,0,5.14-5.98,5.7-7.27c2.06,0.59-0.44,7.22-0.44,7.22l7.37,6.26c0,0,3.18,5.88,14.83,13.37l0.9,7.25l-5.33,2.09 l-12.46-6.13c-5.16-0.28-9.63-3.64-9.63-3.64s-12.67,12.34-13.54,24.58c-0.51,7.23-5.66,16.29-6.58,17.5l0,0l5.23,7.85 l-1.57,28.7c0,0-0.9,5.61-7.17,5.01v-28.94l-8.78-10.03c-3.79-0.21-8.73-0.61-15.3-0.93C114.8,103.43,114.91,90.93,119.07,77.23z"></path><path fill="#4620AE" d="M142.51 155.96L158.84 155.96 151.95 151.01 153.03 140.62 142.61 139.74z"></path><path fill="#414042" d="M174.63,60.9c0.09-0.36,0.3-0.67,0.67-0.72c1.05-0.16,0.99,1.91,0.17,2.2c-0.36,0.13-0.66-0.22-0.79-0.51 C174.58,61.6,174.55,61.23,174.63,60.9z"></path><path fill="#414042" d="M192.03,72.22c0.07-0.13,0.32-0.36,0.35-0.21c0.02,0.11,0.47,1.94,0.42,1.95 C192.22,74.07,191.76,72.73,192.03,72.22z"></path><path fill="#4620AE" d="M120.07,78.33c0,0,6.49,17.84,0.15,35.08C119.45,111.36,114.54,98.75,120.07,78.33z"></path><path fill="#414042" d="M193.3,79.14l-3.12-1.87c-0.24-0.14-0.32-0.45-0.17-0.69c0.14-0.24,0.45-0.32,0.69-0.17l3.77,2.27 L193.3,79.14z"></path><path fill="#FFD61D" d="M18.15,88.93c1.11-3.12,0.58-6.4,1.78-9.67c1.06-2.89,2.63-5.52,5.07-7.45 c4.36-3.46,10.5-4.23,15.55-1.85c0.21,0.1,0.42,0.2,0.63,0.31c0.2,0.11,0.4,0.22,0.59,0.32c1.49,0.85,2.77,2,3.88,3.31 c4.76,5.63,10.23,7.35,10.23,7.35c-1.77,2.61-2.58,5.65-2.58,5.65s-11.09-4.65-12.5-5.05c-3.33-0.97-7.55-0.08-9.68,2.66 c-2.56,3.28-3.08,7.76-3.08,7.76c-1.81,8.82-9.62,8.97-9.62,8.97c2.16-2.41,2.43-6.06,2.3-9.71c-0.43,0.56-1.62,2.6-6.19,2.95 C14.51,94.49,17.12,91.83,18.15,88.93z"></path><path fill="#9A4DFF" d="M56.63 139.58L65.76 123.61 63.43 117.8 54.67 115.87 53.98 127.51 48.98 139.41 47.48 139.37 41.23 154.79 57.92 155.12 50.85 150.01 58.41 139.62z"></path><path fill="#FFF771" d="M81.6,76.56c0,0-26.34-2.26-28.97-1.32c-2.15,0.77-8.17,9.6-8.62,11.02c-0.97,3.05-2.28,9.5-1.26,20.71 c0.05,0.54,22.49,15.73,23.22,18.09l-1.62,29.63c5.07,0.84,6.04-4.72,6.04-4.72l6.93-27.71l-5.16-6.19l9.43-1.77 C84.99,104.57,85.87,89.53,81.6,76.56z"></path><path fill="#FF9BEA" d="M57.8,84.36c-0.06-0.66,0.07-1.37,0.44-2.09c1.39-2.68,5.37-2.14,7.12-0.17 c0.74,0.84,1.26,1.91,1.28,3.04c0.05,2.33-1.86,4.29-4.22,3.73C60.25,88.36,57.99,86.57,57.8,84.36z"></path><path fill="#FF9BEA" d="M53.01,92.54c0.35-0.37,0.89-0.59,1.65-0.55c1.82,0.1,3.44,2.32,2.87,4.1 c-0.63,1.94-2.8,1.53-4.04,0.38C52.42,95.48,52.09,93.51,53.01,92.54z"></path><path fill="#CCC" d="M56.93,93.26L56.93,93.26c-0.04-0.06-0.08-0.12-0.12-0.18C56.85,93.14,56.89,93.2,56.93,93.26z"></path><path fill="#CCC" d="M56.93,93.26c0.08,0.1,0.15,0.21,0.22,0.31C57.08,93.47,57.01,93.36,56.93,93.26z"></path><path fill="#FF9BEA" d="M65.57,93.62c0,0,1.79,1.67,0.62,3.23c0,0-1.21,1.94-3.61-0.28c0,0-1.61-1.9,0.19-3.21 C64.28,92.26,65.57,93.62,65.57,93.62z"></path><path fill="#4620AE" d="M62.03 155.96L78.36 155.96 71.17 151.01 73.82 142.49 64.48 139.84z"></path><path fill="#FFCA71" d="M79.3,107.44c0,0,0.91-0.26,2.24,0.04c0.61,0.13,0.58,0.53,0.96,2.43c0.24,1.2,0.42,2.11-1.59,3.06 l-1.16-3.78L79.3,107.44z"></path><path fill="#FFCA71" d="M81.76,91.52c0.81,2.34,2.59,3.54,2.59,3.54s1.15-4.9,5.19-3.5c1.44,0.31,3.3,1.5,4.62,0.33 c0.21-0.18-1.07-0.75-0.68-1.13c0.32-0.31,1.5,0.44,1.83,0.2c0.76-0.56,1.09-0.45,1.64-0.34c0.76,0.16,1.19,0.15,1.27-1.15 c0.03-0.59,0.05-1.92,0.95-3.44l0,0c1.8-3.01,0.83-6.9-2.18-8.7c-3.01-1.8-6.9-0.83-8.7,2.18c-0.42,0.69-0.68,1.44-0.81,2.19 c-0.42,1.28-0.95,2.78-1.83,3.81c-0.62,0.78-1.21,0.6-1.21,0.6l-2.83,0.12C81.6,86.22,80.95,89.18,81.76,91.52z"></path><path fill="#212121" d="M94.84,82.72c-1.79-0.39-2.28,0.37-3.15,1.8c-0.88,1.44-1.89,0.36-1.51-0.28 C90.86,83.1,90.02,82,89,82.6c-1.25,0.74-0.72,2.9-1.15,3.39c-0.43,0.49-2.46-0.64-1.88-1.51c0.58-0.87,1.61-4.25,2.31-4.97 c0.71-0.71,2.73-1.64,5.03-0.14C95.61,80.86,95.92,82.95,94.84,82.72z"></path><g fill="#4620AE"><path d="M95.8,75.18c3.59,0.89,6.32,2.56,4.78,8.77l-13.17-2.83C89.05,74.52,91.3,74.06,95.8,75.18z"></path><path d="M100.58,83.86l4.46,2c0.3,0.16,0.14,0.62-0.19,0.56c-2.07-0.37-6.4-1.22-10.02-3.79L100.58,83.86z"></path></g><circle fill="#231F20" cx="96.23" cy="86.35" r=".33"></circle><path fill="#FBC02D" d="M96.12,85.31c0.31-0.07,0.6-0.07,0.89-0.01c0.3,0.07,0.6,0.21,0.88,0.43c0.18,0.14,0.12,0.28-0.1,0.19 c-0.81-0.3-1.16-0.35-1.76-0.41C95.79,85.48,95.83,85.38,96.12,85.31z"></path><path fill="#212121" d="M96.12,85.31c0.31-0.07,0.6-0.07,0.89-0.01c0.3,0.07,0.6,0.21,0.88,0.43c0.18,0.14,0.12,0.28-0.1,0.19 c-0.81-0.3-1.16-0.35-1.76-0.41C95.79,85.48,95.83,85.38,96.12,85.31z"></path><path fill="#4620AE" d="M81.08,78.04c-0.01-0.05-0.02-0.1-0.03-0.15c0,0-0.23,0.64-0.56,1.79c-0.44,1.51-1.05,3.92-1.55,6.93 c0.98-0.19,1.88-0.31,2.65-0.38l0.01,0c0.28-0.03,0.54-0.05,0.79-0.07C82.09,83.61,81.67,80.9,81.08,78.04"></path><path fill="#9A4DFF" d="M83.03,98.07c-1.26,2.16-2.8,4.11-4.38,5.81c-0.93-6.5-0.46-12.61,0.3-17.27 c0.98-0.19,1.88-0.31,2.65-0.38l0.01,0c0.28-0.03,0.54-0.05,0.79-0.07c1.26-0.09,2.03-0.05,2.03-0.05 c-2.55,3.01,0.85,6.89,0.85,6.89c0,0.01,0,0.01-0.01,0.02C84.73,94.8,83.95,96.49,83.03,98.07"></path><path fill="#4620AE" d="M83.03,98.07c-1.26,2.16-2.8,4.11-4.38,5.81c0.17,1.18,0.38,2.37,0.65,3.57l0,0 c0,0,0.91-0.26,2.24,0.04c0.31,0.07,0.45,0.21,0.57,0.57C82.55,105.59,82.95,102.24,83.03,98.07z"></path><path fill="#FFF" d="M59.31,35.82c1.03,1.06,2.04,1.97,3.62,2.22c1.8,0.53,3.58-0.98,5.38-1.21c2-0.26,4.03,0.89,5.12,2.34 c1.77,2.36,1.2,5.71,4.73,6.46c2.72,0.57,5.25,0.16,8.35,0.39c2.06,0.15,4.61,0.7,5.81,2.38c1.28,1.81,0.35,5.32-0.58,7.39 l-54.08-0.18C43.51,47.68,50.86,40.94,59.31,35.82z"></path><path fill="#D49CFF" d="M59.31,35.82c-0.44-0.45-0.88-0.93-1.37-1.4c-1.63-1.56-3.8-2.98-8.19-2.77 c-3.86,0.18-7.75,2.08-10.11,5.4c-0.01,0.02-0.03,0.04-0.04,0.06c-0.74,1.05-1.31,2.18-1.82,3.33c-0.47,1.06-0.58,2.47-1.61,3.24 c-0.06,0.05-0.12,0.1-0.19,0.15c-1.37,0.81-3.46-0.1-4.86-0.23c-1.36-0.13-2.79-0.16-4.2,0.13c-2.96,0.6-5,2.6-5.62,5.52 c-0.36,1.73,0.46,6.48,0.46,6.48l11.8-0.09l4.11-0.03C43.51,47.68,50.86,40.94,59.31,35.82z"></path></g><g id="escape-hatch"><path d="M21,19c-.18-.45-.17-.43-2-4H17V0H3V10.22A3.3,3.3,0,0,0,5.59,8.44c.52-.92.45-2.17,1.79-2.85a2.89,2.89,0,0,1,2.12,0L15,7v5H13V8.44L10.9,8,14,16h4l1,2H12.5l-2-4L8,16,7,21H5l1-6.18,2.14-2L7,9.8a5.33,5.33,0,0,1-4,2.5S3,20.84,3,21l3,3H7.74L5.47,22H7.59l2.8,2H20l-3-3V19C17.09,19,21,19,21,19ZM6.14,5.2a2,2,0,1,1,2-2A2,2,0,0,1,6.14,5.2Z"></path></g><g id="feature-search"><path d="M20 20c0 1.1-.9 2-2 2H4c-1.1 0-2-.9-2-2V6c0-1.1.9-2 2-2h5.5c-.3.8-.5 1.6-.5 2.5 0 3.6 2.9 6.5 6.5 6.5.8 0 1.5-.1 2.1-.4L20 15v5zm-.7-11.1c.4-.7.7-1.5.7-2.4C20 4 18 2 15.5 2S11 4 11 6.5s2 4.5 4.5 4.5c.9 0 1.7-.3 2.4-.7l3.1 3.1 1.4-1.4-3.1-3.1zm-3.8.1C14.1 9 13 7.9 13 6.5S14.1 4 15.5 4 18 5.1 18 6.5 16.9 9 15.5 9z"></path></g><g id="first-page"><path d="M18.41 16.59L13.82 12l4.59-4.59L17 6l-6 6 6 6zM6 6h2v12H6z"></path></g><g id="last-page"><path d="M5.59 7.41L10.18 12l-4.59 4.59L7 18l6-6-6-6zM16 6h2v12h-2z"></path></g><g viewBox="0 0 200 200" id="no-comments"><path fill="#B3B3B3" d="M57.89,86.77v23.97c0,12.37-15.81,21.3-25.4,25.58c-5.98-10.77-9.39-23.15-9.39-36.34 c0-11.59,2.63-22.57,7.33-32.37L57.89,86.77z"></path><path fill="#CCC" d="M164.79,134.29c-10.08-3.61-26.47-11.43-26.47-24.12V51.03c0-0.85-0.69-1.54-1.54-1.54H60.04 c-1.5,0-2.15,0.43-2.15,2.15v35.14L30.44,67.62C42.52,42.4,68.28,24.98,98.11,24.98c41.42,0,75,33.58,75,75 C173.11,112.35,170.09,124,164.79,134.29z"></path><path fill="#949494" d="M57.89,86.77V51.64c0-1.72,0.64-2.15,2.15-2.15h76.74c0.85,0,1.54,0.69,1.54,1.54v59.14 c0,12.69,16.39,20.51,26.47,24.12c-0.03,0.07-0.07,0.13-0.1,0.2c-14.13-1.65-28.77-2.86-43.4-3.48 c-31.29-1.32-62.52,0.07-88.62,5.63c-0.06-0.1-0.12-0.21-0.18-0.31c9.59-4.28,25.4-13.21,25.4-25.58V86.77"></path><path fill="#CCC" d="M162.65,138.17c0.72-1.21,1.39-2.44,2.04-3.69c-14.13-1.65-28.77-2.86-43.4-3.48 c-31.29-1.32-62.52,0.07-88.62,5.63c0.7,1.25,1.44,2.48,2.21,3.68c13.32,20.84,36.65,34.67,63.22,34.67 c21.07,0,40.09-8.7,53.71-22.68C155.96,148.05,159.61,143.31,162.65,138.17z"></path><path fill="#565656" d="M63.02,146.12v4.68h0.1c0,1.54,15.55,4.02,34.74,4.02s34.74-2.48,34.74-4.02v-4.68H63.02z"></path><path opacity=".25" fill="none" d="M67.62 147.85L67.65 147.94"></path><path opacity=".25" fill="none" d="M67.62 147.85L67.65 147.94"></path><path fill="#565656" d="M41.21,60.88l4.04,2.55l5.58-12.07l-12.8-4l-4.12,8.92l5.59,3.52v83.9c-4.98,0.43-8.61,3.28-8.61,3.28 H49.8c-2.95-2.36-5.91-3.23-8.59-3.33V60.88z"></path><path fill="#565656" d="M150.51,141.24h18.92c0,0-3.51-2.96-8.61-3.3V51.8l1.21-2.56l-8.26-5.32l-8.66,10.24l11.18,7.2l2.81-5.93 v82.51C156.48,138.07,153.55,138.96,150.51,141.24z"></path><ellipse fill="#FFF" cx="97.81" cy="145.96" rx="34.74" ry="4.72"></ellipse></g><g viewBox="0 0 200 200" id="no-held-comments-v2"><path fill="#FFF" d="M148.72 119.48c-.86-1.24-1.69-2.38-2.51-3.43 1-1.53 2.19-2.77 2.19-5.76 0-4.65-2.91-5.06-3.43-9a9.5 9.5 0 0 1-.08-1.25c0-5.11 3.51-5.11 3.51-10.21a8.12 8.12 0 0 0-.42-2.69c-.93-2.65-3.09-3.52-3.09-7.53a9 9 0 0 1 .16-1.74c.48-2.38 1.88-4.41 2.38-6.69H172c.5 2.28 1.91 4.31 2.38 6.69a5.71 5.71 0 0 1 .12.87 8.19 8.19 0 0 1 0 .87c0 2.95-1.17 4.2-2.15 5.71a8.29 8.29 0 0 0-.64 7.89c1 2.14 2.79 3.19 2.79 6.83a9.5 9.5 0 0 1-.08 1.25c-.52 3.9-3.42 4.31-3.42 9 0 5.11 3.5 5.11 3.5 10.22 0 3.89-2 4.82-3 7.31a7.79 7.79 0 0 0-.5 2.9 9.07 9.07 0 0 0 .14 1.65 78.7 78.7 0 0 1-10.79 7.25q-2.24-4.32-4.27-8c-1.29-2.32-2.54-4.47-3.73-6.44s-2.45-3.99-3.63-5.7z"></path><path fill="#E4E4E4" d="M144.45 88.58a.72.72 0 0 1-.58-.3.71.71 0 0 1 .17-1c1.86-1.31 4.1-3.51 4.23-6.52a.72.72 0 0 1 .73-.68.71.71 0 0 1 .68.74c-.11 2.84-1.78 5.48-4.82 7.62a.71.71 0 0 1-.41.14zM144.74 96.94a.72.72 0 0 1-.61-.34.71.71 0 0 1 .23-1c5.83-3.6 9.27-8.3 10.22-14a.71.71 0 0 1 1.4.24c-1 6.1-4.68 11.13-10.87 15a.64.64 0 0 1-.37.1zM143.54 105.62a.72.72 0 0 1-.65-.42.71.71 0 0 1 .36-.94c5.6-2.49 9.57-5.81 11.8-9.88a.71.71 0 0 1 1-.29.72.72 0 0 1 .28 1c-2.38 4.35-6.57 7.88-12.46 10.5a.79.79 0 0 1-.33.03zM165.17 104.86a.7.7 0 0 1-.57-1.14 16 16 0 0 1 9.65-6.1.71.71 0 0 1 .28 1.4 14.56 14.56 0 0 0-8.8 5.57.71.71 0 0 1-.56.27zM162.67 115.5a.69.69 0 0 1-.2 0 .71.71 0 0 1-.49-.87l.18-.57c1.47-4.26 6-7.81 11.59-9a.71.71 0 0 1 .3 1.39c-5.09 1.12-9.24 4.31-10.55 8.12l-.15.48a.71.71 0 0 1-.68.45zM152.9 126.72a.7.7 0 0 1-.61-.35.71.71 0 0 1 .25-1c3-1.8 4.78-4 5.16-6.65a.7.7 0 0 1 .8-.6.71.71 0 0 1 .6.81c-.45 3.05-2.41 5.63-5.84 7.66a.68.68 0 0 1-.36.13zM156.12 132.32a.75.75 0 0 1-.6-.32.72.72 0 0 1 .21-1 12.57 12.57 0 0 0 5.39-6.33.71.71 0 1 1 1.35.45 14 14 0 0 1-6 7.07.71.71 0 0 1-.35.13z"></path><path fill="#6628D4" d="M71.39 108.64l-2.85-5.86-3.27-6.72a11.39 11.39 0 0 1-8.87 4.4c-8.53 0-7.83-7.94-8.85-16.22l23-12.67A21.91 21.91 0 0 0 65 66.35a9.79 9.79 0 0 1-4.21 5.93 10.34 10.34 0 0 1-5.7 1.72 9.16 9.16 0 0 1-1.83-.18 11.25 11.25 0 0 1-4.42-2 14 14 0 0 1-3 5.08c-4.66 4.89-11 1.9-11 7.36 0 1.84.88 4 .88 5.67a2.92 2.92 0 0 1-3 3c-2.45 0-3.66-3.43-3.66-6 0-5.83 6.4-10 10.86-12.82l6.33-4.6a14.25 14.25 0 0 1-1.61-2.26l6.65-4.46a27 27 0 0 0-15.22 4.7 27.85 27.85 0 0 0-5.58 5c-3.3-3.75-7.27-6-12.06-6A19.65 19.65 0 0 0 5.7 71.53 11.64 11.64 0 0 0 1.62 80a10.59 10.59 0 0 0 1.27 5.07 7.81 7.81 0 0 0 6.94 4.33h.78c5.33-.44 7.18-5.48 15.14-8.75a28.13 28.13 0 0 0-1.85 10 28.63 28.63 0 0 0 6.94 18.93 29.65 29.65 0 0 0 20.6 10.22 16 16 0 0 1 4.68-.69 17.12 17.12 0 0 1 2.76.22 62.5 62.5 0 0 0 15.22-5.08z"></path><path fill="#9A43FF" d="M55.79 106.57a17.51 17.51 0 0 1-11.53-4.06.71.71 0 1 1 .93-1.08c6.6 5.63 16.35 4.27 22.58 0a.71.71 0 1 1 .8 1.17 23.16 23.16 0 0 1-12.78 3.97zM57.82 113.72a25 25 0 0 1-10-2 .71.71 0 1 1 .56-1.3 24.93 24.93 0 0 0 22.62-1.8l.26-.17a.71.71 0 0 1 .77 1.2l-.28.18a26.32 26.32 0 0 1-13.93 3.89zM55.82 80.39a.68.68 0 0 1-.51-.22 8.88 8.88 0 0 0-5.85-2.65.71.71 0 0 1 .08-1.42 10.32 10.32 0 0 1 6.8 3.1.7.7 0 0 1-.52 1.19zM61.29 77.37a.71.71 0 0 1-.51-.21 4.71 4.71 0 0 0-3-1.38.71.71 0 1 1 .22-1.41 6.06 6.06 0 0 1 3.79 1.8.72.72 0 0 1 0 1 .69.69 0 0 1-.5.2z"></path><path fill="#CBCBCB" d="M140.81 37.66a28.16 28.16 0 0 0-8.48-12l-.16-.13c7-1.45 14.07-.06 19.42 4.37.22.18.42.36.62.54l7.51-16.63 7.51 16.63.62-.54c5.35-4.43 12.44-5.82 19.43-4.37l-.16.13a28.18 28.18 0 0 0-8.49 12h.09a26 26 0 0 1 19.43 8.85h-.23a33.52 33.52 0 0 0-15.5 3.72c5.77 2.31 9.94 8.36 11.21 14.65a24.67 24.67 0 0 0-12-3.59c-6.45 0-9.77 4.12-9.77 8.34a6.92 6.92 0 0 0 .19 1.59h-24.62a6.92 6.92 0 0 0 .19-1.59c0-4.22-3.31-8.34-9.77-8.34a24.7 24.7 0 0 0-12 3.59c1.28-6.29 5.45-12.34 11.22-14.65a33.58 33.58 0 0 0-15.51-3.72h-.22a26.56 26.56 0 0 1 4.43-4 25.61 25.61 0 0 1 15-4.86z"></path><path fill="#E4E4E4" d="M176.8 101.33h-2.33a9.5 9.5 0 0 0 .08-1.25c0-3.64-1.77-4.69-2.79-6.83a8.29 8.29 0 0 1 .64-7.89 73.09 73.09 0 0 1 4.4 15.97z"></path><path fill="#CBCBCB" d="M176.8 101.33h-2.33c-.52 3.9-3.42 4.31-3.42 9 0 5.11 3.5 5.11 3.5 10.22 0 3.89-2 4.82-3 7.31a7.79 7.79 0 0 0-.5 2.9 9.07 9.07 0 0 0 .14 1.65 65.14 65.14 0 0 0 4.92-4.37v-.18a74.16 74.16 0 0 0 .65-26.49z"></path><path fill="#D09BFF" d="M138 133.13c-4.14-1.16-7.4-3.25-8-7.77a16 16 0 0 1-4 .59 7.63 7.63 0 0 1-7.89-6.71 20.44 20.44 0 0 1-8.39 1.82 12.19 12.19 0 0 1-2-.16c4.58-6.63 10.22-12.47 16.45-14.58a15.2 15.2 0 0 1 4.9-.84c6 0 11.23 2.94 17.2 10.57.82 1 1.65 2.19 2.51 3.43q1.77 2.56 3.68 5.7c1.19 2 2.44 4.12 3.73 6.44s2.78 5.12 4.27 8a102.19 102.19 0 0 1-24.5 9.65 26.26 26.26 0 0 0 .94-2.76 36.4 36.4 0 0 0 1.28-10.1c-.06-1.09-.1-2.19-.18-3.28z"></path><path fill="#CBCBCB" d="M148.4 110.29c0 3-1.2 4.23-2.19 5.76-6-7.63-11.17-10.57-17.2-10.57a15.2 15.2 0 0 0-4.9.84c-.39-1.49-.82-3.18-1.32-5H145c.49 3.91 3.4 4.32 3.4 8.97z"></path><path fill="#B476FF" d="M138 133.13c.09 1.09.13 2.19.13 3.28a36.4 36.4 0 0 1-1.28 10.1c-5-.1-10.15-2.73-12.71-6.73h-.19c-5 0-11.48-3.12-13.4-7.77a15 15 0 0 1-6.11 1.4 12 12 0 0 1-3.68-.57 95.22 95.22 0 0 1 5.1-9.21c.59-.92 1.19-1.84 1.81-2.73a12.19 12.19 0 0 0 2 .16 20.44 20.44 0 0 0 8.39-1.82A7.63 7.63 0 0 0 126 126a16 16 0 0 0 4-.59c.59 4.47 3.85 6.59 8 7.72z"></path><path d="M136.84 146.51a26.26 26.26 0 0 1-.94 2.76 125.65 125.65 0 0 1-27.9 3.87c-1.26-6.15-4.75-11-10.41-13 .82-2.13 1.9-4.64 3.2-7.3a12 12 0 0 0 3.68.57 15 15 0 0 0 6.11-1.4c1.92 4.65 8.4 7.77 13.4 7.77h.19c2.52 4 7.71 6.63 12.67 6.73z" fill="#6628d5"></path><path fill="#B476FF" d="M103.62 88.28a4.94 4.94 0 0 1-.73-2.53v-.23c.13-2.67 2.65-4.4 5.25-4.4a6.85 6.85 0 0 1 .91 0c7.46.81 11.35 11.58 13.73 20.16.5 1.8.93 3.49 1.32 5-6.23 2.11-11.87 8-16.45 14.58-.62.89-1.22 1.81-1.81 2.73a14.58 14.58 0 0 0-1.6-1.86l1.51-11.88.71-5.52a5.94 5.94 0 0 0 .12-1.16 3.72 3.72 0 0 0-1.92-3.32c-1.6-1-3.56-1.6-3.56-4a3.75 3.75 0 0 1 1.41-3.17 4.34 4.34 0 0 1-.32-1.6 3.69 3.69 0 0 1 1.43-2.8z"></path><path fill="#FFF" d="M109.73 75.2l-.67 6a6.85 6.85 0 0 0-.91 0c-2.6 0-5.12 1.73-5.25 4.4h-.65a13.83 13.83 0 0 1-2.82-.25l2.76-10.09z"></path><path fill="#FF80FF" d="M106.59 103.21a5.94 5.94 0 0 1-.12 1.16l-.71 5.52H89.65l-.79-8.56-1.54-16.7A8.38 8.38 0 0 1 92 83.32a9.86 9.86 0 0 1 4.1.82l-5.7 20.78a1.78 1.78 0 0 0 1.25 2.18 1.84 1.84 0 0 0 .47.06 1.78 1.78 0 0 0 1.71-1.3l5.63-20.57a13.83 13.83 0 0 0 2.82.25h.65v.23a4.94 4.94 0 0 0 .73 2.53 3.69 3.69 0 0 0-1.42 2.88 4.34 4.34 0 0 0 .32 1.6 3.75 3.75 0 0 0-1.41 3.17c0 2.35 2 3 3.56 4a3.72 3.72 0 0 1 1.88 3.26z"></path><path fill="#CBCBCB" d="M105.76 109.89l-1.51 11.88a11.56 11.56 0 0 0-8.25-3.48 13.91 13.91 0 0 0-4.38.72c-5.71 1.87-9.5 6.83-14.14 6.83a3.38 3.38 0 0 1-3.48-3.33c0-6.3 12.37-5.93 12.37-17.63a15.79 15.79 0 0 0-.41-3.55h2.87l.79 8.56z"></path><path fill="#B476FF" d="M120 58.12l-8.28-1.82a8.19 8.19 0 0 0-9.67 5.85L101 66.29l-2.49 8.91-2.44 8.94a15.62 15.62 0 0 0 3.36 1.15l2.76-10.09 2.48-9.07.84-3a4.66 4.66 0 0 1 5.49-3.37l8.28 1.82a1.77 1.77 0 1 0 .76-3.46z"></path><path fill="#9A43FF" d="M99.43 85.29l-5.63 20.57a1.78 1.78 0 0 1-1.71 1.3 1.84 1.84 0 0 1-.47-.06 1.78 1.78 0 0 1-1.25-2.18l5.7-20.78a15.62 15.62 0 0 0 3.36 1.15z"></path><path fill="#FFF" d="M98.51 75.2l-2.44 8.94a9.86 9.86 0 0 0-4.1-.82 8.38 8.38 0 0 0-4.65 1.31l-.16-1.8a8.47 8.47 0 0 0 7.73-7.63z"></path><path fill="#FF80FF" d="M86.46 75.2h8.43a8.47 8.47 0 0 1-7.73 7.63z"></path><path fill="#FB21F8" d="M94.93 74.38a8.48 8.48 0 0 0-17 0 8.33 8.33 0 0 0 1.14 4.24 8.46 8.46 0 0 0 7.34 4.25 5.53 5.53 0 0 0 .71 0l-.7-7.63h8.43a7.38 7.38 0 0 0 .08-.86z"></path><path fill="#D09BFF" d="M58.89 119.3a62.5 62.5 0 0 0 15.22-5.08l-2.72-5.58-2.85-5.86-3.27-6.72a11.39 11.39 0 0 1-8.87 4.4c-8.53 0-7.83-7.94-8.85-16.22l23-12.67a34.58 34.58 0 0 1 5.06 10.09 8.07 8.07 0 0 1 1.74-.44h.08a2.36 2.36 0 0 1 .38 0 3.18 3.18 0 0 1 3 3.41 4.85 4.85 0 0 1-2 3.66c.65.8 1.29 1.63 1.91 2.49A29.83 29.83 0 0 1 86 101.33a15.79 15.79 0 0 1 .41 3.55c0 11.7-12.37 11.33-12.37 17.63a3.38 3.38 0 0 0 3.41 3.33c4.64 0 8.43-5 14.14-6.83v20.11a18.47 18.47 0 0 1 6 1c5.66 2 9.15 6.85 10.41 13-1.24 0-2.48.05-3.73.05-3.79 0-7.53-.16-11.19-.47-6.63 7.39-17.35 14.64-25.93 14.64-14.32 0-25.84-19-26-32.11v-.3c0-7.85 4.35-13.32 10.35-15.18a16 16 0 0 1 4.68-.69 17.12 17.12 0 0 1 2.71.24z"></path><path fill="#CBCBCB" d="M29.61 37.66a28.16 28.16 0 0 0-8.48-12l-.13-.09c7-1.45 14.07-.06 19.42 4.37.22.18.43.36.62.54l7.5-16.63L56 30.48l.62-.54c5.35-4.43 12.44-5.82 19.43-4.37l-.16.13a28.18 28.18 0 0 0-8.49 12h.09a25.6 25.6 0 0 1 15 4.91 26.78 26.78 0 0 1 4.51 3.9h-.23a33.52 33.52 0 0 0-15.5 3.72c5.77 2.31 9.94 8.36 11.21 14.65a24.67 24.67 0 0 0-12-3.59 11.56 11.56 0 0 0-5.3 1.17 14.42 14.42 0 0 0-3-7l-.94.63-3.56 2.41L54 61l-2.68 1.81a27 27 0 0 0-15.22 4.7c-.95-3.36-4.14-6.17-9.47-6.17a24.73 24.73 0 0 0-12 3.59c1.28-6.29 5.45-12.34 11.22-14.65a33.58 33.58 0 0 0-15.51-3.72h-.24a26 26 0 0 1 19.42-8.85z"></path><path fill="#E4E4E4" d="M148.4 89.87a8.12 8.12 0 0 0-.42-2.69c-.93-2.65-3.09-3.52-3.09-7.53a9 9 0 0 1 .16-1.74c.48-2.38 1.88-4.41 2.38-6.69a6.92 6.92 0 0 0 .19-1.59c0-4.22-3.31-8.34-9.77-8.34a24.7 24.7 0 0 0-12 3.59c1.28-6.29 5.45-12.34 11.22-14.65a33.58 33.58 0 0 0-15.51-3.72h-.22a26.56 26.56 0 0 1 4.43-4 73.89 73.89 0 0 0-43.15 0 26.78 26.78 0 0 1 4.38 4h-.23a33.52 33.52 0 0 0-15.5 3.72c5.77 2.31 9.94 8.36 11.21 14.65a24.67 24.67 0 0 0-12-3.59 11.56 11.56 0 0 0-5.3 1.17 10.89 10.89 0 0 1 .05 1.54 10.6 10.6 0 0 1-.23 2.35 21.91 21.91 0 0 1 5.57 5.22 34.58 34.58 0 0 1 5.06 10.09 8.07 8.07 0 0 1 1.74-.44h.08a2.36 2.36 0 0 1 .38 0 3.18 3.18 0 0 1 3 3.41 4.85 4.85 0 0 1-2 3.66c.65.8 1.29 1.63 1.91 2.49A29.83 29.83 0 0 1 86 101.33h2.87l-1.54-16.7-.16-1.8a5.53 5.53 0 0 1-.71 0 8.46 8.46 0 0 1-7.34-4.25 8.33 8.33 0 0 1-1.12-4.2 8.48 8.48 0 1 1 17 0 7.38 7.38 0 0 1 0 .82h3.62l2.38-8.91 1.14-4.14a8.19 8.19 0 0 1 9.67-5.85l8.19 1.82a1.77 1.77 0 1 1-.76 3.46L111 59.76a4.66 4.66 0 0 0-5.49 3.32l-.84 3-2.48 9.07h7.54l-.67 6c7.46.81 11.35 11.58 13.73 20.16H145a9.5 9.5 0 0 1-.08-1.25c-.03-5.06 3.48-5.06 3.48-10.19z"></path><path fill="#FB21F8" d="M65.1 62.46a10.89 10.89 0 0 1 .13 1.54 10.6 10.6 0 0 1-.23 2.35 9.79 9.79 0 0 1-4.21 5.93 6.08 6.08 0 0 1-.53-2.55c0-3.07 1.83-6.07 1.83-9.45a10.66 10.66 0 0 0-.85-4.15l.94-.63a14.42 14.42 0 0 1 2.92 6.96z"></path><path d="M61.2 56.13a10.66 10.66 0 0 1 .85 4.15c0 3.38-1.83 6.38-1.83 9.45a6.08 6.08 0 0 0 .53 2.55 10.46 10.46 0 0 1-4.08 1.56 6.63 6.63 0 0 1-.84-3.3c0-3.53 2.17-6.66 2.17-10a6.62 6.62 0 0 0-.32-2.08z" fill="#fbb3ff"></path><path fill="#FF80FF" d="M57.68 58.5a6.62 6.62 0 0 1 .32 2.08c0 3.3-2.17 6.43-2.17 10a6.63 6.63 0 0 0 .84 3.3 10.41 10.41 0 0 1-1.58.12 9.16 9.16 0 0 1-1.83-.18 9 9 0 0 1-.84-3.8c0-3.46 1.92-5 1.92-7.42A4.69 4.69 0 0 0 54 61z"></path><path fill="#FB21F8" d="M54 61a4.69 4.69 0 0 1 .31 1.61c0 2.44-1.92 4-1.92 7.42a9 9 0 0 0 .84 3.8 11.25 11.25 0 0 1-4.42-2 15.9 15.9 0 0 1-2.53-2.33 14.25 14.25 0 0 1-1.61-2.26l6.65-4.46z"></path><path fill="#9A43FF" d="M46.31 69.48a15.9 15.9 0 0 0 2.53 2.33 14 14 0 0 1-3 5.08c-4.66 4.89-11 1.9-11 7.36 0 1.84.88 4 .88 5.67a2.92 2.92 0 0 1-3 3c-2.45 0-3.66-3.43-3.66-6 0-5.83 6.4-10 10.86-12.82z"></path><path fill="#FFF" d="M41.09 135v.3q-2.09-1.45-4-3a9.73 9.73 0 0 0 .12-1.51 7.79 7.79 0 0 0-.5-2.9c-1-2.49-3-3.42-3-7.31 0-3.24 1.4-4.42 2.44-6.15a29.3 29.3 0 0 0 15.31 5.41c-6.02 1.79-10.37 7.26-10.37 15.16z"></path><path fill="#CBCBCB" d="M36.7 127.82c-1-2.49-3-3.42-3-7.31 0-3.24 1.4-4.42 2.44-6.15a29 29 0 0 1-5.29-4.81c-.05 1.07-.08 2.15-.08 3.24a73.68 73.68 0 0 0 1.54 15v.18c1.48 1.46 3.07 2.87 4.74 4.23a9.73 9.73 0 0 0 .12-1.51 7.79 7.79 0 0 0-.47-2.87z"></path><path fill="#9A43FF" d="M76.54 94.05h-.76a.71.71 0 0 1 .14-1.42 6.13 6.13 0 0 0 2-.11 6.29 6.29 0 0 0 2.76-1.42.71.71 0 0 1 .94 1.06 7.69 7.69 0 0 1-3.39 1.74 7.58 7.58 0 0 1-1.69.15z"></path><path fill="#9A43FF" d="M73.65 97.05a.71.71 0 0 1-.32-1.35 2.87 2.87 0 0 0 1.58-2.08 2.7 2.7 0 0 0-.75-2.34.71.71 0 0 1 1-1 4.11 4.11 0 0 1 1.11 3.56A4.3 4.3 0 0 1 74 97a.72.72 0 0 1-.35.05zM64.32 86.91a.72.72 0 0 1-.7-.57A5.61 5.61 0 0 1 66.15 80a5.73 5.73 0 0 1 6.92 1.38.71.71 0 0 1-1 1 4.34 4.34 0 0 0-5.22-1.12A4.22 4.22 0 0 0 65 86.05a.7.7 0 0 1-.55.84zM90.9 156.83a.7.7 0 0 1-.49-.19.71.71 0 0 1 0-1 40.3 40.3 0 0 0 6.37-8.14.71.71 0 0 1 1-.28.72.72 0 0 1 .27 1 41.68 41.68 0 0 1-6.58 8.43.68.68 0 0 1-.57.18zM73.43 145h-.18a.68.68 0 0 1-.45-.36c-5.18-10.32-11.23-15.64-12.73-16.33a.71.71 0 0 1 .58-1.3c1.65.75 7.72 6 13.06 16.25 6-3.82 11.33-5.68 16.15-5.68.55 0 1.11 0 1.65.08a.71.71 0 1 1-.14 1.41c-.49 0-1-.07-1.51-.07-4.72 0-10 1.92-16 5.87a.69.69 0 0 1-.43.13z"></path><path d="M108 153.14a125.65 125.65 0 0 0 27.94-3.87 102.19 102.19 0 0 0 24.5-9.65 78.7 78.7 0 0 0 10.79-7.25 65.14 65.14 0 0 0 4.92-4.37 73.48 73.48 0 0 1-143.77 0q2.22 2.19 4.74 4.23 1.92 1.56 4 3c.17 13.13 11.69 32.11 26 32.11 8.58 0 19.3-7.25 25.93-14.64 3.66.31 7.4.47 11.19.47 1.24.02 2.48 0 3.76-.03z" fill="#eedcff"></path><circle fill="#D09BFF" cx="90.78" cy="166.43" r="1.15"></circle><circle fill="#D09BFF" cx="101.56" cy="157.46" r="1.15"></circle><circle fill="#D09BFF" cx="98.79" cy="180.85" r="1.15"></circle><circle fill="#D09BFF" cx="117.84" cy="178.89" r="1.15"></circle><circle fill="#D09BFF" cx="126.93" cy="167.5" r="1.15"></circle><circle fill="#D09BFF" cx="127.64" cy="156.1" r="1.15"></circle><circle fill="#D09BFF" cx="111.37" cy="166.69" r="1.15"></circle><circle fill="#D09BFF" cx="141.46" cy="169.53" r="1.15"></circle><circle fill="#D09BFF" cx="154.04" cy="160.63" r="1.15"></circle><circle fill="#D09BFF" cx="166.02" cy="141.96" r="1.15"></circle><circle fill="#D09BFF" cx="156.27" cy="148.67" r="1.15"></circle><circle fill="#D09BFF" cx="142.6" cy="157.52" r="1.15"></circle><circle fill="#D09BFF" cx="39.13" cy="139.36" r="1.15"></circle><circle fill="#D09BFF" cx="78.42" cy="174.88" r="1.15"></circle><path fill="#6628D4" d="M135.71 149.1a.91.91 0 0 1-.23 0 .72.72 0 0 1-.45-.9 38.27 38.27 0 0 0 1.69-7.82 46 46 0 0 0-2.55-20.57.72.72 0 0 1 .42-.91.71.71 0 0 1 .91.43 47.53 47.53 0 0 1 2.63 21.2 39.72 39.72 0 0 1-1.75 8.12.7.7 0 0 1-.67.45zM66.24 125.33a.71.71 0 0 1-.59-.3c-2.78-4-6-6.15-9.17-6.15a.71.71 0 0 1 0-1.42c3.71 0 7.28 2.34 10.34 6.76a.7.7 0 0 1-.58 1.11z"></path><path fill="#9A43FF" d="M88.08 130.9a.71.71 0 0 1-.52-1.19c2.56-2.8 6.08-3.18 9.17-3.32a.71.71 0 0 1 .06 1.42c-2.93.13-6 .46-8.19 2.86a.71.71 0 0 1-.52.23z"></path><path fill="#FFF" d="M104.25 121.77a14.58 14.58 0 0 1 1.6 1.86 95.22 95.22 0 0 0-5.1 9.21 93.02 93.02 0 0 0-3.2 7.3 18.47 18.47 0 0 0-6-1V119a13.91 13.91 0 0 1 4.38-.72 11.56 11.56 0 0 1 8.32 3.49z"></path><path fill="#FF80FF" d="M100.4 97.93a.72.72 0 0 1-.66-.46c-1.2-3.13.81-5.51 3.33-6.47a7.72 7.72 0 0 1 8.39 2 .7.7 0 0 1-.07 1 .71.71 0 0 1-1-.06 6.25 6.25 0 0 0-6.81-1.65c-1.81.7-3.42 2.28-2.52 4.64a.71.71 0 0 1-.4.92.8.8 0 0 1-.26.08z"></path><path fill="#FF80FF" d="M101.16 93.49a.7.7 0 0 1-.7-.62 5.87 5.87 0 0 1 3.48-6.33 7.56 7.56 0 0 1 8.38 1.34.72.72 0 0 1 0 1 .71.71 0 0 1-1 0 6.2 6.2 0 0 0-6.8-1.08 4.44 4.44 0 0 0-2.68 4.85.71.71 0 0 1-.61.8z"></path><circle fill="#FFF" cx="92.81" cy="89.23" r="2.63"></circle><circle fill="#FFF" cx="101.78" cy="103.29" r="2.07"></circle><circle fill="#FFF" cx="97.81" cy="106.79" r="1.17"></circle><circle fill="#FFF" cx="97.03" cy="97.27" r="2.03"></circle><path fill="#D09BFF" d="M95.44 89.23a2.67 2.67 0 0 0-.39-1.37l-1 3.7a2.63 2.63 0 0 0 1.39-2.33zM95 97.27a2 2 0 0 0 .72 1.55l1-3.55a2 2 0 0 0-1.72 2z"></path><circle fill="#FFF" cx="90.51" cy="94.83" r="1.28"></circle><circle fill="#FFF" cx="100.57" cy="88.96" r=".94"></circle><path fill="#9A43FF" d="M4.13 87.56a.59.59 0 0 1-.29-.07.7.7 0 0 1-.35-.94c2-4.3 6.82-8.46 11.88-7.69a.7.7 0 0 1 .59.81.69.69 0 0 1-.8.59c-3.27-.49-8 1.75-10.38 6.89a.71.71 0 0 1-.65.41zM2.13 77.59a.7.7 0 0 1-.52-.22.72.72 0 0 1 0-1C4.88 73.35 9.35 72 13 72.89c.27.07.53.15.79.24a.71.71 0 0 1-.47 1.34 6.36 6.36 0 0 0-.66-.2c-3.16-.78-7.21.48-10.06 3.13a.7.7 0 0 1-.47.19z"></path></g><g viewBox="0 0 200 200" id="no-held-comments"><path fill="#FFF771" d="M121.33,115.44l41.17-53.91C149.39,39.65,125.46,25,98.11,25c-8.44,0-16.55,1.42-24.13,3.99l-26.24,96.16 c1.9-0.68,3.98-1.05,6.26-1.05c9.64,0,14.06,4.66,18.98,12.82c1.96-19.37,7.08-37.74,25.35-37.74 C109.29,99.18,116.69,105.43,121.33,115.44z"></path><path fill="#FFE855" d="M73.98,28.99C44.4,39.04,23.11,67.02,23.11,100c0,14.56,4.17,28.13,11.36,39.63 c2.88-6.77,7.11-12.27,13.27-14.48L73.98,28.99z"></path><path fill="#FFAE47" d="M121.33,115.44c3.04,6.57,4.9,14.75,5.79,23.87c2.61-3.4,6.12-5.87,10.88-5.91 c10.2-0.09,16.45,4.73,20.21,11.49C144.52,163.17,122.7,175,98.11,175c-6.99,0-13.74-0.98-20.16-2.76 c-14.47-4.03-27.16-12.28-36.69-23.35c-2.5-2.9-4.76-6-6.8-9.26c2.88-6.77,7.11-12.27,13.27-14.48c1.9-0.68,3.98-1.05,6.26-1.05 c9.64,0,14.06,4.66,18.98,12.82c1.96-19.37,7.08-37.74,25.35-37.74C109.29,99.18,116.69,105.43,121.33,115.44z"></path><path fill="#FFE855" d="M158.2,144.88c-3.76-6.75-10.01-11.58-20.21-11.49c-4.75,0.04-8.27,2.51-10.88,5.91 c-0.89-9.12-2.75-17.3-5.79-23.87l41.17-53.91c6.74,11.25,10.62,24.4,10.62,38.47C173.11,116.83,167.56,132.37,158.2,144.88z"></path><path fill="#FFF771" d="M171.83,113.79l26.03,0.2c0,0,1.31-4.18,1.21-5.7c-0.17-2.58-1.71-4.35-4.22-4.88 c-1.2-0.26-2.45-0.23-3.66-0.13c-1.25,0.11-3.2,0.91-4.3,0.19c-0.99-0.65-0.86-2.01-1.17-3.01c-0.31-1.02-0.68-2.03-1.2-2.96 c-0.01-0.02-0.02-0.04-0.03-0.06c-1.67-2.97-4.88-4.68-8.28-4.87c-1.36-0.08-2.49,0.03-3.47,0.26c0.23,2.38,0.35,4.79,0.35,7.23 C173.09,104.74,172.66,109.34,171.83,113.79z"></path><path fill="#FFF" d="M171.83,113.79c0.82-4.45,1.26-9.04,1.26-13.74c0-2.44-0.12-4.85-0.35-7.23 c-4.61,1.08-5.64,4.87-9.04,5.38c-1.68,0.47-3.08-0.89-4.67-1.11c-1.76-0.24-3.73,0.78-4.87,2.08c-1.87,2.11-1.76,5.11-5.03,5.77 c-2.52,0.51-4.75,0.13-7.58,0.33c-1.88,0.13-4.26,0.61-5.54,2.13c-1.38,1.62-0.87,4.25-0.28,6.11L171.83,113.79z"></path><path fill="#FFF" d="M25.18,117.51l19.33-0.4c0,0-0.21-4.37-0.37-5.1c-0.48-2.21-1.83-4.43-3.75-5.36 c-1.87-0.91-3.79-0.03-5.72-0.25c-0.06-0.01-0.11-0.02-0.16-0.03c-3.66-0.52-4.76-4.07-7.59-5.92c-1.22-0.8-2.55-0.81-3.82-0.41 C23.11,106.05,23.83,111.9,25.18,117.51z"></path><path fill="#FFF771" d="M25.18,117.51l-3.03,0.06l-10.81,0.22c0,0,0,0,0,0l-0.2,0l-9.43,0.2c0,0,0.77-4.8,1.61-6.15 c2.44-3.92,5.94-2.09,9.35-2.99h0.21c0.36-0.1,0.71-0.22,1.06-0.38c2.91-1.36,4.1-5.46,6.88-7.31c0.7-0.47,1.48-0.87,2.28-1.12 C23.11,106.05,23.83,111.9,25.18,117.51z"></path><path fill="#FFF771" d="M46.48,45.64c-1.18-1.05-2.81-1.92-5.84-1.82c-3.02,0.11-6.22,1.53-8.39,4.12 c-0.01,0.02-0.03,0.03-0.04,0.05c-0.7,0.83-1.27,1.74-1.81,2.67c-0.5,0.87-0.74,2.04-1.67,2.68c-0.06,0.04-0.11,0.09-0.18,0.12 c-1.23,0.68-2.86-0.1-4-0.22c-1.12-0.11-2.3-0.14-3.51,0.09c-2.57,0.49-4.62,2.2-5.65,4.77c-0.62,1.55-0.78,5.94-0.78,5.94 l17.77-0.14C36.12,57.1,40.89,50.94,46.48,45.64z"></path><path fill="#FFF" d="M46.48,45.64c1.48,1.31,2.27,2.9,4.24,3.23c1.42,0.43,2.83-0.75,4.24-0.92c1.56-0.19,3.16,0.73,4.03,1.89 c1.45,1.91,1.06,4.68,3.93,5.32c2.21,0.49,4.23,0.15,6.73,0.36c1.66,0.14,3.74,0.6,4.84,2.04c1.19,1.57,0.69,4.15,0.11,6.01 l-37.9,0.3l-4.34,0.03C36.12,57.1,40.89,50.94,46.48,45.64z"></path><path d="M94.49,58.88c0.93,0.88,2.65,1.31,3.44,1.42c1.15,0.17,3.11-0.34,3.69-0.88c0.43-0.4,2.61-0.77,2.22-1.83 c-0.61-1.64-1.03-2.94-1.08-5.04c-0.03-1.23-0.15-3.74-0.31-4.72c-0.12-0.7-9.32-1.53-9.46-0.52c-0.17,1.22-0.24,2.79-0.18,4.07 c0.03,0.64,0.01,1.29-0.07,1.93l-0.59,4.67C92.15,57.97,94.22,58.63,94.49,58.88z"></path><path opacity=".9" fill="#EF6C51" d="M93.56,56.97c0,0,2.21-0.2,2.21-3.39l3.73,0.1c0,0,0.34,3.64,3,3.64 c0,0-1.13,2.11-4.32,2.11C98.17,59.43,94.59,59.38,93.56,56.97z"></path><path fill="#EF6C51" d="M101.66,45.21c-0.83-1.7-2.28-2.84-3.93-2.84c-2.58,0-4.68,2.75-4.69,6.14c0,1.14,0.24,2.2,0.64,3.11 c0.81,1.82,2.31,3.04,4.03,3.04c2.58,0,4.68-2.75,4.69-6.14C102.4,47.31,102.13,46.17,101.66,45.21z"></path><path d="M101.66,45.21c-0.23-0.47-0.51-0.9-0.82-1.27c0.5-0.82,0.31-1.96-0.38-2.65c-1.1-1.1-3.42-0.97-4.77-0.47 c-1.12,0.42-1.78,1.28-1.62,2.63c0.03,0.22,0.12,0.47,0.26,0.71c-0.88,1.1-1.44,2.63-1.44,4.32c0,0.68,7.18,1.27,9.61-0.03 C102.45,46.96,101.99,45.73,101.66,45.21z"></path><path fill="#CE93D8" d="M117.93,81.38c-3.73-0.81-10.62-0.2-11.68-0.09c-0.15-3.57-0.28-7.4-0.37-10.92l0,0.06l6.44-1.38 l-4.15-9.86c-0.33-0.71-0.97-1.23-1.74-1.39l-0.64-0.13c0,0,0.01-0.02,0.01-0.01l-1.64-0.32l-0.26-0.05l0,0l-1.48-0.29 c-0.11-0.02-0.22-0.02-0.32,0.02c-1.25,0.49-3.32,4.27-8.19-0.11c-0.15-0.14-0.37-0.19-0.57-0.12l-1.71,0.61l-1.94,0.4 c-0.77,0.16-1.42,0.67-1.74,1.39l-4.15,9.86l6.26,1.35c-0.22,3.93-0.53,7.62-0.98,10.9c-0.88-0.09-7.78-0.76-11.26,0.14 c-1.3,0.31-2.58,0.79-2.86,2.37c-0.09,0.48,0,0.98,0,1.47c0,1.75,1.39,3.58,3.12,4.01c12.85,3.19,26.29,3.19,39.14,0 c1.73-0.43,3.12-2.26,3.12-4.01c0-0.49,0-0.98,0-1.47C120.33,82.3,118.9,81.54,117.93,81.38z"></path><path fill="#EF6C51" d="M100.25,87.94c2.76,0.15,1.52,1.41,7.37,1.1c1.08-0.06,2.64,0.38,3.12,1.47c0.59,1.34-1.16,1.64-2.2,1.68 c-1.46,0.05-2.91,0.14-4.37,0.16c-0.93,0.01-2.75,0.22-3.62-0.21c-1.1-0.55-2.26-1.25-2.36-2.37 C98.04,88.21,99.53,87.9,100.25,87.94z"></path><path fill="#EF6C51" d="M84.66,69.23l-0.77,2.78l-9.12,8.33l0,0c0,0,0,0.01-0.01,0.01l-0.08,0.07c-0.13,0.1-0.44,0.2-1.03-0.13 c-0.3-0.17-0.61-0.31-0.95-0.37c-0.59-0.12-1.53-0.19-2.51,0.18c-0.38,0.14,0.52,0.84,0.91,0.76c0.13-0.03,0.42-0.12,0.98,0.12 c0,0,0.28,0.14,0.34,0.61c0.1,0.69-0.05,0.56-0.64,1.15c-0.49,0.39-1.5,1.03-1.72-0.32c0,0,0.81-1.47,0-2.08 c-0.05-0.04-0.13-0.03-0.18,0.03c-0.16,0.22-0.49,0.85-0.76,1.31c0,0-0.49,0.69-0.2,1.38c0,0,0.12,0.39,0.52,0.93 c0,0-1.23,0.84-2.04,1.36c0,0-1.45,0.98-0.1,1.39c0,0,1.2,0.49,3.51-0.36c0,0,2.38-0.69,3.83-2.2l1.05-0.82l10.82-7.32 c1.59-1.85,3.04-5.75,3.04-5.75L84.66,69.23z"></path><path fill="#EF6C51" d="M111.39,69.24l0.77,2.78l9.12,8.33l0,0c0,0,0,0.01,0.01,0.01l0.08,0.07c0.13,0.1,0.44,0.2,1.03-0.13 c0.3-0.17,0.61-0.31,0.95-0.37c0.59-0.12,1.53-0.19,2.51,0.18c0.38,0.14-0.52,0.84-0.91,0.76c-0.13-0.03-0.42-0.12-0.98,0.12 c0,0-0.28,0.14-0.34,0.61c-0.1,0.69,0.05,0.56,0.64,1.15c0.49,0.39,1.5,1.03,1.72-0.32c0,0-0.81-1.47,0-2.08 c0.05-0.04,0.13-0.03,0.18,0.03c0.16,0.22,0.49,0.85,0.76,1.31c0,0,0.49,0.69,0.2,1.38c0,0-0.12,0.39-0.52,0.93 c0,0,1.23,0.84,2.04,1.36c0,0,1.45,0.98,0.1,1.39c0,0-1.2,0.49-3.51-0.36c0,0-2.38-0.69-3.83-2.2l-1.05-0.82l-10.82-7.32 c-1.59-1.85-3.04-5.75-3.04-5.75L111.39,69.24z"></path></g><g viewBox="0 0 200 200" width="200" height="200" id="no-search-match-v2"><circle cx="100.31" cy="112.45" r="73.49" fill="#e4e4e4"></circle><path fill="#FFD38F" d="M194.89 65.71c2.67 0 3.76 6.17 3.76 13.77s-1.09 13.77-3.76 13.77z"></path><path fill="#00c4a2" d="M194.89 93.25v2.33l-13.4-1.47V64.89l13.4-1.48v29.84z"></path><path fill="#00A08C" d="M181.49 64.89v29.22l-18.22-2.01-3.35-.37V67.26l21.57-2.37z"></path><path fill="#AEAEAE" d="M156.05 160.38a73.62 73.62 0 0 1-23.52 18.15 63.56 63.56 0 0 1-4.48-12.16c5.63.09 6.58 1.83 9.41 1.83a2.81 2.81 0 0 0 3.11-3.16c0-4.79-8.06-7.45-13.17-7.45h-.58v-.89a27.88 27.88 0 0 1 2.83-12.8 21.12 21.12 0 0 1 1.55-2.61c.61.56 1.24 1.12 1.91 1.63a9.53 9.53 0 0 0 2.6 1.45c1.85.63 3.56.4 4.19-1.44 1.07-3.12-.84-5.79-2.53-7.6a27.62 27.62 0 0 1 15.1-4.09c1 0 2.06 0 3.1.12-.2 2.09-.34 4-.34 6.23 0 4.06.77 10.45 4.84 10.45a3.2 3.2 0 0 0 2.46-1.34c2-2.4 2.79-7.46 2.79-10.49 0-1-.05-2-.14-2.92a29.46 29.46 0 0 1 5 2.2 73.71 73.71 0 0 1-14.13 24.89z"></path><path fill="#FFD38F" d="M147.69 89.07q6.1.56 12.23.93v1.73l3.35.37c0 5.83-.05 14.39-5.42 16.82a8 8 0 0 1-3.35.66h-17.37c-1.34-2.14-2.23-5.11-2.23-9.33 0-3 1.23-7.92 3.17-12.19q4.81.58 9.62 1.01z"></path><path fill="#005652" d="M159.92 69.42V90q-6.12-.37-12.23-.93c.71-2.2 1.63-3.84 1.63-5.83a3.2 3.2 0 0 0-3.32-3.48c-3 0-5.84 3.79-7.89 8.32l-2.59-.32V71.23c8-1 16.06-1.71 24.15-2.22z"></path><path fill="#9A43FF" d="M159.92 69v.43l-.3-.41z"></path><path fill="#FFAE39" d="M137.12 109.6h17.38a8 8 0 0 0 3.35-.66l2.07 16.75h-24.74z"></path><path fill="#FFD38F" d="M146 79.76a3.2 3.2 0 0 1 3.37 3.48c0 2-.92 3.63-1.63 5.83q-4.81-.43-9.63-1c2-4.52 4.89-8.31 7.89-8.31z"></path><path fill="#FFAE39" d="M140.57 165a2.81 2.81 0 0 1-3.11 3.16c-2.83 0-3.78-1.74-9.41-1.83a63.56 63.56 0 0 0 4.48 12.16 73.09 73.09 0 0 1-21.75 6.68l-.49-11.63c10.19-11.92 12.31-28.87 12.33-33v-1.63c2.42 1.56 4.76 3.17 7 4.92a27.88 27.88 0 0 0-2.83 12.8v.89h.58c5.14.07 13.2 2.73 13.2 7.48z"></path><path fill="#00A08C" d="M135.47 73.59v11.82l-6.44-.58V74.16l6.44-.57z"></path><path fill="#FFAE39" d="M133.1 142.92l2.08-17.25h24.74l2.6 21a3.2 3.2 0 0 1-2.46 1.34c-4.07 0-4.84-6.39-4.84-10.45 0-2.21.14-4.14.34-6.23-1-.08-2.07-.12-3.1-.12a27.62 27.62 0 0 0-15.1 4.09c1.69 1.81 3.6 4.48 2.53 7.6-.63 1.84-2.34 2.07-4.19 1.44a9.53 9.53 0 0 1-2.6-1.45zM127.48 63.05h-16.32c.51-10.84-6.08-17.94-13.53-18.23h9.12a24.77 24.77 0 0 1 3.77.29c14.62 2.33 16.96 17.94 16.96 17.94z"></path><path d="M124.92 79.45a53.42 53.42 0 0 1-.69 8.22h-.07a6.82 6.82 0 0 1-7.1-7.15 10 10 0 0 1 6.83-9.23 29 29 0 0 1 1.03 8.16z" fill="#922200"></path><path fill="#FFF" d="M123.85 87.76c-7.65 0-11.65-5.07-11.65-9.47 0-4.67 4.38-8.68 9.9-8.68.41 0 .82 0 1.25.06q.3.78.54 1.62a10 10 0 0 0-6.83 9.23 6.82 6.82 0 0 0 7.1 7.15h.07v.09z"></path><path fill="#FFAE39" d="M97.63 44.82c7.45.29 14 7.39 13.53 18.23H78.82c0-.6-.07-1.22-.07-1.84 0-8.73 3.62-14.65 11.6-16.39z"></path><path d="M110.29 173.58l.49 11.63a74.81 74.81 0 0 1-24-.51l-.3-11.29-.85-31.94h.11c4.29-1 9.44-4.45 12.4-11.14 1.67 5.43 5.17 9.91 10.74 10.32zm-7-8.25a4.45 4.45 0 1 0-4.45 4.45 4.45 4.45 0 0 0 4.42-4.45zm-.71-17.6a4.46 4.46 0 1 0-4.46 4.45 4.46 4.46 0 0 0 4.43-4.45z" fill="#f96400"></path><path fill="#FFAE39" d="M110.52 45.11a24.77 24.77 0 0 0-3.77-.29H101c.26-9.4-3.65-15.75-7-15.75 10.48.16 14.62 8.14 16.52 16.04zM108.49 130.32l.43 10.32c-5.57-.41-9.07-4.89-10.74-10.32z"></path><path fill="#FFF" d="M108.41 122.17c7.51 0 13.68 5.51 14.17 16.82v1.63c0 4.09-2.14 21-12.33 33l-1.37-32.94-.43-10.32-.34-8.14z"></path><path fill="#FFD38F" d="M108.05 119.82l.1 2.36.34 8.14H85.34l-.24-9 6.75.64 13.7 1.3C101.2 103.77 96.62 84.32 91 65.18c18.2 8.72 31 2.46 31.28 2.33a16.52 16.52 0 0 1 1 2.16c-.43 0-.84-.06-1.25-.06-5.52 0-9.9 4-9.9 8.68 0 4.4 4 9.47 11.65 9.47h.37c0 .33-.1.65-.16 1 2.43.26 4.79 1.47 4.79 4.3 0 3-1.73 4.19-4.36 4.34.06.64.12 1.29.17 1.95l-7.43-.85a10 10 0 0 0 7.66 5.66v1c0 8.42-1.86 16.32-9.94 16.32a15.2 15.2 0 0 1-4.61-.71 15.64 15.64 0 0 1-2.3-1z"></path><circle fill="#FFAE39" cx="98.81" cy="165.33" r="4.45"></circle><path fill="#FFAE39" d="M98.09 143.27a4.46 4.46 0 1 1-4.45 4.46 4.46 4.46 0 0 1 4.45-4.46zM86.75 40.21c1.52-7.45 5.14-11.12 7.19-11.14 3.37 0 7.28 6.35 7 15.75H87.87a29.86 29.86 0 0 0-1.14-4.54.25.25 0 0 0 .02-.07z"></path><path fill="#9A43FF" d="M98.17 130.28z"></path><path fill="#FFAE39" d="M85.39 130.32h12.76c-3 6.69-8.11 10.19-12.4 11.14h-.11l-.3-11.15zM90.35 44.82c-8 1.74-11.6 7.66-11.6 16.39 0 .62 0 1.24.07 1.84H60.4A18.5 18.5 0 0 1 76.76 45a18.16 18.16 0 0 1 2.24-.18h11.35zM65.52 177.19a73.87 73.87 0 0 1-24.33-21.1c2.35-12.36 11.88-21.05 24.37-24.24a22.41 22.41 0 0 0-1.79 9c0 9.68 5.36 21.83 21 31.5.58.36 1.17.7 1.76 1l.3 11.29a73.06 73.06 0 0 1-21.31-7.45zM92.72 29.07h1.23c-2 0-5.67 3.69-7.19 11.14a.25.25 0 0 1 0 .07c-1-2.92-2.58-5.44-5-6.7a16.08 16.08 0 0 1 10.96-4.51z"></path><path fill="#FFF" d="M85.64 141.47l.85 31.94c-.59-.33-1.18-.67-1.76-1-15.6-9.67-21-21.82-21-31.5a22.41 22.41 0 0 1 1.79-9 18.25 18.25 0 0 1 14.4-11l.73.07 4.41.42.24 9z"></path><path fill="#FFD38F" d="M80.3 73.85l4.76 19.83c-5.6 0-13.68-5.18-13.68-12.15 0-4.51 3.23-7.87 7.24-7.87a7.44 7.44 0 0 1 1.67.19z"></path><path fill="#9A43FF" d="M80.66 120.73v.15l-.73-.07z"></path><path d="M61.85 68.81a30.29 30.29 0 0 1 1.3 8.61c0 8.23-4.61 13.06-11.62 14.63.58-10.93 4.88-18.38 10.32-23.24z" fill="#922300"></path><path fill="#CBCBCB" d="M42.55 67a73.37 73.37 0 0 1 11.5-11.67 30.68 30.68 0 0 1 4 5.07 20 20 0 0 0-9.74 7.17A24.58 24.58 0 0 1 60 64.71h.38a33.16 33.16 0 0 1 1.51 4.1c-5.44 4.86-9.74 12.31-10.32 23.24a24.05 24.05 0 0 1-4.38.55c-.31-4.44-2.49-11.19-5.9-14.69v1.29A24.92 24.92 0 0 1 38 91.68a23.54 23.54 0 0 1-7.18-3.18A73.3 73.3 0 0 1 42.55 67zM54.17 123.86a27.34 27.34 0 0 1-9.5 17.32 47.88 47.88 0 0 1-9 6.17 73.78 73.78 0 0 1-6.79-52A31 31 0 0 1 43.07 99c7 3.93 11.37 10.93 11.37 20.68a31.54 31.54 0 0 1-.27 4.18z"></path><path fill="#FF8C00" d="M101.4 45.53a.7.7 0 0 1-.68-.73c.2-6.65-1.83-11.18-3.79-13.19a3.73 3.73 0 0 0-2.53-1.31c-1.66 0-6.1 3.95-7.18 11.53a.71.71 0 1 1-1.4-.2C87 33.29 92 28.9 94.39 28.88a5.07 5.07 0 0 1 3.53 1.74c2.17 2.22 4.41 7.12 4.19 14.22a.7.7 0 0 1-.71.69z"></path><path fill="#FF8C00" d="M111.59 63.41a.71.71 0 0 1-.68-.74c.25-5.22-1.22-9.84-4.13-13A12.44 12.44 0 0 0 98 45.53a.71.71 0 1 1 .06-1.42 13.88 13.88 0 0 1 9.69 4.58c3.18 3.46 4.78 8.45 4.51 14a.71.71 0 0 1-.67.72zM79.25 63.76a.71.71 0 0 1-.71-.65c0-.63-.07-1.27-.07-1.9 0-9.44 4.21-15.34 12.16-17.08a.71.71 0 0 1 .84.54.69.69 0 0 1-.54.84c-7.33 1.6-11 6.89-11 15.7 0 .6 0 1.2.07 1.79a.71.71 0 0 1-.65.76zM66 178.14a.72.72 0 0 1-.71-.68c-.51-10.22-2.73-17.65-8.17-27.41a.71.71 0 0 1 1.24-.69c5.56 10 7.82 17.56 8.35 28a.71.71 0 0 1-.67.75z"></path><path fill="#CBCBCB" d="M156.3 160.79a.71.71 0 0 1-.61-.35c-4.48-7.48-10-12.38-13.21-13.36a.71.71 0 1 1 .42-1.36c3.32 1 9.12 5.84 14 14a.7.7 0 0 1-.61 1.07z"></path><path fill="#005652" d="M148.06 97.63a.72.72 0 0 1-.7-.59 22.94 22.94 0 0 1-.39-4 18.47 18.47 0 0 1 1.48-7.04 10.76 10.76 0 0 0 .94-3.8 2.5 2.5 0 0 0-2.65-2.78.71.71 0 1 1 0-1.41 3.91 3.91 0 0 1 4.07 4.19 12.1 12.1 0 0 1-1 4.3 17.19 17.19 0 0 0-1.42 6.5 21 21 0 0 0 .37 3.75.72.72 0 0 1-.57.83z"></path><path fill="#AEAEAE" d="M45.1 141.89a.71.71 0 0 1-.62-.37c-1.53-2.85-4.19-6.72-8.21-9a.71.71 0 0 1-.28-1 .72.72 0 0 1 1-.27 23.25 23.25 0 0 1 8.77 9.54.72.72 0 0 1-.3 1 .76.76 0 0 1-.36.1zM54.61 124.57a.73.73 0 0 1-.51-.21c-3.47-3.52-8.23-5.25-14.54-5.31a.71.71 0 0 1-.71-.72.72.72 0 0 1 .71-.7c6.71.06 11.79 1.94 15.54 5.73a.71.71 0 0 1-.5 1.21zM34.36 112.13a.71.71 0 0 1-.51-1.2c3.44-3.56 6.63-7.13 7.84-11.68.09-.31.16-.63.22-1a.71.71 0 0 1 .84-.55.7.7 0 0 1 .55.83c-.07.35-.15.69-.24 1-1.3 4.89-4.61 8.61-8.19 12.3a.7.7 0 0 1-.51.3zM51.4 77.91a.71.71 0 0 1-.58-.31 63.23 63.23 0 0 0-8.57-10.29.71.71 0 0 1 0-1 .72.72 0 0 1 1 0A64.19 64.19 0 0 1 52 76.8a.69.69 0 0 1-.18 1 .66.66 0 0 1-.42.11z"></path><path fill="#FF8C00" d="M94.14 63.41a.71.71 0 0 1-.71-.71v-18a.71.71 0 1 1 1.42 0v18a.71.71 0 0 1-.71.71z"></path><path fill="#FFD38F" d="M82.31 44.82H79a18.16 18.16 0 0 0-2.23.14 6.64 6.64 0 0 1-4.64-6.52 7 7 0 0 1 .58-2.79 5.75 5.75 0 0 1 5.18-2.93 8.13 8.13 0 0 1 3.8.87c2.47 1.26 4 3.78 5 6.7a29.86 29.86 0 0 1 1.14 4.54z"></path><path fill="#FF8C00" d="M110.42 45.41H75.93a.71.71 0 0 1 0-1.42h34.49a.71.71 0 0 1 0 1.42z"></path><path d="M91.85 121.94l-6.75-.64-4.41-.42v-.15l-.7.08-10-1-9.9-.94a38.18 38.18 0 0 1-8.54-24.33c0-.86 0-1.71.06-2.53 7-1.57 11.62-6.4 11.62-14.63a30.29 30.29 0 0 0-1.3-8.61 31.32 31.32 0 0 1 9.41-5.76h47.09a13.83 13.83 0 0 1 4 4.46c-.25.13-13.08 6.39-31.28-2.33 5.58 19.14 10.16 38.59 14.51 58.06zm-6.79-28.26L80.3 73.85a7.44 7.44 0 0 0-1.67-.19c-4 0-7.24 3.36-7.24 7.87-.01 6.97 8.07 12.14 13.67 12.15z" fill="#cf4000"></path><path fill="#FF8C00" d="M92.28 122.65a.7.7 0 0 1-.68-.54L79.18 70.43a.71.71 0 0 1 .52-.86.72.72 0 0 1 .86.53L93 121.77a.71.71 0 0 1-.52.86zM81.13 121.59a.71.71 0 0 1-.69-.55l-6.27-26.4a.71.71 0 1 1 1.38-.32l6.27 26.39a.71.71 0 0 1-.53.86zM70.34 120.56a.71.71 0 0 1-.69-.53l-3.79-14.92a.72.72 0 0 1 .52-.86.7.7 0 0 1 .86.51L71 119.68a.72.72 0 0 1-.52.86z"></path></g><g viewBox="0 0 200 200" id="no-search-match"><path fill="#CCC" d="M167.28,129.05C155.93,156.04,129.24,175,98.12,175c-34.17,0-62.99-22.86-72.03-54.12 c6.45-0.61,13.18-1.08,19.56-1.23c24.09-0.57,47.77,1.42,80.67,6.52C138,127.99,152.85,128.75,167.28,129.05z"></path><path fill="#747474" d="M171.42,115.87c1.1-5.12,1.7-10.43,1.7-15.88c0-41.42-33.58-75-75-75c-41.42,0-75,33.58-75,75 c0,4.97,0.5,9.82,1.42,14.52c4.31-19.56,13.61-48.07,31.35-48.86c9.28-0.41,15.63,4.99,20,12.95 c2.77-18.3,8.87-34.57,21.76-35.14c17.46-0.77,24.74,18.64,27.93,39.84c2.67-3.11,6.16-5.08,10.75-5.13 C156.69,77.94,161.2,103.44,171.42,115.87z"></path><path fill="#949494" d="M167.28,129.05c1.77-4.21,3.16-8.62,4.14-13.18c-10.22-12.43-14.73-37.93-35.09-37.69 c-4.58,0.05-8.08,2.02-10.75,5.13c-3.19-21.2-10.47-40.61-27.93-39.84c-12.89,0.57-18.99,16.84-21.76,35.14 c-4.37-7.96-10.72-13.36-20-12.95c-17.74,0.78-27.05,29.29-31.35,48.86c0.42,2.16,0.95,4.28,1.55,6.36 c6.45-0.61,13.18-1.08,19.56-1.23c24.09-0.57,47.77,1.42,80.67,6.52C138,127.99,152.85,128.75,167.28,129.05z"></path><path d="M104.32,85.47c-0.93-2.03-3.31-3.25-5.62-1.9c-2.31,1.35-2.32,4.8-2.44,9.09s-0.97,9.65,1.85,11.28s4.43,0.37,5.76-2.44 C105.21,98.7,106.23,89.64,104.32,85.47z"></path><path fill="#9A4DFF" d="M105.12,106.54l0.47-10.19c0.02-0.03,0.04-0.06,0.04-0.06l-0.04-0.03l0,0l0,0l-0.19-0.18 c-1.44-1.3-3.08-2.41-4.86-3.25c-1.2-0.57-2.46-0.98-3.77-1.21l-0.82-0.15c-0.23-0.04-0.46,0.03-0.62,0.19 c-4.31,4.15-7.88,9.8-9.1,14.14l8.62,6.31c1.17-1.95,4.19-6.36,6.74-10.03l0.43,5.36c0.51,1.22,2.44,2.23,3.69,2.65l4.89,2.65 l0.27-3.04L105.12,106.54z"></path><path fill="#EF6C51" d="M93.93,110.08c0,0,3.61,2.95,4.55,1.63c0.93-1.32-2.45-3.78-2.45-3.78L93.93,110.08z"></path><path fill="#EF6C51" d="M98.37,91.1c0.88,1.04,2.1,1.56,3.24,1.24c1.71-0.49,2.56-2.71,1.92-4.95c-0.23-0.81-0.63-1.5-1.12-2.05 C101.65,88.66,99.79,90.31,98.37,91.1z"></path><path d="M96.99,142.32l6.02-20.3l-8.13-9.9l-4.47-3.28l-4.17-3.06l-0.06,0.1l-0.01-0.01c-7.32,8.21-0.65,19.3-0.65,19.3l-8.63,6.4 l-0.01-0.01l-6.69,3.62l3.03,7.66l0.79-5.9l4.61-2.29l0,0l14.32-6.54l-0.51-6.16c1.65,1.35,2.88,2.2,2.88,2.2l-0.79,10.03l0,0 l-1.14,11.57l8.55,0.02L97,142.61L96.99,142.32z"></path><path fill="#9A4DFF" d="M66.54,75.2c0.28-2.64,0.61-5.28,0.98-7.91c0.67-4.84,2.46-11.72,7.98-10.69 c3.97,0.75,3.32,7.83,3.14,10.62c-0.38,5.88-1.66,11.66-2.35,17.5c-0.5,4.2-0.57,8.13-0.33,12.33c0.14,2.38,0.28,4.76,0.45,7.14 c0,0-2.33,8.83-9.29,7.71c-1.79-0.29-1.82-2.02-1.27-2.25c2.96-1.25,3.26-4.46,3.1-6.47c-0.37-4.69-3.28-17.22-3.28-17.22 S66.15,78.78,66.54,75.2z"></path><path fill="#9A4DFF" d="M37.96,111.11c0,0,2.03-6.83,2.2-9.93c0.17-3.22,0.26-5.93,0.17-9.11c-0.15-5.01-1.09-11.51,2.69-15.92 c0.97-1.13,3.68-3.96,4.92-4.94h0c6.04,0.43,10.61,5.29,11.3,12.01l0.52,5.06c-0.54,0.79-1.55,4.47-1.81,5.41 c-1.24,4.5-2.6,9.28-4.29,13.65c-1.16,3-4.15,9.09-4.15,9.09s-2.7,5.27-4.76,9.41c-1.31,2.63-4.67,10.34-4.67,10.34 s3.88,2.47,6.98,4c2.86,1.42,3.91,2.44,2.98,4.87c0,0-11.71-0.77-21.57-3.06L37.96,111.11z"></path><path fill="#D49CFF" d="M87.85,44.38c-4.01-3.68-9.08,0.6-13.06,2.17c-2.43,0.96-3.72,1.27-6.46,1.95l0,0 c-0.55,0.08-1.09,0.21-1.62,0.38c-2.84,0.05-6.18,1.51-8.74,2.88c-2.43,1.29-4.84,2.62-7.24,3.98c-2.46,1.4-6.7,4-8.6,5.18 c-0.64,0.4-1.22,0.88-1.73,1.44c-2.21,2.45-8.74,9.62-11.81,12.19c-1.6,1.34-4.48,3.03-7.28,1.39c-0.52-0.3-1.96,0.77-1.15,2.39 c2.46,4.9,8.34,3.91,10.83,3.23c0.7-0.19,1.35-0.53,1.91-0.99c2.53-2.07,10.57-8.6,11.49-9.02c0.11-0.05,0.21-0.1,0.31-0.14 c-0.79,1.29-1.53,2.55-2.21,3.71c-1.96,3.39-3.06,8.97-2.13,12.68c0.41,1.63,1.22,3.2,2.48,4.51c0.54,1.56,1.15,3.07,1.65,4.46 c1.05,2.94,1.77,5.48,2.57,8.52c0.77,2.93,0.82,9.84,0.82,9.84l-1.09,30.94c10.46,1.38,21.43,0.2,21.43,0.2 c0.18-2.52,0.04-4.52-3.2-5.04c-3.5-0.56-7.46-3.11-7.46-3.11s0.9-8.39,1.4-11.2c0.78-4.43,1.85-10.08,1.85-10.08 s1.11-6.5,1.35-9.6c0.35-4.53,0.25-9.35,0.12-13.88c-0.01-0.29-0.02-0.83-0.03-1.46c0.22-1.63,1.24-5.23,5.91-8.05 c7.24-4.36,10.76-11.87,11.74-15.6l-0.02-0.01c0.12-0.36,0.21-0.74,0.27-1.11c0.18-1.18,0.28-2.36,0.65-3.5 c0.34-1.08,0.94-2.12,1.72-2.98c0.83-0.91,1.87-1.6,2.71-2.5c0.81-0.88,1.01-1.42,1.5-2.09c0.84-1.16,1.53-2.46,2.07-3.78 C89.84,49.68,90.07,46.41,87.85,44.38z"></path><path fill="#EEE" d="M83.93,51.31c-0.92-0.51-1.98-0.75-2.81-0.52c-1.21,0.33-4.48,4.81-2.95,6.36 c1.38,1.39,3.85,3.15,5.53,1.19l1.3-1.51c1.41-1.92,0.95-3.07,0.95-3.07C85.81,52.78,84.96,51.88,83.93,51.31z"></path><path d="M81.04,55.25c0,0-0.38-0.16-0.56-0.6l-0.35,0.15c0.25,0.58,0.75,0.79,0.75,0.79c0.02,0.01,1.73,0.92,2.35,1.76 l0.3-0.22C82.86,56.22,81.13,55.3,81.04,55.25z"></path><path d="M84.58,51.22c-0.44-0.29-0.96-0.28-1.17,0.03c-0.16,0.25,0.23,0.42,0.62,0.63c0.22,0.87-1.37,3.1-2.02,3.9l0.29,0.24 c0.23-0.28,2.05-2.58,2.12-3.9c0.35,0.26,0.41,0.46,0.59,0.18C85.21,51.99,85.02,51.51,84.58,51.22z"></path><ellipse transform="rotate(-18.402 86.195 51.593)" cx="86.2" cy="51.6" rx=".35" ry=".35"></ellipse><ellipse transform="rotate(-18.402 83.201 49.845)" cx="83.21" cy="49.85" rx=".35" ry=".35"></ellipse><g fill="#9A4DFF"><path d="M52.28 136.05L51.49 138.41 50.84 135.81"></path><path d="M54.63 133.76L53.84 136.12 53.19 133.52"></path></g><g fill="#9A4DFF"><path d="M74.77 68.63L72.96 69.94 73.85 67.7"></path><path d="M72.1 69.25L70.29 70.56 71.18 68.32"></path><path d="M74.87 71.3L73.05 72.61 73.95 70.37"></path></g><path fill="#9A4DFF" d="M79.03 48.72L77.15 48.97 78.35 47.76"></path><path fill="#CCC" d="M161.28,59.54l25.37,0.51c0,0,1.2-3.59,0.66-5.43c-1.87-6.34-8.55-2.86-12.87-4.15 c-1.61-0.48-2.43-1.8-3.04-3.27c-0.25-0.62-0.47-1.26-0.68-1.88c-0.03-0.09-0.06-0.18-0.09-0.26c-0.02-0.07-0.05-0.14-0.07-0.2 c-0.08-0.22-0.16-0.44-0.24-0.64c-0.56-1.4-1.3-2.43-2.15-3.15c-3.68-3.12-9.53-0.45-12.93,3.26c-0.87,0.95-1.4,1.2-1.95,1.12 c-0.04-0.01-0.07-0.01-0.11-0.02c-0.59-0.13-1.21-0.62-2.31-1c-0.37-0.13-0.74-0.21-1.11-0.26c-0.09-0.01-0.19-0.02-0.28-0.02 c-0.41-0.02-0.82,0.01-1.22,0.08C153.25,48.72,157.64,53.87,161.28,59.54z"></path><path fill="#FFF" d="M161.28,59.54l-18.71-0.37l-0.33-0.01l-12.48-0.25c0,0-1.47-3.33,0.01-5.23 c2.34-3.02,5.03-1.15,7.64-1.51c1.03-0.14,2.01-0.35,2.85-0.73c0.74-0.33,1.29-0.75,1.74-1.24c0.58-0.63,1-1.4,1.47-2.29 c0.59-1.11,1.5-2.11,2.58-2.8c0.03-0.02,0.06-0.04,0.09-0.05c0.12-0.08,0.25-0.15,0.37-0.21c0.09-0.05,0.17-0.09,0.26-0.13 c0.02-0.01,0.03-0.02,0.05-0.02c0.14-0.06,0.27-0.12,0.41-0.17c0.33-0.13,0.68-0.23,1.03-0.29 C153.25,48.72,157.64,53.87,161.28,59.54z"></path><path d="M110.48,108.12l-1.62,1.33l4.54,6.21c0,0-0.96,1.12,0.9,3.64l4.83-3.85c0,0-2.09-2.21-3.42-1.75L110.48,108.12z"></path><path fill="#EF6C51" d="M112.3,109.11c0,0-3.8,2.28-2.04,4.09c1.07,1.1,3.85-1.89,3.85-1.89L112.3,109.11z"></path><path fill="#FFF" d="M172.16,152.74l0.07-0.01l-53.3-37.15l-4.13,3.39l8.4,37.15l0.08-0.01c0.11,4.69,11.45,8.48,25.42,8.48 c14.04,0,25.43-3.83,25.43-8.55C174.14,154.87,173.43,153.76,172.16,152.74z"></path><path fill="#CCC" d="M141.18,149.66c5.47-0.16,11,0.45,12.52,2.12c-1.71,1.7-7.16,2.24-12.62,2.04 c-5.75-0.22-11.19,0.04-11.83-2.16C128.69,149.71,135.58,149.83,141.18,149.66z"></path><path fill="#CCC" d="M151.06,155.74c5.47-0.16,11,0.45,12.52,2.12c-1.71,1.7-7.16,2.24-12.62,2.04 c-5.75-0.22-11.19,0.04-11.83-2.16C138.56,155.79,145.46,155.91,151.06,155.74z"></path></g><g id="report-off"><path d="M11 7h2v2.92l6.91 6.91 1.09-1.1V8.27L15.73 3H8.27L7.18 4.1 11 7.92zm11.27 14.73l-20-20.01L1 2.99l3.64 3.64L3 8.27v7.46L8.27 21h7.46l1.64-1.63L21 23l1.27-1.27zM12 17.3c-.72 0-1.3-.58-1.3-1.3s.58-1.3 1.3-1.3 1.3.58 1.3 1.3-.58 1.3-1.3 1.3z"></path></g><g id="show-ranking"><path d="M19 5v14H5V5h14m1.1-2H3.9c-.5 0-.9.4-.9.9v16.2c0 .4.4.9.9.9h16.2c.4 0 .9-.5.9-.9V3.9c0-.5-.5-.9-.9-.9zM11 7h6v2h-6V7zm0 4h6v2h-6v-2zm0 4h6v2h-6zM7 7h2v2H7zm0 4h2v2H7zm0 4h2v2H7z"></path></g><g id="trend-down-circle-outline"><path d="M12 2C6.48 2 2 6.48 2 12s4.48 10 10 10 10-4.48 10-10S17.52 2 12 2zm0 18c-4.42 0-8-3.58-8-8s3.58-8 8-8 8 3.58 8 8-3.58 8-8 8zm0-3l4-3.99h-3V6h-2v7.01H8L12 17z"></path></g><g id="trend-down-circle"><path d="M12 22c5.52 0 10-4.48 10-10S17.52 2 12 2 2 6.48 2 12s4.48 10 10 10zm0-3.75l-4-3.99h3V7.25h2v7.01h3l-4 3.99z"></path></g><g id="trend-down"><polygon points="12 19.2 7.2 14.4 10.8 14.4 10.8 6 13.2 6 13.2 14.4 16.8 14.4"></polygon></g><g id="trend-up-circle"><path d="M12 2c5.52 0 10 4.48 10 10s-4.48 10-10 10S2 17.52 2 12 6.48 2 12 2zm0 5l-4 3.99h3V18h2v-7.01h3L12 7z"></path></g><g id="trend-up"><polygon points="12 4.8 7.2 9.6 10.8 9.6 10.8 18 13.2 18 13.2 9.6 16.8 9.6"></polygon></g><g id="web-traffic"><path d="M9,9c0.85,3.1,2.15,6.9,3,10l1.24-3.75L18,20l2-2l-4.7-4.7L19,12C15.9,11.15,12.1,9.9,9,9z"></path><path d="M10,3c0.67,0,1.33,0,2,0c0,1.51,0,1.54,0,3c-0.67,0-1.33,0-2,0C10,4.54,10,4.46,10,3z"></path><path d="M2,12c0-0.67,0-1.33,0-2c1.51,0,1.54,0,3,0c0,0.67,0,1.33,0,2C3.54,12,3.46,12,2,12z"></path><path d="M6.12,14c0.47,0.47,0.94,0.94,1.41,1.41c-1.06,1.06-1.09,1.09-2.12,2.12C4.94,17.06,4.47,16.59,4,16.12 C5.03,15.09,5.09,15.03,6.12,14z"></path><path d="M4,5.88c0.47-0.47,0.94-0.94,1.41-1.41c1.06,1.06,1.09,1.09,2.12,2.12C7.06,7.06,6.59,7.53,6.12,8 C5.09,6.97,5.03,6.91,4,5.88z"></path><path d="M16.59,4.46c0.47,0.47,0.94,0.94,1.41,1.41C16.94,6.94,16.91,6.97,15.88,8c-0.47-0.47-0.94-0.94-1.41-1.41 C15.49,5.56,15.56,5.49,16.59,4.46z"></path></g><g id="zoom-in"><path d="M15.5 14h-.79l-.28-.27A6.471 6.471 0 0 0 16 9.5 6.5 6.5 0 1 0 9.5 16c1.61 0 3.09-.59 4.23-1.57l.27.28v.79l5 4.99L20.49 19l-4.99-5zm-6 0C7.01 14 5 11.99 5 9.5S7.01 5 9.5 5 14 7.01 14 9.5 11.99 14 9.5 14z"></path><path fill="none" d="M0 0h24v24H0V0z"></path><path d="M12 10h-2v2H9v-2H7V9h2V7h1v2h2v1z"></path></g><g id="zoom-out"><path fill="none" d="M0 0h24v24H0V0z"></path><path d="M15.5 14h-.79l-.28-.27A6.471 6.471 0 0 0 16 9.5 6.5 6.5 0 1 0 9.5 16c1.61 0 3.09-.59 4.23-1.57l.27.28v.79l5 4.99L20.49 19l-4.99-5zm-6 0C7.01 14 5 11.99 5 9.5S7.01 5 9.5 5 14 7.01 14 9.5 11.99 14 9.5 14zM7 9h5v1H7z"></path></g></defs></svg>