<svg width='100'  height='100' ><defs><g id="cast-connected"><path d="M1 18v3h3c0-1.66-1.34-3-3-3zm0-4v2c2.76 0 5 2.24 5 5h2c0-3.87-3.13-7-7-7zm18-7H5v1.63c3.96 1.28 7.09 4.41 8.37 8.37H19V7zM1 10v2c4.97 0 9 4.03 9 9h2c0-6.08-4.93-11-11-11zm20-7H3c-1.1 0-2 .9-2 2v3h2V5h18v14h-7v2h7c1.1 0 2-.9 2-2V5c0-1.1-.9-2-2-2z"></path></g><g id="cast"><path d="M21 3H3c-1.1 0-2 .9-2 2v3h2V5h18v14h-7v2h7c1.1 0 2-.9 2-2V5c0-1.1-.9-2-2-2zM1 18v3h3c0-1.66-1.34-3-3-3zm0-4v2c2.76 0 5 2.24 5 5h2c0-3.87-3.13-7-7-7zm0-4v2c4.97 0 9 4.03 9 9h2c0-6.08-4.93-11-11-11z"></path></g><g id="keyboard-arrow-down"><path d="M7.41 7.84L12 12.42l4.59-4.58L18 9.25l-6 6-6-6z"></path></g><g id="keyboard-arrow-up"><path d="M7.41 15.41L12 10.83l4.59 4.58L18 14l-6-6-6 6z"></path></g><g mirror-in-rtl="" id="miniplayer-expand"><path d="M15 3l2.3 2.3-2.89 2.87 1.42 1.42L18.7 6.7 21 9V3zM3 9l2.3-2.3 2.87 2.89 1.42-1.42L6.7 5.3 9 3H3zm6 12l-2.3-2.3 2.89-2.87-1.42-1.42L5.3 17.3 3 15v6zm12-6l-2.3 2.3-2.87-2.89-1.42 1.42 2.89 2.87L15 21h6z"></path></g><g id="pause"><path d="M6 19h4V5H6v14zm8-14v14h4V5h-4z"></path></g><g id="play-arrow"><path d="M8 5v14l11-7z"></path></g><g id="skip-next"><path d="M6 18l8.5-6L6 6v12zM16 6v12h2V6h-2z"></path></g><g id="skip-previous"><path d="M6 6h2v12H6zm3.5 6l8.5 6V6z"></path></g><g id="volume-off"><path d="M16.5 12c0-1.77-1.02-3.29-2.5-4.03v2.21l2.45 2.45c.03-.2.05-.41.05-.63zm2.5 0c0 .94-.2 1.82-.54 2.64l1.51 1.51C20.63 14.91 21 13.5 21 12c0-4.28-2.99-7.86-7-8.77v2.06c2.89.86 5 3.54 5 6.71zM4.27 3L3 4.27 7.73 9H3v6h4l5 5v-6.73l4.25 4.25c-.67.52-1.42.93-2.25 1.18v2.06c1.38-.31 2.63-.95 3.69-1.81L19.73 21 21 19.73l-9-9L4.27 3zM12 4L9.91 6.09 12 8.18V4z"></path></g><g id="volume-up"><path d="M3 9v6h4l5 5V4L7 9H3zm13.5 3c0-1.77-1.02-3.29-2.5-4.03v8.05c1.48-.73 2.5-2.25 2.5-4.02zM14 3.23v2.06c2.89.86 5 3.54 5 6.71s-2.11 5.85-5 6.71v2.06c4.01-.91 7-4.49 7-8.77s-2.99-7.86-7-8.77z"></path></g></defs></svg>