<svg width='323.4'  height='315.6' ><defs><g viewBox="0 0 323.4 315.6" id="certified"><path style="fill:#006635" d="M131.2,323.3s-24.7-2.3-41.9,22c13.2,8.2,19,10.2,19,10.2l-7.7,41.7s33.9-23,53.2-20C149.7,364.1,131.2,323.3,131.2,323.3Z" transform="translate(-89.4 -81.7)"></path><path style="fill:#006635" d="M370.9,323.3s24.7-2.3,41.9,22c-13.2,8.2-19,10.2-19,10.2l7.7,41.7s-33.9-23-53.2-20C352.5,364.1,370.9,323.3,370.9,323.3Z" transform="translate(-89.4 -81.7)"></path><path style="fill:#f3ea24" d="M139.7,314.9c-3.3-4.4-13.4.4-16.1-4.4a146.2,146.2,0,0,1-20.1-74.3c0-81.2,65.8-150.8,147-150.8s147,69.6,147,150.8a146.3,146.3,0,0,1-20.7,75.3c-1.8,3-42.8,8.8-44.8,11.6" transform="translate(-89.4 -81.7)"></path><path style="fill:#5b5423" d="M334.3,326.1l-1.2-2-4.4-3.1c1.6-2.3,5-3.3,24.3-7.2,7.2-1.5,18-3.7,20.8-4.9a143,143,0,0,0,19.8-72.7c0-79.7-65.6-147-143.2-147s-143.2,67.3-143.2,147a143,143,0,0,0,19.6,72.4c0.5,0.5,3.3.5,4.7,0.4,3.8-.1,8.4-0.1,11.2,3.6l-6.1,4.6c-0.5-.6-3.4-0.5-5-0.5-3.8.1-8.9,0.1-11.4-4.2a150.7,150.7,0,0,1-20.6-76.2c0-83.8,69.1-154.6,150.8-154.6s150.8,70.8,150.8,154.6a150.7,150.7,0,0,1-21.3,77.3c-1.5,2.6-4.9,3.6-25.4,7.8C346.8,322.9,336.1,325.1,334.3,326.1Zm39.9-17.4h0Z" transform="translate(-89.4 -81.7)"></path><path style="fill:#006635" d="M374.3,369.4s4.4-50.6,5.9-69.3c-6.1-4.6-59.6-12.9-140.2-15.3-51.3,1.3-65.5,0-119.3,18.9,1.3,19.7,4.8,53.6,5.9,65.1,10.7-3,133.2-21.4,247.7.7" transform="translate(-89.4 -81.7)"></path><path style="fill:#cd2127" d="M345.1,245.5c0,44.4-42.4,80.4-94.7,80.4s-94.7-36-94.7-80.4S198.1,165,250.4,165s94.7,36,94.7,80.4" transform="translate(-89.4 -81.7)"></path><path style="fill:#669941" d="M126.6,368.8c13.4,4.3,22,6.2,27.3,8.4-0.9-2.9-4.5-12.1-4.5-12.1A143.8,143.8,0,0,0,126.6,368.8Z" transform="translate(-89.4 -81.7)"></path><path style="fill:#669941" d="M375.4,369.9c-13.8,3.3-21.8,5-27.1,7.3,2-5.9,4.2-11.5,4.2-11.5A186.2,186.2,0,0,1,375.4,369.9Z" transform="translate(-89.4 -81.7)"></path><path style="fill:#669941" d="M271.4,157.4c-1.6-5.8-8.2-5-9.4-6.7,10.5,14.8-2.3,8.5-6.1,1.8-2.8-5,2-8.1,5-9.9-5.1.2-10.6,1.7-16,7.5,1.1,3.9,2.1,7.6,2.9,10.1l7.8-5c-2.8,3-3.5,5.1-3.1,8,4.7,1.5,9.3,6.1,16.4,10.5-8.4-5.2-15.4-5-19.2-2.9,0.2,3-.3,7-2,13-1.7-4.8-5.6-7.3-11.5-8.9-4.1-1.1-8.2-.5-14.3,3.8,4-5.1,5.9-7.5,7.4-9.9s-0.4-4.8-6.2-7.7c5.6,2.8,8,1.1,9.9-3.1-2.3,4.9-1.5,7.4-.6,8.7a5.3,5.3,0,0,0,4.3,2.2c3.4-.4,5.1-2.8,4.9-6.7-0.8-1.7-.9-5.6-0.4-11.6a37.4,37.4,0,0,1,4.4-15.6c2.4-4.4,4.5-1.7,1.1-6.1l-6.8-2.4c-1.7,5.9-.7,15.1-6,27.4-6.5-3.2-11.4-4.4-15.4-7.5l6.7,9.1q-9.2-.1-13.5,2.3c-2.9,1.5-4.3,4.5-8.4,5.2s-7.2,2.8-15.8-3c3.2,2.1,8.2,8.6,13.8,10.2,7.8,1.6,13.5-5.9,13.7-1.5,0,1.6-1.5,1.5-3.7,1.9-22,4-33.8,24.5-36.8,25.9,22.8-10.4,39.1-20.1,46.9-7.4,1.7,2.8,4.6,6.9-.4,12.6-2.8,3.1-8.9,2.5-28.7,8.2,10.3-3,42.6,14.5,49.4-21.8-0.6,2.9,14.6,7,22,16.1s11.7,16.3,14.1,30.8c1,5.9,2.4-27.6-.8-36.4-4.3-11.7-7.7-12.9-14-16.4,1.2,0.6,2.2-.6,2.8-0.8a53.5,53.5,0,0,1,10.1-1h0.1a60.5,60.5,0,0,1,13.5,1.6h0.8l0.8,0.2,2.1,0.6,1.5,0.4a109.7,109.7,0,0,1,12,4.2c3.8,1.6,7.8,3.4,11.9,5.6s5.3,2.9,8.1,4.4a60.9,60.9,0,0,0-5.6-6.8l-0.9-1c-11-11.2-35.3-23.7-56.8-23.7,5.3,0,10.7,1.2,8-8.6" transform="translate(-89.4 -81.7)"></path><path style="fill:#006635" d="M240.3,126.8a14.8,14.8,0,0,0,3.9.4s2.8-.3,4,1,1.3,1.3.8,5.2a50,50,0,0,1-1.6,7.2l-2.3,9.5,2.9,9.4,8.6-5.1s-4.9,4-3.9,8.7c0,0,6.5,1.2,16.4,10.8,0,0-12.5-6.6-19-2.8,0,0,.7,3.4-2.4,13.6,0,0-2.2-8.1-12.4-9.7,0,0-6.1-1.1-14.7,4.9,0,0,4.7-5.9,8.2-11.1,0,0,1.2-1.2-.1-3.1,0,0-.9-1.9-6.8-5.1,0,0,3.9,1.9,6.8,1.1,0,0,3-.3,4.9-4.9,0,0-2.2,6.8-1.1,9.2a4.4,4.4,0,0,0,3.7,2.5,4.4,4.4,0,0,0,4.7-3.1s0.7-1.1-.1-4.8c0,0-.4-2.6,0-9.4a29.3,29.3,0,0,1,1.8-9.7s1.5-3.4,3.2-8.6c0,0,.9-2.5,0-3.6a2.7,2.7,0,0,0-1.5-.5,6.5,6.5,0,0,1-3.1-1S239.9,126.9,240.3,126.8Z" transform="translate(-89.4 -81.7)"></path></g><g viewBox="0 0 329 346.3" id="fresh"><path style="fill:#cd2127;" d="M414.4,287.2c0,77.2-73.7,139.7-164.5,139.7S85.4,364.4,85.4,287.2s73.7-139.7,164.5-139.7S414.4,210,414.4,287.2" transform="translate(-85.4 -80.6)"></path><path style="fill:#669941" d="M286.5,134.2c-2.7-10-14.2-8.7-16.3-11.6,18.3,25.8-4.1,14.8-10.6,3.2-4.9-8.8,3.4-14.1,8.7-17.3-8.9.3-18.5,2.7-28,13.6-4.6,5.2,4.2,12.7,5.7,17.1l12.9-8.4c-5.5,4.8-5.8,9.4-5,14.6,8.2,2.5,15,5.6,25.7,15.6-15.4-7.1-24.8-7.3-31.4-3.6,0.3,5.3.5,11-2.6,21.4-2.9-8.3-9.3-11.7-19.5-14.5-7.1-1.9-14.5-.5-25.2,6.9,7-8.9,10.6-12.3,13.3-16.3s1.5-8.6-9.7-13.2c8.6,3.5,12.5.7,15.3-4.9-4.2,8.3-2.5,11.6-.8,13.9a10.2,10.2,0,0,0,7.9,4.2c6-.7,8.7-5.2,8.4-11.9-1.3-3-1.5-9.7-.7-20.2s3.3-19.6,7.6-27.3,7.8-3,2-10.5l-11.8-4.1c-2.9,10.3-1.2,26.4-10.4,47.8-11.4-5.5-19.9-7.6-26.7-13l11.7,15.8q-16-.2-23.4,4c-5,2.6-7.5,7.8-14.6,9s-12.5,4.8-27.4-5.2c5.5,3.7,14.2,15.1,24,17.7,13.5,2.8,23.4-10.2,23.7-2.5,0,2.8-2.7,2.7-6.5,3.4-38.3,6.9-58.8,42.6-64.1,45,39.6-18,68-35,81.5-12.9,3,4.9,8.1,12-.8,21.9-4.8,5.4-15.5,4.3-49.9,14.2,17.9-5.2,74.1,25.2,86-38-1,5.1,25.4,12.2,38.2,28,14.4,17.8,20.3,28.3,24.5,53.7,1.7,10.3,4.2-48.1-1.4-63.4-7.5-20.4-13.4-22.5-24.3-28.5,2,1.1,3.8-1.1,4.9-1.4a92.8,92.8,0,0,1,17.6-1.8h0.1a105,105,0,0,1,23.4,2.8l1.3,0.2,1.4,0.3,3.7,1,2.5,0.7a190.6,190.6,0,0,1,20.8,7.4c6.6,2.7,13.5,6,20.6,9.7,4.6,2.3,9.2,5,14,7.7a106,106,0,0,0-9.8-11.9l-1.6-1.8c-19.1-19.5-59.8-41.5-96.1-41.8,9.3,0.1,15.3,1.2,11.3-14.4" transform="translate(-85.4 -80.6)"></path><path style="fill:#006635" d="M232.4,80.8a25.7,25.7,0,0,0,6.8.7s4.9-.6,7,1.8c0,0,2.3,2.3,1.4,9.1,0,0-.2,3.2-2.7,12.6L241,121.6l5,16.3,15-8.8s-8.4,7-6.9,15.1c0,0,11.4,2.1,28.4,18.8,0,0-21.7-11.4-33-4.9,0,0,1.3,5.9-4.2,23.6,0,0-3.9-14.1-21.5-16.8,0,0-10.6-1.9-25.5,8.6,0,0,8.2-10.3,14.2-19.2,0,0,2.1-2.1-.2-5.4,0,0-1.6-3.3-11.9-8.9,0,0,6.8,3.4,11.8,1.9,0,0,5.2-.6,8.6-8.5,0,0-3.8,11.9-1.8,16.1a7.7,7.7,0,0,0,6.4,4.4,7.6,7.6,0,0,0,8.2-5.4s1.2-2-.2-8.4c0,0-.7-4.5.1-16.4,0,0-.1-9.1,3.1-16.9,0,0,2.6-5.9,5.6-14.9,0,0,1.6-4.4,0-6.3,0,0-.4-0.6-2.7-0.9,0,0-3.6-.2-5.4-1.7C234.1,82.8,231.8,81,232.4,80.8Z" transform="translate(-85.4 -80.6)"></path></g><g viewBox="0 0 316.2 300.8" id="rotten"><path style="fill:#92af3c" d="M144.3,262.3s20,4,25.3-8.3c0,0,6.7-10-30-24,0,0-28-6.3-34.7-38.3,0,0-2.3-33.3,31.7-42.3,0,0,30-6.7,37,25,0,0-1,34.3,31,29.7,0,0,23.3-12-10-36.3,0,0-34-18-21-56.7,0,0,8.7-26,44.7-24.3,0,0,36.7,2,38.7,34,0,0,5,11.3-7.7,41.3,0,0-12.7,22.7,9.3,33,0,0,20,5,27-7,0,0,4.3-4.7,8.7-23.7,0,0,.7-14.7,28-28.7,0,0,31-11.3,49.7,17,0,0,18.3,22.3-2.3,56.3,0,0-12,17-47.7,15.7,0,0-34.3-2-22.7,27.3,0,0,3.3,10.3,54.7,16.3,0,0,60,8.7,48.3,66,0,0-6.7,33.3-50,32,0,0-16,1.3-39-33.7,0,0-17.3-38-43-32,0,0-10.3,3.3.7,26.7,0,0,22.7,32-.3,45.7,0,0-18,14.7-51,5,0,0-13.7-3-19.3-40.7,0,0,3-25.7-12-28,0,0-8-5.3-26,17.3,0,0-14.3,21-47.7,9,0,0-28.3-13.3-19-51C95.7,284.7,100,259.3,144.3,262.3Z" transform="translate(-91.9 -84.3)"></path><path style="fill:#3d5e2c" d="M263.2,313c-3.2-29.9,30.8-14.3,36.5-3.8,1,1.8-1.1,6.9-2.1,5.2-6.3-10.9-31.7-20-27.7.3,0.8,3.9,7.7,14.7,8.4,16.7l-1.7,9.9c-10.7-15.5-13.3-26.9-13.4-28.2" transform="translate(-91.9 -84.3)"></path><path style="fill:#3d5e2c" d="M276.7,341.4h-0.1c-10.1-14.7-13.2-26.2-13.5-28.3h0c-1.3-11.7,3.3-15.6,7.3-16.8s10.5-.3,16.9,2.8,10.6,6.8,12.4,10.2c0.8,1.5-.4,5-1.4,5.6a0.6,0.6,0,0,1-.8-0.3c-4-6.9-16.7-13.8-23.7-11.1-3.7,1.4-5,5.3-3.8,11.4,0.5,2.6,3.8,8.3,6.2,12.5,1.1,2,2,3.5,2.3,4.2h0Z" transform="translate(-91.9 -84.3)"></path><path style="fill:#3d5e2c" d="M179.6,157.4c-21.1-21.4-10.5-63,19.2-70.9,21.2-5.6,42.3-.4,55,16.1,7.7,13.5,7.1,28.6,3.8,43.2-2.1,9.3-16.4,35.2-3.8,44.5a23.4,23.4,0,0,0,28.6-.5c5.7-4.6,6.5-16.8,9.2-23.4,8.8-35.8,58.7-47.7,82.1-17.7a31.3,31.3,0,0,1,6.5,13.5c1.4,7.9,10,30.8-12.4,52.4-14.3,13.8-40.3,8.4-58.8,16-5.4,1.5-9.2,5-10.6,9.4-0.4,1.4-1.4,5,2.6,8.9,9.7,9.7,26.9,9.7,39.2,11.6,21.5,3.5,44.2,10.8,57.6,28.8,9.6,13.8,10.9,28.2,9.8,42.5,0,0-2,19.7-23.5,31.2-9,4.8-18.3,8.9-35.1,6.6h0c-26.6-6.2-36.9-35-51.5-55.4,0.4-1.9.5-4.8,1.3-6.7a120.7,120.7,0,0,1,12.2,16c3.5,5.4,7.3,11.1,10.7,15.6,4.9,6.7,8.9,13.9,16.2,17.3,20.8,12.3,54.9,2.9,61.8-20.1,2.3-6.9,2.2-13,1.3-20.8-1.6-13.8-13.2-28.6-24.7-35.5-22.3-13.8-50-9.5-72.6-21.1a20.6,20.6,0,0,1-9.7-11.7c-1.4-4.9.5-12.9,4.2-16.9,12.6-13.7,35.4-7.9,52.7-11.7,27.3-9.6,31.7-49.7,14.4-69.3-4.6-6.5-12.8-11.8-19.8-12.9-16.5-2.3-31.4.5-45,17.8-7.1,9.1-6.9,33.2-19.2,40.9-15,5.8-34.9,2.5-37.6-16.7,0.4-3.5,1-7.7,1.6-10.7,1.9-8.8,6-15.3,8.8-27.2s0.6-30.5-8-39.5c-13.8-14.6-38.6-14.9-54.4-7.4C168,105.1,168,146.2,190,162.3c5.8,4.2,11.5,8.3,17,14s10.1,10.2,8.7,20.5c-2.1,15.8-29.8,13-37.8-.7-6.2-10.6-3.8-30.7-15.4-38.3-7.7-6.9-22.2-9.4-31.8-4.8a36.3,36.3,0,0,0-21.6,22.7c-4.5,14.7,1,40,25.2,49.5,13.5,5.3,32.7,13.2,37.3,22.5,7.2,14.4-14.1,18.1-29.1,15.9s-36.2,3.4-43.2,18.4c-11.9,23.1,3.7,60,40.7,55,13.7-1.8,20.2-16.4,32.6-26,9.4-7.3,21.9-9.5,28.4,5.7,3.8,8.9,1.8,22.2,3.6,31.6,2.3,12,8.7,23.5,18.7,26.8,17.5,5.8,31.2,1.2,42.4-1.8-5.3,1.4-21.2,14.4-40.1,9.5-23.4-6.1-25.9-35-27.8-55.4,0-7.3-3.8-13.9-8.8-14.5-13.7-1.8-24.5,21.8-39.4,26.3-19.8,6-41.3.5-51.3-16.8-8.8-12.7-7.7-30.6-2.2-42.8,7.8-17.2,30.2-20.7,47.7-19.5,13.9,1,19.9-.3,23-5.3s-2.6-9.3-6.4-12.4c-13.8-8.5-30.5-11.4-42.2-22.4-13.5-12.7-18.6-30.5-11.3-49.1,8.1-20.6,32.2-31.9,52.6-19.6,17.7,7.3,15.7,33.9,24.9,45.8,6.6,8.6,24.8,5.6,25-2.3,0.2-14.7-19.8-24.2-29.7-37.4" transform="translate(-91.9 -84.3)"></path><path style="fill:#3d5e2c" d="M234.5,384.1a34.6,34.6,0,0,1-8.8-1.1c-23.2-6.1-25.9-34.3-27.9-55v-0.5c0-7.5-3.8-13.8-8.7-14.5h-1.6c-6.9,0-13.1,6.1-19.7,12.6s-11.6,11.4-18.2,13.4c-21.1,6.4-40.9,0-50.4-16.3a37.4,37.4,0,0,1-6.5-21.1,56.1,56.1,0,0,1,4.2-21.7c3.9-7.8,10.7-13.4,20.3-16.6s20.2-3.3,27-2.7c15.3,1.4,20.6-1.2,24.1-5.7a4.4,4.4,0,0,0,1-3.3c-0.4-3.1-4.1-6-7.1-8.3l-1.3-1a164.2,164.2,0,0,0-18.1-9.1c-8.4-3.8-17.1-7.7-24.5-13.6-12.1-12.1-16.6-31.6-11.1-48.4,5.4-11.2,14.6-19.5,25.3-22.7a33.2,33.2,0,0,1,27.2,3.7c10.6,4.4,13.6,15.6,16.5,26.3,2,7.4,3.8,14.3,7.9,19.2s12.3,7.3,20.2,4.4c3.8-1.4,6-3.9,6-6.8-0.1-10.6-9-18.2-17.6-25.5-4.9-4.2-9.5-8.1-12.6-12.5-9.9-10.1-13.5-26.1-9.2-41.6S185.5,90,198.8,86.5c22.2-5.9,42.8.2,55,16.2,6.6,11.6,7.8,25.4,3.8,43.3a77.5,77.5,0,0,1-2.9,8.6c-4.4,11.7-11,29.3-1.2,36.4s22.7,4.6,29.3-.8c3.8-3,5.2-9.6,6.5-15.4a53.8,53.8,0,0,1,2.2-8.2c4.2-16.9,18-29.8,36.1-33.7a48.4,48.4,0,0,1,24.8,1.1,43.9,43.9,0,0,1,21.3,14.9,31.1,31.1,0,0,1,6.6,13.5c0.2,0.9.4,1.9,0.7,3.1,2.2,9.8,6.9,30.1-13.1,49.3-8.5,8.2-21.4,9.6-33.9,11-8.5.9-17.4,1.9-24.8,5-5.4,1.5-9.2,5-10.5,9.4-0.4,1.2-1.5,4.9,2.5,8.9,7.8,7.8,20.5,9.3,31.6,10.6l7.5,1c27.7,4.4,46.6,13.9,57.7,28.9s10.7,29.9,9.8,42.6c0,0.2-2.2,19.9-23.5,31.3-8,4.3-15.5,6.8-28,6.8-2.2,0-3.3-1-5.9-1.1l0.8,0.5-2.4-1.7c-19.9-6.4-31-21.2-41.3-37.9-3.2-5.2-6.5-10.5-10-15.4h0c0.1-.7.2-1.4,0.3-2.3a19.6,19.6,0,0,1,.9-4.4h0.1a120.1,120.1,0,0,1,12.2,16c3.6,5.7,7.4,11.2,10.7,15.6l2.7,3.8c3.9,5.5,7.5,10.7,13.4,13.5,10.9,6.5,26,7.2,39.5,2,11.3-4.4,19.4-12.4,22.3-22.1,2.3-6.9,2.2-12.8,1.3-20.8-1.6-14.4-13.9-29.1-24.7-35.5s-25.4-9.6-38.6-11.8c-11.5-1.9-23.5-3.9-34.1-9.3a20.6,20.6,0,0,1-9.7-11.7c-1.5-5,.5-13,4.2-17,8.5-9.2,21.6-9.6,34.3-10,6.3-.2,12.7-0.4,18.5-1.7,11.2-3.9,19.6-13.7,23-26.7,4-15.3.6-31.9-8.6-42.4-4.5-6.4-12.6-11.7-19.7-12.9-9.3-1.3-16.7-.8-23.6,1.6s-14.9,8.1-21.4,16.3c-2.9,3.6-4.6,9.8-6.3,16.2-2.6,9.4-5.5,20.1-12.9,24.7-9.7,3.8-20.3,3.4-27.6-.9-5.6-3.3-9.1-8.8-10.1-15.9,0.5-4.1,1.1-8.1,1.6-10.7a81.8,81.8,0,0,1,3.8-11.9,116.1,116.1,0,0,0,4.9-15.3c3.8-16.1-1.2-32.4-7.9-39.5-10.7-11.3-33.9-17.1-54.3-7.4-10.7,5.1-17.8,17.4-18.5,32.1a45.9,45.9,0,0,0,3.5,20.1c2.8,6.5,7.8,13.2,13.1,16.3s11.9,8.6,17.1,14l0.5,0.5c5.4,5.6,9.6,10.1,8.3,20-0.7,5.4-4.6,9.1-10.8,10.4-9,1.8-22-2.2-27.1-11.1-2.4-4.1-3.5-9.6-4.7-15.4-1.8-9-3.7-18.2-10.7-22.9-7.9-7.1-22.4-9.2-31.8-4.8a36.1,36.1,0,0,0-21.6,22.7c-4.4,14.2.6,39.7,25.1,49.4,11.4,4.5,32.5,12.8,37.4,22.5,1.9,3.9,1.9,7.2,0,9.9s-8.1,5.2-12.2,6a56.2,56.2,0,0,1-16.9.2c-15.7-2.2-36.2,3.5-43.1,18.4-6.2,12.1-4.9,28,3.2,39.7a36,36,0,0,0,14.9,12.4,42.1,42.1,0,0,0,22.6,2.9c9.4-1.2,15.2-7.7,21.3-14.7a83.2,83.2,0,0,1,11.3-11.3c6.1-4.7,12.3-6.6,17.6-5.2s8.3,4.9,10.9,10.9,2.4,12.2,2.6,18.9a80.1,80.1,0,0,0,1,12.7c2.1,10.6,8.1,23.2,18.7,26.7,16.2,5.3,29.4,1.7,39.9-1.1l2.4-.7h0a31.8,31.8,0,0,0-5.3,2.5C254.5,379.2,245.3,384.1,234.5,384.1Zm-46.9-71.3h1.6c5,0.7,8.9,7.1,8.9,14.6v0.5c1.9,20.6,4.6,48.8,27.7,54.9,14.5,3.8,27.1-3,34.7-7l3.9-2-0.9.3c-10.6,2.9-23.7,6.5-40,1.1-10.6-3.5-16.7-16.2-18.8-26.8a80.1,80.1,0,0,1-1-12.7c-0.2-6.7-.4-13.5-2.6-18.8s-6.2-9.7-10.8-10.9-11.5.6-17.5,5.2a83.1,83.1,0,0,0-11.3,11.3c-6.1,7-11.9,13.5-21.3,14.7a42.2,42.2,0,0,1-22.7-2.9,36.1,36.1,0,0,1-15-12.4c-8.2-11.7-9.5-27.7-3.2-39.8,6.9-15,27.4-20.7,43.2-18.5,11.1,1.6,24.6,0,29-6.1,1.9-2.7,1.9-5.9,0-9.8-4.9-9.7-26-18-37.3-22.5-24.6-9.7-29.6-35.3-25.2-49.6A36.3,36.3,0,0,1,130.7,153c9.4-4.5,24-2.3,31.9,4.8,7.1,4.7,8.9,14,10.7,23,1.2,5.8,2.3,11.2,4.6,15.4,5.1,8.8,18,12.8,27,11,6.2-1.2,10-4.9,10.7-10.3,1.3-9.9-2.9-14.3-8.2-19.9l-0.5-.5c-5.2-5.4-11.3-10.1-17.5-14.6s-9.9-9.3-12.7-15.8a46,46,0,0,1-3.5-20.2,44.2,44.2,0,0,1,5.1-19,30.4,30.4,0,0,1,13.5-13.2c16.1-7.6,40.8-6.9,54.4,7.4,4,4.2,6.9,10.7,8.3,18.4a53.7,53.7,0,0,1-.4,21.2,116.4,116.4,0,0,1-4.9,15.3,81.8,81.8,0,0,0-3.8,11.9c-0.6,2.7-1.2,6.7-1.6,10.7,1,7,4.4,12.5,10,15.8,7.3,4.3,17.8,4.6,27.5.9,7.3-4.6,10.2-15.2,12.8-24.6,1.8-6.5,3.5-12.6,6.4-16.3,6.5-8.2,13.5-13.6,21.5-16.3s14.4-2.9,23.6-1.6c7.1,1.2,15.3,6.5,19.8,12.9,9.2,10.5,12.6,27.2,8.7,42.5-3.4,13.1-11.8,22.9-23.1,26.9-5.8,1.3-12.2,1.5-18.5,1.7-12.7.4-25.8,0.8-34.2,10-3.7,4-5.7,11.9-4.2,16.9a20.5,20.5,0,0,0,9.6,11.7c10.6,5.4,22.5,7.4,34,9.3,13.2,2.2,26.8,4.4,38.6,11.8s23.1,21.1,24.7,35.6c0.9,8,1,13.9-1.3,20.8-2.9,9.7-11,17.8-22.3,22.2-13.5,5.3-28.6,4.5-39.6-2-5.9-2.8-9.6-8-13.5-13.6l-2.7-3.8c-3.3-4.4-7.1-10-10.7-15.6a120,120,0,0,0-12.1-15.9,19.9,19.9,0,0,0-.9,4.3c-0.1.8-.2,1.6-0.3,2.2,3.5,4.9,6.8,10.2,9.9,15.4,10.3,16.7,21.7,34.5,42,39.1h0.8c17,1.1,24.4-.8,33.8-5.8,21.3-11.3,23.4-31,23.5-31.2,0.9-12.7.5-27.7-9.8-42.5s-30-24.4-57.6-28.8l-7.5-1c-11.2-1.3-23.9-2.8-31.7-10.6-4.1-4.1-2.9-7.8-2.6-9,1.4-4.5,5.2-8,10.6-9.5,7.5-3.1,16.3-4.1,24.9-5,12.5-1.4,25.4-2.8,33.8-11,19.9-19.2,15.2-39.4,13-49.2-0.3-1.2-.5-2.3-0.7-3.1a30.9,30.9,0,0,0-6.5-13.4A43.7,43.7,0,0,0,352.4,134a48.2,48.2,0,0,0-24.8-1.1c-18.1,3.9-31.9,16.7-36,33.6a53.5,53.5,0,0,0-2.2,8.1c-1.3,5.8-2.8,12.4-6.6,15.5-6.7,5.4-18.4,8.9-29.5.8s-3.2-24.8,1.2-36.5a77.4,77.4,0,0,0,2.9-8.5c4.1-17.9,2.9-31.6-3.7-43.2-12.2-15.9-32.7-22-54.9-16.1-13.2,3.5-23.5,14.4-27.6,29.1s-0.7,31.4,9.2,41.5h0c3,4.4,7.6,8.3,12.5,12.5,8.7,7.3,17.6,14.9,17.7,25.6,0,3-2.2,5.5-6.1,7-6.3,2.3-15.6,1.3-20.4-4.4s-6-11.9-8-19.3c-2.9-10.8-5.9-21.9-16.4-26.3a33,33,0,0,0-27.1-3.7c-10.7,3.2-19.9,11.4-25.2,22.6-5.5,16.8-1,36.2,11.1,48.3,7.4,5.8,16.1,9.7,24.5,13.5a164,164,0,0,1,18.2,9.1l1.3,1c3,2.3,6.7,5.2,7.1,8.4a4.6,4.6,0,0,1-1.1,3.4c-3.6,4.6-8.9,7.2-24.3,5.8-8.4-.7-36.8-1.6-47.2,19.2a56,56,0,0,0-4.2,21.6,37.3,37.3,0,0,0,6.5,21c9.4,16.3,29.1,22.7,50.2,16.3,6.6-2,12.5-7.8,18.2-13.4S180.6,312.7,187.5,312.7Z" transform="translate(-91.9 -84.3)"></path><path style="fill:#3d5e2c" d="M278.4,331.4c8.5,11.9,10.5,31.5.4,41.9-12.4,12.9-38.9,13.6-53,9.6,10.5,3,22.7-.4,32.3-6.9,12.7-6.1,22.2-13.9,18.6-32.7l-3.5-7.6Z" transform="translate(-91.9 -84.3)"></path></g></defs></svg>