<svg xmlns:xlink="http://www.w3.org/1999/xlink" xmlns="http://www.w3.org/2000/svg" viewBox="0 0 24 24" preserveAspectRatio="xMidYMid meet" focusable="false" class="style-scope yt-icon" style="pointer-events: none; display: block; width: 100%; height: 100%;" width="24"  height="24" ><g class="style-scope yt-icon" fill="#3EA6FF"><path d="M12,3c3.31,0,6,2.69,6,6c0,3.83-4.25,9.36-6,11.47C9.82,17.86,6,12.54,6,9C6,5.69,8.69,3,12,3 M12,2C8.13,2,5,5.13,5,9 c0,5.25,7,13,7,13s7-7.75,7-13C19,5.13,15.87,2,12,2L12,2z M12,7c1.1,0,2,0.9,2,2s-0.9,2-2,2s-2-0.9-2-2S10.9,7,12,7 M12,6 c-1.66,0-3,1.34-3,3s1.34,3,3,3s3-1.34,3-3S13.66,6,12,6L12,6z" class="style-scope yt-icon" fill="#3EA6FF"></path></g></svg>